<svg width="32" height="32" viewBox="0 0 32 32" fill="none" xmlns="http://www.w3.org/2000/svg">
<g clip-path="url(#clip0_437_11066)">
<path d="M5.15283 17.8983H6.23758V20.6102H5.15283V17.8983Z" fill="#B3B3B3"/>
<path d="M8.94929 21.1525H2.44081C2.14129 21.1525 1.89844 20.9097 1.89844 20.6102V18.4407C1.89844 18.1411 2.14129 17.8983 2.44081 17.8983H4.06793V18.983H2.98318V20.0678H8.40691V18.983H7.32217V17.8983H8.94929C9.24881 17.8983 9.49166 18.1411 9.49166 18.4407V20.6102C9.49166 20.9097 9.24881 21.1525 8.94929 21.1525Z" fill="#808080"/>
<path d="M3.52539 0.542374H7.86437V6.50848H3.52539V0.542374Z" fill="#B3B3B3"/>
<path d="M0.270996 20.0678H11.1185V32H0.270996V20.0678Z" fill="#B3B3B3"/>
<path d="M21.9663 7.05084H31.729V32H21.9663V7.05084Z" fill="#A1D4DB"/>
<path d="M21.9663 7.05084H31.729V14.6441H21.9663V7.05084Z" fill="#6CBBC7"/>
<path d="M23.5933 9.76271H24.678V11.9322H23.5933V9.76271Z" fill="#E6E6E6"/>
<path d="M23.5933 17.3559H24.678V19.5254H23.5933V17.3559Z" fill="#E6E6E6"/>
<path d="M0.270996 20.0678H11.1185V23.322H0.270996V20.0678Z" fill="#E6E6E6"/>
<path d="M2.44081 21.1525C2.74033 21.1525 2.98318 21.3954 2.98318 21.6949C2.98318 21.9944 2.74033 22.2373 2.44081 22.2373C2.14129 22.2373 1.89844 21.9944 1.89844 21.6949C1.89844 21.3954 2.14129 21.1525 2.44081 21.1525Z" fill="#B3B3B3"/>
<path d="M4.61024 21.1525C4.90977 21.1525 5.15262 21.3954 5.15262 21.6949C5.15262 21.9944 4.90977 22.2373 4.61024 22.2373C4.31072 22.2373 4.06787 21.9944 4.06787 21.6949C4.06787 21.3954 4.31072 21.1525 4.61024 21.1525Z" fill="#B3B3B3"/>
<path d="M6.77968 21.1525C7.0792 21.1525 7.32205 21.3954 7.32205 21.6949C7.32205 21.9944 7.0792 22.2373 6.77968 22.2373C6.48015 22.2373 6.2373 21.9944 6.2373 21.6949C6.2373 21.3954 6.48015 21.1525 6.77968 21.1525Z" fill="#B3B3B3"/>
<path d="M8.94911 21.1525C9.24863 21.1525 9.49148 21.3954 9.49148 21.6949C9.49148 21.9944 9.24863 22.2373 8.94911 22.2373C8.64959 22.2373 8.40674 21.9944 8.40674 21.6949C8.40674 21.3954 8.64959 21.1525 8.94911 21.1525Z" fill="#B3B3B3"/>
<path d="M0.270996 9.76271H11.1185V8.13559L8.94896 5.96609H2.44049L0.270996 8.13559V9.76271Z" fill="#E6E6E6"/>
<path d="M2.44043 25.4915H8.9489V29.8305H2.44043V25.4915Z" fill="#FFE9CC"/>
<path d="M11.1187 20.0678H21.9661V23.8644H11.1187V20.0678Z" fill="#FFD2A6"/>
<path d="M11.1187 23.322H16.5424V32H11.1187V23.322Z" fill="#E6E6E6"/>
<path d="M16.5425 23.322H21.9662V32H16.5425V23.322Z" fill="#B3B3B3"/>
<path d="M15.4575 21.1525H17.627V22.2373H15.4575V21.1525Z" fill="#808080"/>
<path d="M13.8306 26.5763H14.9153V28.7458H13.8306V26.5763Z" fill="#808080"/>
<path d="M18.1694 26.5763H19.2542V28.7458H18.1694V26.5763Z" fill="#808080"/>
<path d="M13.8306 0H14.9153V11.3898H13.8306V0Z" fill="#808080"/>
<path d="M17.627 0H18.7117V7.05085H17.627V0Z" fill="#808080"/>
<path d="M12.7456 13.0169V12.4746C12.7456 11.576 13.4742 10.8475 14.3727 10.8475C15.2713 10.8475 15.9998 11.576 15.9998 12.4746V13.0169H12.7456Z" fill="#E23B47"/>
<path d="M16.5425 8.67796V8.13559C16.5425 7.23702 17.271 6.50847 18.1696 6.50847C19.0682 6.50847 19.7967 7.23702 19.7967 8.13559V8.67796H16.5425Z" fill="#E23B47"/>
</g>
<defs>
<clipPath id="clip0_437_11066">
<rect width="32" height="32" fill="white"/>
</clipPath>
</defs>
</svg>
