<svg width="56" height="48" viewBox="0 0 56 48" fill="none" xmlns="http://www.w3.org/2000/svg">
<g clip-path="url(#clip0_103_22487)">
<path d="M44.5298 0.00415039H10.4023V47.9958H44.5298V0.00415039Z" fill="#B8BBC8"/>
<path d="M39.7322 4.27002H15.7363V47.9958H39.7322V4.27002Z" fill="#E4E5E3"/>
<path d="M26.401 7.46948H18.4023V19.734H26.401V7.46948Z" fill="#346AE5"/>
<path d="M37.065 7.46948H29.0664V19.734H37.065V7.46948Z" fill="#346AE5"/>
<path d="M26.401 21.3337H18.4023V47.9958H26.401V21.3337Z" fill="#346AE5"/>
<path d="M37.065 21.3337H29.0664V47.9958H37.065V21.3337Z" fill="#346AE5"/>
<path d="M56.7951 28.2659H-0.794922V30.9321H56.7951V28.2659Z" fill="#9B9EAA"/>
<path d="M-0.79511 47.9958H1.87109L1.87109 30.9321H-0.79511L-0.79511 47.9958Z" fill="#9B9EAA"/>
<path d="M54.1287 47.9958H56.7949V30.9321H54.1287V47.9958Z" fill="#9B9EAA"/>
<path d="M48.2635 47.9958H50.9297V30.9321H48.2635V47.9958Z" fill="#9B9EAA"/>
<path d="M43.4647 47.9958H46.1309V30.9321H43.4647V47.9958Z" fill="#9B9EAA"/>
<path d="M38.1326 47.9958H40.7988V30.9321H38.1326V47.9958Z" fill="#9B9EAA"/>
<path d="M33.3318 47.9958H35.998V30.9321H33.3318V47.9958Z" fill="#9B9EAA"/>
<path d="M29.0662 47.9958H31.7324L31.7324 30.9321H29.0662L29.0662 47.9958Z" fill="#9B9EAA"/>
<path d="M24.2674 47.9958H26.9336L26.9336 30.9321H24.2674L24.2674 47.9958Z" fill="#9B9EAA"/>
<path d="M18.9354 47.9958H21.6016L21.6016 30.9321H18.9354L18.9354 47.9958Z" fill="#9B9EAA"/>
<path d="M14.1365 47.9958H16.8027L16.8027 30.9321H14.1365L14.1365 47.9958Z" fill="#9B9EAA"/>
<path d="M8.80255 47.9958H11.4688L11.4687 30.9321H8.80255L8.80255 47.9958Z" fill="#9B9EAA"/>
<path d="M4.53692 47.9958H7.20312L7.20312 30.9321H4.53692L4.53692 47.9958Z" fill="#9B9EAA"/>
<path d="M56.7951 45.3296H-0.794922V47.9958H56.7951V45.3296Z" fill="#9B9EAA"/>
</g>
<defs>
<clipPath id="clip0_103_22487">
<rect width="57.59" height="47.9917" fill="white" transform="translate(-0.794922 0.00415039)"/>
</clipPath>
</defs>
</svg>
