<svg width="56" height="56" viewBox="0 0 56 56" fill="none" xmlns="http://www.w3.org/2000/svg">
<g clip-path="url(#clip0_103_22613)">
<path d="M50.7015 56.6454H4.21514C3.79111 56.6454 3.44727 56.3016 3.44727 55.8776V51.1169H51.4694V55.8776C51.4694 56.3017 51.1257 56.6454 50.7015 56.6454Z" fill="#64798A"/>
<path d="M52.5519 -0.645264H30.1216H25.8785H3.44821H-0.794922V3.59799V48.9955V53.2387H3.44821H25.8785H30.1216H52.5519H56.7951V48.9955V3.59799V-0.645264H52.5519ZM3.44821 48.9955V3.59799H25.8785V48.9955H3.44821ZM52.5519 48.9955H30.1216V3.59799H52.5519V48.9955Z" fill="#D6D9DB"/>
<path d="M25.8805 3.5979H3.45117V48.9941H25.8805V3.5979Z" fill="#C18E5C"/>
<path d="M52.5504 3.5979H30.1211V48.9941H52.5504V3.5979Z" fill="#C18E5C"/>
<path d="M38.6604 25.5128C38.6604 26.3575 38.3148 27.1253 37.762 27.6858C37.2015 28.2386 36.4336 28.5842 35.589 28.5842C34.2146 28.5842 33.0396 27.6627 32.6481 26.4112C32.5636 26.1271 32.5176 25.8276 32.5176 25.5128C32.5176 24.6682 32.8631 23.9003 33.4159 23.3398C33.9765 22.787 34.7444 22.4414 35.589 22.4414C36.234 22.4414 36.8406 22.6487 37.3397 22.9866C37.4933 23.0941 37.6315 23.2093 37.762 23.3398C38.3148 23.9003 38.6604 24.6682 38.6604 25.5128Z" fill="#FFBE5F"/>
<path d="M37.4703 23.8849C37.4703 24.7297 37.1247 25.4974 36.5642 26.058C36.0113 26.6107 35.2434 26.9563 34.3988 26.9563C33.746 26.9563 33.1395 26.749 32.6481 26.4112C32.5636 26.1271 32.5176 25.8276 32.5176 25.5128C32.5176 24.6682 32.8631 23.9003 33.4159 23.3398C33.9765 22.787 34.7444 22.4414 35.589 22.4414C36.234 22.4414 36.8406 22.6487 37.3397 22.9866C37.4243 23.2707 37.4703 23.5701 37.4703 23.8849Z" fill="#CDA57D"/>
<path d="M23.4826 25.5128C23.4826 26.3575 23.1371 27.1253 22.5843 27.6858C22.0237 28.2386 21.2558 28.5842 20.4112 28.5842C19.0368 28.5842 17.8619 27.6627 17.4703 26.4112C17.3858 26.1271 17.3398 25.8276 17.3398 25.5128C17.3398 24.6682 17.6854 23.9003 18.2382 23.3398C18.7987 22.787 19.5666 22.4414 20.4112 22.4414C21.0563 22.4414 21.6629 22.6487 22.162 22.9866C22.3156 23.0941 22.4538 23.2093 22.5843 23.3398C23.1371 23.9003 23.4826 24.6682 23.4826 25.5128Z" fill="#FFBE5F"/>
<path d="M22.2926 23.8849C22.2926 24.7297 21.947 25.4974 21.3865 26.058C20.8335 26.6107 20.0657 26.9563 19.221 26.9563C18.5683 26.9563 17.9617 26.749 17.4703 26.4112C17.3858 26.1271 17.3398 25.8276 17.3398 25.5128C17.3398 24.6682 17.6854 23.9003 18.2382 23.3398C18.7987 22.787 19.5666 22.4414 20.4112 22.4414C21.0563 22.4414 21.6629 22.6487 22.162 22.9866C22.2464 23.2707 22.2926 23.5701 22.2926 23.8849Z" fill="#CDA57D"/>
</g>
<defs>
<clipPath id="clip0_103_22613">
<rect width="57.59" height="57.59" fill="white" transform="translate(-0.794922 -0.794922)"/>
</clipPath>
</defs>
</svg>
