<svg width="36" height="36" viewBox="0 0 36 36" fill="none" xmlns="http://www.w3.org/2000/svg">
<g clip-path="url(#clip0_285_19686)">
<g clip-path="url(#clip1_285_19686)">
<path d="M25.7927 7.34403L25.1035 6.31116C26.0946 5.65259 26.6898 4.54153 26.6895 3.35167V1.86208H27.9309V3.35167C27.9315 4.95643 27.1286 6.45512 25.7927 7.34403Z" fill="#E14B4B"/>
<path d="M32.8968 31.0345H26.0692C24.6981 31.0345 23.5864 29.9228 23.5864 28.5517V21.7241L28.5519 13.6552L30.414 7.44827H34.1381L35.3795 14.2759V28.5517C35.3795 29.9228 34.2679 31.0345 32.8968 31.0345Z" fill="#4398D1"/>
<path d="M36 4.96552H28.5518C28.1726 3.44925 26.954 2.28728 25.4217 1.98057L24.8276 1.86207V0H31.0345C33.777 0 36 2.22303 36 4.96552Z" fill="#D6D9DB"/>
<path d="M30.4136 4.96552H34.1377V7.44827H30.4136V4.96552Z" fill="#E14B4B"/>
<path d="M23.5864 27.0688V28.5517C23.5864 29.9228 24.6981 31.0345 26.0692 31.0345H32.8968C34.2679 31.0345 35.3795 29.9228 35.3795 28.5517V14.2759L35.3441 14.0816C32.1533 19.0183 28.1825 23.4044 23.5864 27.0688Z" fill="#3689C9"/>
<path d="M11.1724 31.0345H2.48276C1.11167 31.0345 7.12559e-07 29.9228 7.12559e-07 28.5517V19.6642C-0.000302359 18.9713 0.0960742 18.2819 0.286706 17.6157L1.24138 14.2759L0.151536 11.006C0.0509167 10.7051 7.12559e-07 10.3899 7.12559e-07 10.0726C-0.000302359 9.19639 0.389144 8.36507 1.06257 7.80469L3.72414 5.58621H9.93103L12.5926 7.80469C13.266 8.36507 13.6555 9.19639 13.6552 10.0726C13.6549 10.389 13.604 10.7033 13.5036 11.0036L12.4138 14.2759L13.3685 17.6175C13.5591 18.2837 13.6555 18.9732 13.6552 19.666V28.5517C13.6552 29.9228 12.5435 31.0345 11.1724 31.0345Z" fill="#CDA57D"/>
<path d="M12.4138 14.2759L13.5036 11.006C13.8879 9.85315 13.5264 8.58237 12.5926 7.80469L11.6428 7.01367C9.50522 17.3054 4.30816 23.1343 0 26.3172V28.5517C0 29.9228 1.11166 31.0345 2.48276 31.0345H11.1724C12.5435 31.0345 13.6552 29.9228 13.6552 28.5517V19.6642C13.6555 18.9713 13.5591 18.2819 13.3685 17.6157L12.4138 14.2759Z" fill="#CDA57D"/>
<path d="M9.93102 5.58621H3.72412V3.72414L4.9655 2.48276H8.68964L9.93102 3.72414V5.58621Z" fill="#4398D1"/>
<path d="M4.96533 0H8.68947V2.48276H4.96533V0Z" fill="#4398D1"/>
<path d="M9.93102 9.93104C9.93102 8.90272 8.54144 8.06897 6.82757 8.06897C5.1137 8.06897 3.72412 8.90272 3.72412 9.93104C3.72412 10.9594 5.1137 11.7931 6.82757 11.7931C8.54144 11.7931 9.93102 10.9594 9.93102 9.93104Z" fill="#F5A338"/>
<path d="M8.68981 27.931H4.96567C3.59458 27.931 2.48291 26.8194 2.48291 25.4483V18L9.52477 20.5149C10.5128 20.868 11.1726 21.8038 11.1726 22.8531V25.4483C11.1726 26.8194 10.0609 27.931 8.68981 27.931Z" fill="#F5A338"/>
<path d="M4.96567 27.931H8.68981C10.0609 27.931 11.1726 26.8194 11.1726 25.4483V22.8531C11.1726 21.8038 10.5128 20.868 9.52477 20.5149L6.54952 19.4523C5.37482 21.1938 4.01099 22.8 2.48291 24.2417V25.4483C2.48291 26.8194 3.59458 27.931 4.96567 27.931Z" fill="#FFA217"/>
<path d="M15.5172 3.72414H20.4827C20.8255 3.72414 21.1034 4.00205 21.1034 4.34483V7.44827H14.8965V4.34483C14.8965 4.00205 15.1744 3.72414 15.5172 3.72414Z" fill="#4398D1"/>
<path d="M25.0817 12.081L22.345 9.93103V7.44827H13.6553V9.93103L12.6776 11.0712C6.64832 18.1055 6.03338 28.2914 11.1726 36H26.0691L27.6208 34.0597C30.2154 30.8151 31.4068 26.6684 30.9298 22.5412C30.453 18.414 28.3473 14.6483 25.0811 12.081H25.0817ZM27.2775 28.3556C27.0577 28.9751 26.3867 29.3094 25.76 29.1112C25.1329 28.913 24.7756 28.2541 24.952 27.6207C25.7882 24.6921 25.1944 21.5405 23.3493 19.1171L23.0296 18.6977C22.5914 18.097 22.7114 17.2566 23.2999 16.8023C23.8888 16.348 24.7323 16.4455 25.202 17.0217L25.4502 17.3396C27.8991 20.4591 28.5879 24.6124 27.2775 28.3556Z" fill="#F5A338"/>
<path d="M15.5171 9.31035H22.3447V10.5517H15.5171V9.31035Z" fill="#DE5718"/>
<path d="M28.0893 15.2175C27.6198 16.4549 27.0673 17.6593 26.4357 18.8225C28.0729 21.7317 28.3796 25.2046 27.2774 28.3556C27.0576 28.9751 26.3866 29.3094 25.7599 29.1112C25.1328 28.913 24.7755 28.2541 24.9519 27.6207C25.5105 25.6441 25.4235 23.5404 24.7034 21.6168C20.2625 27.9653 14.061 31.6458 9.79834 33.5775C10.2014 34.4149 10.6606 35.2244 11.1725 36H26.069L27.6207 34.0597C31.9916 28.5972 32.1829 20.8904 28.0887 15.2175H28.0893Z" fill="#C18E5C"/>
<path d="M17.6631 18.0297C17.467 18.0124 17.2697 18 17.0691 18C13.9559 17.9988 11.2768 20.1997 10.6731 23.254C10.0697 26.3081 11.7105 29.3624 14.5903 30.5456C17.4697 31.7285 20.7841 30.7099 22.5019 28.1135C21.6379 22.9779 19.6103 19.8806 17.6631 18.0297Z" fill="#FFA217"/>
<path d="M30.4136 4.96552H34.1377V6.20689H30.4136V4.96552Z" fill="#CE444C"/>
</g>
</g>
<defs>
<clipPath id="clip0_285_19686">
<rect width="36" height="36" fill="white"/>
</clipPath>
<clipPath id="clip1_285_19686">
<rect width="36" height="36" fill="white"/>
</clipPath>
</defs>
</svg>
