<svg width="56" height="56" viewBox="0 0 56 56" fill="none" xmlns="http://www.w3.org/2000/svg">
<g clip-path="url(#clip0_103_22629)">
<path d="M51.8306 -0.794922H4.16992V56.7951H51.8306V-0.794922Z" fill="#4398D1"/>
<path d="M4.16992 51.4234V56.7951H51.8306V11.855C40.0147 30.82 19.0043 43.9665 4.16992 51.4234Z" fill="#3E8CC7"/>
<path d="M51.8306 8.14136H4.16992V10.1272H51.8306V8.14136Z" fill="#126099"/>
<path d="M10.1265 13.1062H45.872C46.9691 13.1062 47.8578 13.9949 47.8578 15.092V50.8376C47.8578 51.9347 46.9691 52.8234 45.872 52.8234H10.1265C9.02933 52.8234 8.14062 51.9347 8.14062 50.8376V15.092C8.14062 13.9949 9.02933 13.1062 10.1265 13.1062Z" fill="#87CED9"/>
<path d="M34.9507 6.15552C36.0474 6.15552 36.9365 5.26643 36.9365 4.16968C36.9365 3.07293 36.0474 2.18384 34.9507 2.18384C33.8539 2.18384 32.9648 3.07293 32.9648 4.16968C32.9648 5.26643 33.8539 6.15552 34.9507 6.15552Z" fill="#E6E6E6"/>
<path d="M9.13428 3.17676H7.14844V5.1626H9.13428V3.17676Z" fill="#E6E6E6"/>
<path d="M48.8511 3.17676H46.8652V5.1626H48.8511V3.17676Z" fill="#E6E6E6"/>
<path d="M44.8804 3.17676H42.8945V5.1626H44.8804V3.17676Z" fill="#E6E6E6"/>
<path d="M40.9077 3.17676H38.9219V5.1626H40.9077V3.17676Z" fill="#E6E6E6"/>
<path d="M30.978 3.17676H28.9922V5.1626H30.978V3.17676Z" fill="#E6E6E6"/>
<path d="M34.9505 28.993H28L28.993 19.0637H33.9576L34.9505 28.993Z" fill="white"/>
<path d="M44.8802 28.993H37.9297L38.9226 19.0637H43.8872L44.8802 28.993Z" fill="white"/>
<path d="M25.0213 28.993C22.2798 28.993 20.0566 26.7699 20.0566 24.0284V22.0425C20.0566 19.3011 22.2798 17.0779 25.0213 17.0779V28.993Z" fill="white"/>
<path d="M21.0486 28.993C18.3072 28.993 16.084 26.7699 16.084 24.0284V22.0425C16.084 19.3011 18.3072 17.0779 21.0486 17.0779V28.993Z" fill="#E6E6E6"/>
<path d="M17.0779 28.993C14.3365 28.993 12.1133 26.7699 12.1133 24.0284V22.0425C12.1133 19.3011 14.3365 17.0779 17.0779 17.0779V28.993Z" fill="white"/>
<path d="M39.9161 48.8518C44.3032 48.8518 47.8596 45.2954 47.8596 40.9083C47.8596 36.5213 44.3032 32.9648 39.9161 32.9648C35.5291 32.9648 31.9727 36.5213 31.9727 40.9083C31.9727 45.2954 35.5291 48.8518 39.9161 48.8518Z" fill="white"/>
<path d="M36.937 40.9083H34.9512C34.9512 38.1668 37.1743 35.9436 39.9158 35.9436V37.9294C38.2706 37.9294 36.937 39.2629 36.937 40.9083Z" fill="#E6E6E6"/>
<path d="M39.916 45.8729V43.887C41.5613 43.887 42.8948 42.5536 42.8948 40.9082H44.8807C44.8807 43.6497 42.6575 45.8729 39.916 45.8729Z" fill="#E6E6E6"/>
<path d="M28.0006 48.8516C24.71 48.8516 22.043 46.1845 22.043 42.8939V38.9222C22.043 35.6316 24.71 32.9646 28.0006 32.9646V48.8516Z" fill="#E6E6E6"/>
<path d="M23.0358 48.8516C19.7452 48.8516 17.0781 46.1845 17.0781 42.8939V38.9222C17.0781 35.6316 19.7452 32.9646 23.0358 32.9646V48.8516Z" fill="white"/>
<path d="M18.0709 48.8516C14.7803 48.8516 12.1133 46.1845 12.1133 42.8939V38.9222C12.1133 35.6316 14.7803 32.9646 18.0709 32.9646V48.8516Z" fill="#E6E6E6"/>
<path d="M47.8578 28H8.14062V29.9858H47.8578V28Z" fill="#ABE2EB"/>
<path d="M47.8578 47.8586H8.14062V49.8445H47.8578V47.8586Z" fill="#ABE2EB"/>
<path d="M47.8578 24.0283H8.14062V26.0142H47.8578V24.0283Z" fill="#ABE2EB"/>
<path d="M47.8578 43.887H8.14062V45.8728H47.8578V43.887Z" fill="#ABE2EB"/>
</g>
<defs>
<clipPath id="clip0_103_22629">
<rect width="57.59" height="57.59" fill="white" transform="translate(-0.794922 -0.794922)"/>
</clipPath>
</defs>
</svg>
