<svg width="87px" height="85px" viewBox="0 0 87 85" version="1.1" xmlns="http://www.w3.org/2000/svg" xmlns:xlink="http://www.w3.org/1999/xlink"><g id="Page-1" stroke="none" stroke-width="1" fill="none" fill-rule="evenodd"><g id="Order" transform="translate(-110.000000, -1245.000000)" fill-rule="nonzero"><g id="Group-16" transform="translate(50.000000, 1209.000000)"><g id="Group" transform="translate(60.000000, 36.000000)"><path d="M21,0 L87,0 L87,0 L87,0 C87,6.626924 81.6270732,12 74.9999537,12 L33.0000463,12 C26.3730967,12 21,6.62709392 21,0 L21,0 L21,0 Z" id="Path" fill="#346AE5"></path><path d="M21,12 L87,12 L87,12 L87,12 C87,18.626924 81.6270732,24 74.9999537,24 L33.0000463,24 C26.3730967,24 21,18.626924 21,12 L21,12 L21,12 Z" id="Path" fill="#87CED9"></path><path d="M73.6490357,12 C60.1486872,20.5949341 41.9643649,23.0849535 31,23.7750019 C31.7563845,23.9265713 32.526119,24.0015063 33.2972054,23.9999771 L75.0659893,23.9999771 C81.6564711,23.9999771 87,18.6270813 87,12 L73.6490357,12 Z" id="Path" fill="#71C4D1"></path><path d="M21,24 L87,24 L87,24 L87,24 C87,30.626924 81.6270732,36 74.9999537,36 L33.0000463,36 C26.3730967,35.9998301 21,30.626924 21,24 L21,24 L21,24 Z" id="Path" fill="#E5E5E5"></path><path d="M73.6490357,24 C60.1486872,32.5949341 41.9643649,35.0849535 31,35.7750019 C31.7563845,35.9265713 32.526119,36.0015063 33.2972054,35.9999771 L75.0659893,35.9999771 C81.6564711,35.9999771 87,30.6270813 87,24 L73.6490357,24 Z" id="Path" fill="#DEDEDE"></path><path d="M21,36 L87,36 L87,36 L87,36 C87,42.626924 81.6270732,48 74.9999537,48 L33.0000463,48 C26.3730967,48 21,42.6270939 21,36 L21,36 L21,36 Z" id="Path" fill="#87CED9"></path><path d="M73.6490357,36 C60.1486872,44.5949341 41.9643649,47.0849535 31,47.7750019 C31.7563845,47.9265713 32.526119,48.0015063 33.2972054,47.9999771 L75.0659893,47.9999771 C81.6564711,47.9999771 87,42.6270813 87,36 L73.6490357,36 L73.6490357,36 Z" id="Path" fill="#71C4D1"></path><path d="M87,48 C87,54.626924 81.6270732,60 74.9999537,60 L33.0000463,60 C26.3730967,60 21,54.626924 21,48 L87,48 Z" id="Path" fill="#4398D1"></path><path d="M73.6490357,48 C60.1486872,56.5949341 41.9643649,59.0849535 31,59.7750019 C31.7563845,59.9265713 32.526119,60.0015063 33.2972054,59.9999771 L75.0659893,59.9999771 C81.6564711,59.9999771 87,54.6270813 87,48 L73.6490357,48 Z" id="Path" fill="#346AE5"></path><path d="M87,72 C87,78.626924 81.6270732,84 74.9999537,84 L33.0000463,84 C26.3730967,84 21,78.6270939 21,72 L87,72 Z" id="Path" fill="#346AE5"></path><path d="M73.6490357,72 C60.1486872,80.5949341 41.9643649,83.0849535 31,83.7750019 C31.7563845,83.9265713 32.526119,84.0015063 33.2972054,83.9999771 L75.0659893,83.9999771 C81.6564711,83.9999771 87,78.6270813 87,72 L73.6490357,72 Z" id="Path" fill="#346AE5"></path><path d="M21,60 L87,60 L87,60 L87,60 C87,66.626924 81.6270732,72 74.9999537,72 L33.0000463,72 C26.3730967,71.9998301 21,66.626924 21,60 L21,60 L21,60 Z" id="Path" fill="#E5E5E5"></path><path d="M73.6490357,60 C60.1486872,68.5949341 41.9643649,71.0849535 31,71.7750019 C31.7563845,71.9265713 32.526119,72.0015063 33.2972054,71.9999771 L75.0659893,71.9999771 C81.6564711,71.9999771 87,66.6270813 87,60 L73.6490357,60 Z" id="Path" fill="#DEDEDE"></path><circle id="Oval" fill="#E5E5E5" cx="31.5" cy="52.5" r="31.5"></circle><path d="M54.6039771,31 C45.0431135,54.9891961 25.1925432,67.6435604 9,73.9258182 C20.1802527,87.1649617 39.8878168,88.7601538 53.017434,77.4868061 C66.1470511,66.2134584 67.7290464,46.3413254 56.5489621,33.1021819 C55.9333113,32.3703162 55.283467,31.6702117 54.6039771,31 Z" id="Path" fill="#DEDEDE"></path><g transform="translate(12.000000, 33.000000)" fill="#CFCFCF" id="Path"><path d="M19.4795714,0.162415584 C8.77871429,0.162415584 0.104675325,8.83645455 0.104675325,19.5373117 L3.08538961,19.5373117 C3.08538961,10.4832338 10.4254935,3.1432987 19.4794026,3.1432987 L19.4795714,0.162415584 L19.4795714,0.162415584 Z"></path><path d="M35.8737532,19.5373117 C35.8737532,28.5913896 28.5336494,35.9313247 19.4797403,35.9313247 L19.4797403,38.912039 C30.1805974,38.912039 38.8546364,30.238 38.8546364,19.5371429 L35.8737532,19.5371429 L35.8737532,19.5373117 Z"></path></g></g></g></g></g></svg>