<svg width="56" height="56" viewBox="0 0 56 56" fill="none" xmlns="http://www.w3.org/2000/svg">
<g clip-path="url(#clip0_103_22334)">
<path d="M54.9954 26.7747H1.00477C0.0108882 26.7747 -0.794922 27.5975 -0.794922 28.6126V34.1266C-0.794922 35.1416 0.0108882 35.9646 1.00477 35.9646H54.9954C55.9894 35.9646 56.7951 35.1416 56.7951 34.1266V28.6126C56.7951 27.5975 55.9894 26.7747 54.9954 26.7747ZM36.0987 33.2076H19.9015V29.5316H36.0987V33.2076Z" fill="#346AE5"/>
<path d="M37.8681 10.8446V1.61476C37.8681 0.622182 37.0648 -0.182373 36.0739 -0.182373H19.9259C18.935 -0.182373 18.1317 0.622182 18.1317 1.61476V10.8446C18.1317 11.8356 17.7232 12.7827 17.0027 13.4619L2.88086 26.7746H53.1189L38.9972 13.4619C38.2766 12.7827 37.8681 11.8356 37.8681 10.8446Z" fill="#8BB3F5"/>
<path d="M21.3938 41.7571C20.9943 41.4701 20.4374 41.5589 20.1493 41.9536C19.8604 42.3483 19.9491 42.8998 20.3477 43.1859C21.2597 43.8408 21.7618 44.6837 21.7618 45.5601C21.7618 46.4364 21.2597 47.2793 20.3477 47.9342C18.9605 48.9296 18.1973 50.28 18.1973 51.7372C18.1973 53.1945 18.9605 54.5448 20.3477 55.5402C20.5061 55.654 20.6889 55.7082 20.8699 55.7082C21.1458 55.7082 21.4182 55.5816 21.5922 55.3437C21.8811 54.949 21.7924 54.3975 21.3938 54.1113C20.4817 53.4564 19.9795 52.6136 19.9795 51.7372C19.9795 50.8608 20.4817 50.018 21.3937 49.3631C22.781 48.3677 23.5441 47.0173 23.5441 45.5601C23.5441 44.1028 22.781 42.7524 21.3938 41.7571Z" fill="#CBD6E0"/>
<path d="M28.5226 41.7569C28.1222 41.4699 27.5662 41.5587 27.2781 41.9534C26.9892 42.348 27.0779 42.8996 27.4765 43.1857C28.3886 43.8406 28.8907 44.6834 28.8907 45.5598C28.8907 46.4362 28.3886 47.2791 27.4766 47.9339C26.0894 48.9293 25.3262 50.2797 25.3262 51.737C25.3262 53.1942 26.0894 54.5446 27.4766 55.54C27.635 55.6537 27.8178 55.708 27.9988 55.708C28.2747 55.708 28.5471 55.5814 28.7211 55.3434C29.01 54.9488 28.9213 54.3972 28.5227 54.1111C27.6106 53.4562 27.1085 52.6134 27.1085 51.737C27.1085 50.8606 27.6106 50.0177 28.5226 49.3628C29.9099 48.3674 30.673 47.0171 30.673 45.5598C30.673 44.1026 29.9099 42.7522 28.5226 41.7569Z" fill="#CBD6E0"/>
<path d="M35.6515 49.363C37.0388 48.3676 37.8019 47.0172 37.8019 45.5599C37.8019 44.1027 37.0387 42.7523 35.6515 41.7569C35.2511 41.4699 34.6942 41.5587 34.407 41.9534C34.1181 42.348 34.2068 42.8996 34.6054 43.1857C35.5175 43.8407 36.0196 44.6835 36.0196 45.5599C36.0196 46.4363 35.5175 47.2792 34.6055 47.9341C33.2183 48.9295 32.4551 50.2798 32.4551 51.7371C32.4551 53.1943 33.2183 54.5447 34.6055 55.5401C34.7639 55.6538 34.9467 55.7081 35.1277 55.7081C35.4036 55.7081 35.676 55.5815 35.85 55.3435C36.1389 54.9489 36.0502 54.3973 35.6516 54.1112C34.7395 53.4563 34.2374 52.6135 34.2374 51.7371C34.2374 50.8607 34.7395 50.0178 35.6515 49.363Z" fill="#CBD6E0"/>
<path d="M4.71884 33.1464C3.86337 33.1464 3.1507 32.5206 2.94576 31.676C2.90762 31.8336 2.88086 31.9958 2.88086 32.1662C2.88086 33.2498 3.70381 34.1267 4.71884 34.1267C5.73386 34.1267 6.55682 33.2498 6.55682 32.1662C6.55682 31.9958 6.53005 31.8336 6.49191 31.676C6.28698 32.5206 5.5743 33.1464 4.71884 33.1464Z" fill="#3F556B"/>
<path d="M6.55682 31.6759C6.55682 32.6918 5.73386 33.5138 4.71884 33.5138C3.70381 33.5138 2.88086 32.6918 2.88086 31.6759C2.88086 30.66 3.70381 29.8379 4.71884 29.8379C5.73386 29.8379 6.55682 30.66 6.55682 31.6759Z" fill="#8BB3F5"/>
<path d="M10.2325 33.1464C9.37705 33.1464 8.66437 32.5206 8.45944 31.676C8.4213 31.8336 8.39453 31.9958 8.39453 32.1662C8.39453 33.2498 9.21749 34.1267 10.2325 34.1267C11.2475 34.1267 12.0705 33.2498 12.0705 32.1662C12.0705 31.9958 12.0437 31.8336 12.0056 31.676C11.8007 32.5206 11.088 33.1464 10.2325 33.1464Z" fill="#3F556B"/>
<path d="M12.0705 31.6759C12.0705 32.6918 11.2475 33.5138 10.2325 33.5138C9.21749 33.5138 8.39453 32.6918 8.39453 31.6759C8.39453 30.66 9.21749 29.8379 10.2325 29.8379C11.2475 29.8379 12.0705 30.66 12.0705 31.6759Z" fill="#8BB3F5"/>
<path d="M36.577 29.8379H20.0352V32.9012H36.577V29.8379Z" fill="#3CB44A"/>
<path d="M37.8681 10.8446V1.61476C37.8681 0.622182 37.0648 -0.182373 36.0739 -0.182373H34.2797V11.5491C34.2797 12.1071 34.4094 12.6574 34.6585 13.1565L38.6119 21.0763C39.5067 22.8687 38.2054 24.9775 36.2047 24.9775H4.78722L2.88086 26.7746H41.4565H44.1479H53.1189L38.9972 13.4619C38.2766 12.7827 37.8681 11.8356 37.8681 10.8446Z" fill="#769BD3"/>
<path d="M54.9965 35.9645C55.9898 35.9645 56.795 35.1416 56.795 34.1265V28.6125C56.2984 28.6125 55.8958 29.024 55.8958 29.5315V33.2075C55.8958 34.2226 55.0906 35.0455 54.0973 35.0455H1.94219C1.4456 35.0455 1.04297 35.457 1.04297 35.9645H54.9965Z" fill="#3F556B"/>
<path d="M36.577 29.8379H20.0352V31.0632H36.577V29.8379Z" fill="#0E9247"/>
</g>
<defs>
<clipPath id="clip0_103_22334">
<rect width="57.59" height="56.3647" fill="white" transform="translate(-0.794922 -0.182373)"/>
</clipPath>
</defs>
</svg>
