<svg width="56" height="56" viewBox="0 0 56 56" fill="none" xmlns="http://www.w3.org/2000/svg">
<path d="M28 56C43.464 56 56 43.464 56 28C56 12.536 43.464 0 28 0C12.536 0 0 12.536 0 28C0 43.464 12.536 56 28 56Z" fill="#F5EBDE"/>
<path d="M28 3.86207C41.3097 3.86207 52.1379 14.6903 52.1379 28C52.1379 41.3097 41.3097 52.1379 28 52.1379C14.6903 52.1379 3.86207 41.3097 3.86207 28C3.86207 14.6903 14.6903 3.86207 28 3.86207ZM28 0C12.5363 0 0 12.5363 0 28C0 43.4637 12.5363 56 28 56C43.4637 56 56 43.4637 56 28C56 12.5363 43.4637 0 28 0Z" fill="#424A60"/>
<path d="M27.9988 5.04248C27.4507 5.04248 27.0059 5.48632 27.0059 6.03541V7.02834C27.0059 7.57743 27.4507 8.02127 27.9988 8.02127C28.5469 8.02127 28.9917 7.57743 28.9917 7.02834V6.03541C28.9917 5.48632 28.5469 5.04248 27.9988 5.04248Z" fill="#7383BF"/>
<path d="M27.9988 47.7385C27.4507 47.7385 27.0059 48.1824 27.0059 48.7315V49.7244C27.0059 50.2735 27.4507 50.7173 27.9988 50.7173C28.5469 50.7173 28.9917 50.2735 28.9917 49.7244V48.7315C28.9917 48.1824 28.5469 47.7385 27.9988 47.7385Z" fill="#7383BF"/>
<path d="M49.8433 26.887H48.8504C48.3023 26.887 47.8574 27.3308 47.8574 27.8799C47.8574 28.429 48.3023 28.8728 48.8504 28.8728H49.8433C50.3914 28.8728 50.8362 28.429 50.8362 27.8799C50.8362 27.3308 50.3914 26.887 49.8433 26.887Z" fill="#7383BF"/>
<path d="M7.14797 26.887H6.15504C5.60694 26.887 5.16211 27.3308 5.16211 27.8799C5.16211 28.429 5.60694 28.8728 6.15504 28.8728H7.14797C7.69607 28.8728 8.1409 28.429 8.1409 27.8799C8.1409 27.3308 7.69607 26.887 7.14797 26.887Z" fill="#7383BF"/>
<path d="M42.7432 11.7309L42.0412 12.4329C41.6529 12.8211 41.6529 13.4486 42.0412 13.8369C42.2348 14.0305 42.489 14.1278 42.7432 14.1278C42.9974 14.1278 43.2516 14.0305 43.4452 13.8369L44.1472 13.1349C44.5354 12.7466 44.5354 12.1191 44.1472 11.7309C43.7589 11.3426 43.1314 11.3426 42.7432 11.7309Z" fill="#7383BF"/>
<path d="M12.5537 41.9219L11.8517 42.6239C11.4635 43.0121 11.4635 43.6397 11.8517 44.0279C12.0453 44.2215 12.2995 44.3188 12.5537 44.3188C12.8079 44.3188 13.0621 44.2215 13.2557 44.0279L13.9577 43.3259C14.346 42.9377 14.346 42.3101 13.9577 41.9219C13.5695 41.5337 12.941 41.5347 12.5537 41.9219Z" fill="#7383BF"/>
<path d="M43.4452 41.922C43.0569 41.5338 42.4294 41.5338 42.0412 41.922C41.6529 42.3103 41.6529 42.9378 42.0412 43.326L42.7432 44.028C42.9368 44.2217 43.191 44.319 43.4452 44.319C43.6994 44.319 43.9536 44.2217 44.1472 44.028C44.5354 43.6398 44.5354 43.0123 44.1472 42.624L43.4452 41.922Z" fill="#7383BF"/>
<path d="M13.2557 11.7309C12.8675 11.3426 12.24 11.3426 11.8517 11.7309C11.4635 12.1191 11.4635 12.7466 11.8517 13.1349L12.5537 13.8369C12.7473 14.0305 13.0015 14.1278 13.2557 14.1278C13.5099 14.1278 13.7641 14.0305 13.9577 13.8369C14.346 13.4486 14.346 12.8211 13.9577 12.4329L13.2557 11.7309Z" fill="#7383BF"/>
<path d="M25.0216 27.8799H17.0781" stroke="#424A60" stroke-width="1.99066" stroke-miterlimit="10" stroke-linecap="round" stroke-linejoin="round"/>
<path d="M28 24.9012V13.979" stroke="#424A60" stroke-width="1.99066" stroke-miterlimit="10" stroke-linecap="round" stroke-linejoin="round"/>
<path d="M28.0003 30.8587C29.6454 30.8587 30.9791 29.5251 30.9791 27.8799C30.9791 26.2348 29.6454 24.9011 28.0003 24.9011C26.3551 24.9011 25.0215 26.2348 25.0215 27.8799C25.0215 29.5251 26.3551 30.8587 28.0003 30.8587Z" stroke="#424A60" stroke-width="1.99066" stroke-miterlimit="10" stroke-linecap="round" stroke-linejoin="round"/>
</svg>
