<svg width="37" height="36" viewBox="0 0 37 36" fill="none" xmlns="http://www.w3.org/2000/svg">
<g clip-path="url(#clip0_106_17085)">
<path d="M9.475 24.5359V32.0507H6.32227V24.5347" fill="#C97523"/>
<path d="M7.72851 24.5359V32.0507H6.32227V24.5347" fill="#A85613"/>
<path d="M7.89872 26.1849C12.123 26.1849 15.5474 20.8013 15.5474 14.1604C15.5474 7.51946 12.123 2.13593 7.89872 2.13593C3.67445 2.13593 0.25 7.51946 0.25 14.1604C0.25 20.8013 3.67445 26.1849 7.89872 26.1849Z" fill="#8CC928"/>
<path d="M7.89872 26.1851C3.67407 26.1851 0.25 20.8012 0.25 14.1606C0.25 7.52006 3.67407 2.13617 7.89872 2.13617C6.02834 2.13617 4.51283 7.52006 4.51283 14.1606C4.51283 20.8012 6.02834 26.1851 7.89872 26.1851Z" fill="#82B20B"/>
<path d="M33.2044 18.5542V33.8639H13.1191V18.5542L23.2184 8.75732L33.2044 18.5542Z" fill="#DEDFFB"/>
<path d="M28.291 13.1488V10.3209H33.3124V17.9308" fill="#9EB1B7"/>
<path d="M28.291 13.1488V10.3209H29.4969V17.9308" fill="#879BA0"/>
<path d="M25.1538 30.6559H35.2181C35.7874 30.6559 36.2489 31.1173 36.2489 31.6867V33.864H24.123V31.6867C24.123 31.1173 24.5845 30.6559 25.1538 30.6559Z" fill="#85C10D"/>
<path d="M1.28078 30.6558H12.9545C13.5237 30.6558 13.9852 31.1173 13.9852 31.6866V33.864H0.25V31.6866C0.25 31.1173 0.71146 30.6558 1.28078 30.6558Z" fill="#85C10D"/>
<path d="M33.2044 19.1552V22.0168L23.1618 12.4282L13.1191 22.0168V19.1552L22.3642 10.3502L23.1618 9.60931L23.9588 10.3502L33.2044 19.1552Z" fill="#D4D4D6"/>
<path d="M23.1619 10.8357L11.7277 21.7524L10.1289 20.4102L22.3647 8.75731L23.1619 8.01678L23.9592 8.75731L36.195 20.4102L34.5961 21.7524L23.1619 10.8357Z" fill="#CC6470"/>
<path d="M22.1999 22.3935H15.5762V33.8637H22.1999V22.3935Z" fill="#C97523"/>
<path d="M22.6766 33.8639H21.7235V22.8699H16.0528V33.8639H15.0996V22.3933C15.0996 22.1301 15.3129 21.9167 15.5762 21.9167H22.2001C22.4634 21.9167 22.6767 22.1301 22.6767 22.3933L22.6766 33.8639Z" fill="#8E480E"/>
<path d="M31.6682 22.3935H24.125V29.0172H31.6682V22.3935Z" fill="#A0D9F2"/>
<path d="M31.6682 22.3935H24.125V24.4063H31.6682V22.3935Z" fill="#C97523"/>
<path d="M31.668 29.4939H24.125C23.8618 29.4939 23.6484 29.2806 23.6484 29.0174V22.3935C23.6484 22.1303 23.8618 21.9169 24.125 21.9169H31.6681C31.9313 21.9169 32.1446 22.1303 32.1446 22.3935V29.0174C32.1446 29.2805 31.9312 29.4939 31.668 29.4939ZM24.6016 28.5408H31.1915V22.8701H24.6016V28.5408Z" fill="#8E480E"/>
<path d="M20.7134 28.5684H19.752C19.4887 28.5684 19.2754 28.3551 19.2754 28.0919C19.2754 27.8286 19.4887 27.6153 19.752 27.6153H20.7134C20.9767 27.6153 21.19 27.8286 21.19 28.0919C21.19 28.3551 20.9766 28.5684 20.7134 28.5684Z" fill="#8E480E"/>
<path d="M23.1628 19.1176C24.1805 19.1176 25.0054 18.2926 25.0054 17.275C25.0054 16.2574 24.1805 15.4325 23.1628 15.4325C22.1452 15.4325 21.3203 16.2574 21.3203 17.275C21.3203 18.2926 22.1452 19.1176 23.1628 19.1176Z" fill="#413740"/>
<path d="M31.6682 23.9296H24.125V24.8827H31.6682V23.9296Z" fill="#8E480E"/>
<path d="M23.1631 19.5946C21.8842 19.5946 20.8438 18.5541 20.8438 17.2752C20.8438 15.9963 21.8842 14.9558 23.1631 14.9558C24.4421 14.9558 25.4826 15.9963 25.4826 17.2752C25.4825 18.5541 24.4421 19.5946 23.1631 19.5946ZM23.1631 15.909C22.4099 15.909 21.7969 16.5219 21.7969 17.2752C21.7969 18.0285 22.4098 18.6414 23.1631 18.6414C23.9165 18.6414 24.5295 18.0285 24.5295 17.2752C24.5295 16.5219 23.9165 15.909 23.1631 15.909Z" fill="#CC6470"/>
<path d="M3.54991 31.5724C3.24616 31.5724 3 31.3262 3 31.0225V29.6312C3 29.3275 3.24616 29.0813 3.54991 29.0813C3.85366 29.0813 4.09983 29.3275 4.09983 29.6312V31.0225C4.09983 31.3262 3.85359 31.5724 3.54991 31.5724Z" fill="#85C10D"/>
<path d="M1.78233 31.5724C1.47859 31.5724 1.23242 31.3262 1.23242 31.0225V29.6312C1.23242 29.3275 1.47859 29.0813 1.78233 29.0813C2.08608 29.0813 2.33225 29.3275 2.33225 29.6312V31.0225C2.33225 31.3262 2.08608 31.5724 1.78233 31.5724Z" fill="#85C10D"/>
<path d="M11.298 31.5724C10.9942 31.5724 10.748 31.3262 10.748 31.0225V29.6312C10.748 29.3275 10.9942 29.0813 11.298 29.0813C11.6017 29.0813 11.8479 29.3275 11.8479 29.6312V31.0225C11.8479 31.3262 11.6018 31.5724 11.298 31.5724Z" fill="#85C10D"/>
</g>
<defs>
<clipPath id="clip0_106_17085">
<rect width="36" height="36" fill="white" transform="translate(0.25)"/>
</clipPath>
</defs>
</svg>
