<svg width="56" height="56" viewBox="0 0 56 56" fill="none" xmlns="http://www.w3.org/2000/svg">
<g clip-path="url(#clip0_103_22548)">
<path d="M56.7951 44.8799H-0.794922L-0.0184498 43.7152C0.737171 42.5822 2.00912 40.7364 3.37142 40.9082H56.7951V44.8799Z" fill="#3779A1"/>
<path d="M54.0823 24.9886C52.9722 25.1088 51.7807 24.937 50.3956 23.8835C48.9231 22.7635 47.9252 21.0616 48.0413 19.2147C48.1982 16.7066 50.05 14.6602 52.4639 14.1994L52.0021 11.1204L36.7388 13.5054C26.4143 15.1189 15.507 22.125 13.113 33.9578L13.107 33.9697C13.107 33.9697 13.1229 34.0412 13.108 34.1603C9.28426 35.3638 6.6103 36.1601 3.96314 39.69L3.17773 40.9083H54.8102L55.5062 37.4281C56.3452 33.2349 55.8468 28.8839 54.0823 24.9886ZM20.3217 29.9861L21.9819 28.2971C24.485 23.0355 31.4663 18.3479 37.3524 17.4294L44.5214 16.3094L44.2424 17.7045C44.16 18.1166 44.1044 18.5425 44.0776 18.9675C43.9356 21.2373 44.7091 23.5151 46.2531 25.3808L47.5985 27.0073L20.3217 29.9861Z" fill="#7383BF"/>
<path d="M36.7387 13.5054L36.9373 13.4746V11.1204H31.9727V14.6502C33.5186 14.1538 35.1073 13.7596 36.7387 13.5054Z" fill="#C7CAC7"/>
<path d="M30.1562 28.9116L41.0785 27.719V24.0283H30.1562V28.9116Z" fill="#3779A1"/>
<path d="M24.0291 18.4094V16.225C24.0291 15.5994 23.5217 15.092 22.8962 15.092H20.1964C19.5718 15.092 19.0645 15.5994 19.0645 16.225V22.0426H19.5857C20.9391 20.6783 22.4315 19.4639 24.0291 18.4094Z" fill="#C7CAC7"/>
<path d="M3.96215 39.69L3.17773 40.9083H54.8101L55.5062 37.4281C56.0374 34.772 56.0285 32.0523 55.5052 29.426L13.108 34.1613C9.28327 35.3647 6.6103 36.1601 3.96215 39.69Z" fill="#FFD039"/>
</g>
<defs>
<clipPath id="clip0_103_22548">
<rect width="57.59" height="57.59" fill="white" transform="translate(-0.794922 -0.794922)"/>
</clipPath>
</defs>
</svg>
