<svg width="97px" height="95px" viewBox="0 0 97 95" version="1.1" xmlns="http://www.w3.org/2000/svg" xmlns:xlink="http://www.w3.org/1999/xlink"><g id="Page-1" stroke="none" stroke-width="1" fill="none" fill-rule="evenodd"><g id="Order" transform="translate(-786.000000, -1239.000000)" fill-rule="nonzero"><g id="Group-16" transform="translate(731.000000, 1209.000000)"><g id="Group" transform="translate(55.000000, 30.000000)"><rect id="SVGCleanerId_0" fill="#4398D1" x="28" y="59" width="43" height="36"></rect><rect id="SVGCleanerId_0_1_" fill="#346AE5" x="28" y="59" width="43" height="36"></rect><g transform="translate(2.000000, 59.000000)" fill="#346AE5" id="Rectangle"><rect x="0.127797619" y="0.139875" width="26.1715575" height="35.7965625"></rect><rect x="68.8284425" y="0.139875" width="26.1715575" height="35.7965625"></rect></g><rect id="Rectangle" fill="#87CED9" x="35" y="72" width="30" height="16"></rect><g transform="translate(1.000000, 64.000000)" fill="#1C4878" id="Rectangle"><rect x="49.8758599" y="0.147169811" width="3.31643312" height="3.27471698"></rect><rect x="43.2429936" y="0.147169811" width="3.31643312" height="3.27471698"></rect><rect x="36.6101274" y="0.147169811" width="3.31643312" height="3.27471698"></rect><rect x="56.5087261" y="0.147169811" width="3.31643312" height="3.27471698"></rect><rect x="0.12955414" y="6.69660377" width="26.5312739" height="3.27471698"></rect></g><g transform="translate(11.000000, 63.000000)" fill="#DEDEDE" id="Rectangle"><rect x="0.145055556" y="0.150681818" width="6.74955556" height="3.35286364"></rect><rect x="0.145055556" y="13.5619432" width="6.74955556" height="3.35286364"></rect></g><g transform="translate(70.000000, 70.000000)" fill="#1C4878" id="Rectangle"><rect x="0.0297194245" y="0.0938931298" width="26.9702806" height="3.31221374"></rect><rect x="11.8291079" y="1.74980916" width="3.37130935" height="23.1854962"></rect></g><g transform="translate(76.000000, 64.000000)" fill="#DEDEDE" id="Rectangle"><rect x="4.82206897" y="0.143684211" width="6.38381609" height="3.19715789"></rect><rect x="0.0342068966" y="16.1292895" width="3.19190805" height="4.79573684"></rect><rect x="12.8018391" y="16.1292895" width="3.19190805" height="4.79573684"></rect></g><polygon id="Path" fill="#E5E5E5" points="62.5 19.5001404 62.5 0 36.5 0 36.5 19.5001404 30 26 69 26"></polygon><g transform="translate(82.000000, 34.000000)" fill="#87CED9"><path d="M12.8758592,24.9515267 L9.698,24.9515267 L9.698,6.73435115 C9.698,4.90438931 8.27587324,3.4221374 6.52014085,3.4221374 C4.76440845,3.4221374 3.34228169,4.90438931 3.34228169,6.73435115 L3.34228169,8.39045802 L0.164422535,8.39045802 L0.164422535,6.73435115 C0.164422535,3.0759542 3.01014085,0.109923664 6.52014085,0.109923664 C10.0301408,0.109923664 12.8758592,3.0759542 12.8758592,6.73435115 L12.8758592,24.9515267 Z" id="Path"></path><rect id="Rectangle" x="6.52014085" y="16.6709924" width="4.76678873" height="3.31221374"></rect></g><rect id="Rectangle" fill="#DE4C3C" x="31" y="49" width="16" height="10"></rect><g transform="translate(26.000000, 51.000000)" fill="#1C4878" id="Rectangle"><rect x="0.16335" y="0.0791111111" width="5.02084286" height="3.85688889"></rect><rect x="21.9203357" y="0.0791111111" width="5.02084286" height="3.85688889"></rect></g><path d="M31,58.1695312 L31,59 L47,59 L47,49 C42.7599447,54.5253906 35.7041254,57.0507812 31,58.1695312 Z" id="Path" fill="#C94536"></path><rect id="Rectangle" fill="#346AE5" x="1" y="0" width="27" height="20"></rect><rect id="Rectangle" fill="#E5E5E5" x="20" y="8" width="3" height="7"></rect><rect id="Rectangle" fill="#346AE5" x="70" y="0" width="27" height="20"></rect><rect id="Rectangle" fill="#E5E5E5" x="76" y="8" width="3" height="7"></rect><rect id="Rectangle" fill="#DEDEDE" x="0" y="32" width="30" height="3"></rect><path d="M6.25,42.990799 L6.25,28 L2.75,28 L2.75,42.990799 C1.67374395,43.5643183 1.00705808,44.6223784 1,45.7692308 C1,47.5541954 2.56628832,49 4.5,49 C6.43371168,49 8,47.5541954 8,45.7692308 C7.99294192,44.6223784 7.32625605,43.5643183 6.25,42.990799 Z" id="Path" fill="#346AE5"></path><path d="M13.25,42.990799 L13.25,28 L9.75,28 L9.75,42.990799 C8.67374395,43.5643183 8.00705808,44.6223784 8,45.7692308 C8,47.5541954 9.56628832,49 11.5,49 C13.4337117,49 15,47.5541954 15,45.7692308 C14.9929419,44.6223784 14.326256,43.5643183 13.25,42.990799 Z" id="Path" fill="#87CED9"></path><path d="M20.25,42.990799 L20.25,28 L16.75,28 L16.75,42.990799 C15.673744,43.5643183 15.0070581,44.6223784 15,45.7692308 C15,47.5541954 16.5662883,49 18.5,49 C20.4337117,49 22,47.5541954 22,45.7692308 C21.9929419,44.6223784 21.326256,43.5643183 20.25,42.990799 Z" id="Path" fill="#346AE5"></path><g transform="translate(26.000000, 59.000000)" fill="#1C4878" id="Rectangle"><rect x="0.159680328" y="0.139875" width="3.27203279" height="35.7965625"></rect><rect x="42.6961066" y="0.139875" width="3.27203279" height="35.7965625"></rect></g><polygon id="Path" fill="#6CBAC7" points="35 82.6079742 35 88 65 88 65 72 51.6666667 72"></polygon><polygon id="Path" fill="#DEDEDE" points="62.4859783 19.6025575 62.4859783 5 37 26 69 26"></polygon></g></g></g></g></svg>