<svg width="56" height="36" viewBox="0 0 56 36" fill="none" xmlns="http://www.w3.org/2000/svg">
<g clip-path="url(#clip0_103_22462)">
<path d="M1.19092 0.116699H54.8092C55.9064 0.116699 56.7951 1.01535 56.7951 2.12476V30.2378C56.7951 31.3472 55.9064 32.2459 54.8092 32.2459H1.19092C0.0937863 32.246 -0.794922 31.3474 -0.794922 30.2379V2.12487C-0.794922 1.01535 0.0937863 0.116699 1.19092 0.116699Z" fill="#346AE5"/>
<path d="M42.2452 0.116699H39.8203V32.2459H42.2452V0.116699Z" fill="#126099"/>
<path d="M36.7896 6.17871H2.8418V26.1837H36.7896V6.17871Z" fill="#87CED9"/>
<path d="M6.24634 32.3052H2.29102V35.8727H6.24634V32.3052Z" fill="#126099"/>
<path d="M53.7112 32.3052H49.7559V35.8727H53.7112V32.3052Z" fill="#126099"/>
<path d="M20.0043 10.701L14.5237 16.2556L13.1149 14.8277L18.5954 9.27315L20.0043 10.701Z" fill="#F5EBDE"/>
<path d="M25.9883 10.7004L15.5274 21.3025L14.1185 19.8746L24.5794 9.2725L25.9883 10.7004Z" fill="#F5EBDE"/>
<path d="M26.4803 16.2574L21.5 21.305L20.0911 19.8771L25.0714 14.8295L26.4803 16.2574Z" fill="#F5EBDE"/>
<path d="M49.2177 26.1837C51.3939 26.1837 53.1581 24.4196 53.1581 22.2433C53.1581 20.0671 51.3939 18.303 49.2177 18.303C47.0415 18.303 45.2773 20.0671 45.2773 22.2433C45.2773 24.4196 47.0415 26.1837 49.2177 26.1837Z" fill="#CFCFCF"/>
<path d="M50.126 18.303H47.7012V26.1837H50.126V18.303Z" fill="#F5EBDE"/>
<path d="M49.2177 14.0594C51.3939 14.0594 53.1581 12.2953 53.1581 10.1191C53.1581 7.94287 51.3939 6.17871 49.2177 6.17871C47.0415 6.17871 45.2773 7.94287 45.2773 10.1191C45.2773 12.2953 47.0415 14.0594 49.2177 14.0594Z" fill="#CFCFCF"/>
<path d="M50.126 6.17871H47.7012V14.0594H50.126V6.17871Z" fill="#F5EBDE"/>
</g>
<defs>
<clipPath id="clip0_103_22462">
<rect width="57.59" height="35.7664" fill="white" transform="translate(-0.794922 0.116699)"/>
</clipPath>
</defs>
</svg>
