<svg width="32" height="32" viewBox="0 0 32 32" fill="none" xmlns="http://www.w3.org/2000/svg">
<g clip-path="url(#clip0_437_10994)">
<path d="M4.10197 30.2543V27.5251C4.10197 27.1157 3.81181 26.8428 3.37667 26.8428C2.94153 26.8428 2.65137 27.1158 2.65137 27.5251V30.2543H4.10197Z" fill="#DA8C36"/>
<path d="M30.2138 30.2543V27.5251C30.2138 27.1157 29.9236 26.8428 29.4885 26.8428C29.0533 26.8428 28.7632 27.1158 28.7632 27.5251V30.2543H30.2138Z" fill="#DA8C36"/>
<path d="M28.7627 26.8428V28.2074H29.4881V30.2543H30.2134V28.2074V26.8428H28.7627Z" fill="#C97629"/>
<path d="M2.65088 26.8428V28.2074H3.37618V30.2543H4.10155V28.2074V26.8428H2.65088Z" fill="#C97629"/>
<path d="M16.4327 4.32432C15.9138 4.32432 15.5679 4.03601 15.5679 3.60362V0.7207C15.5679 0.288317 15.9138 0 16.4327 0C16.9517 0 17.2976 0.288317 17.2976 0.7207V3.60356C17.2976 4.03607 16.9517 4.32432 16.4327 4.32432Z" fill="#B0C4D9"/>
<path d="M7.78369 30.2703V7.08256C7.78369 6.64777 8.07201 6.35796 8.50439 6.35796H12.108C12.5405 6.35796 12.8287 6.06809 12.8287 5.63337V4.18405C12.8287 3.74927 13.117 3.45946 13.5494 3.45946H19.3152C19.7476 3.45946 20.0359 3.74933 20.0359 4.18405V5.6333C20.0359 6.06809 20.3242 6.3579 20.7566 6.3579H24.3603C24.7927 6.3579 25.081 6.64777 25.081 7.08249V30.2703H7.78369Z" fill="#D5E3EF"/>
<path d="M21.7659 11.2432H10.2344C9.80193 11.2432 9.51367 10.9838 9.51367 10.5946V9.29729C9.51367 8.90808 9.80199 8.64865 10.2344 8.64865H21.7659C22.1984 8.64865 22.4866 8.90814 22.4866 9.29729V10.5946C22.4866 10.9838 22.1984 11.2432 21.7659 11.2432Z" fill="#4C9CD6"/>
<path d="M15.2195 11.199H13.8433L15.9076 8.68303H17.2839L15.2195 11.199Z" fill="#70B7E5"/>
<path d="M18.6602 11.199H15.9077L17.9721 8.68303H20.7246L18.6602 11.199Z" fill="#70B7E5"/>
<path d="M21.7659 15.5676H10.2344C9.80193 15.5676 9.51367 15.3081 9.51367 14.9189V13.6216C9.51367 13.2324 9.80199 12.973 10.2344 12.973H21.7659C22.1984 12.973 22.4866 13.2324 22.4866 13.6216V14.9189C22.4866 15.3081 22.1984 15.5676 21.7659 15.5676Z" fill="#4C9CD6"/>
<path d="M15.2195 15.5676H13.8433L15.9076 12.9981H17.2839L15.2195 15.5676Z" fill="#70B7E5"/>
<path d="M18.6602 15.5676H15.9077L17.9721 12.9981H20.7246L18.6602 15.5676Z" fill="#70B7E5"/>
<path d="M21.7659 19.8919H10.2344C9.80193 19.8919 9.51367 19.6324 9.51367 19.2433V17.9459C9.51367 17.5567 9.80199 17.2973 10.2344 17.2973H21.7659C22.1984 17.2973 22.4866 17.5568 22.4866 17.9459V19.2433C22.4866 19.6325 22.1984 19.8919 21.7659 19.8919Z" fill="#4C9CD6"/>
<path d="M15.2195 19.8818H13.8433L15.9076 17.3124H17.2839L15.2195 19.8818Z" fill="#70B7E5"/>
<path d="M18.6602 19.8818H15.9077L17.9721 17.3124H20.7246L18.6602 19.8818Z" fill="#70B7E5"/>
<path d="M21.7659 24.2162H10.2344C9.80193 24.2162 9.51367 23.9567 9.51367 23.5676V22.2703C9.51367 21.8811 9.80199 21.6216 10.2344 21.6216H21.7659C22.1984 21.6216 22.4866 21.8811 22.4866 22.2703V23.5676C22.4866 23.9568 22.1984 24.2162 21.7659 24.2162Z" fill="#4C9CD6"/>
<path d="M15.2195 24.1961H13.8433L15.9076 21.6266H17.2839L15.2195 24.1961Z" fill="#70B7E5"/>
<path d="M18.6602 24.1961H15.9077L17.9721 21.6266H20.7246L18.6602 24.1961Z" fill="#70B7E5"/>
<path d="M31.2728 32H0.727251C0.290938 32 0 31.654 0 31.1351C0 30.6163 0.290938 30.2703 0.727251 30.2703H31.2727C31.7091 30.2703 32 30.6163 32 31.1351C32 31.654 31.7091 32 31.2728 32Z" fill="#595A66"/>
<path d="M31.1349 25.4054C31.1349 26.6919 30.1979 27.6757 28.9727 27.6757C27.7475 27.6757 26.8105 26.6919 26.8105 25.4054C26.8105 24.1189 28.9727 21.6216 28.9727 21.6216C28.9727 21.6216 31.1349 24.1189 31.1349 25.4054Z" fill="#89C763"/>
<path d="M29.9765 23.3513C30.2082 23.8395 30.3626 24.258 30.3626 24.6068C30.3626 25.9319 29.3588 26.9782 28.0461 26.9782C27.5827 26.9782 27.1966 26.8387 26.8105 26.6294C27.1966 27.2572 27.9689 27.6757 28.8183 27.6757C30.131 27.6757 31.1349 26.769 31.1349 25.5833C31.1349 25.0253 30.5171 24.1186 29.9765 23.3513Z" fill="#71B956"/>
<path d="M5.18956 25.4054C5.18956 26.6919 4.25264 27.6757 3.0274 27.6757C1.80216 27.6757 0.865234 26.6919 0.865234 25.4054C0.865234 24.1189 3.0274 21.6216 3.0274 21.6216C3.0274 21.6216 5.18956 24.1189 5.18956 25.4054Z" fill="#89C763"/>
<path d="M18.1563 26.0013H13.8433V30.2536H18.1563V26.0013Z" fill="#4C9CD6"/>
<path d="M21.7508 28.8362H20.3131C19.8817 28.8362 19.5942 28.5527 19.5942 28.1275V26.7101C19.5942 26.2848 19.8818 26.0014 20.3131 26.0014H21.7508C22.1821 26.0014 22.4696 26.2849 22.4696 26.7101V28.1275C22.4696 28.5527 22.1821 28.8362 21.7508 28.8362Z" fill="#4C9CD6"/>
<path d="M11.6868 28.8363H10.2491C9.81778 28.8363 9.53027 28.5527 9.53027 28.1276V26.7101C9.53027 26.2848 9.81784 26.0014 10.2491 26.0014H11.6868C12.1181 26.0014 12.4056 26.2849 12.4056 26.7101V28.1276C12.4056 28.5527 12.1181 28.8363 11.6868 28.8363Z" fill="#4C9CD6"/>
<path d="M4.03123 23.3513C4.2629 23.8395 4.41732 24.258 4.41732 24.6068C4.41732 25.9319 3.41348 26.9782 2.10074 26.9782C1.63741 26.9782 1.25132 26.8387 0.865234 26.6294C1.25132 27.2572 2.02356 27.6757 2.87298 27.6757C4.18572 27.6757 5.18956 26.769 5.18956 25.5833C5.18956 25.0253 4.57174 24.1186 4.03123 23.3513Z" fill="#71B956"/>
<path d="M19.3151 3.45946H13.5493C13.1169 3.45946 12.8286 3.71894 12.8286 4.10809V5.40542C12.8286 5.79462 12.5403 6.05405 12.1079 6.05405H20.7566C20.3241 6.05405 20.0359 5.79456 20.0359 5.40542V4.10809C20.0359 3.71889 19.7475 3.45946 19.3151 3.45946Z" fill="#C9D5E3"/>
<path d="M19.1997 5.40542V4.10809C19.1997 3.71889 18.9229 3.45946 18.5078 3.45946H16.4321C16.8473 3.45946 17.124 3.71894 17.124 4.10809V5.40542C17.124 5.79462 17.4008 6.05405 17.8159 6.05405H19.8916C19.4764 6.05405 19.1997 5.79462 19.1997 5.40542Z" fill="#B0C4D9"/>
<path d="M22.4866 9.51352H9.51367C9.51367 8.99457 9.80199 8.64865 10.2344 8.64865H21.7659C22.1984 8.64858 22.4866 8.99457 22.4866 9.51352Z" fill="#3689C9"/>
<path d="M17.1443 9.46515L17.7568 8.69096H16.2254L15.6128 9.46515H17.1443Z" fill="#4C9CD6"/>
<path d="M20.973 9.46515L21.5857 8.69096H18.5227L17.9102 9.46515H20.973Z" fill="#4C9CD6"/>
<path d="M22.4866 13.8378H9.51367C9.51367 13.3189 9.80199 12.973 10.2344 12.973H21.7659C22.1984 12.973 22.4866 13.3189 22.4866 13.8378Z" fill="#3689C9"/>
<path d="M17.1443 13.7774L17.7568 13.0032H16.2254L15.6128 13.7774H17.1443Z" fill="#4C9CD6"/>
<path d="M20.973 13.7774L21.5857 13.0032H18.5227L17.9102 13.7774H20.973Z" fill="#4C9CD6"/>
<path d="M22.4866 18.1622H9.51367C9.51367 17.6432 9.80199 17.2973 10.2344 17.2973H21.7659C22.1984 17.2973 22.4866 17.6432 22.4866 18.1622Z" fill="#3689C9"/>
<path d="M17.1443 18.1556L17.7568 17.317H16.2254L15.6128 18.1556H17.1443Z" fill="#4C9CD6"/>
<path d="M20.973 18.1556L21.5857 17.317H18.5227L17.9102 18.1556H20.973Z" fill="#4C9CD6"/>
<path d="M22.4695 22.3637H9.53027C9.53027 21.9219 9.81784 21.6274 10.2491 21.6274H21.7507C22.182 21.6274 22.4695 21.9219 22.4695 22.3637Z" fill="#3689C9"/>
<path d="M22.4696 26.782H19.5942C19.5942 26.3402 19.8818 26.0457 20.3131 26.0457H21.7508C22.1821 26.0457 22.4696 26.3403 22.4696 26.782Z" fill="#3689C9"/>
<path d="M12.4056 26.782H9.53027C9.53027 26.3402 9.81784 26.0457 10.2491 26.0457H11.6868C12.1181 26.0457 12.4056 26.3403 12.4056 26.782Z" fill="#3689C9"/>
<path d="M17.1443 22.4668L17.7568 21.6282H16.2254L15.6128 22.4668H17.1443Z" fill="#4C9CD6"/>
<path d="M20.973 22.4668L21.5857 21.6282H18.5227L17.9102 22.4668H20.973Z" fill="#4C9CD6"/>
<path d="M15.9998 26.0013L13.8433 28.5527V30.2536L17.4375 26.0013H15.9998Z" fill="#70B7E5"/>
<path d="M18.1563 26.0013L14.562 30.2536H17.4374L18.1563 29.4032V26.0013Z" fill="#70B7E5"/>
<path d="M16.8517 29.8469C17.3293 29.8469 17.7165 29.4597 17.7165 28.982C17.7165 28.5044 17.3293 28.1172 16.8517 28.1172C16.374 28.1172 15.9868 28.5044 15.9868 28.982C15.9868 29.4597 16.374 29.8469 16.8517 29.8469Z" fill="#006CCC"/>
<path d="M16.0133 29.8469C16.491 29.8469 16.8782 29.4597 16.8782 28.982C16.8782 28.5044 16.491 28.1172 16.0133 28.1172C15.5357 28.1172 15.1484 28.5044 15.1484 28.982C15.1484 29.4597 15.5357 29.8469 16.0133 29.8469Z" fill="#006CCC"/>
</g>
<defs>
<clipPath id="clip0_437_10994">
<rect width="32" height="32" fill="white"/>
</clipPath>
</defs>
</svg>
