<svg width="48" height="56" viewBox="0 0 48 56" fill="none" xmlns="http://www.w3.org/2000/svg">
<g clip-path="url(#clip0_103_22294)">
<path d="M47.452 -0.794922H0.548828V53.8265H47.452V-0.794922Z" fill="#346AE5"/>
<path d="M42.7026 25.3284H5.29883V48.4831H42.7026V25.3284Z" fill="#87CED9"/>
<path d="M5.29883 40.3597V48.4831H42.7026V25.3284H23.981L5.29883 40.3597Z" fill="#46CFF9"/>
<path d="M4.52562 52.8608H2.57812V56.7953H4.52562V52.8608Z" fill="#126099"/>
<path d="M45.4221 53.8442H43.4746V56.7951H45.4221V53.8442Z" fill="#126099"/>
<path d="M47.3705 19.4182H0.630859V21.3854H47.3705V19.4182Z" fill="#126099"/>
<path d="M19.1601 16.9272C20.7641 16.9272 22.0644 15.6215 22.0644 14.0108C22.0644 12.4002 20.7641 11.0945 19.1601 11.0945C17.5562 11.0945 16.2559 12.4002 16.2559 14.0108C16.2559 15.6215 17.5562 16.9272 19.1601 16.9272Z" fill="#CFCFCF"/>
<path d="M9.4785 16.9272C11.0825 16.9272 12.3828 15.6215 12.3828 14.0108C12.3828 12.4002 11.0825 11.0945 9.4785 11.0945C7.87451 11.0945 6.57422 12.4002 6.57422 14.0108C6.57422 15.6215 7.87451 16.9272 9.4785 16.9272Z" fill="#CFCFCF"/>
<path d="M38.5215 16.9272C40.1255 16.9272 41.4257 15.6215 41.4257 14.0108C41.4257 12.4002 40.1255 11.0945 38.5215 11.0945C36.9175 11.0945 35.6172 12.4002 35.6172 14.0108C35.6172 15.6215 36.9175 16.9272 38.5215 16.9272Z" fill="#CFCFCF"/>
<path d="M28.8398 16.9272C30.4438 16.9272 31.7441 15.6215 31.7441 14.0108C31.7441 12.4002 30.4438 11.0945 28.8398 11.0945C27.2358 11.0945 25.9355 12.4002 25.9355 14.0108C25.9355 15.6215 27.2358 16.9272 28.8398 16.9272Z" fill="#CFCFCF"/>
<path d="M10.8434 11.0945H8.87891V16.9272H10.8434V11.0945Z" fill="#F5EBDE"/>
<path d="M20.6657 11.0945H18.7012V16.9272H20.6657V11.0945Z" fill="#F5EBDE"/>
<path d="M30.488 11.0945H28.5234V16.9272H30.488V11.0945Z" fill="#F5EBDE"/>
<path d="M40.3102 11.0945H38.3457V16.9272H40.3102V11.0945Z" fill="#F5EBDE"/>
<path d="M7.27234 7.44706H5.34766V3.2316C5.34766 2.6499 5.77881 2.17773 6.31 2.17773H9.19702V4.28546H7.27234V7.44706Z" fill="#CFCFCF"/>
<path d="M20.7458 7.44706H18.8212V4.28546H16.8965V2.17773H19.7835C20.3147 2.17773 20.7458 2.6499 20.7458 3.2316V7.44706Z" fill="#CFCFCF"/>
<path d="M14.0087 2.17773H12.084V7.44706H14.0087V2.17773Z" fill="#CFCFCF"/>
<path d="M30.368 7.44706H28.4434V3.2316C28.4434 2.6499 28.8745 2.17773 29.4057 2.17773H32.2927V4.28546H30.368V7.44706Z" fill="#CFCFCF"/>
<path d="M43.8416 7.44706H41.9169V4.28546H39.9922V2.17773H42.8792C43.4104 2.17773 43.8416 2.6499 43.8416 3.2316V7.44706Z" fill="#CFCFCF"/>
<path d="M37.1044 2.17773H35.1797V7.44706H37.1044V2.17773Z" fill="#CFCFCF"/>
<path d="M24.8027 32.0977L19.2782 37.5483L17.858 36.1471L23.3825 30.6964L24.8027 32.0977Z" fill="#F5EBDE"/>
<path d="M30.834 32.0962L20.2891 42.5001L18.8688 41.0988L29.4138 30.695L30.834 32.0962Z" fill="#F5EBDE"/>
<path d="M31.3281 37.5559L26.3077 42.5091L24.8875 41.1079L29.9079 36.1547L31.3281 37.5559Z" fill="#F5EBDE"/>
<path d="M47.452 5.73584H0.548828V8.11069H47.452V5.73584Z" fill="#CFCFCF"/>
</g>
<defs>
<clipPath id="clip0_103_22294">
<rect width="46.9032" height="57.59" fill="white" transform="translate(0.548828 -0.794922)"/>
</clipPath>
</defs>
</svg>
