<svg width="36" height="36" viewBox="0 0 36 36" fill="none" xmlns="http://www.w3.org/2000/svg">
<g clip-path="url(#clip0_285_18773)">
<g clip-path="url(#clip1_285_18773)">
<path d="M17.6215 13.7068H6.83838V0.416602C6.83838 0.194274 7.01866 0.0139923 7.24099 0.0139923H17.2188C17.4412 0.0139923 17.6214 0.194274 17.6214 0.416602L17.6215 13.7068Z" fill="#EBB34C"/>
<path d="M16.3745 0.013916V13.7067H17.6214V0.416596C17.6214 0.194268 17.4411 0.0139863 17.2188 0.0139863H16.3745V0.013916Z" fill="#FFAC27"/>
<path d="M12.9119 3.11617H11.5483C11.3692 3.11617 11.2241 2.97105 11.2241 2.79196V0.013916H13.2361V2.79196C13.2361 2.97105 13.0909 3.11617 12.9119 3.11617Z" fill="#DE585F"/>
<path d="M30.0018 25.5707H13.4771V9.26472C13.4771 8.91766 13.7584 8.63634 14.1054 8.63634H29.5992C29.8215 8.63634 30.0018 8.81662 30.0018 9.03895V25.5707Z" fill="#F1CB86"/>
<path d="M28.7549 8.63634V25.5707H30.0017V9.03895C30.0017 8.81662 29.8215 8.63634 29.5991 8.63634H28.7549Z" fill="#ECBE6B"/>
<path d="M22.4212 11.7386H21.0576C20.8785 11.7386 20.7334 11.5935 20.7334 11.4144V8.63634H22.7454V11.4144C22.7454 11.5935 22.6003 11.7386 22.4212 11.7386Z" fill="#365E7D"/>
<path d="M19.4752 35.9861H0.514828C0.230484 35.9861 0 35.7556 0 35.4712V23.076C0 22.8536 0.180281 22.6734 0.402609 22.6734H19.0472C19.2836 22.6734 19.4752 22.8651 19.4752 23.1014V35.9861Z" fill="#EBB34C"/>
<path d="M18.228 22.6734V35.9861H19.4749V23.1014C19.4749 22.8651 19.2832 22.6734 19.0468 22.6734H18.228Z" fill="#FFAC27"/>
<path d="M10.4192 25.7756H9.05566C8.87657 25.7756 8.73145 25.6305 8.73145 25.4514V22.6734H10.7434V25.4514C10.7434 25.6305 10.5983 25.7756 10.4192 25.7756Z" fill="#365E7D"/>
<path d="M35.485 35.9861H19.4751V25.5708H35.5973C35.8196 25.5708 35.9999 25.751 35.9999 25.9734V35.4712C35.9999 35.7555 35.7694 35.9861 35.485 35.9861Z" fill="#EBB34C"/>
<path d="M34.7529 25.5708V35.9861H35.485C35.7693 35.9861 35.9998 35.7556 35.9998 35.4712V25.9734C35.9998 25.751 35.8195 25.5708 35.5972 25.5708H34.7529V25.5708Z" fill="#FFAC27"/>
<path d="M28.4192 28.673H27.0557C26.8766 28.673 26.7314 28.5279 26.7314 28.3488V25.5708H28.7434V28.3488C28.7434 28.5279 28.5983 28.673 28.4192 28.673Z" fill="#DE585F"/>
<path d="M13.4769 22.6734H2.69385V14.1094C2.69385 13.8871 2.87413 13.7068 3.09646 13.7068H13.4769V22.6734Z" fill="#F1CB86"/>
<path d="M12.23 13.7068H13.4768V22.6734H12.23V13.7068Z" fill="#ECBE6B"/>
<path d="M8.76737 16.809H7.4038C7.22471 16.809 7.07959 16.6639 7.07959 16.4848V13.7068H9.09158V16.4848C9.09158 16.6639 8.94646 16.809 8.76737 16.809Z" fill="#DE585F"/>
</g>
</g>
<defs>
<clipPath id="clip0_285_18773">
<rect width="36" height="36" fill="white"/>
</clipPath>
<clipPath id="clip1_285_18773">
<rect width="36" height="36" fill="white"/>
</clipPath>
</defs>
</svg>
