<svg width="56" height="56" viewBox="0 0 56 56" fill="none" xmlns="http://www.w3.org/2000/svg">
<path d="M23.0016 36.5256C22.6716 36.5256 22.4043 36.2583 22.4043 35.9284V10.9422C22.4043 10.6122 22.6716 10.3449 23.0016 10.3449C23.3315 10.3449 23.5988 10.6122 23.5988 10.9422V35.9284C23.5988 36.2583 23.3315 36.5256 23.0016 36.5256Z" fill="#3B80CA"/>
<path d="M32.5563 36.5256C32.2263 36.5256 31.959 36.2583 31.959 35.9284V10.9422C31.959 10.6122 32.2263 10.3449 32.5563 10.3449C32.8862 10.3449 33.1535 10.6122 33.1535 10.9422V35.9284C33.1535 36.2583 32.8862 36.5256 32.5563 36.5256Z" fill="#3B80CA"/>
<path d="M33.7909 34.6942H21.7676V37.1628H33.7909V34.6942Z" fill="#F5B68B"/>
<path d="M27.7785 49.4543C27.1187 49.4543 26.584 48.9194 26.584 48.2598V6.76986C26.584 6.11023 27.1187 5.57531 27.7785 5.57531C28.4384 5.57531 28.9731 6.11023 28.9731 6.76986V48.2598C28.9731 48.9194 28.4384 49.4543 27.7785 49.4543Z" fill="#E1738C"/>
<path d="M41.517 44.1584C41.1212 44.1584 40.8003 43.8376 40.8003 43.4417C40.8003 43.0458 41.1212 42.725 41.517 42.725C41.9129 42.725 42.2338 43.0458 42.2338 43.4417C42.2338 43.8376 41.9129 44.1584 41.517 44.1584ZM39.4863 38.6239V48.2595H44.0256V38.6239H39.4863Z" fill="#22527F"/>
<path d="M44.0259 49.4543C43.366 49.4543 42.8313 48.9194 42.8313 48.2598V23.0156C42.8313 14.7164 36.0793 7.96439 27.7801 7.96439C19.4807 7.96439 12.7289 14.7164 12.7289 23.0156V48.2598C12.7289 48.9194 12.194 49.4543 11.5344 49.4543C10.8745 49.4543 10.3398 48.9194 10.3398 48.2598V23.0156C10.3398 13.3991 18.1636 5.57531 27.7801 5.57531C37.3967 5.57531 45.2204 13.3991 45.2204 23.0156V48.2598C45.2204 48.9194 44.6857 49.4543 44.0259 49.4543Z" fill="#E1738C"/>
<path d="M19.6555 49.4543C18.9956 49.4543 18.4609 48.9194 18.4609 48.2598V25.3504C18.4609 14.9809 21.1618 8.9248 27.2188 5.71435C27.8013 5.40545 28.5247 5.62762 28.8338 6.21032C29.1427 6.79325 28.9206 7.51643 28.3379 7.82534C23.0893 10.6072 20.85 15.8484 20.85 25.3504V48.2598C20.85 48.9194 20.3153 49.4543 19.6555 49.4543Z" fill="#E1738C"/>
<path d="M35.9016 49.4541C35.2418 49.4541 34.7071 48.9192 34.7071 48.2596V25.3502C34.7071 15.8481 32.4678 10.6069 27.2192 7.8251C26.6365 7.51619 26.4144 6.79301 26.7233 6.21008C27.0322 5.6269 27.7556 5.40544 28.3383 5.71411C34.3951 8.92456 37.0962 14.9806 37.0962 25.3502V48.2596C37.0962 48.9192 36.5615 49.4541 35.9016 49.4541Z" fill="#E1738C"/>
<path d="M45.7805 24.2097H9.77657C9.11695 24.2097 8.58203 23.6748 8.58203 23.0152C8.58203 22.3556 9.11695 21.8206 9.77657 21.8206H45.7805C46.4403 21.8206 46.975 22.3556 46.975 23.0152C46.975 23.6748 46.4403 24.2097 45.7805 24.2097Z" fill="#22527F"/>
<path d="M9.07227 56.0002H46.4848V48.2596H9.07227V56.0002Z" fill="#70A0F2"/>
<path d="M9.07227 56.0002H13.2051V48.2596H9.07227V56.0002Z" fill="#4A89DC"/>
<path d="M47.5591 46.8266H8V48.2595H47.5591V46.8266Z" fill="#D4D4D6"/>
<path d="M27.779 2.38919C26.9005 2.38919 26.186 3.10376 26.186 3.98222C26.186 4.86045 26.9005 5.57503 27.779 5.57503C28.6575 5.57503 29.372 4.86045 29.372 3.98222C29.372 3.10376 28.6575 2.38919 27.779 2.38919ZM27.779 7.96411C25.5832 7.96411 23.7969 6.17779 23.7969 3.98222C23.7969 1.78642 25.5832 0.000110626 27.779 0.000110626C29.9746 0.000110626 31.7611 1.78642 31.7611 3.98222C31.7611 6.17779 29.9746 7.96411 27.779 7.96411Z" fill="#22527F"/>
</svg>
