<svg width="32" height="32" viewBox="0 0 32 32" fill="none" xmlns="http://www.w3.org/2000/svg">
<g clip-path="url(#clip0_437_10987)">
<path d="M14.6946 19.2941C14.3484 19.2941 14.1177 19.0656 14.1177 18.7227V14.7227C14.1177 13.4655 15.156 12.437 16.4251 12.437C21.2129 12.037 28.5389 11.4084 29.0004 11.2941C30.0387 11.0656 30.8463 10.0941 30.8463 9.00843V6.72274C30.8463 5.46557 29.8079 4.43704 28.5389 4.43704C28.1928 4.43704 27.962 4.20847 27.962 3.86558C27.962 3.5227 28.1928 3.29413 28.5389 3.29413C30.4425 3.29413 32 4.83696 32 6.72274V9.00843C32 10.6656 30.8463 12.0942 29.2312 12.437C28.712 12.5514 18.5018 13.4085 16.4828 13.5799C15.7905 13.5799 15.2714 14.0942 15.2714 14.7227V18.7227C15.2714 19.0656 15.0406 19.2941 14.6946 19.2941Z" fill="#A3AAAF"/>
<path d="M17.8824 18.353H10.353L10.8909 21.1765H11.9665V30.2118C11.9665 31.4542 12.9346 32.4706 14.1177 32.4706C15.3009 32.4706 16.269 31.4541 16.269 30.2118V21.1765H17.3446L17.8824 18.353Z" fill="#FF5F00"/>
<path d="M0.940918 3.83197V5.98321C0.940918 6.57479 1.46358 7.05883 2.10236 7.05883H27.0736C27.7124 7.05883 28.235 6.57479 28.235 5.98321V0.60504C28.235 0.0134638 27.7124 -0.470581 27.0736 -0.470581H2.10243C1.46358 -0.470581 0.940918 0.0134638 0.940918 0.60504V2.75628V3.83197Z" fill="#ECE8D8"/>
<path d="M0.627475 3.29413C0.250976 3.29413 0 3.67058 0 4.2353C0 4.80003 0.250976 5.17648 0.627475 5.17648H1.88235V3.29413H0.627475Z" fill="#A3AAAF"/>
<path d="M4.32362 6.05903C4.20915 6.05903 4.03751 6.00132 3.98028 5.94361C3.7514 5.71282 3.69416 5.36661 3.92304 5.13583L6.78403 1.674C7.01291 1.44321 7.35626 1.3855 7.58514 1.61629C7.81401 1.84707 7.87125 2.19328 7.64237 2.42406L4.78138 5.88596C4.66691 6.00138 4.49526 6.05903 4.32362 6.05903Z" fill="#C9C3A7"/>
<path d="M8.32899 6.05903C8.21452 6.05903 8.04288 6.00132 7.98565 5.94361C7.75677 5.71282 7.69953 5.36661 7.92841 5.13583L10.7894 1.674C11.0183 1.44321 11.3616 1.3855 11.5905 1.61629C11.8194 1.84707 11.8766 2.19328 11.6477 2.42406L8.78675 5.88589C8.67228 6.00138 8.50064 6.05903 8.32899 6.05903Z" fill="#C9C3A7"/>
<path d="M12.3344 6.05903C12.2199 6.05903 12.0483 6.00132 11.991 5.94361C11.7621 5.71282 11.7049 5.36661 11.9338 5.13583L14.7948 1.674C15.0237 1.44321 15.367 1.3855 15.5959 1.61629C15.8248 1.84707 15.882 2.19328 15.6531 2.42406L12.7921 5.88589C12.6776 6.00138 12.506 6.05903 12.3344 6.05903Z" fill="#C9C3A7"/>
<path d="M16.3397 6.05903C16.2253 6.05903 16.0536 6.00132 15.9964 5.94361C15.7675 5.71282 15.7103 5.36661 15.9392 5.13583L18.8001 1.674C19.029 1.44321 19.3724 1.3855 19.6013 1.61629C19.8301 1.84707 19.8874 2.19328 19.6585 2.42406L16.7975 5.88589C16.6831 6.00138 16.5114 6.05903 16.3397 6.05903Z" fill="#C9C3A7"/>
<path d="M20.3451 6.05903C20.2306 6.05903 20.059 6.00132 20.0018 5.94361C19.7729 5.71282 19.7156 5.36661 19.9445 5.13583L22.8055 1.674C23.0344 1.44321 23.3777 1.3855 23.6066 1.61629C23.8355 1.84707 23.8927 2.19328 23.6639 2.42406L20.8029 5.88589C20.6885 6.00138 20.5167 6.05903 20.3451 6.05903Z" fill="#C9C3A7"/>
<path d="M23.7782 6.05903C23.6637 6.05903 23.4921 6.00132 23.4349 5.94361C23.206 5.71282 23.1488 5.36661 23.3776 5.13583L26.2386 1.674C26.4675 1.44321 26.8108 1.3855 27.0397 1.61629C27.2686 1.84707 27.3258 2.19328 27.097 2.42406L24.236 5.88589C24.1215 6.00138 23.9499 6.05903 23.7782 6.05903Z" fill="#C9C3A7"/>
<path d="M10.1316 7.05884H2.82373V11.085C2.82373 12.0627 3.61543 12.8105 4.65072 12.8105C5.68602 12.8105 6.47772 12.0627 6.47772 11.085V15.6863C6.47772 16.6641 7.26942 17.4118 8.30471 17.4118C9.34001 17.4118 10.1317 16.6641 10.1317 15.6863V9.64706C10.1317 10.4523 10.8016 11.085 11.6542 11.085C12.5068 11.085 13.1767 10.4523 13.1767 9.64706V7.05884H10.1316Z" fill="#368CD6"/>
<path d="M14.563 26.874H13.1782V28.1049H14.563C14.8399 28.1049 15.0245 27.8587 15.0245 27.4894C15.0245 27.1201 14.8399 26.874 14.563 26.874Z" fill="#9E5A23"/>
<path d="M15.0245 29.9512C15.0245 29.5819 14.8399 29.3357 14.563 29.3357H13.1782V30.5666H14.563C14.8399 30.5666 15.0245 30.3205 15.0245 29.9512Z" fill="#9E5A23"/>
</g>
<defs>
<clipPath id="clip0_437_10987">
<rect width="32" height="32.9412" fill="white" transform="translate(0 -0.470581)"/>
</clipPath>
</defs>
</svg>
