<svg width="32" height="32" viewBox="0 0 32 32" fill="none" xmlns="http://www.w3.org/2000/svg">
<path d="M2.1963 15.8322H3.4512V23.3616H4.7061V22.0691V15.5206L7.84336 13.6192V20.2244H9.09826V18.9318V12.8586L12.2355 10.9572V17.0871H13.4904V15.7946V10.1967L16.6277 8.29534V13.9499H17.8826V12.6573V7.53481L21.0198 5.63344V10.8126H22.2747V9.52006V4.87285L24.9598 3.2832H26.0394V7.67536H27.2943V3.2832H28.5492C28.8957 3.2832 29.1767 3.00223 29.1767 2.65575C29.1767 2.30927 28.8957 2.0283 28.5492 2.0283H24.7845C24.7807 2.0283 24.777 2.00998 24.7732 2.01004C24.7597 2.01023 24.7464 2.00157 24.733 2.00264C24.7254 2.00326 24.7177 1.99925 24.7101 2.00013C24.6976 2.00163 24.6852 2.00119 24.6727 2.00345C24.6642 2.00496 24.6558 2.0054 24.6475 2.00722C24.6365 2.00966 24.6257 2.01199 24.6148 2.01506C24.6052 2.01776 24.5956 2.02027 24.5862 2.0234C24.5769 2.02654 24.5677 2.0298 24.5586 2.03338C24.5479 2.03752 24.5373 2.04179 24.5268 2.0465C24.519 2.05001 24.5113 2.05377 24.5035 2.05766C24.4922 2.06337 24.4811 2.06927 24.4702 2.07561C24.4666 2.07768 24.463 2.09807 24.4594 2.1002L3.9034 14.5773H2.1963C1.84982 14.5773 1.56885 14.8583 1.56885 15.2048C1.56885 15.5512 1.84982 15.8322 2.1963 15.8322Z" fill="#EBB34C"/>
<path d="M31.3726 27.7538H30.4314V9.52007C30.4314 9.17359 30.1504 8.93027 29.8039 8.93027H24.1569C23.8104 8.93027 23.5294 9.17353 23.5294 9.52007V12.0675H19.7647C19.4182 12.0675 19.1373 12.3108 19.1373 12.6573V15.2048H15.3726C15.0261 15.2048 14.7451 15.448 14.7451 15.7946V18.342H10.9804C10.6339 18.342 10.3529 18.5853 10.3529 18.9318V21.4793H6.58824C6.24176 21.4793 5.96078 21.7226 5.96078 22.0691V24.6165H2.19608C1.8496 24.6165 1.56863 24.8598 1.56863 25.2063V27.7538H0.627451C0.280973 27.7538 0 28.0348 0 28.3812C0 28.7277 0.280973 29.0087 0.627451 29.0087H2.19608H29.8039H31.3726C31.719 29.0087 32 28.7277 32 28.3812C32 28.0348 31.719 27.7538 31.3726 27.7538Z" fill="#5A5A5A"/>
</svg>
