<svg width="36" height="36" viewBox="0 0 36 36" fill="none" xmlns="http://www.w3.org/2000/svg">
<g clip-path="url(#clip0_285_18759)">
<g clip-path="url(#clip1_285_18759)">
<path d="M22.8383 34.0088H5.38321L2.88965 15.113H25.3319L22.8383 34.0088Z" fill="#4398D1"/>
<path d="M27.2022 12.6749H1.01953V15.113H27.2022V12.6749Z" fill="#4398D1"/>
<path d="M2.91895 15.5676L3.2397 18.4865H24.9766L25.2973 15.5676H2.91895Z" fill="#3689C9"/>
<path d="M13.6215 12.6486H4.86475V7.01931L7.36666 3.89189H11.1196L13.6215 7.01931V12.6486Z" fill="#726891"/>
<path d="M10.7029 0H6.81104V3.89189H10.7029V0Z" fill="#CC6470"/>
<path d="M13.6215 6.81081H4.86475V12.6486H13.6215V6.81081Z" fill="#7A709C"/>
<path d="M21.7876 2.64503L22.9129 2.09175L25.4798 7.1572L24.3545 7.71048L21.7876 2.64503Z" fill="#E66712"/>
<path d="M26.2407 0H23.6641V2.41941H26.2407V0Z" fill="#F4AC1C"/>
<path d="M20.4426 4.8389H14.645C14.645 2.16658 16.9524 0 19.7984 0H23.6635V2.41941L20.4426 4.8389Z" fill="#F4AC1C"/>
<path d="M21.4056 4.86487H17.5137V7.78379H21.4056V4.86487Z" fill="#D1D4D4"/>
<path d="M17.4438 6.81081H21.1967L24.3241 10.0541V12.6486H15.5674V8.75678L17.4438 6.81081Z" fill="#F5EBDE"/>
<path d="M31.9867 26.2703H31.0344C30.461 26.2703 29.8955 26.404 29.3822 26.66C28.3423 27.1805 27.1176 27.1805 26.0777 26.66C25.5645 26.404 24.9989 26.2703 24.4255 26.2703H23.4732C21.7942 26.2703 20.4326 27.6318 20.4326 29.3108V32.9595C20.4326 34.6384 21.7942 36 23.4732 36H24.4255C24.9989 36 25.5644 35.8662 26.0777 35.6102C27.1176 35.0897 28.3423 35.0897 29.3822 35.6102C29.8954 35.8662 30.461 36 31.0344 36H31.9867C33.6657 36 35.0272 34.6384 35.0272 32.9595V29.3108C35.0273 27.6318 33.6657 26.2703 31.9867 26.2703Z" fill="#F5A338"/>
<path d="M31.9867 33.0811H31.0344C30.461 33.0811 29.8955 32.9312 29.3822 32.6445C28.3423 32.0616 27.1176 32.0616 26.0777 32.6445C25.5645 32.9312 24.9989 33.0811 24.4255 33.0811H23.4732C21.7942 33.0811 20.4326 31.5561 20.4326 29.6757C20.4326 27.7952 21.7942 26.2703 23.4732 26.2703H24.4255C24.9989 26.2703 25.5644 26.4201 26.0777 26.7068C27.1176 27.2898 28.3423 27.2898 29.3822 26.7068C29.8954 26.4201 30.461 26.2703 31.0344 26.2703H31.9867C33.6657 26.2703 35.0272 27.7952 35.0272 29.6757C35.0273 31.5562 33.6657 33.0811 31.9867 33.0811Z" fill="#FC9F4B"/>
<path d="M32.0426 27.2605H30.8413V28.533H32.0426V27.2605Z" fill="#F5A338"/>
<path d="M26.0362 27.2605H24.835V28.533H26.0362V27.2605Z" fill="#F5A338"/>
<path d="M23.6334 27.8969H22.4321V29.1694H23.6334V27.8969Z" fill="#F5A338"/>
<path d="M29.6402 27.8969H28.439V29.1694H29.6402V27.8969Z" fill="#F5A338"/>
<path d="M17.8326 17.7381V12.6487H7.78418V27.2806C7.78418 28.3348 8.62759 29.1892 9.66828 29.1892H15.9486C16.9892 29.1892 17.8327 28.3348 17.8327 27.2806V20.9189L20.3825 22.2103C21.0551 22.5513 21.8728 22.2752 22.2094 21.5945L22.21 21.5932L22.2257 21.5614C22.5774 20.8622 22.3023 20.0066 21.6127 19.651C21.6103 19.6497 21.6071 19.6478 21.6039 19.6465L17.8326 17.7381Z" fill="#A1D4DB"/>
<path d="M21.6025 19.6466L17.8244 17.7381V12.6487H17.3475C15.0636 20.2414 11.0558 24.8817 7.78418 27.5612C7.91946 28.4958 8.71158 29.1885 9.64525 29.1892H15.9369C16.9794 29.1892 17.8244 28.3348 17.8244 27.2806V20.9189L20.3788 22.2103C21.0527 22.5513 21.8719 22.2752 22.2091 21.5945L22.2097 21.5932L22.2254 21.5614C22.5777 20.8622 22.3022 20.0066 21.6114 19.651C21.6082 19.6498 21.6057 19.6478 21.6025 19.6466Z" fill="#70D6F9"/>
<path d="M11.1123 22.4258H9.76123V29.1815H11.1123V22.4258Z" fill="#7DBDD1"/>
<path d="M13.8144 22.4258H12.4634V29.1815H13.8144V22.4258Z" fill="#7DBDD1"/>
<path d="M16.5166 22.4258H15.1655V29.1815H16.5166V22.4258Z" fill="#7DBDD1"/>
</g>
</g>
<defs>
<clipPath id="clip0_285_18759">
<rect width="36" height="36" fill="white"/>
</clipPath>
<clipPath id="clip1_285_18759">
<rect width="34.0541" height="36" fill="white" transform="translate(0.973145)"/>
</clipPath>
</defs>
</svg>
