<svg width="56" height="56" viewBox="0 0 56 56" fill="none" xmlns="http://www.w3.org/2000/svg">
<g clip-path="url(#clip0_103_22561)">
<path d="M47.8358 8.38682C47.3969 10.3776 47.5221 12.1483 47.639 13.8122C47.8301 16.5236 47.9949 18.8642 45.6078 22.3766C44.5844 23.8819 45.6912 25.9997 47.5221 25.9861C48.2704 25.9803 49.0063 25.6209 49.4409 24.9812C52.7318 20.141 52.4708 16.4516 52.2626 13.4867C52.1672 12.1294 52.0807 10.9014 52.3285 9.60477L51.0872 6.70312L47.8358 8.38682Z" fill="#1948AC"/>
<path d="M35.3244 20.2516C49.0312 15.6834 55.4044 27.0452 50.8854 35.1535L42.1369 38.4528L28 33.8178V25.2429L35.3244 20.2516Z" fill="#4A89DC"/>
<path d="M4.98973 24.2637C4.98973 24.2637 1.52876 20.8479 2.8034 14.281C2.88995 13.835 3.23706 13.4857 3.68259 13.397C10.1955 12.1013 12.8282 15.2599 12.8282 15.2599L4.98973 24.2637Z" fill="#1948AC"/>
<path d="M7.27042 22.3847C7.27042 22.3847 7.29503 22.4067 7.33721 22.4524C7.32886 22.4436 7.30689 22.4194 7.27394 22.3799L7.27042 22.3847ZM6.34114 15.9531H6.33323C5.87452 15.9536 5.50369 16.3349 5.50984 16.7941C5.55642 20.1338 6.95056 21.9928 7.27394 22.3799L10.7468 17.2278C10.6813 17.1632 9.41326 15.9531 6.34114 15.9531Z" fill="#D4D4D6"/>
<path d="M33.2506 24.2637C33.2506 24.2637 36.7116 20.8479 35.4369 14.281C35.3504 13.835 35.0033 13.4857 34.5577 13.397C28.0449 12.1013 25.4121 15.2599 25.4121 15.2599L33.2506 24.2637Z" fill="#1948AC"/>
<path d="M30.965 22.3799C30.9321 22.4194 30.9101 22.4436 30.9018 22.4524C30.9439 22.4067 30.9685 22.3847 30.9685 22.3847L30.965 22.3799ZM27.4922 17.2278L30.965 22.3799C31.2884 21.9928 32.6825 20.1338 32.7291 16.7941C32.7353 16.3349 32.3644 15.9536 31.9057 15.9531H31.8978C28.8257 15.9531 27.5577 17.1632 27.4922 17.2278Z" fill="#D4D4D6"/>
<path d="M3.42383 29.642C3.42383 38.3104 10.4508 45.3374 19.1192 45.3374C27.7877 45.3374 34.8147 38.3104 34.8147 29.642C34.8147 20.9735 27.7877 13.9465 19.1192 13.9465C10.4508 13.9465 3.42383 20.9735 3.42383 29.642Z" fill="#70A0F2"/>
<path d="M6.90018 29.642C6.90018 21.5614 13.0071 14.9079 20.8574 14.0428C20.2867 13.9799 19.7067 13.9465 19.1192 13.9465C10.4508 13.9465 3.42383 20.9735 3.42383 29.642C3.42383 38.3104 10.4508 45.3369 19.1192 45.3369C19.7067 45.3369 20.2867 45.3035 20.8574 45.2407C13.0071 44.376 6.90018 37.7225 6.90018 29.642Z" fill="#4A89DC"/>
<path d="M11.6953 27.3599C11.215 27.3599 10.8262 26.971 10.8262 26.4908V25.1472C10.8262 24.6674 11.215 24.2781 11.6953 24.2781C12.1751 24.2781 12.5643 24.6674 12.5643 25.1472V26.4908C12.5643 26.971 12.1751 27.3599 11.6953 27.3599Z" fill="#1948AC"/>
<path d="M26.5429 27.3599C26.0631 27.3599 25.6738 26.971 25.6738 26.4908V25.1472C25.6738 24.6674 26.0631 24.2781 26.5429 24.2781C27.0232 24.2781 27.412 24.6674 27.412 25.1472V26.4908C27.412 26.971 27.0232 27.3599 26.5429 27.3599Z" fill="#1948AC"/>
<path d="M20.8826 25.7649H17.357C16.6571 25.7649 16.4607 26.7245 17.104 27.0013C17.7169 27.2654 18.3997 27.4126 19.1198 27.4126C19.84 27.4126 20.5227 27.2654 21.1357 27.0013C21.7789 26.7241 21.583 25.7649 20.8826 25.7649Z" fill="#1948AC"/>
<path d="M22.9772 28.3578C22.6156 28.0419 22.0669 28.0788 21.7509 28.4404C21.5119 28.7133 21.1516 28.8701 20.7623 28.8701C20.3731 28.8701 20.0123 28.7133 19.7738 28.4404C19.6204 28.2647 19.395 28.1561 19.1621 28.1447C18.9003 28.132 18.638 28.2427 18.4653 28.4404C18.2263 28.7133 17.8664 28.8701 17.4767 28.8701C17.0874 28.8701 16.7271 28.7133 16.4881 28.4404C16.1722 28.0788 15.623 28.0423 15.2618 28.3578C14.9006 28.6742 14.8637 29.2229 15.1796 29.5841C15.7486 30.2348 16.5861 30.6083 17.4767 30.6083C18.0694 30.6083 18.6375 30.4422 19.1195 30.1399C19.6015 30.4422 20.1696 30.6083 20.7623 30.6083C21.653 30.6083 22.4904 30.2348 23.0594 29.5841C23.3753 29.2229 23.3384 28.6742 22.9772 28.3578Z" fill="#1948AC"/>
<path d="M7.67404 27.6797C7.60066 27.6797 7.52597 27.6705 7.45127 27.6507L3.67263 26.6524C3.20865 26.5298 2.93184 26.054 3.05443 25.59C3.17745 25.126 3.65198 24.8488 4.11684 24.9718L7.89548 25.9705C8.35946 26.0931 8.63627 26.5685 8.51368 27.0325C8.41043 27.4222 8.05893 27.6797 7.67404 27.6797Z" fill="#1948AC"/>
<path d="M3.89408 34.0796C3.50918 34.0796 3.15768 33.8217 3.05443 33.432C2.93184 32.968 3.20865 32.4926 3.67263 32.37L7.45127 31.3717C7.91525 31.2487 8.39066 31.5259 8.51368 31.9899C8.63627 32.4539 8.35946 32.9293 7.89548 33.0519L4.11684 34.0502C4.04259 34.0699 3.96745 34.0796 3.89408 34.0796Z" fill="#1948AC"/>
<path d="M7.67343 30.38H3.42377C2.94398 30.38 2.55469 29.9912 2.55469 29.5109C2.55469 29.0311 2.94398 28.6418 3.42377 28.6418H7.67343C8.15367 28.6418 8.54252 29.0311 8.54252 29.5109C8.54252 29.9912 8.15367 30.38 7.67343 30.38Z" fill="#1948AC"/>
<path d="M30.564 27.6797C30.1791 27.6797 29.8276 27.4222 29.7243 27.0325C29.6018 26.5685 29.8786 26.0931 30.3426 25.9705L34.1212 24.9718C34.5852 24.8488 35.0606 25.126 35.1836 25.59C35.3062 26.054 35.0294 26.5298 34.5654 26.6524L30.7868 27.6507C30.7125 27.6705 30.6374 27.6797 30.564 27.6797Z" fill="#1948AC"/>
<path d="M34.344 34.0796C34.2706 34.0796 34.1959 34.0699 34.1212 34.0502L30.3426 33.0519C29.8786 32.9293 29.6018 32.4539 29.7243 31.9899C29.8474 31.5259 30.3219 31.2487 30.7868 31.3717L34.5654 32.37C35.0294 32.4926 35.3062 32.968 35.1836 33.432C35.0804 33.8217 34.7289 34.0796 34.344 34.0796Z" fill="#1948AC"/>
<path d="M34.8145 30.38H30.5644C30.0846 30.38 29.6953 29.9912 29.6953 29.5109C29.6953 29.0311 30.0846 28.6418 30.5644 28.6418H34.8145C35.2943 28.6418 35.6831 29.0311 35.6831 29.5109C35.6831 29.9912 35.2943 30.38 34.8145 30.38Z" fill="#1948AC"/>
<path d="M37.7324 36.0226C37.2521 36.0226 36.8633 35.6333 36.8633 35.1535C36.8633 30.1903 39.5584 27.6187 41.1648 26.5273C41.562 26.2575 42.1024 26.3607 42.3722 26.7579C42.642 27.1547 42.5387 27.6956 42.142 27.9649C40.5268 29.062 38.6015 31.1996 38.6015 35.1535C38.6015 35.6333 38.2122 36.0226 37.7324 36.0226Z" fill="#1948AC"/>
<path d="M55.3414 4.18501C53.4376 6.33137 52.6322 8.01813 52.3286 9.60472C51.1581 9.04276 49.6576 8.5467 47.8359 8.38677C48.3043 6.25799 49.4177 3.87789 51.8742 1.10981C52.7236 0.151531 54.1884 0.0645348 55.1467 0.91385C56.1037 1.76317 56.1907 3.22805 55.3414 4.18501Z" fill="#D4D4D6"/>
<path d="M27.9996 38.4529L2.50391 41.7526L3.73196 51.6157C4.02547 53.9704 6.02639 55.7375 8.39903 55.7375H47.6007C49.9733 55.7375 51.9742 53.9704 52.2673 51.6157L53.4953 41.7526L27.9996 38.4529Z" fill="#E1738C"/>
<path d="M2.50391 41.7526L2.93669 45.2285H53.0626L53.4953 41.7526L27.9996 38.4529L2.50391 41.7526Z" fill="#D74A6C"/>
<path d="M53.4958 35.1536H2.50436C0.682263 35.1536 -0.794922 36.6307 -0.794922 38.4528C-0.794922 40.2754 0.682263 41.7526 2.50436 41.7526H53.4958C55.3179 41.7526 56.7951 40.2754 56.7951 38.4528C56.7951 36.6307 55.3179 35.1536 53.4958 35.1536Z" fill="#E1738C"/>
</g>
<defs>
<clipPath id="clip0_103_22561">
<rect width="57.59" height="57.59" fill="white" transform="translate(-0.794922 -0.794922)"/>
</clipPath>
</defs>
</svg>
