<svg width="65" height="64" viewBox="0 0 65 64" fill="none" xmlns="http://www.w3.org/2000/svg">
<path d="M44.3489 8C43.1984 8.49291 42.196 8.97755 41.2982 9.46105L42.6983 10.8612C43.1946 11.3575 43.1946 12.162 42.6983 12.6584L38.434 16.9227C37.9561 17.4005 37.1876 17.4209 36.6849 16.9689L34.4264 14.936C33.9455 15.4845 33.4969 16.0605 33.083 16.661C32.7247 17.1772 32.3818 17.7137 32.0566 18.2664C29.0088 23.4425 27.4297 29.8067 27.4297 29.8067H31.5655L37.8485 24.0583L39.2231 22.8011L49.2367 13.6397L44.3489 8Z" fill="#2457C6"/>
<path d="M46.9939 11.0522C42.2708 19.273 32.9702 24.028 28.6328 25.8853C27.8358 28.1712 27.4297 29.8067 27.4297 29.8067H31.5655L37.8485 24.0584L39.2231 22.8012L49.2367 13.6397L46.9939 11.0522Z" fill="#1948AC"/>
<path d="M42.6832 10.8446L41.2996 9.46094C38.7493 10.799 36.4689 12.5981 34.5748 14.7675C34.5251 14.822 34.477 14.8803 34.4277 14.9359L36.011 16.3609C37.9755 14.2291 40.2201 12.3732 42.6832 10.8446Z" fill="#7FABDA"/>
<path d="M29.7506 29.2742L19.4434 54.3177" stroke="#1948AC" stroke-width="1.91971" stroke-linecap="square"/>
<path d="M23.1727 54.3389H15.7617V55.9999H23.1727V54.3389Z" fill="#1948AC"/>
<path d="M39.5723 17.509L38.0684 19.0129L38.6001 19.5446L40.104 18.0407L39.5723 17.509Z" fill="#346AE5"/>
<path d="M40.6992 18.637L39.1953 20.1409L39.727 20.6726L41.231 19.1687L40.6992 18.637Z" fill="#337AB5"/>
<path d="M33.085 16.6611C32.7267 17.1773 32.3838 17.7139 32.0586 18.2666L37.8506 24.0566L39.2252 22.7994L33.085 16.6611Z" fill="#346AE5"/>
</svg>
