<svg width="56" height="56" viewBox="0 0 56 56" fill="none" xmlns="http://www.w3.org/2000/svg">
<g clip-path="url(#clip0_103_22518)">
<path d="M44.3603 39.7798H11.6387V43.7064H44.3603V39.7798Z" fill="#BCB7B3"/>
<path d="M26.036 5.74951H12.293V36.5078H26.036V5.74951Z" fill="#346AE5"/>
<path d="M43.706 5.74951H29.9629V36.5078H43.706V5.74951Z" fill="#346AE5"/>
<path d="M46.324 6.02487V3.13159H9.67578V6.02487H26.071V36.8865H11.6046V39.7798H44.3951V36.8865H29.9287V6.02487H46.324Z" fill="#F5EBDE"/>
<path d="M3.78597 5.09497H-0.140625V56.1407H3.78597V5.09497Z" fill="#DD352E" stroke="#B02721" stroke-width="1.31098" stroke-linecap="round"/>
<path d="M7.71175 5.09497H3.78516V56.1407H7.71175V5.09497Z" fill="#DD352E" stroke="#B02721" stroke-width="1.31098" stroke-linecap="round"/>
<path d="M11.6395 5.09497H7.71289V56.1407H11.6395V5.09497Z" fill="#DD352E" stroke="#B02721" stroke-width="1.31098" stroke-linecap="round"/>
<path d="M48.2879 5.09497H44.3613V56.1407H48.2879V5.09497Z" fill="#DD352E" stroke="#B02721" stroke-width="1.31098" stroke-linecap="round"/>
<path d="M52.2137 5.09497H48.2871V56.1407H52.2137V5.09497Z" fill="#DD352E" stroke="#B02721" stroke-width="1.31098" stroke-linecap="round"/>
<path d="M56.1414 5.09497H52.2148V56.1407H56.1414V5.09497Z" fill="#DD352E" stroke="#B02721" stroke-width="1.31098" stroke-linecap="round"/>
<path d="M-0.140625 2.1499H56.1405" stroke="#38454F" stroke-width="1.31098" stroke-linecap="round"/>
<path d="M2.13793 -0.794922C1.60251 -0.794922 1.16797 -0.356125 1.16797 0.186726V4.11332C1.16797 4.65617 1.60251 5.09496 2.13793 5.09496C2.67335 5.09496 3.10789 4.65617 3.10789 4.11332V0.186726C3.10789 -0.356125 2.67335 -0.794922 2.13793 -0.794922Z" fill="#7383BF"/>
<path d="M6.01684 -0.794922C5.48142 -0.794922 5.04688 -0.356125 5.04688 0.186726V4.11332C5.04688 4.65617 5.48142 5.09496 6.01684 5.09496C6.55226 5.09496 6.9868 4.65617 6.9868 4.11332V0.186726C6.9868 -0.356125 6.55226 -0.794922 6.01684 -0.794922Z" fill="#7383BF"/>
<path d="M9.8977 -0.794922C9.36228 -0.794922 8.92773 -0.356125 8.92773 0.186726V4.11332C8.92773 4.65617 9.36228 5.09496 9.8977 5.09496C10.4331 5.09496 10.8677 4.65617 10.8677 4.11332V0.186726C10.8677 -0.356125 10.4331 -0.794922 9.8977 -0.794922Z" fill="#7383BF"/>
<path d="M46.7571 -0.794922C46.2216 -0.794922 45.7871 -0.356125 45.7871 0.186726V4.11332C45.7871 4.65617 46.2216 5.09496 46.7571 5.09496C47.2925 5.09496 47.727 4.65617 47.727 4.11332V0.186726C47.727 -0.356125 47.2925 -0.794922 46.7571 -0.794922Z" fill="#7383BF"/>
<path d="M50.636 -0.794922C50.1006 -0.794922 49.666 -0.356125 49.666 0.186726V4.11332C49.666 4.65617 50.1006 5.09496 50.636 5.09496C51.1714 5.09496 51.6059 4.65617 51.6059 4.11332V0.186726C51.6059 -0.356125 51.1714 -0.794922 50.636 -0.794922Z" fill="#7383BF"/>
<path d="M54.5149 -0.794922C53.9795 -0.794922 53.5449 -0.356125 53.5449 0.186726V4.11332C53.5449 4.65617 53.9795 5.09496 54.5149 5.09496C55.0503 5.09496 55.4848 4.65617 55.4848 4.11332V0.186726C55.4848 -0.356125 55.0503 -0.794922 54.5149 -0.794922Z" fill="#7383BF"/>
<path d="M28.6543 20.4741H32.5809" stroke="#3779A1" stroke-width="1.31098" stroke-linecap="round"/>
</g>
<defs>
<clipPath id="clip0_103_22518">
<rect width="57.59" height="57.59" fill="white" transform="translate(-0.794922 -0.794922)"/>
</clipPath>
</defs>
</svg>
