<svg width="261" height="210" viewBox="0 0 261 210" fill="none" xmlns="http://www.w3.org/2000/svg">
<path d="M229.625 172.625C229.625 173.833 229.208 174.729 228.375 175.312C227.583 175.896 226.688 176.458 225.688 177C224.688 177.5 223.771 178.104 222.938 178.812C222.146 179.521 221.75 180.583 221.75 182C221.75 182.75 221.917 183.396 222.25 183.938C222.625 184.479 223.062 184.979 223.562 185.438C224.104 185.854 224.688 186.292 225.312 186.75C225.938 187.208 226.5 187.729 227 188.312C227.542 188.896 227.979 189.604 228.312 190.438C228.688 191.271 228.875 192.292 228.875 193.5C228.875 195.25 228.417 196.979 227.5 198.688C226.625 200.354 225.479 201.854 224.062 203.188C222.688 204.479 221.125 205.521 219.375 206.312C217.625 207.104 215.896 207.5 214.188 207.5C213.479 207.5 212.771 207.438 212.062 207.312C211.354 207.229 210.708 207.042 210.125 206.75C209.583 206.458 209.125 206.062 208.75 205.562C208.375 205.021 208.188 204.333 208.188 203.5C208.188 202.333 208.417 201.438 208.875 200.812C209.333 200.146 209.917 199.625 210.625 199.25C211.333 198.875 212.083 198.583 212.875 198.375C213.708 198.167 214.479 197.917 215.188 197.625C215.896 197.292 216.479 196.875 216.938 196.375C217.396 195.875 217.625 195.167 217.625 194.25C217.625 193.375 217.271 192.479 216.562 191.562C215.896 190.604 215.146 189.604 214.312 188.562C213.479 187.479 212.708 186.333 212 185.125C211.333 183.917 211 182.583 211 181.125C211 179.333 211.354 177.688 212.062 176.188C212.812 174.646 213.792 173.312 215 172.188C216.25 171.062 217.667 170.188 219.25 169.562C220.833 168.896 222.5 168.562 224.25 168.562C224.917 168.562 225.562 168.625 226.188 168.75C226.854 168.875 227.438 169.104 227.938 169.438C228.438 169.729 228.833 170.146 229.125 170.688C229.458 171.188 229.625 171.833 229.625 172.625Z" fill="#004480"/>
<path d="M208.812 195.875C208.812 197.292 208.354 198.688 207.438 200.062C206.562 201.396 205.438 202.604 204.062 203.688C202.729 204.729 201.292 205.583 199.75 206.25C198.208 206.875 196.792 207.188 195.5 207.188C193.292 207.188 191.312 206.646 189.562 205.562C187.854 204.438 186.417 203.021 185.25 201.312C184.083 199.604 183.188 197.729 182.562 195.688C181.979 193.604 181.688 191.583 181.688 189.625C181.688 187.542 181.979 185.312 182.562 182.938C183.146 180.562 184.021 178.375 185.188 176.375C186.396 174.375 187.896 172.708 189.688 171.375C191.521 170.042 193.688 169.375 196.188 169.375C197.604 169.375 198.958 169.625 200.25 170.125C201.542 170.583 202.667 171.25 203.625 172.125C204.583 173 205.354 174.042 205.938 175.25C206.521 176.458 206.812 177.812 206.812 179.312C206.812 181.271 206.396 183.104 205.562 184.812C204.729 186.521 203.625 188 202.25 189.25C200.875 190.5 199.292 191.521 197.5 192.312C195.708 193.062 193.875 193.479 192 193.562C192.167 194.771 192.646 195.646 193.438 196.188C194.271 196.729 195.25 197 196.375 197C197.208 197 198.021 196.792 198.812 196.375C199.604 195.958 200.375 195.5 201.125 195C201.875 194.458 202.604 193.979 203.312 193.562C204.062 193.146 204.812 192.938 205.562 192.938C206.396 192.938 207.146 193.208 207.812 193.75C208.479 194.292 208.812 195 208.812 195.875ZM198.688 180.562C198.688 180.021 198.542 179.458 198.25 178.875C197.958 178.292 197.5 178 196.875 178C195.958 178 195.188 178.25 194.562 178.75C193.938 179.208 193.417 179.812 193 180.562C192.583 181.271 192.25 182.042 192 182.875C191.792 183.708 191.667 184.479 191.625 185.188C192.208 185.062 192.896 184.896 193.688 184.688C194.521 184.479 195.292 184.208 196 183.875C196.75 183.5 197.375 183.042 197.875 182.5C198.417 181.958 198.688 181.312 198.688 180.562Z" fill="#004480"/>
<path d="M179.125 183C179.125 183.208 179.104 183.438 179.062 183.688C179.021 183.896 178.958 184.104 178.875 184.312C178.5 185.271 177.917 186.083 177.125 186.75C176.333 187.375 175.396 187.688 174.312 187.688C172.688 187.688 171.583 186.875 171 185.25C170.917 185.042 170.875 184.812 170.875 184.562C170.875 184.271 170.854 183.979 170.812 183.688V181.875C170.729 181.292 170.583 180.833 170.375 180.5C170.167 180.167 169.812 180 169.312 180C168.604 180 167.917 180.458 167.25 181.375C166.625 182.25 166.062 183.312 165.562 184.562C165.104 185.771 164.729 187.021 164.438 188.312C164.146 189.604 164 190.646 164 191.438C164 192.062 164.042 192.833 164.125 193.75C164.208 194.625 164.375 195.479 164.625 196.312C164.875 197.146 165.208 197.875 165.625 198.5C166.083 199.083 166.667 199.375 167.375 199.375C168.083 199.375 168.729 199.167 169.312 198.75C169.938 198.292 170.542 197.771 171.125 197.188C171.667 196.688 172.25 196.167 172.875 195.625C173.542 195.083 174.292 194.812 175.125 194.812C176.167 194.812 176.979 195.188 177.562 195.938C178.188 196.688 178.5 197.542 178.5 198.5C178.5 199.917 178.125 201.25 177.375 202.5C176.625 203.708 175.688 204.771 174.562 205.688C173.438 206.562 172.188 207.25 170.812 207.75C169.438 208.292 168.125 208.562 166.875 208.562C164.625 208.562 162.708 208 161.125 206.875C159.583 205.75 158.333 204.333 157.375 202.625C156.417 200.875 155.729 198.979 155.312 196.938C154.896 194.896 154.688 192.958 154.688 191.125C154.688 189 154.979 186.708 155.562 184.25C156.146 181.75 157.042 179.438 158.25 177.312C159.458 175.188 161 173.417 162.875 172C164.792 170.583 167.062 169.875 169.688 169.875C171.312 169.875 172.708 170.229 173.875 170.938C175.083 171.646 176.062 172.583 176.812 173.75C177.604 174.875 178.188 176.146 178.562 177.562C178.979 178.979 179.188 180.375 179.188 181.75C179.188 181.958 179.188 182.167 179.188 182.375C179.188 182.583 179.167 182.792 179.125 183Z" fill="#004480"/>
<path d="M151 163.375C151 163.958 150.833 164.479 150.5 164.938C150.208 165.396 149.812 165.812 149.312 166.188C148.812 166.521 148.271 166.792 147.688 167C147.104 167.167 146.562 167.25 146.062 167.25C145.229 167.25 144.5 167.042 143.875 166.625C143.25 166.208 142.938 165.562 142.938 164.688C142.938 164.062 143.083 163.521 143.375 163.062C143.708 162.562 144.104 162.167 144.562 161.875C145.021 161.542 145.542 161.292 146.125 161.125C146.708 160.958 147.271 160.875 147.812 160.875C148.604 160.875 149.333 161.062 150 161.438C150.667 161.812 151 162.458 151 163.375ZM151.5 184.625C151.5 185.208 151.5 185.833 151.5 186.5C151.5 187.125 151.479 187.729 151.438 188.312C151.396 189.021 151.375 189.979 151.375 191.188C151.375 192.354 151.333 193.625 151.25 195C151.167 196.375 151.021 197.771 150.812 199.188C150.646 200.604 150.354 201.896 149.938 203.062C149.521 204.229 148.958 205.188 148.25 205.938C147.583 206.646 146.729 207.021 145.688 207.062C144.896 207.104 144.229 206.792 143.688 206.125C143.146 205.458 142.688 204.604 142.312 203.562C141.979 202.479 141.729 201.292 141.562 200C141.396 198.667 141.271 197.396 141.188 196.188C141.104 194.938 141.062 193.792 141.062 192.75C141.062 191.708 141.062 190.938 141.062 190.438C141.062 189.771 141.062 188.833 141.062 187.625C141.062 186.375 141.104 185.042 141.188 183.625C141.271 182.208 141.417 180.771 141.625 179.312C141.875 177.854 142.208 176.521 142.625 175.312C143.083 174.104 143.667 173.125 144.375 172.375C145.083 171.625 145.979 171.25 147.062 171.25C148.188 171.25 149.042 171.812 149.625 172.938C150.208 174.062 150.646 175.375 150.938 176.875C151.229 178.375 151.396 179.875 151.438 181.375C151.479 182.833 151.5 183.917 151.5 184.625Z" fill="#004480"/>
<path d="M136.5 184.625C135.417 187.5 134.229 190.5 132.938 193.625C131.646 196.75 130.25 199.667 128.75 202.375C127.833 204.042 126.812 205.438 125.688 206.562C124.562 207.646 123.271 208.188 121.812 208.188C120.646 208.188 119.5 207.604 118.375 206.438C117.292 205.229 116.271 203.812 115.312 202.188C114.396 200.521 113.583 198.854 112.875 197.188C112.208 195.479 111.708 194.125 111.375 193.125C111.042 192 110.667 190.792 110.25 189.5C109.833 188.208 109.458 186.896 109.125 185.562C108.792 184.229 108.521 182.917 108.312 181.625C108.104 180.292 108 179.042 108 177.875C108 176.25 108.292 174.917 108.875 173.875C109.458 172.833 110.604 172.312 112.312 172.312C112.979 172.312 113.583 172.521 114.125 172.938C114.667 173.312 115.167 173.854 115.625 174.562C116.083 175.271 116.521 176.104 116.938 177.062C117.354 177.979 117.75 179 118.125 180.125C118.5 181.208 118.854 182.333 119.188 183.5C119.521 184.667 119.854 185.792 120.188 186.875C120.521 187.958 120.854 189.021 121.188 190.062C121.562 191.062 122.042 192.062 122.625 193.062C122.917 192.312 123.25 191.458 123.625 190.5C124 189.542 124.396 188.521 124.812 187.438C125.271 186.354 125.75 185.25 126.25 184.125C126.75 182.958 127.292 181.833 127.875 180.75C129 178.5 130.188 176.583 131.438 175C132.729 173.417 134 172.625 135.25 172.625C136.417 172.625 137.25 172.979 137.75 173.688C138.25 174.396 138.5 175.312 138.5 176.438C138.5 177.562 138.312 178.833 137.938 180.25C137.562 181.667 137.083 183.125 136.5 184.625Z" fill="#004480"/>
<path d="M104.25 183.625C103.667 183.667 103.167 183.625 102.75 183.5C102.333 183.333 101.917 183.167 101.5 183C101.125 182.833 100.75 182.688 100.375 182.562C100 182.396 99.5833 182.333 99.125 182.375C98.2917 182.417 97.5417 182.646 96.875 183.062C96.25 183.479 95.6667 184 95.125 184.625C94.625 185.25 94.1875 185.958 93.8125 186.75C93.4375 187.5 93.1458 188.25 92.9375 189C92.8125 189.5 92.7083 190.271 92.625 191.312C92.5833 192.312 92.5625 193.396 92.5625 194.562C92.5208 195.771 92.5 196.917 92.5 198C92.5 199.083 92.4583 199.938 92.375 200.562C92.3333 201.229 92.2292 202.021 92.0625 202.938C91.8958 203.812 91.625 204.646 91.25 205.438C90.9167 206.229 90.4583 206.896 89.875 207.438C89.2917 207.979 88.5417 208.25 87.625 208.25C86.9167 208.25 86.2917 208.042 85.75 207.625C85.25 207.208 84.8125 206.667 84.4375 206C84.1042 205.292 83.8125 204.479 83.5625 203.562C83.3542 202.646 83.1875 201.708 83.0625 200.75C82.9375 199.75 82.8333 198.75 82.75 197.75C82.7083 196.75 82.6667 195.812 82.625 194.938C82.625 194.021 82.625 193.188 82.625 192.438C82.6667 191.688 82.6875 191.083 82.6875 190.625C82.6458 189.167 82.5625 187.708 82.4375 186.25C82.3542 184.75 82.3125 183.271 82.3125 181.812C82.3125 180.896 82.3542 179.875 82.4375 178.75C82.5208 177.625 82.75 176.583 83.125 175.625C83.5 174.625 84.0417 173.792 84.75 173.125C85.5 172.458 86.5208 172.125 87.8125 172.125C88.5208 172.125 89.125 172.354 89.625 172.812C90.125 173.271 90.5208 173.833 90.8125 174.5C91.1458 175.167 91.3958 175.875 91.5625 176.625C91.7292 177.375 91.8333 178.062 91.875 178.688C92.875 177.062 94 175.75 95.25 174.75C96.5 173.708 98.125 173.146 100.125 173.062C101.125 173.021 102.104 173.125 103.062 173.375C104.062 173.583 104.958 173.958 105.75 174.5C106.583 175 107.25 175.667 107.75 176.5C108.292 177.333 108.583 178.312 108.625 179.438C108.708 180.771 108.312 181.792 107.438 182.5C106.562 183.208 105.5 183.583 104.25 183.625Z" fill="#004480"/>
<path d="M80.0625 195.875C80.0625 197.292 79.6042 198.688 78.6875 200.062C77.8125 201.396 76.6875 202.604 75.3125 203.688C73.9792 204.729 72.5417 205.583 71 206.25C69.4583 206.875 68.0417 207.188 66.75 207.188C64.5417 207.188 62.5625 206.646 60.8125 205.562C59.1042 204.438 57.6667 203.021 56.5 201.312C55.3333 199.604 54.4375 197.729 53.8125 195.688C53.2292 193.604 52.9375 191.583 52.9375 189.625C52.9375 187.542 53.2292 185.312 53.8125 182.938C54.3958 180.562 55.2708 178.375 56.4375 176.375C57.6458 174.375 59.1458 172.708 60.9375 171.375C62.7708 170.042 64.9375 169.375 67.4375 169.375C68.8542 169.375 70.2083 169.625 71.5 170.125C72.7917 170.583 73.9167 171.25 74.875 172.125C75.8333 173 76.6042 174.042 77.1875 175.25C77.7708 176.458 78.0625 177.812 78.0625 179.312C78.0625 181.271 77.6458 183.104 76.8125 184.812C75.9792 186.521 74.875 188 73.5 189.25C72.125 190.5 70.5417 191.521 68.75 192.312C66.9583 193.062 65.125 193.479 63.25 193.562C63.4167 194.771 63.8958 195.646 64.6875 196.188C65.5208 196.729 66.5 197 67.625 197C68.4583 197 69.2708 196.792 70.0625 196.375C70.8542 195.958 71.625 195.5 72.375 195C73.125 194.458 73.8542 193.979 74.5625 193.562C75.3125 193.146 76.0625 192.938 76.8125 192.938C77.6458 192.938 78.3958 193.208 79.0625 193.75C79.7292 194.292 80.0625 195 80.0625 195.875ZM69.9375 180.562C69.9375 180.021 69.7917 179.458 69.5 178.875C69.2083 178.292 68.75 178 68.125 178C67.2083 178 66.4375 178.25 65.8125 178.75C65.1875 179.208 64.6667 179.812 64.25 180.562C63.8333 181.271 63.5 182.042 63.25 182.875C63.0417 183.708 62.9167 184.479 62.875 185.188C63.4583 185.062 64.1458 184.896 64.9375 184.688C65.7708 184.479 66.5417 184.208 67.25 183.875C68 183.5 68.625 183.042 69.125 182.5C69.6667 181.958 69.9375 181.312 69.9375 180.562Z" fill="#004480"/>
<path d="M51.6875 163.125C51.6875 164.083 51.375 164.917 50.75 165.625C50.1667 166.333 49.4583 166.917 48.625 167.375C47.875 167.833 47.1042 168.333 46.3125 168.875C45.5208 169.375 44.7917 169.958 44.125 170.625C43.4583 171.25 42.9167 171.958 42.5 172.75C42.0833 173.542 41.875 174.438 41.875 175.438C41.875 176.312 42.0833 177.104 42.5 177.812C42.9167 178.521 43.4167 179.229 44 179.938C44.625 180.604 45.2917 181.312 46 182.062C46.75 182.771 47.4167 183.583 48 184.5C48.625 185.375 49.1458 186.375 49.5625 187.5C49.9792 188.625 50.1875 189.938 50.1875 191.438C50.1875 192.479 49.9583 193.667 49.5 195C49.0833 196.292 48.5 197.604 47.75 198.938C47 200.271 46.1042 201.562 45.0625 202.812C44.0625 204.062 42.9792 205.188 41.8125 206.188C40.6875 207.146 39.5 207.917 38.25 208.5C37 209.125 35.7917 209.438 34.625 209.438C33.3333 209.438 32.1875 209.083 31.1875 208.375C30.1875 207.667 29.6875 206.604 29.6875 205.188C29.6875 204.229 29.9167 203.354 30.375 202.562C30.8333 201.729 31.3958 200.938 32.0625 200.188C32.7292 199.438 33.4583 198.708 34.25 198C35.0833 197.292 35.8333 196.583 36.5 195.875C37.1667 195.167 37.7292 194.438 38.1875 193.688C38.6458 192.896 38.875 192.062 38.875 191.188C38.875 189.979 38.4375 188.75 37.5625 187.5C36.7292 186.208 35.7917 184.896 34.75 183.562C33.7083 182.188 32.75 180.792 31.875 179.375C31.0417 177.958 30.625 176.521 30.625 175.062C30.625 173.271 31.1042 171.396 32.0625 169.438C33.0208 167.438 34.25 165.625 35.75 164C37.25 162.333 38.9375 160.958 40.8125 159.875C42.6875 158.792 44.5417 158.25 46.375 158.25C47.8333 158.25 49.0833 158.688 50.125 159.562C51.1667 160.438 51.6875 161.625 51.6875 163.125Z" fill="#004480"/>
<path d="M260.625 137.875C260.625 139.292 260.167 140.688 259.25 142.062C258.375 143.396 257.25 144.604 255.875 145.688C254.542 146.729 253.104 147.583 251.562 148.25C250.021 148.875 248.604 149.188 247.312 149.188C245.104 149.188 243.125 148.646 241.375 147.562C239.667 146.438 238.229 145.021 237.062 143.312C235.896 141.604 235 139.729 234.375 137.688C233.792 135.604 233.5 133.583 233.5 131.625C233.5 129.542 233.792 127.312 234.375 124.938C234.958 122.562 235.833 120.375 237 118.375C238.208 116.375 239.708 114.708 241.5 113.375C243.333 112.042 245.5 111.375 248 111.375C249.417 111.375 250.771 111.625 252.062 112.125C253.354 112.583 254.479 113.25 255.438 114.125C256.396 115 257.167 116.042 257.75 117.25C258.333 118.458 258.625 119.812 258.625 121.312C258.625 123.271 258.208 125.104 257.375 126.812C256.542 128.521 255.438 130 254.062 131.25C252.688 132.5 251.104 133.521 249.312 134.312C247.521 135.062 245.688 135.479 243.812 135.562C243.979 136.771 244.458 137.646 245.25 138.188C246.083 138.729 247.062 139 248.188 139C249.021 139 249.833 138.792 250.625 138.375C251.417 137.958 252.188 137.5 252.938 137C253.688 136.458 254.417 135.979 255.125 135.562C255.875 135.146 256.625 134.938 257.375 134.938C258.208 134.938 258.958 135.208 259.625 135.75C260.292 136.292 260.625 137 260.625 137.875ZM250.5 122.562C250.5 122.021 250.354 121.458 250.062 120.875C249.771 120.292 249.312 120 248.688 120C247.771 120 247 120.25 246.375 120.75C245.75 121.208 245.229 121.812 244.812 122.562C244.396 123.271 244.062 124.042 243.812 124.875C243.604 125.708 243.479 126.479 243.438 127.188C244.021 127.062 244.708 126.896 245.5 126.688C246.333 126.479 247.104 126.208 247.812 125.875C248.562 125.5 249.188 125.042 249.688 124.5C250.229 123.958 250.5 123.312 250.5 122.562Z" fill="#004480"/>
<path d="M230.312 128.375C230.312 129.167 230.312 130.25 230.312 131.625C230.312 132.958 230.271 134.417 230.188 136C230.146 137.583 230.021 139.188 229.812 140.812C229.604 142.396 229.271 143.833 228.812 145.125C228.396 146.417 227.854 147.479 227.188 148.312C226.521 149.146 225.667 149.562 224.625 149.562C223.708 149.562 223 149.188 222.5 148.438C222.042 147.646 221.708 146.729 221.5 145.688C221.292 144.646 221.167 143.583 221.125 142.5C221.125 141.417 221.125 140.562 221.125 139.938C221.125 138.062 221.188 136.229 221.312 134.438C221.438 132.646 221.5 130.812 221.5 128.938C221.5 128.729 221.5 128.354 221.5 127.812C221.5 127.271 221.458 126.729 221.375 126.188C221.292 125.646 221.146 125.167 220.938 124.75C220.771 124.333 220.5 124.125 220.125 124.125C219.375 124.125 218.771 124.521 218.312 125.312C217.854 126.062 217.479 126.958 217.188 128C216.896 129.042 216.688 130.083 216.562 131.125C216.438 132.125 216.354 132.875 216.312 133.375C216.229 133.917 216.146 134.729 216.062 135.812C216.021 136.896 215.938 138.083 215.812 139.375C215.729 140.667 215.562 142 215.312 143.375C215.104 144.708 214.812 145.938 214.438 147.062C214.104 148.146 213.667 149.042 213.125 149.75C212.583 150.458 211.917 150.812 211.125 150.812C210.125 150.812 209.354 150.375 208.812 149.5C208.271 148.625 207.875 147.604 207.625 146.438C207.375 145.271 207.208 144.083 207.125 142.875C207.083 141.667 207.062 140.729 207.062 140.062C207.062 139.354 207.062 138.667 207.062 138C207.104 137.333 207.125 136.646 207.125 135.938C207.125 135.646 207.125 135.167 207.125 134.5C207.125 133.833 207.104 133.104 207.062 132.312C207.062 131.479 207.021 130.625 206.938 129.75C206.896 128.875 206.812 128.083 206.688 127.375C206.562 126.625 206.375 126.021 206.125 125.562C205.875 125.104 205.583 124.875 205.25 124.875C204.708 124.875 204.208 125.229 203.75 125.938C203.292 126.604 202.896 127.417 202.562 128.375C202.229 129.292 201.958 130.208 201.75 131.125C201.583 132.042 201.5 132.708 201.5 133.125V133.5C201.5 135.5 201.625 137.458 201.875 139.375C202.125 141.292 202.25 143.25 202.25 145.25C202.25 146.417 201.875 147.5 201.125 148.5C200.375 149.458 199.333 149.938 198 149.938C197.042 149.938 196.25 149.583 195.625 148.875C195 148.125 194.479 147.167 194.062 146C193.646 144.833 193.312 143.562 193.062 142.188C192.854 140.771 192.708 139.396 192.625 138.062C192.542 136.688 192.479 135.458 192.438 134.375C192.438 133.25 192.438 132.417 192.438 131.875C192.438 131.25 192.417 130.333 192.375 129.125C192.375 127.917 192.396 126.604 192.438 125.188C192.521 123.771 192.646 122.333 192.812 120.875C192.979 119.375 193.25 118.021 193.625 116.812C194 115.604 194.479 114.625 195.062 113.875C195.688 113.083 196.479 112.688 197.438 112.688C198.521 112.688 199.396 112.979 200.062 113.562C200.771 114.146 201.125 115.021 201.125 116.188C201.125 116.438 201.104 116.688 201.062 116.938C201.062 117.188 201.042 117.417 201 117.625C201.458 116.958 202.021 116.292 202.688 115.625C203.354 114.917 204.062 114.292 204.812 113.75C205.604 113.167 206.438 112.708 207.312 112.375C208.188 112 209.062 111.812 209.938 111.812C210.771 111.812 211.521 112.042 212.188 112.5C212.854 112.958 213.438 113.542 213.938 114.25C214.438 114.917 214.854 115.646 215.188 116.438C215.521 117.229 215.75 117.979 215.875 118.688C216.292 117.938 216.792 117.188 217.375 116.438C218 115.646 218.667 114.958 219.375 114.375C220.083 113.792 220.854 113.312 221.688 112.938C222.562 112.562 223.458 112.375 224.375 112.375C225.25 112.375 226 112.688 226.625 113.312C227.25 113.938 227.792 114.75 228.25 115.75C228.708 116.708 229.062 117.812 229.312 119.062C229.562 120.271 229.771 121.479 229.938 122.688C230.104 123.854 230.208 124.958 230.25 126C230.292 127 230.312 127.792 230.312 128.375Z" fill="#004480"/>
<path d="M175.625 150.812C173.5 150.812 171.646 150.25 170.062 149.125C168.479 148 167.146 146.562 166.062 144.812C164.979 143.062 164.167 141.125 163.625 139C163.083 136.833 162.812 134.708 162.812 132.625C162.812 130.417 163.083 128.146 163.625 125.812C164.167 123.438 165 121.292 166.125 119.375C167.25 117.417 168.688 115.833 170.438 114.625C172.188 113.375 174.271 112.75 176.688 112.75C179.021 112.75 181 113.396 182.625 114.688C184.292 115.938 185.625 117.521 186.625 119.438C187.625 121.312 188.333 123.375 188.75 125.625C189.167 127.875 189.312 130 189.188 132C189.062 134.208 188.708 136.438 188.125 138.688C187.583 140.938 186.771 142.958 185.688 144.75C184.604 146.542 183.229 148 181.562 149.125C179.896 150.25 177.917 150.812 175.625 150.812ZM176.25 122.562C175.625 122.562 175.062 122.896 174.562 123.562C174.104 124.229 173.708 125.042 173.375 126C173.083 126.958 172.854 127.979 172.688 129.062C172.521 130.104 172.438 131.021 172.438 131.812C172.438 132.812 172.521 133.896 172.688 135.062C172.896 136.229 173.167 137.312 173.5 138.312C173.833 139.271 174.229 140.083 174.688 140.75C175.188 141.375 175.75 141.688 176.375 141.688C177.042 141.688 177.604 141.375 178.062 140.75C178.562 140.125 178.958 139.333 179.25 138.375C179.542 137.417 179.75 136.375 179.875 135.25C180 134.083 180.062 133 180.062 132C180.062 131.083 179.979 130.083 179.812 129C179.646 127.875 179.396 126.833 179.062 125.875C178.771 124.917 178.375 124.125 177.875 123.5C177.417 122.875 176.875 122.562 176.25 122.562Z" fill="#004480"/>
<path d="M159.625 113.25C159.625 116.708 159.542 120.188 159.375 123.688C159.208 127.146 159 130.604 158.75 134.062C158.708 134.688 158.667 135.542 158.625 136.625C158.583 137.667 158.5 138.812 158.375 140.062C158.25 141.271 158.083 142.5 157.875 143.75C157.667 145 157.333 146.146 156.875 147.188C156.458 148.188 155.896 149 155.188 149.625C154.521 150.292 153.688 150.625 152.688 150.625C151.812 150.625 151.021 150.438 150.312 150.062C149.646 149.688 149.083 149.208 148.625 148.625C148.167 148 147.812 147.312 147.562 146.562C147.312 145.771 147.188 144.958 147.188 144.125C147.188 142.75 147.229 141.375 147.312 140C147.396 138.583 147.521 137.188 147.688 135.812L141.5 136.438C141.375 137.521 141.229 138.833 141.062 140.375C140.938 141.875 140.646 143.333 140.188 144.75C139.771 146.125 139.125 147.312 138.25 148.312C137.375 149.312 136.167 149.812 134.625 149.812C133.667 149.812 132.875 149.583 132.25 149.125C131.625 148.708 131.125 148.167 130.75 147.5C130.375 146.792 130.104 146.021 129.938 145.188C129.771 144.354 129.688 143.562 129.688 142.812C129.688 140.312 129.792 137.833 130 135.375C130.208 132.875 130.354 130.375 130.438 127.875C130.521 125.25 130.542 122.625 130.5 120C130.5 117.333 130.542 114.667 130.625 112C130.667 111.125 130.688 110.104 130.688 108.938C130.729 107.771 130.875 106.688 131.125 105.688C131.417 104.646 131.875 103.771 132.5 103.062C133.167 102.354 134.146 102 135.438 102C137.229 102 138.583 102.479 139.5 103.438C140.417 104.354 141.062 105.521 141.438 106.938C141.812 108.312 142 109.792 142 111.375C142 112.917 142 114.312 142 115.562C142 117.229 141.958 118.875 141.875 120.5C141.792 122.083 141.708 123.688 141.625 125.312L148.312 124.312C148.354 122.271 148.396 120.25 148.438 118.25C148.479 116.25 148.562 114.25 148.688 112.25C148.729 111.292 148.771 110.271 148.812 109.188C148.854 108.104 149.021 107.104 149.312 106.188C149.604 105.271 150.083 104.521 150.75 103.938C151.458 103.312 152.5 103 153.875 103C155.042 103 155.979 103.333 156.688 104C157.438 104.667 158.021 105.479 158.438 106.438C158.896 107.396 159.208 108.417 159.375 109.5C159.542 110.583 159.625 111.562 159.625 112.438V113.25Z" fill="#004480"/>
<path d="M95 167.187C94 167.187 92.8542 167.021 91.5625 166.687C90.3125 166.396 89.125 165.958 88 165.375C86.875 164.792 85.9167 164.083 85.125 163.25C84.375 162.417 84 161.458 84 160.375C84 159.958 84.1042 159.542 84.3125 159.125C84.5208 158.708 84.7917 158.333 85.125 158C85.5 157.708 85.8958 157.458 86.3125 157.25C86.7292 157.083 87.1667 157 87.625 157C88.125 157 88.6042 157.062 89.0625 157.187C89.5625 157.354 90.0625 157.542 90.5625 157.75C91.1042 157.958 91.625 158.146 92.125 158.312C92.6667 158.479 93.2292 158.562 93.8125 158.562C94.8542 158.562 95.75 158.208 96.5 157.5C97.2917 156.792 97.9583 155.854 98.5 154.687C99.0417 153.562 99.4792 152.292 99.8125 150.875C100.146 149.5 100.396 148.125 100.562 146.75C100.771 145.375 100.917 144.083 101 142.875C101.083 141.667 101.146 140.687 101.188 139.937C99.7292 142.146 98.2708 143.854 96.8125 145.062C95.3958 146.229 93.6458 146.812 91.5625 146.812C89.9792 146.812 88.5833 146.479 87.375 145.812C86.2083 145.146 85.2083 144.271 84.375 143.187C83.5417 142.104 82.8542 140.875 82.3125 139.5C81.7708 138.083 81.3542 136.625 81.0625 135.125C80.8125 133.625 80.6458 132.167 80.5625 130.75C80.4792 129.292 80.4792 127.958 80.5625 126.75C80.6042 125.833 80.7083 124.646 80.875 123.187C81.0833 121.687 81.3958 120.229 81.8125 118.812C82.2292 117.396 82.8125 116.208 83.5625 115.25C84.3125 114.25 85.2917 113.792 86.5 113.875C87.2917 113.917 87.9375 114.271 88.4375 114.937C88.9375 115.562 89.3333 116.354 89.625 117.312C89.9583 118.271 90.1875 119.333 90.3125 120.5C90.4792 121.625 90.5833 122.75 90.625 123.875C90.6667 125 90.6667 126.042 90.625 127C90.625 127.917 90.625 128.625 90.625 129.125C90.625 129.833 90.6458 130.542 90.6875 131.25C90.7292 131.958 90.875 132.604 91.125 133.187C91.375 133.729 91.75 134.167 92.25 134.5C92.7917 134.833 93.5417 135 94.5 135C95.5833 135 96.4375 134.729 97.0625 134.187C97.7292 133.646 98.2083 132.979 98.5 132.187C98.8333 131.354 99.0417 130.479 99.125 129.562C99.2083 128.604 99.25 127.708 99.25 126.875C99.25 126.292 99.25 125.583 99.25 124.75C99.25 123.917 99.25 123.042 99.25 122.125C99.2917 121.208 99.375 120.312 99.5 119.437C99.6667 118.521 99.8958 117.708 100.188 117C100.521 116.25 100.938 115.646 101.438 115.187C101.979 114.729 102.667 114.5 103.5 114.5C104.542 114.5 105.438 114.917 106.188 115.75C106.938 116.542 107.562 117.604 108.062 118.937C108.604 120.229 109.021 121.667 109.312 123.25C109.646 124.833 109.896 126.417 110.062 128C110.229 129.542 110.333 130.979 110.375 132.312C110.458 133.604 110.5 134.625 110.5 135.375C110.5 137.125 110.438 139.125 110.312 141.375C110.188 143.583 109.938 145.875 109.562 148.25C109.229 150.583 108.708 152.875 108 155.125C107.292 157.417 106.354 159.458 105.188 161.25C104.062 163.042 102.667 164.479 101 165.562C99.3333 166.646 97.3333 167.187 95 167.187Z" fill="#004480"/>
<path d="M78.9375 114.625C78.9375 115.833 78.5208 116.729 77.6875 117.312C76.8958 117.896 76 118.458 75 119C74 119.5 73.0833 120.104 72.25 120.812C71.4583 121.521 71.0625 122.583 71.0625 124C71.0625 124.75 71.2292 125.396 71.5625 125.938C71.9375 126.479 72.375 126.979 72.875 127.438C73.4167 127.854 74 128.292 74.625 128.75C75.25 129.208 75.8125 129.729 76.3125 130.312C76.8542 130.896 77.2917 131.604 77.625 132.438C78 133.271 78.1875 134.292 78.1875 135.5C78.1875 137.25 77.7292 138.979 76.8125 140.688C75.9375 142.354 74.7917 143.854 73.375 145.188C72 146.479 70.4375 147.521 68.6875 148.312C66.9375 149.104 65.2083 149.5 63.5 149.5C62.7917 149.5 62.0833 149.438 61.375 149.312C60.6667 149.229 60.0208 149.042 59.4375 148.75C58.8958 148.458 58.4375 148.062 58.0625 147.562C57.6875 147.021 57.5 146.333 57.5 145.5C57.5 144.333 57.7292 143.438 58.1875 142.812C58.6458 142.146 59.2292 141.625 59.9375 141.25C60.6458 140.875 61.3958 140.583 62.1875 140.375C63.0208 140.167 63.7917 139.917 64.5 139.625C65.2083 139.292 65.7917 138.875 66.25 138.375C66.7083 137.875 66.9375 137.167 66.9375 136.25C66.9375 135.375 66.5833 134.479 65.875 133.562C65.2083 132.604 64.4583 131.604 63.625 130.562C62.7917 129.479 62.0208 128.333 61.3125 127.125C60.6458 125.917 60.3125 124.583 60.3125 123.125C60.3125 121.333 60.6667 119.688 61.375 118.188C62.125 116.646 63.1042 115.312 64.3125 114.188C65.5625 113.062 66.9792 112.188 68.5625 111.562C70.1458 110.896 71.8125 110.562 73.5625 110.562C74.2292 110.562 74.875 110.625 75.5 110.75C76.1667 110.875 76.75 111.104 77.25 111.438C77.75 111.729 78.1458 112.146 78.4375 112.688C78.7708 113.188 78.9375 113.833 78.9375 114.625Z" fill="#004480"/>
<path d="M56.875 140.188C56.875 140.938 56.8333 141.917 56.75 143.125C56.7083 144.333 56.5417 145.521 56.25 146.688C55.9583 147.812 55.5 148.792 54.875 149.625C54.25 150.458 53.375 150.875 52.25 150.875C50.7083 150.875 49.5208 150.375 48.6875 149.375C47.8542 148.375 47.4583 147.125 47.5 145.625C46.1667 146.792 44.6458 147.708 42.9375 148.375C41.2708 149.042 39.5625 149.375 37.8125 149.375C36.6042 149.375 35.4583 149.083 34.375 148.5C33.2917 147.917 32.3333 147.167 31.5 146.25C30.6667 145.333 30 144.312 29.5 143.188C29 142.021 28.75 140.875 28.75 139.75C28.75 137.75 29.3542 136 30.5625 134.5C31.8125 133 33.3333 131.729 35.125 130.688C36.9167 129.604 38.8125 128.75 40.8125 128.125C42.8542 127.5 44.6667 127.083 46.25 126.875C46.25 126.667 46.25 126.479 46.25 126.312C46.2917 126.146 46.3125 125.958 46.3125 125.75C46.3125 124.458 45.9583 123.417 45.25 122.625C44.5417 121.833 43.5417 121.438 42.25 121.438C41.2083 121.438 40.3125 121.625 39.5625 122C38.8125 122.333 38.1042 122.729 37.4375 123.188C36.7708 123.604 36.1042 124 35.4375 124.375C34.7708 124.708 34.0208 124.875 33.1875 124.875C32.2708 124.875 31.4792 124.583 30.8125 124C30.1875 123.417 29.875 122.667 29.875 121.75C29.875 120.375 30.2708 119.125 31.0625 118C31.8958 116.875 32.9167 115.938 34.125 115.188C35.375 114.396 36.7083 113.792 38.125 113.375C39.5833 112.917 40.9167 112.688 42.125 112.688C43.25 112.688 44.375 112.833 45.5 113.125C46.625 113.375 47.6875 113.792 48.6875 114.375C49.6875 114.917 50.5833 115.604 51.375 116.438C52.2083 117.229 52.875 118.167 53.375 119.25C54.125 120.792 54.7292 122.438 55.1875 124.188C55.6458 125.896 56 127.667 56.25 129.5C56.5 131.292 56.6667 133.104 56.75 134.938C56.8333 136.729 56.875 138.479 56.875 140.188ZM46.875 138.188L46.6875 133.938C46.6042 133.938 46.5208 133.938 46.4375 133.938C46.3542 133.896 46.2708 133.875 46.1875 133.875C45.6458 133.875 44.9583 134.021 44.125 134.312C43.3333 134.562 42.5625 134.938 41.8125 135.438C41.0625 135.896 40.4167 136.417 39.875 137C39.375 137.583 39.125 138.188 39.125 138.812C39.125 139.396 39.3333 139.792 39.75 140C40.1667 140.208 40.6458 140.312 41.1875 140.312C42.1042 140.312 43.0833 140.083 44.125 139.625C45.1667 139.125 46.0833 138.646 46.875 138.188Z" fill="#004480"/>
<path d="M27.5 139.188C27.5 139.979 27.2917 140.75 26.875 141.5C26.4583 142.208 25.4792 143.042 23.9375 144C22.3958 144.958 20.6875 145.875 18.8125 146.75C16.9375 147.583 15.125 148.312 13.375 148.938C11.625 149.521 10.3333 149.812 9.5 149.812C8.91667 149.812 8.22917 149.667 7.4375 149.375C6.64583 149.125 5.85417 148.792 5.0625 148.375C4.27083 147.958 3.54167 147.479 2.875 146.938C2.25 146.396 1.79167 145.875 1.5 145.375C1.33333 145.083 1.16667 144.5 1 143.625C0.875 142.75 0.75 141.729 0.625 140.562C0.541667 139.396 0.458333 138.167 0.375 136.875C0.291667 135.542 0.208333 134.292 0.125 133.125C0.0833333 131.917 0.0416667 130.854 0 129.938C0 129.021 0 128.354 0 127.938C0 126.396 0.0416667 124.625 0.125 122.625C0.25 120.625 0.458333 118.625 0.75 116.625C1.04167 114.583 1.45833 112.646 2 110.812C2.58333 108.938 3.35417 107.354 4.3125 106.062C4.60417 105.688 5.1875 105.292 6.0625 104.875C6.9375 104.458 7.95833 104.062 9.125 103.688C10.3333 103.312 11.625 102.958 13 102.625C14.375 102.292 15.6875 102.021 16.9375 101.812C18.2292 101.562 19.3958 101.375 20.4375 101.25C21.4792 101.083 22.2708 101 22.8125 101C23.4375 101 24.0208 101.146 24.5625 101.438C25.1458 101.688 25.625 102.042 26 102.5C26.4167 102.958 26.7292 103.479 26.9375 104.062C27.1875 104.604 27.3125 105.188 27.3125 105.812C27.3125 106.354 27.2292 106.812 27.0625 107.188C26.9375 107.562 26.7292 107.979 26.4375 108.438C26.0208 108.979 25.1458 109.625 23.8125 110.375C22.4792 111.125 21.0208 111.875 19.4375 112.625C17.8958 113.333 16.3958 113.979 14.9375 114.562C13.5208 115.146 12.5208 115.562 11.9375 115.812C11.7708 116.771 11.5833 117.75 11.375 118.75C11.2083 119.708 11.0833 120.688 11 121.688C12.2917 121.021 13.75 120.396 15.375 119.812C17 119.229 18.5417 118.938 20 118.938C22.9583 118.938 24.4375 120.396 24.4375 123.312C24.4375 124.021 24.2917 124.646 24 125.188C23.75 125.729 23.3958 126.208 22.9375 126.625C22.5208 127.042 22.0208 127.417 21.4375 127.75C20.8958 128.042 20.3542 128.333 19.8125 128.625C18.4792 129.333 17.0833 129.958 15.625 130.5C14.1667 131 12.7083 131.5 11.25 132C11.1667 132.333 11.0833 132.708 11 133.125C10.9167 133.5 10.875 133.875 10.875 134.25C10.875 134.833 10.9167 135.417 11 136C11.0833 136.583 11.1667 137.167 11.25 137.75C11.75 137.583 12.5417 137.312 13.625 136.938C14.75 136.562 15.9167 136.188 17.125 135.812C18.3333 135.438 19.5 135.125 20.625 134.875C21.75 134.583 22.5833 134.438 23.125 134.438C23.75 134.438 24.3333 134.583 24.875 134.875C25.4167 135.125 25.875 135.479 26.25 135.938C26.625 136.354 26.9167 136.854 27.125 137.438C27.375 138.021 27.5 138.604 27.5 139.188Z" fill="#004480"/>
<path fill-rule="evenodd" clip-rule="evenodd" d="M176.02 15.217C179.391 23.5992 168.773 38.6634 166.575 46.9473C166.575 46.9473 158.928 47.9783 156.154 48.0803C171.848 56.3219 177.679 76.6329 185.464 91.3041C183.895 92.6784 182.159 93.8119 180.254 94.7038C182.484 95.0903 198.897 96.3503 199.306 100.693C199.399 101.689 198.491 103.122 198.491 103.122L162.016 102.798C162.016 102.798 151.113 81.7677 145.569 71.2299C143.613 84.2195 138.183 97.6472 125.867 103.769C100.096 104.353 74.2888 103.65 48.5136 103.606C42.4319 103.559 31.3519 103.606 31.3519 103.606C31.3519 103.606 31.128 96.6979 31.7474 92.7608C32.224 89.7312 32.3693 87.9184 33.7011 85.1527C35.2065 82.0268 37.0647 80.2929 39.238 78.1913C40.8227 76.9772 42.5596 76.1674 44.4486 75.7627C41.7097 71.9112 43.5083 66.628 48.3568 66.2115C42.2159 54.6412 53.7183 49.984 63.3374 51.3182C65.5076 51.6192 67.5987 52.0513 69.1992 52.6131C70.9647 53.2328 72.7023 53.9341 74.4105 54.7173C74.4369 56.0684 74.0023 57.2555 73.1073 58.2789C75.572 59.5624 77.9604 60.9653 80.2723 62.488C82.8399 64.6307 82.8399 66.7356 80.2723 68.8019C78.2491 70.0846 76.0779 71.0556 73.7592 71.7155C74.5693 72.7519 77.0392 75.1806 78.0546 75.5234C77.3575 75.5234 77.009 75.5234 76.6604 75.5234C75.9634 75.5234 73.7592 73.3151 72.7817 72.3636C71.5377 72.5254 70.6897 72.5254 69.3627 72.5254C68.7374 72.3836 68.1397 72.1671 67.5711 71.8773C72.0578 71.1502 76.907 70.0302 80.4352 67.0208C81.7187 65.7447 79.7728 63.9725 77.6875 62.5C77.5699 62.417 76.2532 63.8461 75.1875 64.5C74.4432 64.9567 73.1875 65.5 73.1875 65.5C73.1875 65.5 74.045 64.6559 74.5693 64.091C75.4286 63.165 76.7795 61.694 76.6604 61.623C74.6367 60.4146 72.5072 59.4794 71.8049 59.2501C71.0523 59.7231 70.2927 59.8314 69.5255 59.5745C70.349 58.9975 73.8244 57.0007 72.9445 55.6891C70.0092 54.0184 62.5614 52.775 60.8952 52.775C59.1232 56.4058 57.4402 60.0757 55.8467 63.7836C58.0929 64.9819 62.1977 67.9926 62.1977 67.9926C62.1977 67.9926 56.7865 66.2648 56.1723 68.9638C55.9372 69.9974 56.469 70.7679 56.9871 71.5536C58.6659 73.2592 61.0352 75.5661 63.0117 73.9822C63.7676 73.3765 64.1134 72.7519 64.3142 71.8773C65.7775 74.6594 65.8429 76.6275 64.5104 77.7812C64.3676 77.9048 65.8623 79.1763 65.6875 79.2812C65.4456 79.4264 63.5195 78.3964 63.2161 78.5058C62.3956 78.8016 61.3504 78.9666 60.0805 79.0006C58.152 78.907 56.4151 78.2597 54.8699 77.0582C52.6875 83.2812 39.6638 97.6698 48.3568 101.988H58.1875C57.6875 99 56.6875 97 54.8699 94.5C62.1177 83.3392 64.2298 76.5627 77.6667 76.5627C84.6766 76.5627 102.717 79.4824 109.074 81.4292C107.794 69.5911 105.644 50.1105 105.512 38.2054C107.055 35.7179 109.063 33.7207 111.537 32.2152C127.194 28.3266 159.41 23.3114 159.41 23.3114C159.41 23.3114 161.763 29.0898 162.342 31.4059C166.477 25.3234 173.337 8.54692 176.02 15.217ZM174.717 16.5126C171.46 15.217 162.667 34.4819 162.667 34.4819L164.947 45.6517L159.085 24.2833C159.085 24.2833 127.307 30.0891 111.537 33.5107C110.062 34.4683 107.331 38.2054 107.331 38.2054C107.68 59.2408 111.165 83.8379 118.213 102.312L125.541 101.988C139.399 95.214 142.82 79.8204 144.918 66.0496C149.741 78.3009 156.517 89.9106 163.319 101.179C166.729 101.001 197.588 101.853 197.588 101.853C197.588 101.853 197.948 100.467 197.948 100.12C193.766 95.2704 169.369 95.6168 160.812 97.0026L160.4 96.3097C163.354 96.0492 181.595 92.6822 183.836 90.8185C179.738 85.1921 176.341 79.7576 173.035 74.4677C167.102 64.9734 161.459 55.9449 152.572 47.1091C156.244 46.5399 164.947 45.6517 164.947 45.6517C164.947 45.6517 177.973 18.0148 174.717 16.5126ZM46.0767 77.382C44.9782 77.4383 44.0385 77.4577 42.8205 77.8675C33.646 80.9547 32.2299 94.2442 33 101.988H45C41.2373 97.6183 44.7046 92.0238 47.0543 87.7425C48.7846 84.6116 52.4879 77.9665 46.0767 77.382Z" fill="#004480"/>
<path d="M64.242 57.3685C65.4099 58.634 66.3332 59.7936 64.9312 61.053C64.31 61.6111 62.4994 61.5258 61.1053 60.8329C62.1509 60.8329 63.3111 61.0148 64.28 60.0818C64.9391 59.4472 64.5906 58.7543 64.242 57.3685Z" fill="#004480"/>
<path d="M177.974 10.3605C178.049 9.8971 178.267 9.73518 178.625 9.87491C181.208 13.4407 179.928 23.3114 179.928 23.3114C179.928 23.3114 180.083 14.5335 177.974 10.3605Z" fill="#004480"/>
<path fill-rule="evenodd" clip-rule="evenodd" d="M125.541 101.988L118.213 102.312C111.165 83.8379 107.68 59.2408 107.331 38.2054C107.331 38.2054 110.062 34.4683 111.537 33.5107C127.307 30.0891 159.085 24.2833 159.085 24.2833L164.947 45.6517C164.947 45.6517 156.244 46.5399 152.572 47.1091C161.459 55.9449 167.102 64.9734 173.035 74.4677C176.341 79.7576 179.738 85.1921 183.836 90.8185C181.595 92.6822 163.354 96.0492 160.4 96.3097C154.614 86.5679 149.049 76.5442 144.918 66.0496C142.82 79.8204 139.399 95.214 125.541 101.988ZM125.541 68.8019L124.565 68.4782L131.125 61L127.495 46.7847L128.472 45.9754L146.366 46.4226L125.541 68.8019Z" fill="#004480"/>
<path d="M66.2044 16.2826C65.334 16.6155 64.5535 17.1335 63.8151 17.6907C61.1132 19.8046 58.8635 22.4486 56.9487 25.2304C56.0125 26.6259 55.1452 28.093 54.6506 29.5832C54.4093 30.3014 54.3134 31.1053 54.4859 31.4528C54.5649 31.6169 54.6458 31.6896 54.8562 31.7769C54.9707 31.8205 55.0854 31.849 55.2517 31.8723C55.3953 31.8912 55.5572 31.9004 55.7486 31.898C56.2444 31.8918 56.7395 31.8522 57.2299 31.7809C58.4515 29.4658 59.9195 26.8226 63.4162 26.4118C63.8474 26.4203 64.3457 26.4056 64.9608 26.8354C65.2723 27.0606 65.5234 27.468 65.585 27.8449C65.6525 28.216 65.5976 28.5301 65.5271 28.7821C65.2048 29.7673 64.6685 30.2968 64.131 30.8309C63.0378 31.8514 61.7779 32.5626 60.4415 33.0794C59.55 33.4203 58.6201 33.6611 57.6744 33.7966C56.3667 36.0892 55.2775 38.5484 54.2851 41.0393C53.9465 41.8943 53.6114 42.779 53.3089 43.6511C53.4767 42.7433 53.6859 41.8175 53.9066 40.9196C54.4985 38.5501 55.2194 36.1987 56.1938 33.9204C56.0455 33.9241 55.8971 33.9268 55.7486 33.9252C54.8124 33.9445 53.178 33.5956 52.6615 32.1646C52.2287 30.8605 52.6025 29.8642 52.91 28.9742C53.6101 27.1976 54.6355 25.7404 55.7336 24.3454C57.9647 21.5963 60.5567 19.1447 63.5959 17.3618C64.421 16.8963 65.2916 16.4826 66.2044 16.2826ZM63.4162 28.3253C61.91 28.3128 60.49 29.6689 59.2972 31.2809C59.4291 31.2358 59.5605 31.1892 59.6906 31.1395C60.811 30.7095 61.884 30.1035 62.7314 29.3416C63.0925 29.0213 63.4275 28.6149 63.5639 28.3348C63.5185 28.3286 63.4684 28.3246 63.4162 28.3253Z" fill="#004480"/>
<path d="M72.2257 0.906692C73.5634 3.61356 74.8487 6.24848 76.0895 8.89032C77.3427 11.5284 78.525 14.172 79.988 16.7968C80.1516 17.0877 80.3216 17.3801 80.4944 17.6683C80.2191 17.4741 79.9472 17.2657 79.6837 17.0506C77.3056 15.0947 75.4947 12.5166 74.1964 9.77266C72.9014 7.01834 72.0983 4.0449 71.8425 1.01157C71.8145 0.67424 71.7934 0.334338 71.7812 0C71.9286 0.30063 72.0775 0.605165 72.2257 0.906692Z" fill="#004480"/>
<path d="M65.8233 10.2304C68.8504 10.4341 71.7906 10.6168 74.7204 10.7561C77.6514 10.9082 80.5607 10.9929 83.5589 11.3429C83.8917 11.3831 84.2283 11.4286 84.5622 11.4782C84.277 11.2987 83.9799 11.1276 83.6797 10.9668C80.9571 9.52144 77.8704 8.83366 74.8237 8.6803C71.7686 8.53382 68.6962 8.92293 65.7755 9.83813C65.4509 9.94033 65.1265 10.0499 64.8107 10.1654C65.1464 10.187 65.4864 10.2085 65.8233 10.2304Z" fill="#004480"/>
<path d="M72.2946 18.3775C73.8516 15.3308 75.4405 12.3993 77.0474 9.4925C78.6673 6.59048 80.2908 3.71363 82.259 0.92315C82.4781 0.614295 82.7046 0.304916 82.9341 3.47065e-07C82.6101 0.2031 82.2891 0.420206 81.9768 0.645377C79.1545 2.69082 76.8968 5.4666 75.2163 8.48826C73.539 11.5184 72.4043 14.8419 71.9154 18.2597C71.8614 18.6406 71.8159 19.0232 71.7812 19.4005C71.9501 19.0608 72.1219 18.7179 72.2946 18.3775Z" fill="#004480"/>
<path d="M63.0117 79.2812C61.9331 79.7899 61.3171 79.9318 60.1875 79.7812L54.1875 93.5C57.1726 88.8392 60.954 83.0396 64.1875 79.7812L63.0117 79.2812Z" fill="#004480"/>
</svg>
