<svg width="295" height="215" viewBox="0 0 295 215" fill="none" xmlns="http://www.w3.org/2000/svg">
<path d="M97.2902 41.6501C99.6402 40.2301 104.02 41.2101 104.61 43.9301C106.71 53.7401 105.84 80.5701 105.84 80.5701L104.78 80.5601C104.78 80.5601 105.48 54.7201 103.82 44.6901C103.45 42.4701 99.6402 40.7201 96.5002 43.1601C91.6602 46.9401 88.0802 53.8701 88.0802 53.8701L87.2002 53.5801C87.2002 53.5801 88.1202 51.8501 90.4902 48.7501C92.9302 45.5501 94.2102 43.5101 97.2902 41.6501Z" fill="#004480"/>
<path d="M98.5598 49.0701C98.7198 49.0701 99.2498 49.3001 99.2498 49.3001C98.5198 52.0701 97.4098 57.1601 96.8798 59.5101C96.7998 59.3501 96.4198 59.0201 96.3398 58.8501C97.0798 55.6034 97.8198 52.3434 98.5598 49.0701Z" fill="#004480"/>
<path fill-rule="evenodd" clip-rule="evenodd" d="M193.02 15.22C196.39 23.6 185.77 38.66 183.57 46.95C183.57 46.95 175.93 47.98 173.15 48.08C188.85 56.32 194.68 76.6299 202.46 91.2999C200.894 92.6799 199.157 93.8133 197.25 94.6999C199.48 95.0899 215.9 96.3499 216.31 100.69C216.4 101.69 215.49 103.12 215.49 103.12L179.02 102.8C179.02 102.8 168.11 81.77 162.57 71.23C160.61 84.22 155.18 97.6499 142.87 103.77C117.1 104.35 91.2904 103.65 65.5104 103.61C59.4304 103.56 48.3504 103.61 48.3504 103.61C48.3504 103.61 48.1304 96.6999 48.7504 92.7599C49.2204 89.7299 49.3704 87.9199 50.7004 85.1499C52.2104 82.0299 54.0604 80.2899 56.2404 78.1899C57.8271 76.9766 59.5637 76.1666 61.4504 75.76C58.7104 71.91 60.5104 66.6299 65.3604 66.2099C59.2204 54.6399 70.7204 49.98 80.3404 51.32C82.5104 51.62 84.6004 52.05 86.2004 52.61C87.9671 53.23 89.7037 53.9333 91.4104 54.72C91.4371 56.0666 91.0037 57.2533 90.1104 58.2799C92.5704 59.5599 94.9571 60.9633 97.2704 62.49C99.8371 64.63 99.8371 66.7333 97.2704 68.8C95.2504 70.0866 93.0804 71.06 90.7604 71.72C91.5704 72.75 93.49 75.1799 94.5 75.5199C93.81 75.5199 93.35 75.5 93 75.5C92.3 75.5 90.7604 73.32 89.7804 72.36C88.5404 72.53 87.6904 72.5299 86.3604 72.5299C85.7337 72.3833 85.1371 72.1666 84.5704 71.8799C89.0604 71.1499 93.9104 70.0299 97.4404 67.0199C98.7204 65.7399 96.7704 63.97 94.6904 62.5C94.5704 62.42 93.2504 63.85 92.1904 64.5C91.4404 64.96 90.1904 65.5 90.1904 65.5C90.1904 65.5 91.0404 64.6599 91.5704 64.0899C92.4304 63.1699 93.7804 61.6899 93.6604 61.6199C91.6404 60.4099 89.5104 59.48 88.8004 59.25C88.0537 59.7233 87.2971 59.83 86.5304 59.57C87.3504 59 90.8204 56.9999 89.9404 55.6899C87.0104 54.0199 79.5604 52.7799 77.9004 52.7799C76.1271 56.4066 74.4437 60.0733 72.8504 63.7799C75.0904 64.9799 79.2004 67.9899 79.2004 67.9899C79.2004 67.9899 73.7904 66.2599 73.1704 68.9599C72.9404 69.9999 73.4704 70.77 73.9904 71.55C75.6704 73.26 78.0404 75.57 80.0104 73.98C80.7704 73.38 81.1104 72.7499 81.3104 71.8799C82.7771 74.6599 82.8437 76.6266 81.5104 77.7799C81.3704 77.8999 82.8604 79.1799 82.6904 79.2799C82.4504 79.4299 80.5204 78.3999 80.2204 78.5099C79.4004 78.8033 78.3537 78.9666 77.0804 78.9999C75.1537 78.9066 73.4171 78.2599 71.8704 77.0599C69.6904 83.2799 56.6604 97.6699 65.3604 101.99H75.1904C74.6904 98.9999 73.6904 96.9999 71.8704 94.4999C79.1204 83.3399 81.2304 76.5599 94.6704 76.5599C101.68 76.5599 119.72 79.4799 126.07 81.4299C124.79 69.5899 122.64 50.1099 122.51 38.2099C124.057 35.7166 126.067 33.72 128.54 32.22C144.19 28.33 176.41 23.3099 176.41 23.3099C176.41 23.3099 178.76 29.09 179.34 31.41C183.48 25.32 190.34 8.54995 193.02 15.22ZM191.72 16.51C188.46 15.22 179.67 34.4799 179.67 34.4799L181.95 45.65L176.09 24.28C176.09 24.28 144.31 30.0899 128.54 33.5099C127.06 34.4699 124.33 38.2099 124.33 38.2099C124.68 59.24 128.16 83.8399 135.21 102.31L142.54 101.99C156.4 95.2099 159.82 79.82 161.92 66.05C166.74 78.3 173.52 89.9099 180.32 101.18C183.73 101 214.59 101.85 214.59 101.85C214.59 101.85 214.95 100.47 214.95 100.12C210.77 95.2699 186.37 95.6199 177.81 96.9999L177.4 96.3099C180.35 96.0499 198.59 92.6799 200.84 90.8199C196.74 85.1899 193.34 79.76 190.03 74.47C184.1 64.97 178.46 55.94 169.57 47.11C173.24 46.54 181.95 45.65 181.95 45.65C181.95 45.65 194.97 18.01 191.72 16.51ZM63.0804 77.3799C61.9804 77.4399 61.0404 77.4599 59.8204 77.8699C50.6504 80.9499 49.2304 94.2399 50.0004 101.99H62.0004C58.2404 97.6199 61.7004 92.0199 64.0504 87.7399C65.7804 84.6099 69.4904 77.9699 63.0804 77.3799Z" fill="#004480"/>
<path d="M81.2403 57.3701C82.4103 58.6301 83.3304 59.7901 81.9304 61.0501C81.3104 61.6101 79.5004 61.5301 78.1104 60.8301C79.1504 60.8301 80.3103 61.0101 81.2803 60.0801C81.9403 59.4501 81.5903 58.7501 81.2403 57.3701Z" fill="#004480"/>
<path d="M194.97 10.3599C195.05 9.89989 195.27 9.73656 195.63 9.8699C198.21 13.4399 196.93 23.3099 196.93 23.3099C196.93 23.3099 197.08 14.5299 194.97 10.3599Z" fill="#004480"/>
<path fill-rule="evenodd" clip-rule="evenodd" d="M142.54 101.99L135.21 102.31C128.17 83.84 124.68 59.24 124.33 38.21C124.33 38.21 127.06 34.47 128.54 33.51C144.31 30.09 176.09 24.28 176.09 24.28L181.95 45.65C181.95 45.65 173.24 46.54 169.57 47.11C178.46 55.94 184.1 64.97 190.03 74.47C193.34 79.76 196.74 85.19 200.84 90.82C198.59 92.68 180.35 96.05 177.4 96.31C171.61 86.57 166.05 76.54 161.92 66.05C159.82 79.82 156.4 95.21 142.54 101.99ZM142.54 68.8L141.56 68.48L148.12 61L144.5 46.78L145.47 45.98L163.37 46.42L142.54 68.8Z" fill="#004480"/>
<path d="M83.2001 16.28C82.3301 16.62 81.5501 17.13 80.8201 17.69C78.1101 19.8 75.8601 22.45 73.9501 25.23C73.0101 26.63 72.1501 28.09 71.6501 29.58C71.4101 30.3 71.3101 31.11 71.4901 31.45C71.5601 31.62 71.6501 31.69 71.8601 31.78C71.9668 31.82 72.0968 31.85 72.2501 31.87C72.3901 31.89 72.5568 31.9 72.7501 31.9C73.2435 31.8934 73.7368 31.8534 74.2301 31.78C75.4501 29.47 76.9201 26.82 80.4201 26.41C80.8501 26.42 81.3501 26.41 81.9601 26.84C82.2701 27.06 82.5201 27.47 82.5801 27.84C82.6501 28.22 82.6001 28.53 82.5301 28.78C82.2001 29.77 81.6701 30.3 81.1301 30.83C80.0401 31.85 78.7801 32.56 77.4401 33.08C76.5468 33.42 75.6234 33.66 74.6701 33.8C73.3701 36.09 72.2801 38.55 71.2901 41.04C70.9435 41.9 70.6168 42.77 70.3101 43.65C70.4835 42.7367 70.6835 41.8267 70.9101 40.92C71.5001 38.55 72.2201 36.2 73.1901 33.92C73.0434 33.9267 72.8968 33.93 72.7501 33.93C71.8101 33.94 70.1801 33.6 69.6601 32.16C69.2301 30.86 69.6001 29.86 69.9101 28.97C70.6101 27.2 71.6401 25.74 72.7301 24.35C74.9601 21.6 77.5601 19.14 80.6001 17.36C81.4201 16.9 82.2901 16.48 83.2001 16.28ZM80.4201 28.33C78.9101 28.31 77.4901 29.67 76.3001 31.28C76.4334 31.2334 76.5634 31.1867 76.6901 31.14C77.8101 30.71 78.8801 30.1 79.7301 29.34C80.0901 29.02 80.4301 28.61 80.5601 28.33C80.5201 28.3234 80.4734 28.3234 80.4201 28.33Z" fill="#004480"/>
<path d="M89.2303 0.91C90.5603 3.61 91.8503 6.25 93.0903 8.89C94.3403 11.53 95.5303 14.17 96.9903 16.8C97.1503 17.0867 97.3169 17.3767 97.4903 17.67C97.2169 17.4767 96.9469 17.27 96.6803 17.05C94.3103 15.09 92.4903 12.52 91.2003 9.77C89.9003 7.02 89.1003 4.04 88.8403 1.01C88.8136 0.67 88.7936 0.333333 88.7803 0C88.9269 0.3 89.0769 0.603333 89.2303 0.91Z" fill="#004480"/>
<path d="M82.8196 10.23C85.8496 10.43 88.7896 10.62 91.7196 10.76C94.6496 10.91 97.5596 10.99 100.56 11.34C100.893 11.38 101.226 11.4266 101.56 11.48C101.273 11.3 100.98 11.13 100.68 10.97C97.9596 9.51996 94.8696 8.82996 91.8196 8.67996C88.7696 8.52996 85.6996 8.91996 82.7796 9.83996C82.4529 9.93996 82.1296 10.05 81.8096 10.17C82.1496 10.19 82.4862 10.21 82.8196 10.23Z" fill="#004480"/>
<path d="M89.2903 18.38C90.8503 15.33 92.4403 12.4 94.0503 9.49C95.6703 6.59 97.2903 3.71 99.2603 0.92C99.4803 0.613333 99.7036 0.306667 99.9303 0C99.6103 0.206667 99.2936 0.423333 98.9803 0.65C96.1503 2.69 93.9003 5.47 92.2203 8.49C90.5403 11.52 89.4003 14.84 88.9203 18.26C88.8603 18.64 88.8136 19.02 88.7803 19.4C88.9536 19.06 89.1236 18.72 89.2903 18.38Z" fill="#004480"/>
<path d="M80.0104 79.28C78.9304 79.79 78.3204 79.93 77.1904 79.78L71.1904 93.5C74.1704 88.84 77.9504 83.04 81.1904 79.78L80.0104 79.28Z" fill="#004480"/>
<path d="M105.131 68.6864C105.161 68.1743 102.5 67.3584 98.8866 68.8599L97.6309 69.5L95.5087 70.5698L92.1309 72.2796C96.9929 76.6628 98.7434 81.2889 104.998 77.739L105.131 68.6864Z" fill="#004480"/>
<path d="M81.1602 127.359C81.1602 131.484 80.3164 135.469 78.6289 139.312C76.9414 143.109 74.668 146.484 71.8086 149.438C68.9961 152.391 65.6914 154.758 61.8945 156.539C58.1445 158.273 54.1836 159.141 50.0117 159.141H49.8711C49.0273 159.141 48.3242 158.766 47.7617 158.016C47.2461 157.219 46.8008 156.234 46.4258 155.062C46.0508 153.891 45.7695 152.578 45.582 151.125C45.3945 149.672 45.2539 148.266 45.1602 146.906C45.0664 145.5 45.0195 144.258 45.0195 143.18C45.0195 142.055 45.0195 141.211 45.0195 140.648C45.0195 139.055 45.043 137.484 45.0898 135.938C45.1367 134.344 45.207 132.75 45.3008 131.156C45.3008 130.641 45.3242 129.891 45.3711 128.906C45.4648 127.875 45.5586 126.727 45.6523 125.461C45.7461 124.195 45.8633 122.883 46.0039 121.523C46.1445 120.117 46.2852 118.828 46.4258 117.656C46.6133 116.438 46.7773 115.383 46.918 114.492C47.1055 113.555 47.3164 112.922 47.5508 112.594C48.1602 111.562 49.0977 110.648 50.3633 109.852C51.6289 109.055 52.9883 108.398 54.4414 107.883C55.9414 107.367 57.4414 106.992 58.9414 106.758C60.4883 106.477 61.8242 106.336 62.9492 106.336C66.043 106.336 68.7148 106.922 70.9648 108.094C73.2617 109.219 75.1602 110.766 76.6602 112.734C78.207 114.656 79.332 116.883 80.0352 119.414C80.7852 121.945 81.1602 124.594 81.1602 127.359ZM69.3477 129.398C69.3477 128.367 69.1602 127.312 68.7852 126.234C68.4102 125.156 67.8711 124.172 67.168 123.281C66.5117 122.391 65.6914 121.688 64.707 121.172C63.7695 120.609 62.7148 120.328 61.543 120.328C60.5586 120.328 59.5508 120.562 58.5195 121.031C58.2852 121.172 58.0742 121.617 57.8867 122.367C57.6992 123.07 57.5352 123.938 57.3945 124.969C57.3008 126 57.207 127.125 57.1133 128.344C57.0195 129.562 56.9492 130.734 56.9023 131.859C56.9023 132.938 56.8789 133.898 56.832 134.742C56.832 135.586 56.832 136.148 56.832 136.43C56.832 136.898 56.832 137.602 56.832 138.539C56.832 139.43 56.8555 140.32 56.9023 141.211C56.9961 142.102 57.0898 142.875 57.1836 143.531C57.2773 144.188 57.4414 144.516 57.6758 144.516C59.082 144.516 60.4648 143.977 61.8242 142.898C63.2305 141.773 64.4961 140.414 65.6211 138.82C66.7461 137.227 67.6367 135.562 68.293 133.828C68.9961 132.094 69.3477 130.617 69.3477 129.398Z" fill="#004480"/>
<path d="M97.6836 161.039C95.293 161.039 93.207 160.406 91.4258 159.141C89.6445 157.875 88.1445 156.258 86.9258 154.289C85.707 152.32 84.793 150.141 84.1836 147.75C83.5742 145.312 83.2695 142.922 83.2695 140.578C83.2695 138.094 83.5742 135.539 84.1836 132.914C84.793 130.242 85.7305 127.828 86.9961 125.672C88.2617 123.469 89.8789 121.688 91.8477 120.328C93.8164 118.922 96.1602 118.219 98.8789 118.219C101.504 118.219 103.73 118.945 105.559 120.398C107.434 121.805 108.934 123.586 110.059 125.742C111.184 127.852 111.98 130.172 112.449 132.703C112.918 135.234 113.082 137.625 112.941 139.875C112.801 142.359 112.402 144.867 111.746 147.398C111.137 149.93 110.223 152.203 109.004 154.219C107.785 156.234 106.238 157.875 104.363 159.141C102.488 160.406 100.262 161.039 97.6836 161.039ZM98.3867 129.258C97.6836 129.258 97.0508 129.633 96.4883 130.383C95.9727 131.133 95.5273 132.047 95.1523 133.125C94.8242 134.203 94.5664 135.352 94.3789 136.57C94.1914 137.742 94.0977 138.773 94.0977 139.664C94.0977 140.789 94.1914 142.008 94.3789 143.32C94.6133 144.633 94.918 145.852 95.293 146.977C95.668 148.055 96.1133 148.969 96.6289 149.719C97.1914 150.422 97.8242 150.773 98.5273 150.773C99.2773 150.773 99.9102 150.422 100.426 149.719C100.988 149.016 101.434 148.125 101.762 147.047C102.09 145.969 102.324 144.797 102.465 143.531C102.605 142.219 102.676 141 102.676 139.875C102.676 138.844 102.582 137.719 102.395 136.5C102.207 135.234 101.926 134.062 101.551 132.984C101.223 131.906 100.777 131.016 100.215 130.312C99.6992 129.609 99.0898 129.258 98.3867 129.258Z" fill="#004480"/>
<path d="M136.496 160.969C135.699 160.969 135.066 160.594 134.598 159.844C134.129 159.141 133.777 158.32 133.543 157.383C133.309 156.445 133.145 155.508 133.051 154.57C133.004 153.586 132.98 152.836 132.98 152.32C132.98 150.914 133.051 149.508 133.191 148.102C133.379 146.695 133.566 145.289 133.754 143.883C133.988 142.477 134.176 141.07 134.316 139.664C134.504 138.258 134.598 136.852 134.598 135.445C134.598 134.883 134.574 134.273 134.527 133.617C134.48 132.961 134.363 132.352 134.176 131.789C134.035 131.18 133.777 130.688 133.402 130.312C133.027 129.938 132.535 129.75 131.926 129.75C131.504 129.75 131.035 130.102 130.52 130.805C130.004 131.461 129.512 132.234 129.043 133.125C128.621 133.969 128.246 134.836 127.918 135.727C127.637 136.57 127.496 137.203 127.496 137.625C127.496 138.656 127.496 139.711 127.496 140.789C127.543 141.82 127.566 142.875 127.566 143.953V148.031C127.52 148.875 127.449 149.742 127.355 150.633C127.262 151.523 127.121 152.391 126.934 153.234C126.793 154.078 126.582 154.898 126.301 155.695C126.02 156.445 125.645 157.125 125.176 157.734C124.754 158.297 124.238 158.766 123.629 159.141C123.02 159.516 122.293 159.703 121.449 159.703C120.512 159.703 119.738 159.398 119.129 158.789C118.52 158.18 118.027 157.406 117.652 156.469C117.277 155.484 116.996 154.406 116.809 153.234C116.668 152.016 116.551 150.844 116.457 149.719C116.41 148.547 116.387 147.492 116.387 146.555C116.434 145.57 116.457 144.797 116.457 144.234V140.93C116.457 139.148 116.41 137.391 116.316 135.656C116.27 133.922 116.246 132.188 116.246 130.453C116.246 129.516 116.246 128.32 116.246 126.867C116.293 125.414 116.48 124.008 116.809 122.648C117.137 121.242 117.676 120.047 118.426 119.062C119.176 118.078 120.277 117.586 121.73 117.586C122.387 117.586 122.973 117.797 123.488 118.219C124.004 118.641 124.449 119.156 124.824 119.766C125.246 120.375 125.574 121.031 125.809 121.734C126.09 122.438 126.301 123.047 126.441 123.562C126.91 122.906 127.449 122.273 128.059 121.664C128.715 121.055 129.441 120.516 130.238 120.047C131.035 119.578 131.926 119.203 132.91 118.922C133.895 118.641 135.02 118.5 136.285 118.5C138.676 118.5 140.527 119.086 141.84 120.258C143.199 121.383 144.184 122.812 144.793 124.547C145.449 126.234 145.848 128.062 145.988 130.031C146.129 132 146.199 133.781 146.199 135.375C146.199 136.172 146.129 137.367 145.988 138.961C145.848 140.508 145.613 142.242 145.285 144.164C145.004 146.039 144.605 147.984 144.09 150C143.574 151.969 142.965 153.773 142.262 155.414C141.559 157.055 140.715 158.391 139.73 159.422C138.793 160.453 137.715 160.969 136.496 160.969Z" fill="#004480"/>
<path d="M179.598 146.484C179.598 148.078 179.082 149.648 178.051 151.195C177.066 152.695 175.801 154.055 174.254 155.273C172.754 156.445 171.137 157.406 169.402 158.156C167.668 158.859 166.074 159.211 164.621 159.211C162.137 159.211 159.91 158.602 157.941 157.383C156.02 156.117 154.402 154.523 153.09 152.602C151.777 150.68 150.77 148.57 150.066 146.273C149.41 143.93 149.082 141.656 149.082 139.453C149.082 137.109 149.41 134.602 150.066 131.93C150.723 129.258 151.707 126.797 153.02 124.547C154.379 122.297 156.066 120.422 158.082 118.922C160.145 117.422 162.582 116.672 165.395 116.672C166.988 116.672 168.512 116.953 169.965 117.516C171.418 118.031 172.684 118.781 173.762 119.766C174.84 120.75 175.707 121.922 176.363 123.281C177.02 124.641 177.348 126.164 177.348 127.852C177.348 130.055 176.879 132.117 175.941 134.039C175.004 135.961 173.762 137.625 172.215 139.031C170.668 140.438 168.887 141.586 166.871 142.477C164.855 143.32 162.793 143.789 160.684 143.883C160.871 145.242 161.41 146.227 162.301 146.836C163.238 147.445 164.34 147.75 165.605 147.75C166.543 147.75 167.457 147.516 168.348 147.047C169.238 146.578 170.105 146.062 170.949 145.5C171.793 144.891 172.613 144.352 173.41 143.883C174.254 143.414 175.098 143.18 175.941 143.18C176.879 143.18 177.723 143.484 178.473 144.094C179.223 144.703 179.598 145.5 179.598 146.484ZM168.207 129.258C168.207 128.648 168.043 128.016 167.715 127.359C167.387 126.703 166.871 126.375 166.168 126.375C165.137 126.375 164.27 126.656 163.566 127.219C162.863 127.734 162.277 128.414 161.809 129.258C161.34 130.055 160.965 130.922 160.684 131.859C160.449 132.797 160.309 133.664 160.262 134.461C160.918 134.32 161.691 134.133 162.582 133.898C163.52 133.664 164.387 133.359 165.184 132.984C166.027 132.562 166.73 132.047 167.293 131.438C167.902 130.828 168.207 130.102 168.207 129.258Z" fill="#004480"/>
<path d="M215.949 149.297C215.949 150.469 215.457 151.57 214.473 152.602C213.535 153.633 212.293 154.57 210.746 155.414C209.246 156.258 207.559 157.008 205.684 157.664C203.809 158.273 201.957 158.789 200.129 159.211C198.301 159.68 196.566 160.031 194.926 160.266C193.332 160.5 192.066 160.617 191.129 160.617C190.238 160.617 189.277 160.523 188.246 160.336C187.262 160.195 186.441 159.844 185.785 159.281C185.41 159 185.082 158.367 184.801 157.383C184.52 156.398 184.238 155.227 183.957 153.867C183.723 152.508 183.512 151.055 183.324 149.508C183.137 147.914 182.973 146.367 182.832 144.867C182.738 143.367 182.645 141.984 182.551 140.719C182.504 139.453 182.48 138.469 182.48 137.766C182.48 136.594 182.504 135.188 182.551 133.547C182.645 131.859 182.762 130.078 182.902 128.203C183.043 126.281 183.23 124.336 183.465 122.367C183.699 120.398 183.957 118.547 184.238 116.812C184.566 115.031 184.941 113.438 185.363 112.031C185.832 110.625 186.324 109.523 186.84 108.727C187.73 107.461 188.855 106.828 190.215 106.828C191.152 106.828 191.949 107.156 192.605 107.812C193.262 108.422 193.777 109.242 194.152 110.273C194.574 111.258 194.879 112.383 195.066 113.648C195.301 114.867 195.465 116.086 195.559 117.305C195.652 118.523 195.699 119.648 195.699 120.68C195.699 121.711 195.699 122.531 195.699 123.141C195.699 126.797 195.605 130.43 195.418 134.039C195.277 137.602 195.207 141.211 195.207 144.867V147.609C197.316 146.953 199.613 146.344 202.098 145.781C204.582 145.172 206.949 144.867 209.199 144.867C209.996 144.867 210.793 144.914 211.59 145.008C212.434 145.102 213.16 145.312 213.77 145.641C214.426 145.922 214.941 146.367 215.316 146.977C215.738 147.539 215.949 148.312 215.949 149.297Z" fill="#004480"/>
<path d="M232.262 179.461C231.137 179.461 229.848 179.273 228.395 178.898C226.988 178.57 225.652 178.078 224.387 177.422C223.121 176.766 222.043 175.969 221.152 175.031C220.309 174.094 219.887 173.016 219.887 171.797C219.887 171.328 220.004 170.859 220.238 170.391C220.473 169.922 220.777 169.5 221.152 169.125C221.574 168.797 222.02 168.516 222.488 168.281C222.957 168.094 223.449 168 223.965 168C224.527 168 225.066 168.07 225.582 168.211C226.145 168.398 226.707 168.609 227.27 168.844C227.879 169.078 228.465 169.289 229.027 169.477C229.637 169.664 230.27 169.758 230.926 169.758C232.098 169.758 233.105 169.359 233.949 168.562C234.84 167.766 235.59 166.711 236.199 165.398C236.809 164.133 237.301 162.703 237.676 161.109C238.051 159.562 238.332 158.016 238.52 156.469C238.754 154.922 238.918 153.469 239.012 152.109C239.105 150.75 239.176 149.648 239.223 148.805C237.582 151.289 235.941 153.211 234.301 154.57C232.707 155.883 230.738 156.539 228.395 156.539C226.613 156.539 225.043 156.164 223.684 155.414C222.371 154.664 221.246 153.68 220.309 152.461C219.371 151.242 218.598 149.859 217.988 148.312C217.379 146.719 216.91 145.078 216.582 143.391C216.301 141.703 216.113 140.062 216.02 138.469C215.926 136.828 215.926 135.328 216.02 133.969C216.066 132.938 216.184 131.602 216.371 129.961C216.605 128.273 216.957 126.633 217.426 125.039C217.895 123.445 218.551 122.109 219.395 121.031C220.238 119.906 221.34 119.391 222.699 119.484C223.59 119.531 224.316 119.93 224.879 120.68C225.441 121.383 225.887 122.273 226.215 123.352C226.59 124.43 226.848 125.625 226.988 126.938C227.176 128.203 227.293 129.469 227.34 130.734C227.387 132 227.387 133.172 227.34 134.25C227.34 135.281 227.34 136.078 227.34 136.641C227.34 137.438 227.363 138.234 227.41 139.031C227.457 139.828 227.621 140.555 227.902 141.211C228.184 141.82 228.605 142.312 229.168 142.688C229.777 143.062 230.621 143.25 231.699 143.25C232.918 143.25 233.879 142.945 234.582 142.336C235.332 141.727 235.871 140.977 236.199 140.086C236.574 139.148 236.809 138.164 236.902 137.133C236.996 136.055 237.043 135.047 237.043 134.109C237.043 133.453 237.043 132.656 237.043 131.719C237.043 130.781 237.043 129.797 237.043 128.766C237.09 127.734 237.184 126.727 237.324 125.742C237.512 124.711 237.77 123.797 238.098 123C238.473 122.156 238.941 121.477 239.504 120.961C240.113 120.445 240.887 120.188 241.824 120.188C242.996 120.188 244.004 120.656 244.848 121.594C245.691 122.484 246.395 123.68 246.957 125.18C247.566 126.633 248.035 128.25 248.363 130.031C248.738 131.812 249.02 133.594 249.207 135.375C249.395 137.109 249.512 138.727 249.559 140.227C249.652 141.68 249.699 142.828 249.699 143.672C249.699 145.641 249.629 147.891 249.488 150.422C249.348 152.906 249.066 155.484 248.645 158.156C248.27 160.781 247.684 163.359 246.887 165.891C246.09 168.469 245.035 170.766 243.723 172.781C242.457 174.797 240.887 176.414 239.012 177.633C237.137 178.852 234.887 179.461 232.262 179.461Z" fill="#004480"/>
<path d="M26.9756 177.836C26.9756 180.754 26.9053 183.689 26.7646 186.643C26.624 189.561 26.4482 192.479 26.2373 195.396C26.2021 195.924 26.167 196.645 26.1318 197.559C26.0967 198.438 26.0264 199.404 25.9209 200.459C25.8154 201.479 25.6748 202.516 25.499 203.57C25.3232 204.625 25.042 205.592 24.6553 206.471C24.3037 207.314 23.8291 208 23.2314 208.527C22.6689 209.09 21.9658 209.371 21.1221 209.371C20.3838 209.371 19.7158 209.213 19.1182 208.896C18.5557 208.58 18.0811 208.176 17.6943 207.684C17.3076 207.156 17.0088 206.576 16.7979 205.943C16.5869 205.275 16.4814 204.59 16.4814 203.887C16.4814 202.727 16.5166 201.566 16.5869 200.406C16.6572 199.211 16.7627 198.033 16.9033 196.873L11.6826 197.4C11.5771 198.314 11.4541 199.422 11.3135 200.723C11.208 201.988 10.9619 203.219 10.5752 204.414C10.2236 205.574 9.67871 206.576 8.94043 207.42C8.20215 208.264 7.18262 208.686 5.88184 208.686C5.07324 208.686 4.40527 208.492 3.87793 208.105C3.35059 207.754 2.92871 207.297 2.6123 206.734C2.2959 206.137 2.06738 205.486 1.92676 204.783C1.78613 204.08 1.71582 203.412 1.71582 202.779C1.71582 200.67 1.80371 198.578 1.97949 196.504C2.15527 194.395 2.27832 192.285 2.34863 190.176C2.41895 187.961 2.43652 185.746 2.40137 183.531C2.40137 181.281 2.43652 179.031 2.50684 176.781C2.54199 176.043 2.55957 175.182 2.55957 174.197C2.59473 173.213 2.71777 172.299 2.92871 171.455C3.1748 170.576 3.56152 169.838 4.08887 169.24C4.65137 168.643 5.47754 168.344 6.56738 168.344C8.0791 168.344 9.22168 168.748 9.99512 169.557C10.7686 170.33 11.3135 171.314 11.6299 172.51C11.9463 173.67 12.1045 174.918 12.1045 176.254C12.1045 177.555 12.1045 178.732 12.1045 179.787C12.1045 181.193 12.0693 182.582 11.999 183.953C11.9287 185.289 11.8584 186.643 11.7881 188.014L17.4307 187.17C17.4658 185.447 17.501 183.742 17.5361 182.055C17.5713 180.367 17.6416 178.68 17.7471 176.992C17.7822 176.184 17.8174 175.322 17.8525 174.408C17.8877 173.494 18.0283 172.65 18.2744 171.877C18.5205 171.104 18.9248 170.471 19.4873 169.979C20.085 169.451 20.9639 169.188 22.124 169.188C23.1084 169.188 23.8994 169.469 24.4971 170.031C25.1299 170.594 25.6221 171.279 25.9736 172.088C26.3604 172.896 26.624 173.758 26.7646 174.672C26.9053 175.586 26.9756 176.412 26.9756 177.15V177.836Z" fill="#004480"/>
<path d="M40.4756 209.529C38.6826 209.529 37.1182 209.055 35.7822 208.105C34.4463 207.156 33.3213 205.943 32.4072 204.467C31.4932 202.99 30.8076 201.355 30.3506 199.562C29.8936 197.734 29.665 195.941 29.665 194.184C29.665 192.32 29.8936 190.404 30.3506 188.436C30.8076 186.432 31.5107 184.621 32.46 183.004C33.4092 181.352 34.6221 180.016 36.0986 178.996C37.5752 177.941 39.333 177.414 41.3721 177.414C43.3408 177.414 45.0107 177.959 46.3818 179.049C47.7881 180.104 48.9131 181.439 49.7568 183.057C50.6006 184.639 51.1982 186.379 51.5498 188.277C51.9014 190.176 52.0244 191.969 51.9189 193.656C51.8135 195.52 51.5146 197.4 51.0225 199.299C50.5654 201.197 49.8799 202.902 48.9658 204.414C48.0518 205.926 46.8916 207.156 45.4854 208.105C44.0791 209.055 42.4092 209.529 40.4756 209.529ZM41.0029 185.693C40.4756 185.693 40.001 185.975 39.5791 186.537C39.1924 187.1 38.8584 187.785 38.5771 188.594C38.3311 189.402 38.1377 190.264 37.9971 191.178C37.8564 192.057 37.7861 192.83 37.7861 193.498C37.7861 194.342 37.8564 195.256 37.9971 196.24C38.1729 197.225 38.4014 198.139 38.6826 198.982C38.9639 199.791 39.2979 200.477 39.6846 201.039C40.1064 201.566 40.5811 201.83 41.1084 201.83C41.6709 201.83 42.1455 201.566 42.5322 201.039C42.9541 200.512 43.2881 199.844 43.5342 199.035C43.7803 198.227 43.9561 197.348 44.0615 196.398C44.167 195.414 44.2197 194.5 44.2197 193.656C44.2197 192.883 44.1494 192.039 44.0088 191.125C43.8682 190.176 43.6572 189.297 43.376 188.488C43.1299 187.68 42.7959 187.012 42.374 186.484C41.9873 185.957 41.5303 185.693 41.0029 185.693Z" fill="#004480"/>
<path d="M86.6182 190.598C86.6182 191.266 86.6182 192.18 86.6182 193.34C86.6182 194.465 86.583 195.695 86.5127 197.031C86.4775 198.367 86.3721 199.721 86.1963 201.092C86.0205 202.428 85.7393 203.641 85.3525 204.73C85.001 205.82 84.5439 206.717 83.9814 207.42C83.4189 208.123 82.6982 208.475 81.8193 208.475C81.0459 208.475 80.4482 208.158 80.0264 207.525C79.6396 206.857 79.3584 206.084 79.1826 205.205C79.0068 204.326 78.9014 203.43 78.8662 202.516C78.8662 201.602 78.8662 200.881 78.8662 200.354C78.8662 198.771 78.9189 197.225 79.0244 195.713C79.1299 194.201 79.1826 192.654 79.1826 191.072C79.1826 190.896 79.1826 190.58 79.1826 190.123C79.1826 189.666 79.1475 189.209 79.0771 188.752C79.0068 188.295 78.8838 187.891 78.708 187.539C78.5674 187.188 78.3389 187.012 78.0225 187.012C77.3896 187.012 76.8799 187.346 76.4932 188.014C76.1064 188.646 75.79 189.402 75.5439 190.281C75.2979 191.16 75.1221 192.039 75.0166 192.918C74.9111 193.762 74.8408 194.395 74.8057 194.816C74.7354 195.273 74.665 195.959 74.5947 196.873C74.5596 197.787 74.4893 198.789 74.3838 199.879C74.3135 200.969 74.1729 202.094 73.9619 203.254C73.7861 204.379 73.54 205.416 73.2236 206.365C72.9424 207.279 72.5732 208.035 72.1162 208.633C71.6592 209.23 71.0967 209.529 70.4287 209.529C69.585 209.529 68.9346 209.16 68.4775 208.422C68.0205 207.684 67.6865 206.822 67.4756 205.838C67.2646 204.854 67.124 203.852 67.0537 202.832C67.0186 201.812 67.001 201.021 67.001 200.459C67.001 199.861 67.001 199.281 67.001 198.719C67.0361 198.156 67.0537 197.576 67.0537 196.979C67.0537 196.732 67.0537 196.328 67.0537 195.766C67.0537 195.203 67.0361 194.588 67.001 193.92C67.001 193.217 66.9658 192.496 66.8955 191.758C66.8604 191.02 66.79 190.352 66.6846 189.754C66.5791 189.121 66.4209 188.611 66.21 188.225C65.999 187.838 65.7529 187.645 65.4717 187.645C65.0146 187.645 64.5928 187.943 64.2061 188.541C63.8193 189.104 63.4854 189.789 63.2041 190.598C62.9229 191.371 62.6943 192.145 62.5186 192.918C62.3779 193.691 62.3076 194.254 62.3076 194.605V194.922C62.3076 196.609 62.4131 198.262 62.624 199.879C62.835 201.496 62.9404 203.148 62.9404 204.836C62.9404 205.82 62.624 206.734 61.9912 207.578C61.3584 208.387 60.4795 208.791 59.3545 208.791C58.5459 208.791 57.8779 208.492 57.3506 207.895C56.8232 207.262 56.3838 206.453 56.0322 205.469C55.6807 204.484 55.3994 203.412 55.1885 202.252C55.0127 201.057 54.8896 199.896 54.8193 198.771C54.749 197.611 54.6963 196.574 54.6611 195.66C54.6611 194.711 54.6611 194.008 54.6611 193.551C54.6611 193.023 54.6436 192.25 54.6084 191.23C54.6084 190.211 54.626 189.104 54.6611 187.908C54.7314 186.713 54.8369 185.5 54.9775 184.27C55.1182 183.004 55.3467 181.861 55.6631 180.842C55.9795 179.822 56.3838 178.996 56.876 178.363C57.4033 177.695 58.0713 177.361 58.8799 177.361C59.7939 177.361 60.5322 177.607 61.0947 178.1C61.6924 178.592 61.9912 179.33 61.9912 180.314C61.9912 180.525 61.9736 180.736 61.9385 180.947C61.9385 181.158 61.9209 181.352 61.8857 181.527C62.2725 180.965 62.7471 180.402 63.3096 179.84C63.8721 179.242 64.4697 178.715 65.1025 178.258C65.7705 177.766 66.4736 177.379 67.2119 177.098C67.9502 176.781 68.6885 176.623 69.4268 176.623C70.1299 176.623 70.7627 176.816 71.3252 177.203C71.8877 177.59 72.3799 178.082 72.8018 178.68C73.2236 179.242 73.5752 179.857 73.8564 180.525C74.1377 181.193 74.3311 181.826 74.4365 182.424C74.7881 181.791 75.21 181.158 75.7021 180.525C76.2295 179.857 76.792 179.277 77.3896 178.785C77.9873 178.293 78.6377 177.889 79.3408 177.572C80.0791 177.256 80.835 177.098 81.6084 177.098C82.3467 177.098 82.9795 177.361 83.5068 177.889C84.0342 178.416 84.4912 179.102 84.8779 179.945C85.2646 180.754 85.5635 181.686 85.7744 182.74C85.9854 183.76 86.1611 184.779 86.3018 185.799C86.4424 186.783 86.5303 187.715 86.5654 188.594C86.6006 189.438 86.6182 190.105 86.6182 190.598Z" fill="#004480"/>
<path d="M112.194 198.613C112.194 199.809 111.808 200.986 111.034 202.146C110.296 203.271 109.347 204.291 108.187 205.205C107.062 206.084 105.849 206.805 104.548 207.367C103.247 207.895 102.052 208.158 100.962 208.158C99.0986 208.158 97.4287 207.701 95.9521 206.787C94.5107 205.838 93.2979 204.643 92.3135 203.201C91.3291 201.76 90.5732 200.178 90.0459 198.455C89.5537 196.697 89.3076 194.992 89.3076 193.34C89.3076 191.582 89.5537 189.701 90.0459 187.697C90.5381 185.693 91.2764 183.848 92.2607 182.16C93.2803 180.473 94.5459 179.066 96.0576 177.941C97.6045 176.816 99.4326 176.254 101.542 176.254C102.737 176.254 103.88 176.465 104.97 176.887C106.06 177.273 107.009 177.836 107.817 178.574C108.626 179.312 109.276 180.191 109.769 181.211C110.261 182.23 110.507 183.373 110.507 184.639C110.507 186.291 110.155 187.838 109.452 189.279C108.749 190.721 107.817 191.969 106.657 193.023C105.497 194.078 104.161 194.939 102.649 195.607C101.138 196.24 99.5908 196.592 98.0088 196.662C98.1494 197.682 98.5537 198.42 99.2217 198.877C99.9248 199.334 100.751 199.562 101.7 199.562C102.403 199.562 103.089 199.387 103.757 199.035C104.425 198.684 105.075 198.297 105.708 197.875C106.341 197.418 106.956 197.014 107.554 196.662C108.187 196.311 108.819 196.135 109.452 196.135C110.155 196.135 110.788 196.363 111.351 196.82C111.913 197.277 112.194 197.875 112.194 198.613ZM103.651 185.693C103.651 185.236 103.528 184.762 103.282 184.27C103.036 183.777 102.649 183.531 102.122 183.531C101.349 183.531 100.698 183.742 100.171 184.164C99.6436 184.551 99.2041 185.061 98.8525 185.693C98.501 186.291 98.2197 186.941 98.0088 187.645C97.833 188.348 97.7275 188.998 97.6924 189.596C98.1846 189.49 98.7646 189.35 99.4326 189.174C100.136 188.998 100.786 188.77 101.384 188.488C102.017 188.172 102.544 187.785 102.966 187.328C103.423 186.871 103.651 186.326 103.651 185.693Z" fill="#004480"/>
<path d="M144.257 170.98C144.257 171.789 143.993 172.492 143.466 173.09C142.974 173.688 142.376 174.18 141.673 174.566C141.04 174.953 140.39 175.375 139.722 175.832C139.054 176.254 138.438 176.746 137.876 177.309C137.313 177.836 136.856 178.434 136.505 179.102C136.153 179.77 135.978 180.525 135.978 181.369C135.978 182.107 136.153 182.775 136.505 183.373C136.856 183.971 137.278 184.568 137.771 185.166C138.298 185.729 138.86 186.326 139.458 186.959C140.091 187.557 140.653 188.242 141.146 189.016C141.673 189.754 142.112 190.598 142.464 191.547C142.815 192.496 142.991 193.604 142.991 194.869C142.991 195.748 142.798 196.75 142.411 197.875C142.06 198.965 141.567 200.072 140.935 201.197C140.302 202.322 139.546 203.412 138.667 204.467C137.823 205.521 136.909 206.471 135.925 207.314C134.976 208.123 133.974 208.773 132.919 209.266C131.864 209.793 130.845 210.057 129.86 210.057C128.771 210.057 127.804 209.758 126.96 209.16C126.116 208.562 125.694 207.666 125.694 206.471C125.694 205.662 125.888 204.924 126.274 204.256C126.661 203.553 127.136 202.885 127.698 202.252C128.261 201.619 128.876 201.004 129.544 200.406C130.247 199.809 130.88 199.211 131.442 198.613C132.005 198.016 132.479 197.4 132.866 196.768C133.253 196.1 133.446 195.396 133.446 194.658C133.446 193.639 133.077 192.602 132.339 191.547C131.636 190.457 130.845 189.35 129.966 188.225C129.087 187.064 128.278 185.887 127.54 184.691C126.837 183.496 126.485 182.283 126.485 181.053C126.485 179.541 126.89 177.959 127.698 176.307C128.507 174.619 129.544 173.09 130.81 171.719C132.075 170.312 133.499 169.152 135.081 168.238C136.663 167.324 138.228 166.867 139.774 166.867C141.005 166.867 142.06 167.236 142.938 167.975C143.817 168.713 144.257 169.715 144.257 170.98Z" fill="#004480"/>
<path d="M168.198 198.613C168.198 199.809 167.812 200.986 167.038 202.146C166.3 203.271 165.351 204.291 164.19 205.205C163.065 206.084 161.853 206.805 160.552 207.367C159.251 207.895 158.056 208.158 156.966 208.158C155.103 208.158 153.433 207.701 151.956 206.787C150.515 205.838 149.302 204.643 148.317 203.201C147.333 201.76 146.577 200.178 146.05 198.455C145.558 196.697 145.312 194.992 145.312 193.34C145.312 191.582 145.558 189.701 146.05 187.697C146.542 185.693 147.28 183.848 148.265 182.16C149.284 180.473 150.55 179.066 152.062 177.941C153.608 176.816 155.437 176.254 157.546 176.254C158.741 176.254 159.884 176.465 160.974 176.887C162.063 177.273 163.013 177.836 163.821 178.574C164.63 179.312 165.28 180.191 165.772 181.211C166.265 182.23 166.511 183.373 166.511 184.639C166.511 186.291 166.159 187.838 165.456 189.279C164.753 190.721 163.821 191.969 162.661 193.023C161.501 194.078 160.165 194.939 158.653 195.607C157.142 196.24 155.595 196.592 154.013 196.662C154.153 197.682 154.558 198.42 155.226 198.877C155.929 199.334 156.755 199.562 157.704 199.562C158.407 199.562 159.093 199.387 159.761 199.035C160.429 198.684 161.079 198.297 161.712 197.875C162.345 197.418 162.96 197.014 163.558 196.662C164.19 196.311 164.823 196.135 165.456 196.135C166.159 196.135 166.792 196.363 167.354 196.82C167.917 197.277 168.198 197.875 168.198 198.613ZM159.655 185.693C159.655 185.236 159.532 184.762 159.286 184.27C159.04 183.777 158.653 183.531 158.126 183.531C157.353 183.531 156.702 183.742 156.175 184.164C155.647 184.551 155.208 185.061 154.856 185.693C154.505 186.291 154.224 186.941 154.013 187.645C153.837 188.348 153.731 188.998 153.696 189.596C154.188 189.49 154.769 189.35 155.437 189.174C156.14 188.998 156.79 188.77 157.388 188.488C158.021 188.172 158.548 187.785 158.97 187.328C159.427 186.871 159.655 186.326 159.655 185.693Z" fill="#004480"/>
<path d="M188.606 188.277C188.114 188.312 187.692 188.277 187.341 188.172C186.989 188.031 186.638 187.891 186.286 187.75C185.97 187.609 185.653 187.486 185.337 187.381C185.021 187.24 184.669 187.188 184.282 187.223C183.579 187.258 182.946 187.451 182.384 187.803C181.856 188.154 181.364 188.594 180.907 189.121C180.485 189.648 180.116 190.246 179.8 190.914C179.483 191.547 179.237 192.18 179.062 192.812C178.956 193.234 178.868 193.885 178.798 194.764C178.763 195.607 178.745 196.521 178.745 197.506C178.71 198.525 178.692 199.492 178.692 200.406C178.692 201.32 178.657 202.041 178.587 202.568C178.552 203.131 178.464 203.799 178.323 204.572C178.183 205.311 177.954 206.014 177.638 206.682C177.356 207.35 176.97 207.912 176.478 208.369C175.985 208.826 175.353 209.055 174.579 209.055C173.981 209.055 173.454 208.879 172.997 208.527C172.575 208.176 172.206 207.719 171.89 207.156C171.608 206.559 171.362 205.873 171.151 205.1C170.976 204.326 170.835 203.535 170.729 202.727C170.624 201.883 170.536 201.039 170.466 200.195C170.431 199.352 170.396 198.561 170.36 197.822C170.36 197.049 170.36 196.346 170.36 195.713C170.396 195.08 170.413 194.57 170.413 194.184C170.378 192.953 170.308 191.723 170.202 190.492C170.132 189.227 170.097 187.979 170.097 186.748C170.097 185.975 170.132 185.113 170.202 184.164C170.272 183.215 170.466 182.336 170.782 181.527C171.099 180.684 171.556 179.98 172.153 179.418C172.786 178.855 173.647 178.574 174.737 178.574C175.335 178.574 175.845 178.768 176.267 179.154C176.688 179.541 177.022 180.016 177.269 180.578C177.55 181.141 177.761 181.738 177.901 182.371C178.042 183.004 178.13 183.584 178.165 184.111C179.009 182.74 179.958 181.633 181.013 180.789C182.067 179.91 183.438 179.436 185.126 179.365C185.97 179.33 186.796 179.418 187.604 179.629C188.448 179.805 189.204 180.121 189.872 180.578C190.575 181 191.138 181.562 191.56 182.266C192.017 182.969 192.263 183.795 192.298 184.744C192.368 185.869 192.034 186.73 191.296 187.328C190.558 187.926 189.661 188.242 188.606 188.277Z" fill="#004480"/>
<path d="M215.817 189.121C214.903 191.547 213.901 194.078 212.812 196.715C211.722 199.352 210.544 201.812 209.278 204.098C208.505 205.504 207.644 206.682 206.694 207.631C205.745 208.545 204.655 209.002 203.425 209.002C202.44 209.002 201.474 208.51 200.524 207.525C199.61 206.506 198.749 205.311 197.94 203.939C197.167 202.533 196.481 201.127 195.884 199.721C195.321 198.279 194.899 197.137 194.618 196.293C194.337 195.344 194.021 194.324 193.669 193.234C193.317 192.145 193.001 191.037 192.72 189.912C192.438 188.787 192.21 187.68 192.034 186.59C191.858 185.465 191.771 184.41 191.771 183.426C191.771 182.055 192.017 180.93 192.509 180.051C193.001 179.172 193.968 178.732 195.409 178.732C195.972 178.732 196.481 178.908 196.938 179.26C197.396 179.576 197.817 180.033 198.204 180.631C198.591 181.229 198.96 181.932 199.312 182.74C199.663 183.514 199.997 184.375 200.313 185.324C200.63 186.238 200.929 187.188 201.21 188.172C201.491 189.156 201.772 190.105 202.054 191.02C202.335 191.934 202.616 192.83 202.897 193.709C203.214 194.553 203.618 195.396 204.11 196.24C204.356 195.607 204.638 194.887 204.954 194.078C205.271 193.27 205.604 192.408 205.956 191.494C206.343 190.58 206.747 189.648 207.169 188.699C207.591 187.715 208.048 186.766 208.54 185.852C209.489 183.953 210.491 182.336 211.546 181C212.636 179.664 213.708 178.996 214.763 178.996C215.747 178.996 216.45 179.295 216.872 179.893C217.294 180.49 217.505 181.264 217.505 182.213C217.505 183.162 217.347 184.234 217.03 185.43C216.714 186.625 216.31 187.855 215.817 189.121Z" fill="#004480"/>
<path d="M228.052 171.191C228.052 171.684 227.911 172.123 227.63 172.51C227.384 172.896 227.05 173.248 226.628 173.564C226.206 173.846 225.749 174.074 225.257 174.25C224.765 174.391 224.308 174.461 223.886 174.461C223.183 174.461 222.567 174.285 222.04 173.934C221.513 173.582 221.249 173.037 221.249 172.299C221.249 171.771 221.372 171.314 221.618 170.928C221.899 170.506 222.233 170.172 222.62 169.926C223.007 169.645 223.446 169.434 223.938 169.293C224.431 169.152 224.905 169.082 225.362 169.082C226.03 169.082 226.646 169.24 227.208 169.557C227.771 169.873 228.052 170.418 228.052 171.191ZM228.474 189.121C228.474 189.613 228.474 190.141 228.474 190.703C228.474 191.23 228.456 191.74 228.421 192.232C228.386 192.83 228.368 193.639 228.368 194.658C228.368 195.643 228.333 196.715 228.263 197.875C228.192 199.035 228.069 200.213 227.894 201.408C227.753 202.604 227.507 203.693 227.155 204.678C226.804 205.662 226.329 206.471 225.731 207.104C225.169 207.701 224.448 208.018 223.569 208.053C222.901 208.088 222.339 207.824 221.882 207.262C221.425 206.699 221.038 205.979 220.722 205.1C220.44 204.186 220.229 203.184 220.089 202.094C219.948 200.969 219.843 199.896 219.772 198.877C219.702 197.822 219.667 196.855 219.667 195.977C219.667 195.098 219.667 194.447 219.667 194.025C219.667 193.463 219.667 192.672 219.667 191.652C219.667 190.598 219.702 189.473 219.772 188.277C219.843 187.082 219.966 185.869 220.142 184.639C220.353 183.408 220.634 182.283 220.985 181.264C221.372 180.244 221.864 179.418 222.462 178.785C223.06 178.152 223.815 177.836 224.729 177.836C225.679 177.836 226.399 178.311 226.892 179.26C227.384 180.209 227.753 181.316 227.999 182.582C228.245 183.848 228.386 185.113 228.421 186.379C228.456 187.609 228.474 188.523 228.474 189.121Z" fill="#004480"/>
<path d="M251.782 187.75C251.782 187.926 251.765 188.119 251.729 188.33C251.694 188.506 251.642 188.682 251.571 188.857C251.255 189.666 250.763 190.352 250.095 190.914C249.427 191.441 248.636 191.705 247.722 191.705C246.351 191.705 245.419 191.02 244.927 189.648C244.856 189.473 244.821 189.279 244.821 189.068C244.821 188.822 244.804 188.576 244.769 188.33V186.801C244.698 186.309 244.575 185.922 244.399 185.641C244.224 185.359 243.925 185.219 243.503 185.219C242.905 185.219 242.325 185.605 241.763 186.379C241.235 187.117 240.761 188.014 240.339 189.068C239.952 190.088 239.636 191.143 239.39 192.232C239.144 193.322 239.021 194.201 239.021 194.869C239.021 195.396 239.056 196.047 239.126 196.82C239.196 197.559 239.337 198.279 239.548 198.982C239.759 199.686 240.04 200.301 240.392 200.828C240.778 201.32 241.271 201.566 241.868 201.566C242.466 201.566 243.011 201.391 243.503 201.039C244.03 200.652 244.54 200.213 245.032 199.721C245.489 199.299 245.981 198.859 246.509 198.402C247.071 197.945 247.704 197.717 248.407 197.717C249.286 197.717 249.972 198.033 250.464 198.666C250.991 199.299 251.255 200.02 251.255 200.828C251.255 202.023 250.938 203.148 250.306 204.203C249.673 205.223 248.882 206.119 247.933 206.893C246.983 207.631 245.929 208.211 244.769 208.633C243.608 209.09 242.501 209.318 241.446 209.318C239.548 209.318 237.931 208.844 236.595 207.895C235.294 206.945 234.239 205.75 233.431 204.309C232.622 202.832 232.042 201.232 231.69 199.51C231.339 197.787 231.163 196.152 231.163 194.605C231.163 192.812 231.409 190.879 231.901 188.805C232.394 186.695 233.149 184.744 234.169 182.951C235.188 181.158 236.489 179.664 238.071 178.469C239.688 177.273 241.604 176.676 243.819 176.676C245.19 176.676 246.368 176.975 247.353 177.572C248.372 178.17 249.198 178.961 249.831 179.945C250.499 180.895 250.991 181.967 251.308 183.162C251.659 184.357 251.835 185.535 251.835 186.695C251.835 186.871 251.835 187.047 251.835 187.223C251.835 187.398 251.817 187.574 251.782 187.75Z" fill="#004480"/>
<path d="M276.831 198.613C276.831 199.809 276.444 200.986 275.671 202.146C274.933 203.271 273.983 204.291 272.823 205.205C271.698 206.084 270.485 206.805 269.185 207.367C267.884 207.895 266.688 208.158 265.599 208.158C263.735 208.158 262.065 207.701 260.589 206.787C259.147 205.838 257.935 204.643 256.95 203.201C255.966 201.76 255.21 200.178 254.683 198.455C254.19 196.697 253.944 194.992 253.944 193.34C253.944 191.582 254.19 189.701 254.683 187.697C255.175 185.693 255.913 183.848 256.897 182.16C257.917 180.473 259.183 179.066 260.694 177.941C262.241 176.816 264.069 176.254 266.179 176.254C267.374 176.254 268.517 176.465 269.606 176.887C270.696 177.273 271.646 177.836 272.454 178.574C273.263 179.312 273.913 180.191 274.405 181.211C274.897 182.23 275.144 183.373 275.144 184.639C275.144 186.291 274.792 187.838 274.089 189.279C273.386 190.721 272.454 191.969 271.294 193.023C270.134 194.078 268.798 194.939 267.286 195.607C265.774 196.24 264.228 196.592 262.646 196.662C262.786 197.682 263.19 198.42 263.858 198.877C264.562 199.334 265.388 199.562 266.337 199.562C267.04 199.562 267.726 199.387 268.394 199.035C269.062 198.684 269.712 198.297 270.345 197.875C270.978 197.418 271.593 197.014 272.19 196.662C272.823 196.311 273.456 196.135 274.089 196.135C274.792 196.135 275.425 196.363 275.987 196.82C276.55 197.277 276.831 197.875 276.831 198.613ZM268.288 185.693C268.288 185.236 268.165 184.762 267.919 184.27C267.673 183.777 267.286 183.531 266.759 183.531C265.985 183.531 265.335 183.742 264.808 184.164C264.28 184.551 263.841 185.061 263.489 185.693C263.138 186.291 262.856 186.941 262.646 187.645C262.47 188.348 262.364 188.998 262.329 189.596C262.821 189.49 263.401 189.35 264.069 189.174C264.772 188.998 265.423 188.77 266.021 188.488C266.653 188.172 267.181 187.785 267.603 187.328C268.06 186.871 268.288 186.326 268.288 185.693Z" fill="#004480"/>
<path d="M294.392 178.996C294.392 180.016 294.04 180.771 293.337 181.264C292.669 181.756 291.913 182.23 291.069 182.688C290.226 183.109 289.452 183.619 288.749 184.217C288.081 184.814 287.747 185.711 287.747 186.906C287.747 187.539 287.888 188.084 288.169 188.541C288.485 188.998 288.854 189.42 289.276 189.807C289.733 190.158 290.226 190.527 290.753 190.914C291.28 191.301 291.755 191.74 292.177 192.232C292.634 192.725 293.003 193.322 293.284 194.025C293.601 194.729 293.759 195.59 293.759 196.609C293.759 198.086 293.372 199.545 292.599 200.986C291.86 202.393 290.894 203.658 289.698 204.783C288.538 205.873 287.22 206.752 285.743 207.42C284.267 208.088 282.808 208.422 281.366 208.422C280.769 208.422 280.171 208.369 279.573 208.264C278.976 208.193 278.431 208.035 277.938 207.789C277.481 207.543 277.095 207.209 276.778 206.787C276.462 206.33 276.304 205.75 276.304 205.047C276.304 204.062 276.497 203.307 276.884 202.779C277.271 202.217 277.763 201.777 278.36 201.461C278.958 201.145 279.591 200.898 280.259 200.723C280.962 200.547 281.612 200.336 282.21 200.09C282.808 199.809 283.3 199.457 283.687 199.035C284.073 198.613 284.267 198.016 284.267 197.242C284.267 196.504 283.968 195.748 283.37 194.975C282.808 194.166 282.175 193.322 281.472 192.443C280.769 191.529 280.118 190.562 279.521 189.543C278.958 188.523 278.677 187.398 278.677 186.168C278.677 184.656 278.976 183.268 279.573 182.002C280.206 180.701 281.032 179.576 282.052 178.627C283.106 177.678 284.302 176.939 285.638 176.412C286.974 175.85 288.38 175.568 289.856 175.568C290.419 175.568 290.964 175.621 291.491 175.727C292.054 175.832 292.546 176.025 292.968 176.307C293.39 176.553 293.724 176.904 293.97 177.361C294.251 177.783 294.392 178.328 294.392 178.996Z" fill="#004480"/>
</svg>
