<svg width="54" height="36" viewBox="0 0 54 36" fill="none" xmlns="http://www.w3.org/2000/svg">
<g clip-path="url(#clip0_106_17033)">
<path d="M50.2759 0.310059H3.72414C1.66735 0.310059 0 1.97741 0 4.0342V31.9652C0 34.022 1.66735 35.6894 3.72414 35.6894H50.2759C52.3326 35.6894 54 34.022 54 31.9652V4.0342C54 1.97741 52.3326 0.310059 50.2759 0.310059Z" fill="#A3D4F7"/>
<path d="M11.1721 5.89648H7.44801C6.41961 5.89648 5.58594 6.73016 5.58594 7.75855V11.4827C5.58594 12.5111 6.41961 13.3448 7.44801 13.3448H11.1721C12.2005 13.3448 13.0342 12.5111 13.0342 11.4827V7.75855C13.0342 6.73016 12.2005 5.89648 11.1721 5.89648Z" fill="#DEDFFB"/>
<path d="M19.5528 27.3103H5.58728C5.07309 27.3103 4.65625 26.8935 4.65625 26.3793C4.65625 25.8651 5.07309 25.4482 5.58728 25.4482H19.5528C20.067 25.4482 20.4838 25.8651 20.4838 26.3793C20.4838 26.8935 20.067 27.3103 19.5528 27.3103Z" fill="#365E7D"/>
<path d="M24.208 31.0351L5.58728 31.0344C5.07309 31.0344 4.65625 30.6176 4.65625 30.1034C4.65625 29.5892 5.07309 29.1724 5.58728 29.1724L24.208 29.1731C24.7222 29.1731 25.139 29.5899 25.139 30.1041C25.139 30.6183 24.7222 31.0351 24.208 31.0351Z" fill="#365E7D"/>
<path d="M5.58594 8.68945H7.44801C7.9622 8.68945 8.37904 9.10629 8.37904 9.62049C8.37904 10.1347 7.9622 10.5515 7.44801 10.5515H5.58594V8.68945Z" fill="#DADCDE"/>
<path d="M13.0353 10.5515H11.1732C10.659 10.5515 10.2422 10.1347 10.2422 9.62049C10.2422 9.10629 10.659 8.68945 11.1732 8.68945H13.0353V10.5515Z" fill="#DADCDE"/>
<path d="M47.4832 14.276C47.1605 14.2758 46.861 14.1085 46.6915 13.834C46.5221 13.5595 46.5068 13.2168 46.6512 12.9283C46.6588 12.9131 47.4839 11.2315 47.4839 9.6208C47.4839 8.01011 46.6588 6.32854 46.6505 6.31167C46.4257 5.85234 46.6134 5.29769 47.071 5.06935C47.5286 4.84102 48.0847 5.02447 48.3165 5.48025C48.3587 5.5644 49.3459 7.56251 49.3459 9.6208C49.3459 11.6791 48.3587 13.6772 48.3165 13.7613C48.1587 14.077 47.836 14.2762 47.4832 14.276Z" fill="#365E7D"/>
<path d="M40.0339 12.4142C39.6573 12.4142 39.3178 12.1873 39.1737 11.8394C39.0296 11.4915 39.1093 11.0911 39.3755 10.8248C39.6395 10.5571 40.0339 9.9858 40.0339 9.62107C40.0339 9.25634 39.6395 8.68561 39.373 8.4148C39.0101 8.05049 39.0112 7.46098 39.3755 7.09808C39.7399 6.73519 40.3294 6.73633 40.6923 7.10064C40.8155 7.22366 41.896 8.3409 41.896 9.62107C41.896 10.9012 40.8155 12.0185 40.6923 12.1415C40.5178 12.3164 40.2809 12.4145 40.0339 12.4142Z" fill="#365E7D"/>
<path d="M11.1735 19.8621H5.58728C5.07309 19.8621 4.65625 19.4452 4.65625 18.931C4.65625 18.4168 5.07309 18 5.58728 18H11.1735C11.6877 18 12.1045 18.4168 12.1045 18.931C12.1045 19.4452 11.6877 19.8621 11.1735 19.8621Z" fill="#365E7D"/>
<path d="M22.3454 19.8621H16.7592C16.245 19.8621 15.8281 19.4452 15.8281 18.931C15.8281 18.4168 16.245 18 16.7592 18H22.3454C22.8596 18 23.2764 18.4168 23.2764 18.931C23.2764 19.4452 22.8596 19.8621 22.3454 19.8621Z" fill="#365E7D"/>
<path d="M33.5172 19.8621H27.931C27.4168 19.8621 27 19.4452 27 18.931C27 18.4168 27.4168 18 27.931 18H33.5172C34.0314 18 34.4483 18.4168 34.4483 18.931C34.4483 19.4452 34.0314 19.8621 33.5172 19.8621Z" fill="#365E7D"/>
<path d="M44.6911 19.8621H39.1049C38.5907 19.8621 38.1738 19.4452 38.1738 18.931C38.1738 18.4168 38.5907 18 39.1049 18H44.6911C45.2053 18 45.6221 18.4168 45.6221 18.931C45.6221 19.4452 45.2053 19.8621 44.6911 19.8621Z" fill="#365E7D"/>
<path d="M44.4175 6.16943C44.0539 5.80583 43.4644 5.80583 43.1008 6.16943C42.7372 6.53303 42.7372 7.12254 43.1008 7.48614C43.1073 7.49278 43.7592 8.2077 43.7592 9.62089C43.7592 11.0341 43.1177 11.7371 43.0905 11.7663L43.1008 11.7556C42.7372 12.1192 42.7372 12.7088 43.1008 13.0724C43.4644 13.436 44.0539 13.436 44.4175 13.0724C44.5408 12.9493 45.6213 11.8054 45.6213 9.62089C45.6213 7.43633 44.5408 6.29244 44.4175 6.16943Z" fill="#365E7D"/>
</g>
<defs>
<clipPath id="clip0_106_17033">
<rect width="54" height="35.3793" fill="white" transform="translate(0 0.310059)"/>
</clipPath>
</defs>
</svg>
