<svg width="54" height="40" viewBox="0 0 54 40" fill="none" xmlns="http://www.w3.org/2000/svg">
<g clip-path="url(#clip0_106_17014)">
<path d="M54 8.42847H0V39.2856H54V8.42847Z" fill="#56B46F"/>
<path d="M50.141 8.42868H1.54102V4.57153L50.141 8.42868Z" fill="#74BE86"/>
<path d="M40.1134 24.2432C40.1134 31.2733 34.4149 36.9718 27.3848 36.9718C20.3547 36.9718 14.6562 31.2733 14.6562 24.2432C14.6562 17.2131 20.3547 11.5146 27.3848 11.5146C34.4149 11.5146 40.1134 17.2131 40.1134 24.2432Z" fill="#4D8157"/>
<path d="M20.0575 34.6571C16.5526 32.398 14.2154 28.4118 14.2154 23.8571C14.2154 19.3025 16.5526 15.3163 20.0575 13.0571H10.3569C10.3712 13.2191 10.3808 13.3821 10.3808 13.548C10.3808 16.5308 8.01966 18.948 5.10823 18.948C4.94622 18.948 4.78708 18.9382 4.62891 18.9235V28.7908C4.78708 28.776 4.94622 28.7662 5.10823 28.7662C8.01966 28.7662 10.3808 31.1835 10.3808 34.1662C10.3808 34.3321 10.3712 34.4951 10.3569 34.6571H20.0575Z" fill="#EAEAD7"/>
<path d="M48.8926 18.948C45.9802 18.948 43.62 16.5308 43.62 13.548C43.62 13.3821 43.6296 13.2191 43.644 13.0571H33.9434C37.4482 15.3163 39.7854 19.3025 39.7854 23.8571C39.7854 28.4118 37.4482 32.398 33.9434 34.6571H43.644C43.6296 34.4951 43.62 34.3321 43.62 34.1662C43.62 31.1835 45.9802 28.7662 48.8926 28.7662C49.0546 28.7662 49.2138 28.776 49.3719 28.7908V18.9235C49.2138 18.9382 49.0546 18.948 48.8926 18.948Z" fill="#EAEAD7"/>
<path d="M5.40022 16.1432C4.12366 16.1432 3.08594 15.1055 3.08594 13.8289C3.08594 12.5524 4.12366 11.5146 5.40022 11.5146C6.67678 11.5146 7.71451 12.5524 7.71451 13.8289C7.71451 15.1055 6.67678 16.1432 5.40022 16.1432Z" fill="#EAEAD7"/>
<path d="M48.5994 16.1432C47.3229 16.1432 46.2852 15.1055 46.2852 13.8289C46.2852 12.5524 47.3229 11.5146 48.5994 11.5146C49.876 11.5146 50.9137 12.5524 50.9137 13.8289C50.9137 15.1055 49.876 16.1432 48.5994 16.1432Z" fill="#EAEAD7"/>
<path d="M5.40022 36.2001C4.12366 36.2001 3.08594 35.1624 3.08594 33.8858C3.08594 32.6093 4.12366 31.5715 5.40022 31.5715C6.67678 31.5715 7.71451 32.6093 7.71451 33.8858C7.71451 35.1624 6.67678 36.2001 5.40022 36.2001Z" fill="#EAEAD7"/>
<path d="M48.5994 36.2001C47.3229 36.2001 46.2852 35.1624 46.2852 33.8858C46.2852 32.6093 47.3229 31.5715 48.5994 31.5715C49.876 31.5715 50.9137 32.6093 50.9137 33.8858C50.9137 35.1624 49.876 36.2001 48.5994 36.2001Z" fill="#EAEAD7"/>
<path d="M4.62891 0.714355V4.80293L50.3129 8.42864H53.2289L4.62891 0.714355Z" fill="#83C38E"/>
<path d="M32.5327 26.7476C33.2234 26.5391 33.7312 25.9175 33.7312 25.1783V24.3539C33.7312 23.7219 33.3577 23.176 32.8187 22.8993C32.4451 19.7968 30.3398 18.5413 26.9552 18.5413C26.7957 18.5413 26.6381 18.5469 26.4844 18.5593C25.3335 18.6483 24.1699 18.438 23.2136 17.8097C22.8157 17.5482 22.481 17.2714 22.2456 16.9796C22.1376 16.8469 21.9226 16.9313 21.943 17.0999C21.9771 17.388 22.0267 17.7254 22.1026 18.093C22.3818 19.4623 22.2145 19.2624 21.6706 20.5549C21.37 21.2694 21.1764 22.0626 21.0859 22.9022C20.5509 23.1808 20.1792 23.7237 20.1792 24.3539V25.1783C20.1792 25.9175 20.688 26.5391 21.3778 26.7476C21.836 28.4173 22.7768 29.7525 24.4141 30.4395V31.3843C24.4141 31.6259 24.273 31.8457 24.0512 31.9528L20.7814 33.5221C20.4983 33.6718 20.2648 33.8774 20.0566 34.1039C22.0724 35.4268 24.5017 36.2 27.1158 36.2C29.6326 36.2 31.9723 35.4751 33.9424 34.2404C33.7001 33.9542 33.3956 33.7154 33.0415 33.5429L29.8515 31.9547C29.6335 31.8467 29.4964 31.6287 29.4964 31.3909V30.4395C31.1337 29.7525 32.0745 28.4173 32.5327 26.7476Z" fill="#EAEAD7"/>
</g>
<defs>
<clipPath id="clip0_106_17014">
<rect width="54" height="38.5714" fill="white" transform="translate(0 0.714355)"/>
</clipPath>
</defs>
</svg>
