<svg width="56" height="54" viewBox="0 0 56 54" fill="none" xmlns="http://www.w3.org/2000/svg">
<path d="M9.47852 5.97982C9.47852 3.96628 11.1108 2.33398 13.1243 2.33398H33.9785C35.9921 2.33398 37.6243 3.96628 37.6243 5.97982V50.1673C37.6243 52.1809 35.9921 53.8132 33.9785 53.8132H13.1243C11.1108 53.8132 9.47852 52.1809 9.47852 50.1673V5.97982Z" fill="#E6E6E6"/>
<path d="M33.9785 51.8135V53.8135H13.124V51.8135H33.9785ZM35.624 50.167V5.97949C35.6238 5.07067 34.8874 4.33398 33.9785 4.33398H13.124C12.2153 4.33416 11.4787 5.07078 11.4785 5.97949V50.167C11.4785 51.0759 12.2152 51.8133 13.124 51.8135V53.8135L12.9365 53.8086C11.0103 53.7108 9.47852 52.1175 9.47852 50.167V5.97949C9.47869 3.96621 11.1107 2.33416 13.124 2.33398H33.9785C35.9919 2.33398 37.6238 3.9661 37.624 5.97949V50.167C37.624 52.1176 36.0924 53.711 34.166 53.8086L33.9785 53.8135V51.8135C34.8875 51.8135 35.624 51.076 35.624 50.167Z" fill="#365E7D"/>
<path d="M19.834 6.41715C19.834 6.01445 20.1604 5.68799 20.5632 5.68799H26.5423C26.945 5.68799 27.2715 6.01445 27.2715 6.41715V6.41715C27.2715 6.81986 26.945 7.14632 26.5423 7.14632H20.5632C20.1604 7.14632 19.834 6.81986 19.834 6.41715V6.41715Z" fill="#365E7D"/>
<path d="M17.625 49.7292C17.625 49.3265 17.9515 49 18.3542 49H28.3333C28.736 49 29.0625 49.3265 29.0625 49.7292C29.0625 50.1319 28.736 50.4583 28.3333 50.4583H18.3542C17.9515 50.4583 17.625 50.1319 17.625 49.7292Z" fill="#365E7D"/>
<g clip-path="url(#clip0_1141_8304)">
<path d="M44.4721 16.7905H17.6081C16.4212 16.7905 15.459 17.7527 15.459 18.9397V35.0581C15.459 36.245 16.4212 37.2072 17.6081 37.2072H44.4721C45.6591 37.2072 46.6213 36.245 46.6213 35.0581V18.9397C46.6213 17.7527 45.6591 16.7905 44.4721 16.7905Z" fill="#A3D4F7"/>
<path d="M21.9053 20.0142H19.7562C19.1627 20.0142 18.6816 20.4953 18.6816 21.0887V23.2378C18.6816 23.8313 19.1627 24.3124 19.7562 24.3124H21.9053C22.4988 24.3124 22.9799 23.8313 22.9799 23.2378V21.0887C22.9799 20.4953 22.4988 20.0142 21.9053 20.0142Z" fill="#DEDFFB"/>
<path d="M26.741 32.3724H18.6818C18.3851 32.3724 18.1445 32.1319 18.1445 31.8351C18.1445 31.5384 18.3851 31.2979 18.6818 31.2979H26.741C27.0378 31.2979 27.2783 31.5384 27.2783 31.8351C27.2783 32.1319 27.0378 32.3724 26.741 32.3724Z" fill="#365E7D"/>
<path d="M29.4274 34.5213L18.6818 34.5209C18.3851 34.5209 18.1445 34.2803 18.1445 33.9836C18.1445 33.6868 18.3851 33.4463 18.6818 33.4463L29.4274 33.4467C29.7242 33.4467 29.9647 33.6872 29.9647 33.984C29.9647 34.2807 29.7242 34.5213 29.4274 34.5213Z" fill="#365E7D"/>
<path d="M42.8592 24.8501C42.673 24.8499 42.5002 24.7534 42.4024 24.595C42.3046 24.4366 42.2958 24.2388 42.3791 24.0723C42.3835 24.0636 42.8596 23.0932 42.8596 22.1637C42.8596 21.2342 42.3835 20.2638 42.3787 20.254C42.2489 19.989 42.3573 19.6689 42.6214 19.5371C42.8854 19.4053 43.2063 19.5112 43.3401 19.7742C43.3644 19.8228 43.9342 20.9759 43.9342 22.1637C43.9342 23.3515 43.3644 24.5045 43.3401 24.5531C43.249 24.7352 43.0628 24.8502 42.8592 24.8501Z" fill="#365E7D"/>
<path d="M38.5615 23.7757C38.3442 23.7757 38.1482 23.6448 38.0651 23.444C37.9819 23.2433 38.0279 23.0122 38.1815 22.8585C38.3339 22.704 38.5615 22.3743 38.5615 22.1639C38.5615 21.9534 38.3339 21.624 38.1801 21.4678C37.9707 21.2575 37.9713 20.9173 38.1815 20.7079C38.3918 20.4985 38.732 20.4991 38.9414 20.7094C39.0125 20.7804 39.636 21.4251 39.636 22.1639C39.636 22.9026 39.0125 23.5474 38.9414 23.6184C38.8407 23.7193 38.704 23.7759 38.5615 23.7757Z" fill="#365E7D"/>
<path d="M21.9055 28.0736H18.6818C18.3851 28.0736 18.1445 27.833 18.1445 27.5363C18.1445 27.2396 18.3851 26.999 18.6818 26.999H21.9055C22.2022 26.999 22.4428 27.2396 22.4428 27.5363C22.4428 27.833 22.2022 28.0736 21.9055 28.0736Z" fill="#365E7D"/>
<path d="M28.3528 28.0736H25.1291C24.8323 28.0736 24.5918 27.833 24.5918 27.5363C24.5918 27.2396 24.8323 26.999 25.1291 26.999H28.3528C28.6495 26.999 28.89 27.2396 28.89 27.5363C28.89 27.833 28.6495 28.0736 28.3528 28.0736Z" fill="#365E7D"/>
<path d="M34.8 28.0736H31.5763C31.2796 28.0736 31.0391 27.833 31.0391 27.5363C31.0391 27.2396 31.2796 26.999 31.5763 26.999H34.8C35.0968 26.999 35.3373 27.2396 35.3373 27.5363C35.3373 27.833 35.0968 28.0736 34.8 28.0736Z" fill="#365E7D"/>
<path d="M41.2473 28.0736H38.0236C37.7269 28.0736 37.4863 27.833 37.4863 27.5363C37.4863 27.2396 37.7269 26.999 38.0236 26.999H41.2473C41.544 26.999 41.7846 27.2396 41.7846 27.5363C41.7846 27.833 41.544 28.0736 41.2473 28.0736Z" fill="#365E7D"/>
<path d="M41.091 20.172C40.8812 19.9622 40.541 19.9622 40.3312 20.172C40.1214 20.3818 40.1214 20.722 40.3312 20.9319C40.335 20.9357 40.7111 21.3483 40.7111 22.1638C40.7111 22.9793 40.3409 23.385 40.3252 23.4019L40.3312 23.3957C40.1214 23.6055 40.1214 23.9457 40.3312 24.1556C40.541 24.3654 40.8812 24.3654 41.091 24.1556C41.1622 24.0846 41.7857 23.4244 41.7857 22.1638C41.7857 20.9031 41.1622 20.243 41.091 20.172Z" fill="#365E7D"/>
</g>
<path d="M13.5625 17.0623C13.5625 15.0488 15.1948 13.4165 17.2083 13.4165V13.4165C19.2219 13.4165 20.8542 15.0488 20.8542 17.0623V17.0623C20.8542 19.0759 19.2219 20.7082 17.2083 20.7082V20.7082C15.1948 20.7082 13.5625 19.0759 13.5625 17.0623V17.0623Z" fill="#E39C26"/>
<path d="M17.0831 19.8332V14.2915H17.5596V19.8332H17.0831ZM17.3715 19.3599C17.0246 19.3599 16.7237 19.2977 16.4687 19.1732C16.2137 19.0445 16.011 18.868 15.8606 18.6439C15.7143 18.4197 15.6286 18.1603 15.6035 17.8656L16.2869 17.8282C16.312 18.0275 16.3705 18.1977 16.4624 18.3388C16.5544 18.4758 16.6756 18.5816 16.8261 18.6563C16.9807 18.7269 17.1667 18.7622 17.384 18.7622C17.5721 18.7622 17.733 18.7394 17.8668 18.6937C18.0005 18.6439 18.1009 18.5733 18.1677 18.482C18.2388 18.3907 18.2743 18.2765 18.2743 18.1395C18.2743 18.015 18.2451 17.9071 18.1865 17.8158C18.128 17.7203 18.0152 17.6331 17.848 17.5542C17.6808 17.4712 17.4363 17.3923 17.1145 17.3176C16.7675 17.2346 16.4896 17.1412 16.2806 17.0374C16.0716 16.9337 15.9212 16.807 15.8292 16.6576C15.7414 16.504 15.6976 16.3131 15.6976 16.0848C15.6976 15.8398 15.7582 15.624 15.8794 15.4372C16.0006 15.2462 16.1719 15.0989 16.3935 14.9951C16.6192 14.8872 16.8888 14.8332 17.2022 14.8332C17.5366 14.8332 17.8208 14.8934 18.0549 15.0138C18.2931 15.1342 18.4812 15.3002 18.6191 15.5119C18.7571 15.7236 18.8427 15.9665 18.8762 16.2404L18.1928 16.2778C18.1719 16.1159 18.1197 15.9706 18.0361 15.8419C17.9567 15.7132 17.8459 15.6136 17.7038 15.543C17.5617 15.4683 17.3903 15.431 17.1897 15.431C16.9389 15.431 16.7404 15.4891 16.5941 15.6053C16.4478 15.7215 16.3747 15.8751 16.3747 16.0661C16.3747 16.1906 16.4039 16.2944 16.4624 16.3774C16.5251 16.4604 16.6317 16.5331 16.7822 16.5953C16.9368 16.6576 17.1563 16.7219 17.4405 16.7884C17.8166 16.8755 18.1155 16.9814 18.337 17.1059C18.5585 17.2263 18.7174 17.3695 18.8135 17.5356C18.9096 17.7016 18.9577 17.8905 18.9577 18.1022C18.9577 18.3595 18.8908 18.5837 18.7571 18.7746C18.6233 18.9614 18.4373 19.1067 18.1991 19.2105C17.9608 19.3101 17.685 19.3599 17.3715 19.3599Z" fill="#365E7D"/>
<defs>
<clipPath id="clip0_1141_8304">
<rect width="31.1623" height="20.4167" fill="white" transform="translate(15.459 16.792)"/>
</clipPath>
</defs>
</svg>
