<svg width="128" height="128" viewBox="0 0 128 128" fill="none" xmlns="http://www.w3.org/2000/svg">
<g clip-path="url(#clip0_1182_8303)">
<rect width="128" height="128" rx="6.4" fill="white"/>
<path d="M99.2734 53.8789C99.2734 61.8997 97.6328 69.6471 94.3516 77.1211C91.0703 84.5039 86.6497 91.0664 81.0898 96.8086C75.6211 102.551 69.1953 107.154 61.8125 110.617C54.5208 113.99 46.819 115.676 38.707 115.676H38.4336C36.793 115.676 35.4258 114.947 34.332 113.488C33.3294 111.939 32.4635 110.025 31.7344 107.746C31.0052 105.467 30.4583 102.915 30.0938 100.09C29.7292 97.2643 29.4557 94.5299 29.2734 91.8867C29.0911 89.1523 29 86.737 29 84.6406C29 82.4531 29 80.8125 29 79.7188C29 76.6198 29.0456 73.5664 29.1367 70.5586C29.2279 67.4596 29.3646 64.3607 29.5469 61.2617C29.5469 60.2591 29.5924 58.8008 29.6836 56.8867C29.8659 54.8815 30.0482 52.6484 30.2305 50.1875C30.4128 47.7266 30.6406 45.1745 30.9141 42.5312C31.1875 39.7969 31.4609 37.2904 31.7344 35.0117C32.099 32.6419 32.418 30.5911 32.6914 28.8594C33.056 27.0365 33.4661 25.806 33.9219 25.168C35.1068 23.1628 36.9297 21.3854 39.3906 19.8359C41.8516 18.2865 44.4948 17.0104 47.3203 16.0078C50.237 15.0052 53.1536 14.276 56.0703 13.8203C59.0781 13.2734 61.6758 13 63.8633 13C69.8789 13 75.0742 14.1393 79.4492 16.418C83.9154 18.6055 87.6068 21.6133 90.5234 25.4414C93.5312 29.1784 95.7188 33.5078 97.0859 38.4297C98.5443 43.3516 99.2734 48.5013 99.2734 53.8789ZM76.3047 57.8438C76.3047 55.8385 75.9401 53.7878 75.2109 51.6914C74.4818 49.5951 73.4336 47.681 72.0664 45.9492C70.7904 44.2174 69.1953 42.8503 67.2812 41.8477C65.4583 40.7539 63.4076 40.207 61.1289 40.207C59.2148 40.207 57.2552 40.6628 55.25 41.5742C54.7943 41.8477 54.3841 42.7135 54.0195 44.1719C53.6549 45.5391 53.3359 47.2253 53.0625 49.2305C52.8802 51.2357 52.6979 53.4232 52.5156 55.793C52.3333 58.1628 52.1966 60.4414 52.1055 62.6289C52.1055 64.7253 52.0599 66.5938 51.9688 68.2344C51.9688 69.875 51.9688 70.9688 51.9688 71.5156C51.9688 72.4271 51.9688 73.7943 51.9688 75.6172C51.9688 77.349 52.0143 79.0807 52.1055 80.8125C52.2878 82.5443 52.4701 84.0482 52.6523 85.3242C52.8346 86.6003 53.1536 87.2383 53.6094 87.2383C56.3438 87.2383 59.0326 86.1901 61.6758 84.0938C64.4102 81.9062 66.8711 79.263 69.0586 76.1641C71.2461 73.0651 72.9779 69.8294 74.2539 66.457C75.6211 63.0846 76.3047 60.2135 76.3047 57.8438Z" fill="#006CCC"/>
</g>
<defs>
<clipPath id="clip0_1182_8303">
<rect width="128" height="128" rx="12.8" fill="white"/>
</clipPath>
</defs>
</svg>
