<svg width="128" height="128" viewBox="0 0 128 128" fill="none" xmlns="http://www.w3.org/2000/svg">
<g clip-path="url(#clip0_954_8643)">
<rect width="128" height="128" rx="6.4" fill="#006CCC"/>
<path d="M94 94.3008C94 96.0299 93.5455 97.7136 92.6364 99.3517C91.7273 100.899 89.5909 102.719 86.2273 104.812C82.8636 106.905 79.1364 108.908 75.0455 110.819C70.9545 112.639 67 114.231 63.1818 115.597C59.3636 116.871 56.5455 117.508 54.7273 117.508C53.4545 117.508 51.9545 117.189 50.2273 116.552C48.5 116.006 46.7727 115.278 45.0455 114.368C43.3182 113.458 41.7273 112.411 40.2727 111.228C38.9091 110.045 37.9091 108.908 37.2727 107.815C36.9091 107.178 36.5455 105.904 36.1818 103.993C35.9091 102.082 35.6364 99.8522 35.3636 97.304C35.1818 94.7558 35 92.0711 34.8182 89.2499C34.6364 86.3376 34.4545 83.6074 34.2727 81.0592C34.1818 78.42 34.0909 76.0993 34 74.0971C34 72.0949 34 70.6388 34 69.7287C34 66.3615 34.0909 62.4936 34.2727 58.1253C34.5455 53.7569 35 49.3885 35.6364 45.0202C36.2727 40.5608 37.1818 36.329 38.3636 32.3246C39.6364 28.2293 41.3182 24.771 43.4091 21.9498C44.0455 21.1307 45.3182 20.2661 47.2273 19.356C49.1364 18.446 51.3636 17.5814 53.9091 16.7623C56.5455 15.9433 59.3636 15.1697 62.3636 14.4416C65.3636 13.7136 68.2273 13.122 70.9545 12.667C73.7727 12.1209 76.3182 11.7114 78.5909 11.4384C80.8636 11.0743 82.5909 10.8923 83.7727 10.8923C85.1364 10.8923 86.4091 11.2109 87.5909 11.8479C88.8636 12.394 89.9091 13.1675 90.7273 14.1686C91.6364 15.1697 92.3182 16.3073 92.7727 17.5814C93.3182 18.7645 93.5909 20.0386 93.5909 21.4037C93.5909 22.5868 93.4091 23.5879 93.0455 24.407C92.7727 25.226 92.3182 26.1361 91.6818 27.1372C90.7727 28.3203 88.8636 29.7309 85.9545 31.369C83.0455 33.0072 79.8636 34.6453 76.4091 36.2834C73.0455 37.8306 69.7727 39.2412 66.5909 40.5153C63.5 41.7894 61.3182 42.6995 60.0455 43.2455C59.6818 45.3387 59.2727 47.4774 58.8182 49.6616C58.4545 51.7547 58.1818 53.8934 58 56.0776C60.8182 54.6215 64 53.2564 67.5455 51.9823C71.0909 50.7082 74.4545 50.0711 77.6364 50.0711C84.0909 50.0711 87.3182 53.2564 87.3182 59.6269C87.3182 61.174 87 62.5391 86.3636 63.7222C85.8182 64.9053 85.0455 65.9519 84.0455 66.862C83.1364 67.7721 82.0455 68.5911 80.7727 69.3192C79.5909 69.9563 78.4091 70.5933 77.2273 71.2304C74.3182 72.7775 71.2727 74.1426 68.0909 75.3257C64.9091 76.4178 61.7273 77.5099 58.5455 78.602C58.3636 79.33 58.1818 80.1491 58 81.0592C57.8182 81.8783 57.7273 82.6973 57.7273 83.5164C57.7273 84.7905 57.8182 86.0646 58 87.3387C58.1818 88.6128 58.3636 89.8869 58.5455 91.161C59.6364 90.797 61.3636 90.2054 63.7273 89.3864C66.1818 88.5673 68.7273 87.7482 71.3636 86.9292C74 86.1101 76.5455 85.4275 79 84.8815C81.4545 84.2444 83.2727 83.9259 84.4545 83.9259C85.8182 83.9259 87.0909 84.2444 88.2727 84.8815C89.4545 85.4275 90.4545 86.2011 91.2727 87.2022C92.0909 88.1123 92.7273 89.2044 93.1818 90.4785C93.7273 91.7526 94 93.0267 94 94.3008Z" fill="#F2F4F7"/>
</g>
<defs>
<clipPath id="clip0_954_8643">
<rect width="128" height="128" rx="12.8" fill="white"/>
</clipPath>
</defs>
</svg>
