<svg width="771" height="278" viewBox="0 0 771 278" fill="none" xmlns="http://www.w3.org/2000/svg">
<path d="M615.578 170.652C617.363 170.652 619.104 170.819 620.799 171.158L620.798 171.159C622.673 171.514 624.386 172.171 625.896 173.162C627.485 174.103 628.731 175.428 629.634 177.07C630.741 178.791 631.201 180.849 631.201 183.071C631.201 186.641 629.932 189.66 627.132 191.645C625.093 193.147 622.806 194.582 620.278 195.951L620.242 195.971L620.206 195.988C617.951 197.116 615.891 198.473 614.021 200.06C612.79 201.172 611.975 202.98 611.975 205.96C611.975 207.387 612.284 208.478 612.798 209.334C613.576 210.448 614.482 211.484 615.519 212.443C616.797 213.426 618.174 214.459 619.65 215.541C621.317 216.763 622.821 218.154 624.16 219.711C625.696 221.375 626.906 223.357 627.812 225.616C628.886 228.042 629.37 230.877 629.37 234.037C629.37 238.758 628.13 243.376 625.726 247.864C623.456 252.187 620.488 256.071 616.834 259.51L616.832 259.512C613.271 262.857 609.225 265.554 604.706 267.598C600.15 269.659 595.579 270.719 591.011 270.719C589.155 270.719 587.301 270.555 585.451 270.233C583.491 269.994 581.657 269.466 579.974 268.624L579.939 268.607L579.906 268.589C578.259 267.702 576.864 266.494 575.734 264.988L575.706 264.95L575.679 264.911C574.406 263.072 573.861 260.861 573.861 258.453C573.861 255.357 574.457 252.589 575.98 250.475C577.326 248.518 579.054 246.973 581.143 245.867C583.045 244.86 585.056 244.079 587.17 243.523L587.199 243.515C589.105 243.038 590.849 242.471 592.438 241.821C593.893 241.13 595.024 240.303 595.882 239.367C596.448 238.749 596.903 237.704 596.903 235.869C596.903 234.442 596.332 232.778 594.831 230.836L594.793 230.786L594.757 230.734C593.165 228.446 591.368 226.05 589.363 223.544L589.334 223.507C587.234 220.777 585.294 217.893 583.513 214.855L583.496 214.826L583.48 214.798C581.637 211.457 580.729 207.782 580.729 203.824C580.729 199.111 581.662 194.724 583.562 190.701L583.567 190.689L583.574 190.675C585.535 186.645 588.107 183.137 591.291 180.173L591.306 180.159L591.321 180.145C594.598 177.196 598.314 174.903 602.453 173.269C606.616 171.524 610.998 170.652 615.578 170.652Z" fill="white" stroke="#004480" stroke-width="5"/>
<path d="M547.064 172.636C550.8 172.636 554.39 173.294 557.817 174.612L557.818 174.611C561.268 175.835 564.308 177.631 566.908 180.004C569.491 182.363 571.562 185.166 573.12 188.393C574.726 191.72 575.505 195.405 575.505 199.399C575.505 204.548 574.406 209.401 572.2 213.923C570.03 218.372 567.145 222.241 563.548 225.511C559.981 228.753 555.886 231.39 551.279 233.425L551.257 233.435L551.233 233.445C547.577 234.975 543.839 235.971 540.028 236.431C540.47 237.382 541.06 238.052 541.749 238.527C543.319 239.537 545.211 240.082 547.521 240.083C549.121 240.083 550.708 239.688 552.309 238.845C554.156 237.873 555.956 236.802 557.708 235.635C559.576 234.288 561.405 233.087 563.192 232.036L563.219 232.02L563.246 232.005C565.394 230.812 567.639 230.165 569.953 230.165C572.581 230.165 574.965 231.035 577.023 232.708C579.248 234.515 580.388 236.964 580.388 239.836C580.388 243.861 579.079 247.738 576.62 251.431L576.621 251.432C574.323 254.934 571.386 258.079 567.838 260.875L567.83 260.88C564.408 263.554 560.715 265.749 556.754 267.461L556.728 267.473L556.701 267.484C552.721 269.097 548.939 269.956 545.386 269.956C539.564 269.956 534.27 268.521 529.573 265.614L529.543 265.595L529.514 265.577C525.068 262.649 521.326 258.958 518.296 254.522C515.301 250.136 513.006 245.328 511.408 240.11L511.399 240.082L511.391 240.052C509.911 234.769 509.162 229.608 509.162 224.577C509.162 219.258 509.906 213.614 511.37 207.653C512.848 201.635 515.072 196.069 518.048 190.967L518.067 190.934C521.177 185.787 525.056 181.471 529.702 178.013L529.724 177.998C534.671 174.399 540.489 172.636 547.064 172.636ZM548.742 198.694C546.985 198.694 545.678 199.163 544.658 199.978L544.617 200.01L544.575 200.042C543.37 200.925 542.328 202.115 541.467 203.665L541.452 203.692L541.437 203.718C540.536 205.249 539.806 206.927 539.252 208.758C539.105 209.35 538.979 209.923 538.87 210.479C539.336 210.361 539.821 210.236 540.324 210.104L540.354 210.096C542.235 209.626 543.953 209.02 545.515 208.288C547.099 207.492 548.363 206.552 549.347 205.486L549.381 205.449L549.416 205.414C550.281 204.549 550.668 203.603 550.668 202.451C550.668 201.588 550.437 200.596 549.863 199.449C549.669 199.06 549.491 198.905 549.384 198.837C549.283 198.773 549.103 198.694 548.742 198.694Z" fill="white" stroke="#004480" stroke-width="5"/>
<path d="M482.364 173.857C486.701 173.857 490.577 174.806 493.885 176.814H493.884C497.138 178.728 499.795 181.269 501.83 184.419C503.928 187.41 505.464 190.77 506.446 194.475C507.515 198.128 508.059 201.755 508.059 205.35V206.876C508.059 207.47 508.003 208.062 507.899 208.649C507.885 209.245 507.824 209.861 507.719 210.492L507.713 210.531L507.704 210.571C507.572 211.231 507.376 211.88 507.122 212.516L507.123 212.517C506.055 215.248 504.383 217.576 502.133 219.471L502.103 219.496L502.071 219.52C499.664 221.421 496.819 222.346 493.656 222.346C491.241 222.346 489.029 221.736 487.177 220.373C485.336 219.018 484.052 217.07 483.216 214.74V214.739C482.905 213.929 482.764 213.079 482.764 212.217C482.764 211.624 482.721 211.03 482.636 210.434L482.61 210.259V205.851C482.435 204.725 482.173 204.033 481.932 203.639C481.884 203.621 481.741 203.578 481.448 203.578C480.905 203.578 479.878 203.92 478.435 205.905C477.054 207.841 475.775 210.244 474.614 213.145C473.545 215.97 472.668 218.896 471.984 221.924C471.29 225 470.978 227.337 470.978 229.003C470.978 230.425 471.073 232.222 471.271 234.411C471.46 236.386 471.836 238.31 472.398 240.186C472.937 241.982 473.636 243.502 474.473 244.776C475.126 245.574 475.825 245.882 476.718 245.882C477.916 245.882 478.983 245.54 479.986 244.826C481.397 243.79 482.771 242.608 484.105 241.273L484.142 241.238L484.178 241.204C485.522 239.963 486.965 238.674 488.509 237.337L488.569 237.286C490.628 235.613 493.012 234.742 495.64 234.742C498.869 234.742 501.617 235.95 503.564 238.454H503.563C505.421 240.711 506.38 243.337 506.38 246.246C506.38 250.171 505.333 253.869 503.276 257.298L503.267 257.314L503.257 257.33C501.277 260.52 498.803 263.323 495.846 265.732L495.801 265.767C492.86 268.055 489.598 269.85 486.027 271.155L485.354 271.413C481.991 272.662 478.701 273.313 475.497 273.313C469.57 273.313 464.364 271.824 460.011 268.731L459.997 268.721L459.984 268.713C455.923 265.749 452.633 262.015 450.122 257.54L450.116 257.529L450.11 257.517C447.645 253.016 445.882 248.149 444.817 242.93C443.771 237.803 443.241 232.904 443.241 228.239C443.241 222.824 443.984 217.033 445.445 210.877C446.921 204.554 449.192 198.685 452.266 193.28C455.377 187.808 459.364 183.223 464.224 179.551L464.245 179.535C469.399 175.726 475.477 173.857 482.364 173.857Z" fill="white" stroke="#004480" stroke-width="5"/>
<path d="M427.125 177.215C428.936 177.215 430.633 177.674 432.124 178.656C433.599 179.628 434.738 181.02 435.601 182.683C437.155 185.681 438.291 189.12 439.04 192.97C439.778 196.764 440.2 200.562 440.306 204.363L440.372 206.87C440.43 209.209 440.459 211.045 440.459 212.37V216.947C440.459 218.517 440.405 220.041 440.301 221.518L440.302 221.519C440.204 223.178 440.153 225.462 440.153 228.392C440.153 231.299 440.05 234.453 439.844 237.851C439.637 241.259 439.277 244.714 438.764 248.217L438.68 248.891C438.243 252.251 437.519 255.366 436.498 258.225C435.388 261.334 433.852 263.989 431.844 266.117C429.74 268.352 427.031 269.514 423.898 269.646L423.899 269.647H423.897C423.887 269.648 423.877 269.649 423.867 269.649L423.866 269.648C421.075 269.785 418.715 268.617 416.944 266.438C415.402 264.54 414.16 262.187 413.175 259.452L413.155 259.397L413.138 259.341C412.277 256.542 411.639 253.501 411.217 250.227L411.216 250.218C410.804 246.921 410.494 243.772 410.287 240.771L410.286 240.765C410.08 237.669 409.976 234.815 409.976 232.207V219.694C409.976 216.587 410.079 213.282 410.285 209.781C410.493 206.251 410.856 202.672 411.374 199.046L411.379 199.01L411.385 198.976C412.015 195.303 412.859 191.914 413.927 188.818L413.939 188.782L413.953 188.746C415.161 185.563 416.74 182.867 418.745 180.744C420.973 178.385 423.831 177.215 427.125 177.215ZM428.956 151.884C431.303 151.884 433.507 152.444 435.522 153.578C438.107 155.032 439.238 157.559 439.238 160.487C439.238 162.385 438.694 164.142 437.604 165.679C436.71 167.073 435.532 168.294 434.118 169.354L434.062 169.395L434.005 169.434C432.609 170.365 431.102 171.117 429.491 171.692L429.415 171.719L429.338 171.742C427.736 172.2 426.18 172.448 424.684 172.448C422.212 172.448 419.937 171.823 417.956 170.503C415.611 168.94 414.554 166.504 414.554 163.692C414.554 161.764 415.009 159.96 416.013 158.383L416.026 158.36L416.041 158.338C417.022 156.866 418.223 155.646 419.655 154.73C421.001 153.77 422.506 153.06 424.149 152.591C425.77 152.127 427.375 151.884 428.956 151.884Z" fill="white" stroke="#004480" stroke-width="5"/>
<path d="M342.282 179.808C344.463 179.808 346.461 180.501 348.201 181.831C349.826 182.972 351.238 184.542 352.469 186.444C353.671 188.302 354.795 190.449 355.85 192.871C356.905 195.193 357.9 197.76 358.836 200.565L359.183 201.579C359.986 203.955 360.748 206.407 361.471 208.936C362.28 211.769 363.09 214.5 363.898 217.127C364.702 219.739 365.505 222.301 366.309 224.812C366.567 225.5 366.849 226.188 367.152 226.878C367.29 226.526 367.43 226.167 367.573 225.802C368.487 223.468 369.452 220.979 370.468 218.338L370.482 218.3L370.498 218.262C371.619 215.613 372.791 212.913 374.013 210.164C375.256 207.264 376.602 204.463 378.055 201.763C380.856 196.164 383.839 191.342 387.014 187.321L387.039 187.29C390.371 183.206 394.112 180.571 398.284 180.571C401.638 180.571 404.589 181.614 406.431 184.223C408.027 186.484 408.719 189.269 408.719 192.379C408.719 195.396 408.218 198.719 407.263 202.328C406.323 205.877 405.125 209.517 403.675 213.25L403.676 213.25C401.021 220.297 398.111 227.646 394.948 235.297C391.762 243.007 388.314 250.215 384.602 256.917L384.601 256.917C382.271 261.151 379.646 264.757 376.705 267.698L376.688 267.714L376.372 268.013C373.26 270.888 369.6 272.397 365.477 272.397C361.72 272.397 358.314 270.502 355.284 267.36L355.253 267.328L355.223 267.293C352.451 264.202 349.864 260.605 347.453 256.518L347.434 256.486L347.416 256.453C345.14 252.314 343.118 248.169 341.354 244.019L341.34 243.984L341.326 243.95C339.693 239.764 338.454 236.412 337.621 233.913L337.596 233.833C336.788 231.108 335.879 228.177 334.867 225.04C333.833 221.832 332.901 218.573 332.074 215.264C331.244 211.944 330.568 208.67 330.048 205.443L330.046 205.43C329.52 202.067 329.253 198.885 329.253 195.889C329.253 191.642 330.013 187.929 331.708 184.902C333.752 181.252 337.641 179.808 342.282 179.808Z" fill="white" stroke="#004480" stroke-width="5"/>
<path d="M282.465 179.351C284.789 179.351 286.875 180.125 288.579 181.686C290.055 183.039 291.206 184.68 292.045 186.571C292.82 188.129 293.425 189.765 293.863 191.477C295.466 189.529 297.185 187.813 299.022 186.339C302.586 183.369 307.119 181.862 312.422 181.642C315.089 181.53 317.71 181.806 320.274 182.47C322.972 183.04 325.431 184.063 327.623 185.554C329.973 186.98 331.87 188.886 333.286 191.246C334.844 193.674 335.65 196.468 335.773 199.548C336.017 203.439 334.84 206.786 331.952 209.124C329.366 211.217 326.26 212.29 322.762 212.422C321.138 212.537 319.601 212.433 318.216 212.018L318.109 211.985L318.006 211.944C317.497 211.741 316.989 211.537 316.48 211.334C315.972 211.13 315.463 210.927 314.954 210.724L314.91 210.706L314.867 210.686C314.022 210.311 313.182 209.985 312.346 209.706L312.23 209.667L312.12 209.618C311.64 209.405 311.057 209.298 310.311 209.366L310.26 209.37L310.209 209.373C308.586 209.454 307.181 209.891 305.944 210.657C304.649 211.525 303.414 212.622 302.245 213.964C301.167 215.317 300.207 216.868 299.373 218.628L299.361 218.652L299.35 218.676C298.507 220.361 297.858 222.03 297.396 223.683C297.148 224.69 296.909 226.379 296.71 228.847C296.611 231.236 296.562 233.83 296.562 236.632V236.675L296.561 236.718C296.46 239.642 296.409 242.411 296.409 245.024C296.409 247.667 296.308 249.848 296.092 251.522C295.979 253.258 295.712 255.265 295.301 257.527L295.299 257.537L295.297 257.548C294.857 259.856 294.143 262.062 293.157 264.163C292.217 266.392 290.903 268.318 289.201 269.898C287.245 271.715 284.773 272.55 282.007 272.55C279.748 272.55 277.681 271.872 275.904 270.506L275.866 270.476L275.828 270.444C274.337 269.202 273.084 267.629 272.045 265.782L272.001 265.703L271.962 265.621C271.075 263.737 270.316 261.613 269.676 259.264L269.662 259.212L269.65 259.16C269.124 256.844 268.704 254.477 268.389 252.062L268.387 252.049C268.077 249.573 267.82 247.098 267.613 244.622L267.608 244.57L267.606 244.518C267.505 242.081 267.403 239.797 267.302 237.666L267.299 237.607V231.374L267.303 231.305C267.402 229.512 267.451 228.099 267.452 227.049C267.351 223.55 267.151 220.05 266.851 216.551L266.848 216.513L266.845 216.476C266.639 212.769 266.536 209.111 266.536 205.503C266.536 203.191 266.642 200.636 266.849 197.841C267.069 194.869 267.677 192.079 268.691 189.485C269.728 186.735 271.247 184.379 273.273 182.472L273.3 182.447L273.326 182.424C275.734 180.283 278.88 179.351 282.465 179.351Z" fill="white" stroke="#004480" stroke-width="5"/>
<path d="M232.719 172.636C236.454 172.636 240.044 173.294 243.472 174.612L243.473 174.611C246.923 175.835 249.963 177.631 252.562 180.004C255.145 182.363 257.217 185.166 258.774 188.393C260.381 191.72 261.159 195.405 261.159 199.399C261.159 204.548 260.061 209.401 257.854 213.923C255.684 218.372 252.799 222.241 249.202 225.511C245.636 228.753 241.54 231.39 236.934 233.425L236.911 233.435L236.888 233.445C233.231 234.975 229.494 235.971 225.683 236.431C226.124 237.382 226.714 238.052 227.403 238.527C228.973 239.537 230.865 240.082 233.176 240.083C234.775 240.083 236.362 239.688 237.963 238.845C239.81 237.873 241.61 236.802 243.362 235.635C245.231 234.288 247.059 233.087 248.847 232.036L248.873 232.02L248.9 232.005C251.049 230.812 253.294 230.165 255.607 230.165C258.235 230.165 260.619 231.035 262.678 232.708C264.902 234.515 266.042 236.964 266.042 239.836C266.042 243.861 264.733 247.738 262.274 251.431L262.275 251.432C259.978 254.934 257.04 258.079 253.492 260.875L253.484 260.88C250.063 263.554 246.369 265.749 242.408 267.461L242.382 267.473L242.355 267.484C238.375 269.097 234.594 269.956 231.04 269.956C225.219 269.956 219.924 268.521 215.228 265.614L215.197 265.595L215.168 265.577C210.722 262.649 206.98 258.958 203.95 254.522C200.955 250.136 198.66 245.328 197.062 240.11L197.054 240.082L197.045 240.052C195.566 234.769 194.816 229.608 194.816 224.577C194.816 219.258 195.56 213.614 197.024 207.653C198.503 201.635 200.726 196.069 203.702 190.967L203.722 190.934C206.831 185.787 210.71 181.471 215.356 178.013L215.378 177.998C220.325 174.399 226.144 172.636 232.719 172.636ZM234.396 198.694C232.64 198.694 231.332 199.163 230.312 199.978L230.271 200.01L230.229 200.042C229.024 200.925 227.982 202.115 227.121 203.665L227.106 203.692L227.091 203.718C226.19 205.249 225.46 206.927 224.906 208.758C224.759 209.35 224.633 209.923 224.524 210.479C224.99 210.361 225.475 210.236 225.979 210.104L226.008 210.096C227.889 209.626 229.607 209.02 231.169 208.288C232.754 207.492 234.017 206.552 235.001 205.486L235.035 205.449L235.07 205.414C235.935 204.549 236.322 203.603 236.322 202.451C236.322 201.588 236.091 200.596 235.518 199.449C235.323 199.06 235.145 198.905 235.038 198.837C234.937 198.773 234.757 198.694 234.396 198.694Z" fill="white" stroke="#004480" stroke-width="5"/>
<path d="M181.296 145.474C185.399 145.475 189.032 146.722 192.06 149.265C195.231 151.928 196.766 155.562 196.766 159.877C196.766 162.787 195.804 165.389 193.906 167.569C192.289 169.533 190.333 171.145 188.06 172.406C186.279 173.495 184.444 174.686 182.555 175.978L182.517 176.005L182.478 176.029C180.703 177.15 179.068 178.459 177.57 179.956L177.541 179.984L177.512 180.012C176.083 181.351 174.932 182.86 174.047 184.541C173.24 186.074 172.809 187.854 172.809 189.938C172.809 191.659 173.213 193.149 173.989 194.469C174.922 196.054 176.05 197.658 177.38 199.278C178.875 200.873 180.468 202.564 182.158 204.354C184.11 206.208 185.839 208.32 187.346 210.682C188.992 213 190.347 215.619 191.422 218.52C192.564 221.605 193.103 225.115 193.104 229.002C193.104 231.887 192.473 235.053 191.304 238.467C190.229 241.798 188.734 245.156 186.831 248.539C184.921 251.935 182.646 255.214 180.012 258.375C177.485 261.528 174.743 264.376 171.783 266.913L171.777 266.918C168.872 269.393 165.785 271.4 162.516 272.926C159.205 274.572 155.894 275.449 152.607 275.449C148.966 275.449 145.657 274.441 142.77 272.395C139.556 270.119 138.053 266.697 138.053 262.573C138.053 259.815 138.717 257.243 140.067 254.911H140.068C141.277 252.722 142.751 250.653 144.482 248.705C146.177 246.799 148.026 244.951 150.025 243.162L150.049 243.141L150.073 243.12C152.046 241.443 153.808 239.777 155.365 238.123C156.875 236.519 158.131 234.887 159.147 233.231C160.052 231.665 160.484 230.064 160.484 228.391C160.484 226.075 159.651 223.565 157.731 220.822L157.704 220.784L157.679 220.744C155.689 217.66 153.444 214.516 150.942 211.314L150.932 211.3L150.92 211.285C148.331 207.867 145.946 204.394 143.767 200.865L143.752 200.843L143.738 200.819C141.507 197.026 140.342 193.083 140.342 189.022C140.342 184.194 141.634 179.241 144.105 174.19C146.551 169.09 149.69 164.463 153.518 160.317C157.344 156.071 161.66 152.553 166.464 149.777C171.353 146.953 176.307 145.474 181.296 145.474Z" fill="white" stroke="#004480" stroke-width="5"/>
<path d="M734.309 30.2471C738.044 30.2471 741.634 30.9052 745.062 32.2227L745.062 32.2217C748.513 33.4459 751.553 35.2415 754.152 37.6152C756.735 39.9736 758.806 42.7769 760.364 46.0039C761.971 49.3311 762.749 53.0159 762.749 57.0098C762.749 62.159 761.651 67.0114 759.444 71.5342C757.274 75.9831 754.389 79.8522 750.792 83.1221C747.226 86.3642 743.13 89.0006 738.523 91.0361L738.501 91.0459L738.478 91.0557C734.821 92.5863 731.084 93.5819 727.272 94.042C727.714 94.9929 728.304 95.6629 728.993 96.1377C730.563 97.1477 732.455 97.6933 734.766 97.6934C736.365 97.6934 737.952 97.2986 739.553 96.4561C741.4 95.4837 743.2 94.4132 744.952 93.2461C746.821 91.8989 748.649 90.6981 750.437 89.6465L750.463 89.6309L750.49 89.6162C752.639 88.4227 754.883 87.7754 757.197 87.7754C759.825 87.7754 762.209 88.6459 764.268 90.3184C766.492 92.1258 767.632 94.5745 767.632 97.4473C767.632 101.472 766.323 105.349 763.864 109.042L763.865 109.043C761.567 112.544 758.63 115.69 755.082 118.485L755.074 118.491C751.652 121.165 747.959 123.359 743.998 125.072L743.972 125.084L743.945 125.095C739.965 126.708 736.183 127.566 732.63 127.566C726.809 127.566 721.514 126.132 716.817 123.225L716.787 123.206L716.758 123.188C712.312 120.26 708.57 116.569 705.54 112.133C702.545 107.747 700.25 102.939 698.652 97.7207L698.644 97.6924L698.635 97.6631C697.156 92.38 696.406 87.2189 696.406 82.1875C696.406 76.8689 697.15 71.2245 698.614 65.2637C700.092 59.2454 702.316 53.6796 705.292 48.5781L705.312 48.5449C708.421 43.3977 712.3 39.0817 716.946 35.624L716.968 35.6084C721.915 32.0103 727.734 30.2471 734.309 30.2471ZM735.986 56.3047C734.229 56.3048 732.922 56.7734 731.902 57.5889L731.861 57.6211L731.819 57.6523C730.614 58.5363 729.572 59.7254 728.711 61.2754L728.696 61.3027L728.681 61.3291C727.78 62.8601 727.05 64.5375 726.496 66.3691C726.349 66.9606 726.223 67.5342 726.114 68.0898C726.58 67.972 727.065 67.8473 727.568 67.7148L727.598 67.707C729.479 67.2367 731.197 66.6311 732.759 65.8984C734.344 65.1026 735.607 64.1625 736.591 63.0967L736.625 63.0596L736.66 63.0244C737.525 62.1595 737.912 61.2139 737.912 60.0615C737.912 59.1985 737.681 58.2067 737.107 57.0596C736.913 56.6712 736.735 56.5163 736.628 56.4482C736.527 56.3841 736.347 56.3047 735.986 56.3047Z" fill="white" stroke="#004480" stroke-width="5"/>
<path d="M641.378 31.3149C643.902 31.3149 646.231 32.0185 648.288 33.4331C650.157 34.7183 651.774 36.3384 653.145 38.2661L653.639 38.9478C654.767 40.5549 655.721 42.2863 656.5 44.1372C656.577 44.3203 656.65 44.5039 656.723 44.686C656.996 44.3144 657.275 43.9422 657.563 43.5718L657.569 43.5649L657.574 43.5581C659.2 41.4991 660.951 39.6891 662.831 38.1411C664.731 36.5765 666.802 35.2887 669.04 34.2817L669.081 34.2642C671.516 33.2205 674.037 32.6881 676.627 32.688C679.434 32.688 681.899 33.72 683.889 35.7095C685.661 37.4816 687.133 39.718 688.344 42.3501L688.569 42.8335C689.68 45.2687 690.527 48.0004 691.13 51.0093C691.751 54.0095 692.268 57.011 692.683 60.0132H692.684C693.101 62.9349 693.364 65.7159 693.47 68.354H693.469C693.571 70.8075 693.624 72.7785 693.624 74.2524V82.187C693.624 85.4934 693.521 89.0989 693.315 93.0005C693.21 96.932 692.899 100.911 692.383 104.937L692.382 104.945C691.858 108.929 691.015 112.59 689.841 115.916L689.633 116.541C688.572 119.64 687.191 122.311 685.446 124.492C683.358 127.102 680.561 128.482 677.237 128.482C674.181 128.482 671.663 127.162 669.97 124.622L669.926 124.556L669.886 124.488C668.61 122.284 667.71 119.78 667.156 117.011C666.621 114.335 666.301 111.609 666.194 108.834L666.192 108.787V102.483C666.192 97.8496 666.347 93.3151 666.656 88.8804C666.957 84.5664 667.108 80.1478 667.108 75.6255V72.8794C667.108 71.6857 667.016 70.4897 666.832 69.2915C666.661 68.1818 666.373 67.2682 665.999 66.52L665.952 66.4272L665.939 66.396C665.309 66.4804 664.665 66.8607 663.989 68.0278L663.975 68.0532L663.959 68.0786C662.984 69.6745 662.15 71.6406 661.486 74.0112C660.808 76.4348 660.325 78.8521 660.035 81.2642L660.034 81.2769C659.73 83.7108 659.532 85.5001 659.435 86.6675L659.427 86.7544L659.414 86.8403C659.226 88.0619 659.029 89.9604 658.827 92.5776C658.723 95.2438 658.518 98.1495 658.215 101.292C658.006 104.523 657.589 107.846 656.971 111.26C656.447 114.613 655.709 117.733 654.753 120.613L654.754 120.614C653.876 123.468 652.69 125.94 651.146 127.958C649.419 130.217 647.095 131.534 644.277 131.534C640.94 131.534 638.268 129.991 636.506 127.145C635.011 124.73 633.948 121.961 633.287 118.876C632.652 115.91 632.229 112.893 632.018 109.827L632.015 109.784L632.013 109.741C631.911 106.781 631.858 104.458 631.858 102.788V97.6743L631.863 97.5962C631.962 96.0234 632.012 94.3968 632.012 92.7163V89.2065C632.012 87.6301 631.962 85.8944 631.862 83.9976L631.858 83.9321V83.8657C631.858 81.9145 631.761 79.9079 631.564 77.8462L631.56 77.7876L631.557 77.728C631.459 75.6759 631.265 73.851 630.981 72.2456L630.978 72.2222C630.699 70.5522 630.306 69.3722 629.875 68.5825C629.803 68.4513 629.737 68.3516 629.683 68.2749C629.422 68.3942 628.974 68.7266 628.37 69.6597L628.352 69.689L628.331 69.7173C627.366 71.1212 626.492 72.894 625.733 75.0737L625.722 75.1069C624.948 77.2339 624.321 79.3552 623.838 81.4712C623.441 83.6641 623.277 85.0826 623.277 85.8501V86.7651C623.277 91.5437 623.577 96.217 624.173 100.786C624.798 105.576 625.109 110.465 625.109 115.453C625.109 118.882 623.993 122.047 621.862 124.888L621.847 124.909L621.831 124.928C619.476 127.937 616.172 129.398 612.232 129.398C609.187 129.398 606.568 128.234 604.56 125.958L604.536 125.931L604.514 125.904C602.757 123.795 601.355 121.179 600.265 118.125C599.196 115.133 598.349 111.897 597.718 108.423L597.71 108.381L597.704 108.339C597.186 104.817 596.822 101.39 596.614 98.061V98.0562C596.41 94.6853 596.256 91.6651 596.153 88.9976L596.151 88.9497V82.7974C596.151 81.3155 596.102 79.1118 596.001 76.1694L595.999 76.1265V76.0835C595.999 73.1052 596.05 69.8761 596.152 66.397L596.153 66.3599L596.156 66.3237C596.362 62.8178 596.671 59.2621 597.083 55.6577C597.504 51.8699 598.193 48.407 599.163 45.2817C600.14 42.134 601.428 39.4488 603.087 37.3159L603.093 37.3081L603.099 37.3013C605.07 34.8045 607.709 33.4517 610.859 33.4517C613.942 33.4517 616.686 34.2864 618.856 36.1587L618.857 36.1577C620.49 37.5025 621.5 39.2526 621.994 41.2661C623.685 39.4861 625.487 37.9017 627.401 36.519C629.487 34.9849 631.697 33.7655 634.029 32.8716C636.435 31.847 638.89 31.315 641.378 31.3149Z" fill="white" stroke="#004480" stroke-width="5"/>
<path d="M560.196 33.6039C566.359 33.6039 571.739 35.3153 576.192 38.8344L577.004 39.4603C581 42.6373 584.221 46.5786 586.664 51.2552H586.665C589.236 56.0758 591.045 61.3575 592.105 67.0834C593.154 72.7446 593.528 78.1342 593.21 83.2435L593.211 83.2445C592.897 88.7943 592.008 94.385 590.551 100.015C589.174 105.732 587.101 110.91 584.31 115.526C581.485 120.197 577.879 124.028 573.497 126.986C568.959 130.049 563.624 131.534 557.603 131.534C551.947 131.534 546.902 130.027 542.573 126.952C538.42 124 534.94 120.239 532.13 115.701C529.342 111.198 527.263 106.23 525.882 100.811L525.879 100.8C524.51 95.3262 523.82 89.9342 523.82 84.6293C523.82 79.0348 524.507 73.3034 525.867 67.4398C527.241 61.4157 529.364 55.9333 532.252 51.0131C535.171 45.9387 538.925 41.7949 543.517 38.6244C548.258 35.2485 553.857 33.6039 560.196 33.6039ZM559.128 62.5609C558.642 62.561 557.946 62.7712 557.045 63.9535C556.096 65.3424 555.234 67.089 554.485 69.2308C553.818 71.4326 553.289 73.7916 552.901 76.3109L552.9 76.3187L552.898 76.3256C552.506 78.7781 552.32 80.8796 552.32 82.6449C552.32 84.9365 552.51 87.4467 552.898 90.1801C553.387 92.9057 554.017 95.4165 554.783 97.7172C555.526 99.8461 556.381 101.585 557.321 102.971C558.187 104.027 558.884 104.255 559.434 104.255C560.128 104.255 560.802 103.99 561.537 102.988L561.568 102.946L561.602 102.905C562.581 101.68 563.418 100.05 564.061 97.9398C564.722 95.7651 565.204 93.3749 565.494 90.7621C565.791 87.9911 565.937 85.4391 565.937 83.1029C565.937 81.0139 565.747 78.7012 565.355 76.1586L565.353 76.1449C564.966 73.5348 564.39 71.1456 563.634 68.9701L563.617 68.9232L563.604 68.8763C562.961 66.7664 562.123 65.1362 561.144 63.9115L561.11 63.8705L561.079 63.8285C560.305 62.7728 559.666 62.5609 559.128 62.5609Z" fill="white" stroke="#004480" stroke-width="5"/>
<path d="M459.486 7.35791C464.273 7.35798 468.317 8.64154 471.172 11.6001H471.173C473.762 14.189 475.537 17.444 476.551 21.272C477.528 24.8608 478.009 28.6902 478.009 32.7476V42.9712C478.009 47.0819 477.906 51.1428 477.7 55.1538V55.1577C477.549 58.0271 477.399 60.9246 477.248 63.8501L488.464 62.1733C488.551 57.9049 488.639 53.6735 488.727 49.48C488.829 44.5743 489.033 39.6687 489.339 34.7632C489.44 32.4314 489.541 29.947 489.643 27.3101C489.752 24.4683 490.191 21.8013 490.979 19.3237C491.818 16.6897 493.225 14.4567 495.226 12.7065C497.581 10.6332 500.812 9.79937 504.501 9.79932C507.826 9.79932 510.754 10.7579 513.029 12.8726L513.42 13.229C515.333 15.0263 516.83 17.1748 517.912 19.647C519.131 22.205 519.959 24.9227 520.4 27.7896C520.822 30.5302 521.04 33.0508 521.04 35.3413V37.3247C521.04 45.8084 520.836 54.3429 520.427 62.9272V62.9282C520.019 71.3868 519.509 79.8457 518.897 88.3042L518.898 88.3052C518.799 89.7969 518.698 91.8559 518.597 94.4917V94.4956C518.493 97.0972 518.285 99.9451 517.976 103.037L517.975 103.045C517.664 106.049 517.25 109.101 516.733 112.202C516.194 115.436 515.326 118.437 514.114 121.191C512.983 123.89 511.425 126.172 509.407 127.966C507.291 130.05 504.63 131.077 501.602 131.077C499.096 131.077 496.756 130.536 494.634 129.413L494.605 129.398L494.578 129.382C492.674 128.311 491.046 126.928 489.718 125.238L489.692 125.206L489.667 125.171C488.392 123.432 487.409 121.521 486.718 119.449L486.711 119.429L486.705 119.411C486.018 117.233 485.674 114.996 485.674 112.707C485.674 109.299 485.777 105.891 485.983 102.484C486.128 100.035 486.323 97.6101 486.567 95.2095L476.545 96.2222C476.295 98.4306 476.014 100.963 475.705 103.82C475.381 107.649 474.634 111.379 473.462 115.002L473.461 115.001C472.349 118.652 470.613 121.858 468.234 124.577C465.545 127.65 461.859 129.092 457.502 129.092C454.798 129.092 452.346 128.449 450.316 126.994C448.457 125.754 446.967 124.137 445.862 122.172L445.847 122.145L445.832 122.117C444.797 120.161 444.058 118.048 443.606 115.791C443.172 113.616 442.947 111.518 442.947 109.502C442.947 103.329 443.204 97.2055 443.719 91.1323C444.224 85.0722 444.578 79.0124 444.78 72.9526C444.982 66.5835 445.033 60.2143 444.932 53.8452L444.931 53.8247V53.8052C444.931 47.2684 445.033 40.7315 445.237 34.1948L445.239 34.1538C445.339 32.0678 445.389 29.6169 445.389 26.7964V26.7515L445.391 26.7065C445.498 23.7063 445.873 20.8858 446.531 18.2544L446.54 18.2202L446.55 18.187C447.349 15.3339 448.631 12.8484 450.439 10.7983L450.466 10.7681L450.493 10.7388C452.734 8.35807 455.879 7.35791 459.486 7.35791Z" fill="white" stroke="#004480" stroke-width="5"/>
<mask id="path-13-outside-1_1040_7217" maskUnits="userSpaceOnUse" x="0" y="0" width="414" height="162" fill="black">
<rect fill="white" width="414" height="162"/>
<path d="M80.293 53.6328C80.293 62.2266 78.5352 70.5273 75.0195 78.5352C71.5039 86.4453 66.7676 93.4766 60.8105 99.6289C54.9512 105.781 48.0664 110.713 40.1562 114.424C32.3438 118.037 24.0918 119.844 15.4004 119.844H15.1074C13.3496 119.844 11.8848 119.062 10.7129 117.5C9.63867 115.84 8.71094 113.789 7.92969 111.348C7.14844 108.906 6.5625 106.172 6.17188 103.145C5.46444 97.6619 5 92.1231 5 86.5918C5 84.248 5 82.4902 5 81.3184C5 77.998 5.04883 74.7266 5.14648 71.5039C5.24414 68.1836 5.39062 64.8633 5.58594 61.543C5.58594 60.4688 5.63477 58.9062 5.73242 56.8555C5.92773 54.707 6.12305 52.3145 6.31836 49.6777C6.51367 47.041 6.75781 44.3066 7.05078 41.4746C7.34375 38.5449 7.63672 35.8594 7.92969 33.418C8.32031 30.8789 8.66211 28.6816 8.95508 26.8262C9.3457 24.873 9.78516 23.5547 10.2734 22.8711C11.543 20.7227 13.4961 18.8184 16.1328 17.1582C18.7695 15.498 21.6016 14.1309 24.6289 13.0566C27.7539 11.9824 30.8789 11.2012 34.0039 10.7129C37.2266 10.127 40.0098 9.83398 42.3535 9.83398C48.7988 9.83398 54.3652 11.0547 59.0527 13.4961C63.8379 15.8398 67.793 19.0625 70.918 23.1641C74.1406 27.168 76.4844 31.8066 77.9492 37.0801C79.5117 42.3535 80.293 47.8711 80.293 53.6328ZM55.6836 57.8809C55.6836 55.7324 55.293 53.5352 54.5117 51.2891C53.7305 49.043 52.6074 46.9922 51.1426 45.1367C49.7754 43.2812 48.0664 41.8164 46.0156 40.7422C44.0625 39.5703 41.8652 38.9844 39.4238 38.9844C37.373 38.9844 35.2734 39.4727 33.125 40.4492C32.6367 40.7422 32.1973 41.6699 31.8066 43.2324C31.416 44.6973 31.0742 46.5039 30.7812 48.6523C30.347 53.4295 29.9556 58.2144 29.7559 63.0078C29.7559 65.2539 29.707 67.2559 29.6094 69.0137C29.6094 71.6504 29.6094 74.2871 29.6094 76.9238C29.6094 78.7793 29.6582 80.6348 29.7559 82.4902C29.9512 84.3457 30.1465 85.957 30.3418 87.3242C30.5371 88.6914 30.8789 89.375 31.3672 89.375C34.2969 89.375 37.1777 88.252 40.0098 86.0059C42.9395 83.6621 45.5762 80.8301 47.9199 77.5098C50.2637 74.1895 52.1191 70.7227 53.4863 67.1094C54.9512 63.4961 55.6836 60.4199 55.6836 57.8809Z"/>
<path d="M118.67 119.111C113.689 119.111 109.343 117.793 105.632 115.156C101.922 112.52 98.7966 109.15 96.2575 105.049C93.7184 100.947 91.8141 96.4062 90.5446 91.4258C89.2751 86.3477 88.6403 81.3672 88.6403 76.4844C88.6403 71.3086 89.2751 65.9863 90.5446 60.5176C91.8141 54.9512 93.7673 49.9219 96.404 45.4297C99.0407 40.8398 102.41 37.1289 106.511 34.2969C110.613 31.3672 115.496 29.9023 121.16 29.9023C126.629 29.9023 131.267 31.416 135.076 34.4434C138.982 37.373 142.107 41.084 144.451 45.5762C146.795 49.9707 148.455 54.8047 149.431 60.0781C150.408 65.3516 150.75 70.332 150.457 75.0195C150.164 80.1953 149.334 85.4199 147.966 90.6934C146.697 95.9668 144.793 100.703 142.254 104.902C139.715 109.102 136.492 112.52 132.586 115.156C128.679 117.793 124.041 119.111 118.67 119.111ZM120.134 52.9004C118.67 52.9004 117.351 53.6816 116.179 55.2441C115.105 56.8066 114.177 58.7109 113.396 60.957C112.713 63.2031 112.175 65.5957 111.785 68.1348C111.394 70.5762 111.199 72.7246 111.199 74.5801C111.199 76.9238 111.394 79.4629 111.785 82.1973C112.273 84.9316 112.908 87.4707 113.689 89.8145C114.47 92.0605 115.398 93.9648 116.472 95.5273C117.644 96.9922 118.963 97.7246 120.427 97.7246C121.99 97.7246 123.308 96.9922 124.382 95.5273C125.554 94.0625 126.482 92.207 127.166 89.9609C127.849 87.7148 128.338 85.2734 128.631 82.6367C128.924 79.9023 129.07 77.3633 129.07 75.0195C129.07 72.8711 128.875 70.5273 128.484 67.9883C128.093 65.3516 127.507 62.9102 126.726 60.6641C126.043 58.418 125.115 56.5625 123.943 55.0977C122.869 53.6328 121.599 52.9004 120.134 52.9004Z"/>
<path d="M202.459 118.965C200.799 118.965 199.48 118.184 198.504 116.621C197.527 115.156 196.795 113.447 196.306 111.494C195.818 109.541 195.476 107.588 195.281 105.635C195.183 103.584 195.134 102.021 195.134 100.947C195.134 98.0176 195.281 95.0879 195.574 92.1582C195.965 89.2285 196.355 86.2988 196.746 83.3691C197.234 80.4395 197.625 77.5098 197.918 74.5801C198.308 71.6504 198.504 68.7207 198.504 65.791C198.504 64.6191 198.455 63.3496 198.357 61.9824C198.259 60.6152 198.015 59.3457 197.625 58.1738C197.332 56.9043 196.795 55.8789 196.013 55.0977C195.232 54.3164 194.207 53.9258 192.937 53.9258C192.058 53.9258 191.082 54.6582 190.007 56.123C188.933 57.4902 187.908 59.1016 186.931 60.957C186.052 62.7148 185.271 64.5215 184.588 66.377C184.002 68.1348 183.709 69.4531 183.709 70.332C183.709 72.4805 183.709 74.6777 183.709 76.9238C183.806 79.0723 183.855 81.2695 183.855 83.5156V92.0117C183.757 93.7695 183.611 95.5762 183.416 97.4316C183.22 99.2871 182.927 101.094 182.537 102.852C182.244 104.609 181.804 106.318 181.218 107.979C180.632 109.541 179.851 110.957 178.875 112.227C177.996 113.398 176.922 114.375 175.652 115.156C174.382 115.938 172.869 116.328 171.111 116.328C169.158 116.328 167.547 115.693 166.277 114.424C165.007 113.154 163.982 111.543 163.201 109.59C162.42 107.539 161.834 105.293 161.443 102.852C161.15 100.312 160.906 97.8711 160.711 95.5273C160.613 93.0859 160.564 90.8887 160.564 88.9355C160.662 86.8848 160.711 85.2734 160.711 84.1016V77.2168C160.711 73.5059 160.613 69.8438 160.418 66.2305C160.32 62.6172 160.271 59.0039 160.271 55.3906C160.271 53.4375 160.271 50.9473 160.271 47.9199C160.369 44.8926 160.759 41.9629 161.443 39.1309C162.127 36.2012 163.25 33.7109 164.812 31.6602C166.375 29.6094 168.67 28.584 171.697 28.584C173.064 28.584 174.285 29.0234 175.359 29.9023C176.433 30.7812 177.361 31.8555 178.142 33.125C179.021 34.3945 179.705 35.7617 180.193 37.2266C180.779 38.6914 181.218 39.9609 181.511 41.0352C182.488 39.668 183.611 38.3496 184.881 37.0801C186.248 35.8105 187.761 34.6875 189.422 33.7109C191.082 32.7344 192.937 31.9531 194.988 31.3672C197.039 30.7812 199.382 30.4883 202.019 30.4883C207 30.4883 210.857 31.709 213.591 34.1504C216.424 36.4941 218.474 39.4727 219.744 43.0859C221.111 46.6016 221.941 50.4102 222.234 54.5117C222.527 58.6133 222.674 62.3242 222.674 65.6445C222.674 67.3047 222.527 69.7949 222.234 73.1152C221.941 76.3379 221.453 79.9512 220.769 83.9551C220.183 87.8613 219.353 91.9141 218.279 96.1133C217.205 100.215 215.935 103.975 214.47 107.393C213.006 110.811 211.248 113.594 209.197 115.742C207.244 117.891 204.998 118.965 202.459 118.965Z"/>
<path d="M296.062 88.2031C296.062 91.5234 294.988 94.7949 292.84 98.0176C290.789 101.143 288.152 103.975 284.929 106.514C281.804 108.955 278.435 110.957 274.822 112.52C271.209 113.984 267.888 114.717 264.861 114.717C259.685 114.717 255.047 113.447 250.945 110.908C246.941 108.271 243.572 104.951 240.838 100.947C238.103 96.9434 236.004 92.5488 234.539 87.7637C233.172 82.8809 232.488 78.1445 232.488 73.5547C232.488 68.6719 233.172 63.4473 234.539 57.8809C235.906 52.3145 237.957 47.1875 240.691 42.5C243.523 37.8125 247.039 33.9062 251.238 30.7812C255.535 27.6562 260.613 26.0938 266.472 26.0938C269.793 26.0938 272.966 26.6797 275.994 27.8516C279.021 28.9258 281.658 30.4883 283.904 32.5391C286.15 34.5898 287.957 37.0312 289.324 39.8633C290.691 42.6953 291.375 45.8691 291.375 49.3848C291.375 53.9746 290.398 58.2715 288.445 62.2754C286.492 66.2793 283.904 69.7461 280.681 72.6758C277.459 75.6055 273.748 77.998 269.549 79.8535C265.349 81.6113 261.052 82.5879 256.658 82.7832C257.049 85.6152 258.172 87.666 260.027 88.9355C261.98 90.2051 264.275 90.8398 266.912 90.8398C268.865 90.8398 270.769 90.3516 272.625 89.375C274.48 88.3984 276.287 87.3242 278.045 86.1523C279.802 84.8828 281.511 83.7598 283.172 82.7832C284.929 81.8066 286.687 81.3184 288.445 81.3184C290.398 81.3184 292.156 81.9531 293.719 83.2227C295.281 84.4922 296.062 86.1523 296.062 88.2031ZM272.332 52.3145C272.332 51.0449 271.99 49.7266 271.306 48.3594C270.623 46.9922 269.549 46.3086 268.084 46.3086C265.935 46.3086 264.129 46.8945 262.664 48.0664C261.199 49.1406 259.978 50.5566 259.002 52.3145C258.025 53.9746 257.244 55.7812 256.658 57.7344C256.17 59.6875 255.877 61.4941 255.779 63.1543C257.146 62.8613 258.758 62.4707 260.613 61.9824C262.566 61.4941 264.373 60.8594 266.033 60.0781C267.791 59.1992 269.256 58.125 270.427 56.8555C271.697 55.5859 272.332 54.0723 272.332 52.3145Z"/>
<path d="M329.021 24.1895C329.021 29.4629 328.777 34.7852 328.289 40.1562C327.898 45.4297 327.703 50.752 327.703 56.123C327.703 63.0566 327.898 69.9902 328.289 76.9238C328.777 83.8574 329.021 90.8398 329.021 97.8711C329.021 99.6289 328.924 101.631 328.728 103.877C328.533 106.025 328.045 108.027 327.263 109.883C326.58 111.738 325.506 113.301 324.041 114.57C322.576 115.84 320.623 116.475 318.181 116.475C315.838 116.475 313.787 115.303 312.029 112.959C310.369 110.713 308.953 107.832 307.781 104.316C306.707 100.703 305.779 96.6992 304.998 92.3047C304.314 87.9102 303.777 83.6621 303.386 79.5605C303.094 75.3613 302.849 71.5527 302.654 68.1348C302.556 64.6191 302.508 62.0312 302.508 60.3711C302.508 58.5156 302.556 55.8301 302.654 52.3145C302.849 48.7988 303.191 44.9902 303.679 40.8887C304.168 36.7871 304.802 32.6367 305.584 28.4375C306.463 24.1406 307.586 20.2832 308.953 16.8652C310.32 13.3496 311.931 10.5176 313.787 8.36914C315.74 6.12305 318.035 5 320.672 5C322.82 5 324.431 5.73242 325.506 7.19727C326.677 8.56445 327.508 10.2734 327.996 12.3242C328.484 14.2773 328.777 16.377 328.875 18.623C328.972 20.7715 329.021 22.627 329.021 24.1895Z"/>
<path d="M372.527 156.611C370.183 156.611 367.498 156.221 364.47 155.439C361.541 154.756 358.758 153.73 356.121 152.363C353.484 150.996 351.238 149.336 349.383 147.383C347.625 145.43 346.746 143.184 346.746 140.645C346.746 139.668 346.99 138.691 347.478 137.715C347.967 136.738 348.601 135.859 349.383 135.078C350.261 134.395 351.189 133.809 352.166 133.32C353.142 132.93 354.168 132.734 355.242 132.734C356.414 132.734 357.537 132.881 358.611 133.174C359.783 133.564 360.955 134.004 362.127 134.492C363.396 134.98 364.617 135.42 365.789 135.811C367.058 136.201 368.377 136.396 369.744 136.396C372.185 136.396 374.285 135.566 376.043 133.906C377.898 132.246 379.461 130.049 380.73 127.314C382 124.678 383.025 121.699 383.806 118.379C384.588 115.156 385.174 111.934 385.564 108.711C386.052 105.488 386.394 102.461 386.59 99.6289C386.785 96.7969 386.931 94.502 387.029 92.7441C383.611 97.9199 380.193 101.924 376.775 104.756C373.455 107.49 369.353 108.857 364.47 108.857C360.76 108.857 357.488 108.076 354.656 106.514C351.922 104.951 349.578 102.9 347.625 100.361C345.672 97.8223 344.06 94.9414 342.791 91.7188C341.521 88.3984 340.545 84.9805 339.861 81.4648C339.275 77.9492 338.885 74.5312 338.689 71.2109C338.494 67.793 338.494 64.668 338.689 61.8359C338.787 59.6875 339.031 56.9043 339.422 53.4863C339.91 49.9707 340.642 46.5527 341.619 43.2324C342.595 39.9121 343.963 37.1289 345.72 34.8828C347.478 32.5391 349.773 31.4648 352.605 31.6602C354.461 31.7578 355.974 32.5879 357.146 34.1504C358.318 35.6152 359.246 37.4707 359.929 39.7168C360.711 41.9629 361.248 44.4531 361.541 47.1875C361.931 49.8242 362.176 52.4609 362.273 55.0977C362.371 57.7344 362.371 60.1758 362.273 62.4219C362.273 64.5703 362.273 66.2305 362.273 67.4023C362.273 69.0625 362.322 70.7227 362.42 72.3828C362.517 74.043 362.859 75.5566 363.445 76.9238C364.031 78.1934 364.91 79.2188 366.082 80C367.351 80.7812 369.109 81.1719 371.355 81.1719C373.894 81.1719 375.896 80.5371 377.361 79.2676C378.924 77.998 380.047 76.4355 380.73 74.5801C381.511 72.627 382 70.5762 382.195 68.4277C382.39 66.1816 382.488 64.082 382.488 62.1289C382.488 60.7617 382.488 59.1016 382.488 57.1484C382.488 55.1953 382.488 53.1445 382.488 50.9961C382.586 48.8477 382.781 46.748 383.074 44.6973C383.465 42.5488 384.002 40.6445 384.685 38.9844C385.467 37.2266 386.443 35.8105 387.615 34.7363C388.885 33.6621 390.496 33.125 392.449 33.125C394.89 33.125 396.99 34.1016 398.748 36.0547C400.506 37.9102 401.97 40.4004 403.142 43.5254C404.412 46.5527 405.388 49.9219 406.072 53.6328C406.853 57.3438 407.439 61.0547 407.83 64.7656C408.22 68.3789 408.465 71.748 408.562 74.873C408.758 77.9004 408.855 80.293 408.855 82.0508C408.855 86.1523 408.709 90.8398 408.416 96.1133C408.123 101.289 407.537 106.66 406.658 112.227C405.877 117.695 404.656 123.066 402.996 128.34C401.336 133.711 399.138 138.496 396.404 142.695C393.767 146.895 390.496 150.264 386.59 152.803C382.683 155.342 377.996 156.611 372.527 156.611Z"/>
</mask>
<path d="M80.293 53.6328C80.293 62.2266 78.5352 70.5273 75.0195 78.5352C71.5039 86.4453 66.7676 93.4766 60.8105 99.6289C54.9512 105.781 48.0664 110.713 40.1562 114.424C32.3438 118.037 24.0918 119.844 15.4004 119.844H15.1074C13.3496 119.844 11.8848 119.062 10.7129 117.5C9.63867 115.84 8.71094 113.789 7.92969 111.348C7.14844 108.906 6.5625 106.172 6.17188 103.145C5.46444 97.6619 5 92.1231 5 86.5918C5 84.248 5 82.4902 5 81.3184C5 77.998 5.04883 74.7266 5.14648 71.5039C5.24414 68.1836 5.39062 64.8633 5.58594 61.543C5.58594 60.4688 5.63477 58.9062 5.73242 56.8555C5.92773 54.707 6.12305 52.3145 6.31836 49.6777C6.51367 47.041 6.75781 44.3066 7.05078 41.4746C7.34375 38.5449 7.63672 35.8594 7.92969 33.418C8.32031 30.8789 8.66211 28.6816 8.95508 26.8262C9.3457 24.873 9.78516 23.5547 10.2734 22.8711C11.543 20.7227 13.4961 18.8184 16.1328 17.1582C18.7695 15.498 21.6016 14.1309 24.6289 13.0566C27.7539 11.9824 30.8789 11.2012 34.0039 10.7129C37.2266 10.127 40.0098 9.83398 42.3535 9.83398C48.7988 9.83398 54.3652 11.0547 59.0527 13.4961C63.8379 15.8398 67.793 19.0625 70.918 23.1641C74.1406 27.168 76.4844 31.8066 77.9492 37.0801C79.5117 42.3535 80.293 47.8711 80.293 53.6328ZM55.6836 57.8809C55.6836 55.7324 55.293 53.5352 54.5117 51.2891C53.7305 49.043 52.6074 46.9922 51.1426 45.1367C49.7754 43.2812 48.0664 41.8164 46.0156 40.7422C44.0625 39.5703 41.8652 38.9844 39.4238 38.9844C37.373 38.9844 35.2734 39.4727 33.125 40.4492C32.6367 40.7422 32.1973 41.6699 31.8066 43.2324C31.416 44.6973 31.0742 46.5039 30.7812 48.6523C30.347 53.4295 29.9556 58.2144 29.7559 63.0078C29.7559 65.2539 29.707 67.2559 29.6094 69.0137C29.6094 71.6504 29.6094 74.2871 29.6094 76.9238C29.6094 78.7793 29.6582 80.6348 29.7559 82.4902C29.9512 84.3457 30.1465 85.957 30.3418 87.3242C30.5371 88.6914 30.8789 89.375 31.3672 89.375C34.2969 89.375 37.1777 88.252 40.0098 86.0059C42.9395 83.6621 45.5762 80.8301 47.9199 77.5098C50.2637 74.1895 52.1191 70.7227 53.4863 67.1094C54.9512 63.4961 55.6836 60.4199 55.6836 57.8809Z" fill="white"/>
<path d="M118.67 119.111C113.689 119.111 109.343 117.793 105.632 115.156C101.922 112.52 98.7966 109.15 96.2575 105.049C93.7184 100.947 91.8141 96.4062 90.5446 91.4258C89.2751 86.3477 88.6403 81.3672 88.6403 76.4844C88.6403 71.3086 89.2751 65.9863 90.5446 60.5176C91.8141 54.9512 93.7673 49.9219 96.404 45.4297C99.0407 40.8398 102.41 37.1289 106.511 34.2969C110.613 31.3672 115.496 29.9023 121.16 29.9023C126.629 29.9023 131.267 31.416 135.076 34.4434C138.982 37.373 142.107 41.084 144.451 45.5762C146.795 49.9707 148.455 54.8047 149.431 60.0781C150.408 65.3516 150.75 70.332 150.457 75.0195C150.164 80.1953 149.334 85.4199 147.966 90.6934C146.697 95.9668 144.793 100.703 142.254 104.902C139.715 109.102 136.492 112.52 132.586 115.156C128.679 117.793 124.041 119.111 118.67 119.111ZM120.134 52.9004C118.67 52.9004 117.351 53.6816 116.179 55.2441C115.105 56.8066 114.177 58.7109 113.396 60.957C112.713 63.2031 112.175 65.5957 111.785 68.1348C111.394 70.5762 111.199 72.7246 111.199 74.5801C111.199 76.9238 111.394 79.4629 111.785 82.1973C112.273 84.9316 112.908 87.4707 113.689 89.8145C114.47 92.0605 115.398 93.9648 116.472 95.5273C117.644 96.9922 118.963 97.7246 120.427 97.7246C121.99 97.7246 123.308 96.9922 124.382 95.5273C125.554 94.0625 126.482 92.207 127.166 89.9609C127.849 87.7148 128.338 85.2734 128.631 82.6367C128.924 79.9023 129.07 77.3633 129.07 75.0195C129.07 72.8711 128.875 70.5273 128.484 67.9883C128.093 65.3516 127.507 62.9102 126.726 60.6641C126.043 58.418 125.115 56.5625 123.943 55.0977C122.869 53.6328 121.599 52.9004 120.134 52.9004Z" fill="white"/>
<path d="M202.459 118.965C200.799 118.965 199.48 118.184 198.504 116.621C197.527 115.156 196.795 113.447 196.306 111.494C195.818 109.541 195.476 107.588 195.281 105.635C195.183 103.584 195.134 102.021 195.134 100.947C195.134 98.0176 195.281 95.0879 195.574 92.1582C195.965 89.2285 196.355 86.2988 196.746 83.3691C197.234 80.4395 197.625 77.5098 197.918 74.5801C198.308 71.6504 198.504 68.7207 198.504 65.791C198.504 64.6191 198.455 63.3496 198.357 61.9824C198.259 60.6152 198.015 59.3457 197.625 58.1738C197.332 56.9043 196.795 55.8789 196.013 55.0977C195.232 54.3164 194.207 53.9258 192.937 53.9258C192.058 53.9258 191.082 54.6582 190.007 56.123C188.933 57.4902 187.908 59.1016 186.931 60.957C186.052 62.7148 185.271 64.5215 184.588 66.377C184.002 68.1348 183.709 69.4531 183.709 70.332C183.709 72.4805 183.709 74.6777 183.709 76.9238C183.806 79.0723 183.855 81.2695 183.855 83.5156V92.0117C183.757 93.7695 183.611 95.5762 183.416 97.4316C183.22 99.2871 182.927 101.094 182.537 102.852C182.244 104.609 181.804 106.318 181.218 107.979C180.632 109.541 179.851 110.957 178.875 112.227C177.996 113.398 176.922 114.375 175.652 115.156C174.382 115.938 172.869 116.328 171.111 116.328C169.158 116.328 167.547 115.693 166.277 114.424C165.007 113.154 163.982 111.543 163.201 109.59C162.42 107.539 161.834 105.293 161.443 102.852C161.15 100.312 160.906 97.8711 160.711 95.5273C160.613 93.0859 160.564 90.8887 160.564 88.9355C160.662 86.8848 160.711 85.2734 160.711 84.1016V77.2168C160.711 73.5059 160.613 69.8438 160.418 66.2305C160.32 62.6172 160.271 59.0039 160.271 55.3906C160.271 53.4375 160.271 50.9473 160.271 47.9199C160.369 44.8926 160.759 41.9629 161.443 39.1309C162.127 36.2012 163.25 33.7109 164.812 31.6602C166.375 29.6094 168.67 28.584 171.697 28.584C173.064 28.584 174.285 29.0234 175.359 29.9023C176.433 30.7812 177.361 31.8555 178.142 33.125C179.021 34.3945 179.705 35.7617 180.193 37.2266C180.779 38.6914 181.218 39.9609 181.511 41.0352C182.488 39.668 183.611 38.3496 184.881 37.0801C186.248 35.8105 187.761 34.6875 189.422 33.7109C191.082 32.7344 192.937 31.9531 194.988 31.3672C197.039 30.7812 199.382 30.4883 202.019 30.4883C207 30.4883 210.857 31.709 213.591 34.1504C216.424 36.4941 218.474 39.4727 219.744 43.0859C221.111 46.6016 221.941 50.4102 222.234 54.5117C222.527 58.6133 222.674 62.3242 222.674 65.6445C222.674 67.3047 222.527 69.7949 222.234 73.1152C221.941 76.3379 221.453 79.9512 220.769 83.9551C220.183 87.8613 219.353 91.9141 218.279 96.1133C217.205 100.215 215.935 103.975 214.47 107.393C213.006 110.811 211.248 113.594 209.197 115.742C207.244 117.891 204.998 118.965 202.459 118.965Z" fill="white"/>
<path d="M296.062 88.2031C296.062 91.5234 294.988 94.7949 292.84 98.0176C290.789 101.143 288.152 103.975 284.929 106.514C281.804 108.955 278.435 110.957 274.822 112.52C271.209 113.984 267.888 114.717 264.861 114.717C259.685 114.717 255.047 113.447 250.945 110.908C246.941 108.271 243.572 104.951 240.838 100.947C238.103 96.9434 236.004 92.5488 234.539 87.7637C233.172 82.8809 232.488 78.1445 232.488 73.5547C232.488 68.6719 233.172 63.4473 234.539 57.8809C235.906 52.3145 237.957 47.1875 240.691 42.5C243.523 37.8125 247.039 33.9062 251.238 30.7812C255.535 27.6562 260.613 26.0938 266.472 26.0938C269.793 26.0938 272.966 26.6797 275.994 27.8516C279.021 28.9258 281.658 30.4883 283.904 32.5391C286.15 34.5898 287.957 37.0312 289.324 39.8633C290.691 42.6953 291.375 45.8691 291.375 49.3848C291.375 53.9746 290.398 58.2715 288.445 62.2754C286.492 66.2793 283.904 69.7461 280.681 72.6758C277.459 75.6055 273.748 77.998 269.549 79.8535C265.349 81.6113 261.052 82.5879 256.658 82.7832C257.049 85.6152 258.172 87.666 260.027 88.9355C261.98 90.2051 264.275 90.8398 266.912 90.8398C268.865 90.8398 270.769 90.3516 272.625 89.375C274.48 88.3984 276.287 87.3242 278.045 86.1523C279.802 84.8828 281.511 83.7598 283.172 82.7832C284.929 81.8066 286.687 81.3184 288.445 81.3184C290.398 81.3184 292.156 81.9531 293.719 83.2227C295.281 84.4922 296.062 86.1523 296.062 88.2031ZM272.332 52.3145C272.332 51.0449 271.99 49.7266 271.306 48.3594C270.623 46.9922 269.549 46.3086 268.084 46.3086C265.935 46.3086 264.129 46.8945 262.664 48.0664C261.199 49.1406 259.978 50.5566 259.002 52.3145C258.025 53.9746 257.244 55.7812 256.658 57.7344C256.17 59.6875 255.877 61.4941 255.779 63.1543C257.146 62.8613 258.758 62.4707 260.613 61.9824C262.566 61.4941 264.373 60.8594 266.033 60.0781C267.791 59.1992 269.256 58.125 270.427 56.8555C271.697 55.5859 272.332 54.0723 272.332 52.3145Z" fill="white"/>
<path d="M329.021 24.1895C329.021 29.4629 328.777 34.7852 328.289 40.1562C327.898 45.4297 327.703 50.752 327.703 56.123C327.703 63.0566 327.898 69.9902 328.289 76.9238C328.777 83.8574 329.021 90.8398 329.021 97.8711C329.021 99.6289 328.924 101.631 328.728 103.877C328.533 106.025 328.045 108.027 327.263 109.883C326.58 111.738 325.506 113.301 324.041 114.57C322.576 115.84 320.623 116.475 318.181 116.475C315.838 116.475 313.787 115.303 312.029 112.959C310.369 110.713 308.953 107.832 307.781 104.316C306.707 100.703 305.779 96.6992 304.998 92.3047C304.314 87.9102 303.777 83.6621 303.386 79.5605C303.094 75.3613 302.849 71.5527 302.654 68.1348C302.556 64.6191 302.508 62.0312 302.508 60.3711C302.508 58.5156 302.556 55.8301 302.654 52.3145C302.849 48.7988 303.191 44.9902 303.679 40.8887C304.168 36.7871 304.802 32.6367 305.584 28.4375C306.463 24.1406 307.586 20.2832 308.953 16.8652C310.32 13.3496 311.931 10.5176 313.787 8.36914C315.74 6.12305 318.035 5 320.672 5C322.82 5 324.431 5.73242 325.506 7.19727C326.677 8.56445 327.508 10.2734 327.996 12.3242C328.484 14.2773 328.777 16.377 328.875 18.623C328.972 20.7715 329.021 22.627 329.021 24.1895Z" fill="white"/>
<path d="M372.527 156.611C370.183 156.611 367.498 156.221 364.47 155.439C361.541 154.756 358.758 153.73 356.121 152.363C353.484 150.996 351.238 149.336 349.383 147.383C347.625 145.43 346.746 143.184 346.746 140.645C346.746 139.668 346.99 138.691 347.478 137.715C347.967 136.738 348.601 135.859 349.383 135.078C350.261 134.395 351.189 133.809 352.166 133.32C353.142 132.93 354.168 132.734 355.242 132.734C356.414 132.734 357.537 132.881 358.611 133.174C359.783 133.564 360.955 134.004 362.127 134.492C363.396 134.98 364.617 135.42 365.789 135.811C367.058 136.201 368.377 136.396 369.744 136.396C372.185 136.396 374.285 135.566 376.043 133.906C377.898 132.246 379.461 130.049 380.73 127.314C382 124.678 383.025 121.699 383.806 118.379C384.588 115.156 385.174 111.934 385.564 108.711C386.052 105.488 386.394 102.461 386.59 99.6289C386.785 96.7969 386.931 94.502 387.029 92.7441C383.611 97.9199 380.193 101.924 376.775 104.756C373.455 107.49 369.353 108.857 364.47 108.857C360.76 108.857 357.488 108.076 354.656 106.514C351.922 104.951 349.578 102.9 347.625 100.361C345.672 97.8223 344.06 94.9414 342.791 91.7188C341.521 88.3984 340.545 84.9805 339.861 81.4648C339.275 77.9492 338.885 74.5312 338.689 71.2109C338.494 67.793 338.494 64.668 338.689 61.8359C338.787 59.6875 339.031 56.9043 339.422 53.4863C339.91 49.9707 340.642 46.5527 341.619 43.2324C342.595 39.9121 343.963 37.1289 345.72 34.8828C347.478 32.5391 349.773 31.4648 352.605 31.6602C354.461 31.7578 355.974 32.5879 357.146 34.1504C358.318 35.6152 359.246 37.4707 359.929 39.7168C360.711 41.9629 361.248 44.4531 361.541 47.1875C361.931 49.8242 362.176 52.4609 362.273 55.0977C362.371 57.7344 362.371 60.1758 362.273 62.4219C362.273 64.5703 362.273 66.2305 362.273 67.4023C362.273 69.0625 362.322 70.7227 362.42 72.3828C362.517 74.043 362.859 75.5566 363.445 76.9238C364.031 78.1934 364.91 79.2188 366.082 80C367.351 80.7812 369.109 81.1719 371.355 81.1719C373.894 81.1719 375.896 80.5371 377.361 79.2676C378.924 77.998 380.047 76.4355 380.73 74.5801C381.511 72.627 382 70.5762 382.195 68.4277C382.39 66.1816 382.488 64.082 382.488 62.1289C382.488 60.7617 382.488 59.1016 382.488 57.1484C382.488 55.1953 382.488 53.1445 382.488 50.9961C382.586 48.8477 382.781 46.748 383.074 44.6973C383.465 42.5488 384.002 40.6445 384.685 38.9844C385.467 37.2266 386.443 35.8105 387.615 34.7363C388.885 33.6621 390.496 33.125 392.449 33.125C394.89 33.125 396.99 34.1016 398.748 36.0547C400.506 37.9102 401.97 40.4004 403.142 43.5254C404.412 46.5527 405.388 49.9219 406.072 53.6328C406.853 57.3438 407.439 61.0547 407.83 64.7656C408.22 68.3789 408.465 71.748 408.562 74.873C408.758 77.9004 408.855 80.293 408.855 82.0508C408.855 86.1523 408.709 90.8398 408.416 96.1133C408.123 101.289 407.537 106.66 406.658 112.227C405.877 117.695 404.656 123.066 402.996 128.34C401.336 133.711 399.138 138.496 396.404 142.695C393.767 146.895 390.496 150.264 386.59 152.803C382.683 155.342 377.996 156.611 372.527 156.611Z" fill="white"/>
<path d="M80.293 53.6328C80.293 62.2266 78.5352 70.5273 75.0195 78.5352C71.5039 86.4453 66.7676 93.4766 60.8105 99.6289C54.9512 105.781 48.0664 110.713 40.1562 114.424C32.3438 118.037 24.0918 119.844 15.4004 119.844H15.1074C13.3496 119.844 11.8848 119.062 10.7129 117.5C9.63867 115.84 8.71094 113.789 7.92969 111.348C7.14844 108.906 6.5625 106.172 6.17188 103.145C5.46444 97.6619 5 92.1231 5 86.5918C5 84.248 5 82.4902 5 81.3184C5 77.998 5.04883 74.7266 5.14648 71.5039C5.24414 68.1836 5.39062 64.8633 5.58594 61.543C5.58594 60.4688 5.63477 58.9062 5.73242 56.8555C5.92773 54.707 6.12305 52.3145 6.31836 49.6777C6.51367 47.041 6.75781 44.3066 7.05078 41.4746C7.34375 38.5449 7.63672 35.8594 7.92969 33.418C8.32031 30.8789 8.66211 28.6816 8.95508 26.8262C9.3457 24.873 9.78516 23.5547 10.2734 22.8711C11.543 20.7227 13.4961 18.8184 16.1328 17.1582C18.7695 15.498 21.6016 14.1309 24.6289 13.0566C27.7539 11.9824 30.8789 11.2012 34.0039 10.7129C37.2266 10.127 40.0098 9.83398 42.3535 9.83398C48.7988 9.83398 54.3652 11.0547 59.0527 13.4961C63.8379 15.8398 67.793 19.0625 70.918 23.1641C74.1406 27.168 76.4844 31.8066 77.9492 37.0801C79.5117 42.3535 80.293 47.8711 80.293 53.6328ZM55.6836 57.8809C55.6836 55.7324 55.293 53.5352 54.5117 51.2891C53.7305 49.043 52.6074 46.9922 51.1426 45.1367C49.7754 43.2812 48.0664 41.8164 46.0156 40.7422C44.0625 39.5703 41.8652 38.9844 39.4238 38.9844C37.373 38.9844 35.2734 39.4727 33.125 40.4492C32.6367 40.7422 32.1973 41.6699 31.8066 43.2324C31.416 44.6973 31.0742 46.5039 30.7812 48.6523C30.347 53.4295 29.9556 58.2144 29.7559 63.0078C29.7559 65.2539 29.707 67.2559 29.6094 69.0137C29.6094 71.6504 29.6094 74.2871 29.6094 76.9238C29.6094 78.7793 29.6582 80.6348 29.7559 82.4902C29.9512 84.3457 30.1465 85.957 30.3418 87.3242C30.5371 88.6914 30.8789 89.375 31.3672 89.375C34.2969 89.375 37.1777 88.252 40.0098 86.0059C42.9395 83.6621 45.5762 80.8301 47.9199 77.5098C50.2637 74.1895 52.1191 70.7227 53.4863 67.1094C54.9512 63.4961 55.6836 60.4199 55.6836 57.8809Z" stroke="#004480" stroke-width="10" mask="url(#path-13-outside-1_1040_7217)"/>
<path d="M118.67 119.111C113.689 119.111 109.343 117.793 105.632 115.156C101.922 112.52 98.7966 109.15 96.2575 105.049C93.7184 100.947 91.8141 96.4062 90.5446 91.4258C89.2751 86.3477 88.6403 81.3672 88.6403 76.4844C88.6403 71.3086 89.2751 65.9863 90.5446 60.5176C91.8141 54.9512 93.7673 49.9219 96.404 45.4297C99.0407 40.8398 102.41 37.1289 106.511 34.2969C110.613 31.3672 115.496 29.9023 121.16 29.9023C126.629 29.9023 131.267 31.416 135.076 34.4434C138.982 37.373 142.107 41.084 144.451 45.5762C146.795 49.9707 148.455 54.8047 149.431 60.0781C150.408 65.3516 150.75 70.332 150.457 75.0195C150.164 80.1953 149.334 85.4199 147.966 90.6934C146.697 95.9668 144.793 100.703 142.254 104.902C139.715 109.102 136.492 112.52 132.586 115.156C128.679 117.793 124.041 119.111 118.67 119.111ZM120.134 52.9004C118.67 52.9004 117.351 53.6816 116.179 55.2441C115.105 56.8066 114.177 58.7109 113.396 60.957C112.713 63.2031 112.175 65.5957 111.785 68.1348C111.394 70.5762 111.199 72.7246 111.199 74.5801C111.199 76.9238 111.394 79.4629 111.785 82.1973C112.273 84.9316 112.908 87.4707 113.689 89.8145C114.47 92.0605 115.398 93.9648 116.472 95.5273C117.644 96.9922 118.963 97.7246 120.427 97.7246C121.99 97.7246 123.308 96.9922 124.382 95.5273C125.554 94.0625 126.482 92.207 127.166 89.9609C127.849 87.7148 128.338 85.2734 128.631 82.6367C128.924 79.9023 129.07 77.3633 129.07 75.0195C129.07 72.8711 128.875 70.5273 128.484 67.9883C128.093 65.3516 127.507 62.9102 126.726 60.6641C126.043 58.418 125.115 56.5625 123.943 55.0977C122.869 53.6328 121.599 52.9004 120.134 52.9004Z" stroke="#004480" stroke-width="10" mask="url(#path-13-outside-1_1040_7217)"/>
<path d="M202.459 118.965C200.799 118.965 199.48 118.184 198.504 116.621C197.527 115.156 196.795 113.447 196.306 111.494C195.818 109.541 195.476 107.588 195.281 105.635C195.183 103.584 195.134 102.021 195.134 100.947C195.134 98.0176 195.281 95.0879 195.574 92.1582C195.965 89.2285 196.355 86.2988 196.746 83.3691C197.234 80.4395 197.625 77.5098 197.918 74.5801C198.308 71.6504 198.504 68.7207 198.504 65.791C198.504 64.6191 198.455 63.3496 198.357 61.9824C198.259 60.6152 198.015 59.3457 197.625 58.1738C197.332 56.9043 196.795 55.8789 196.013 55.0977C195.232 54.3164 194.207 53.9258 192.937 53.9258C192.058 53.9258 191.082 54.6582 190.007 56.123C188.933 57.4902 187.908 59.1016 186.931 60.957C186.052 62.7148 185.271 64.5215 184.588 66.377C184.002 68.1348 183.709 69.4531 183.709 70.332C183.709 72.4805 183.709 74.6777 183.709 76.9238C183.806 79.0723 183.855 81.2695 183.855 83.5156V92.0117C183.757 93.7695 183.611 95.5762 183.416 97.4316C183.22 99.2871 182.927 101.094 182.537 102.852C182.244 104.609 181.804 106.318 181.218 107.979C180.632 109.541 179.851 110.957 178.875 112.227C177.996 113.398 176.922 114.375 175.652 115.156C174.382 115.938 172.869 116.328 171.111 116.328C169.158 116.328 167.547 115.693 166.277 114.424C165.007 113.154 163.982 111.543 163.201 109.59C162.42 107.539 161.834 105.293 161.443 102.852C161.15 100.312 160.906 97.8711 160.711 95.5273C160.613 93.0859 160.564 90.8887 160.564 88.9355C160.662 86.8848 160.711 85.2734 160.711 84.1016V77.2168C160.711 73.5059 160.613 69.8438 160.418 66.2305C160.32 62.6172 160.271 59.0039 160.271 55.3906C160.271 53.4375 160.271 50.9473 160.271 47.9199C160.369 44.8926 160.759 41.9629 161.443 39.1309C162.127 36.2012 163.25 33.7109 164.812 31.6602C166.375 29.6094 168.67 28.584 171.697 28.584C173.064 28.584 174.285 29.0234 175.359 29.9023C176.433 30.7812 177.361 31.8555 178.142 33.125C179.021 34.3945 179.705 35.7617 180.193 37.2266C180.779 38.6914 181.218 39.9609 181.511 41.0352C182.488 39.668 183.611 38.3496 184.881 37.0801C186.248 35.8105 187.761 34.6875 189.422 33.7109C191.082 32.7344 192.937 31.9531 194.988 31.3672C197.039 30.7812 199.382 30.4883 202.019 30.4883C207 30.4883 210.857 31.709 213.591 34.1504C216.424 36.4941 218.474 39.4727 219.744 43.0859C221.111 46.6016 221.941 50.4102 222.234 54.5117C222.527 58.6133 222.674 62.3242 222.674 65.6445C222.674 67.3047 222.527 69.7949 222.234 73.1152C221.941 76.3379 221.453 79.9512 220.769 83.9551C220.183 87.8613 219.353 91.9141 218.279 96.1133C217.205 100.215 215.935 103.975 214.47 107.393C213.006 110.811 211.248 113.594 209.197 115.742C207.244 117.891 204.998 118.965 202.459 118.965Z" stroke="#004480" stroke-width="10" mask="url(#path-13-outside-1_1040_7217)"/>
<path d="M296.062 88.2031C296.062 91.5234 294.988 94.7949 292.84 98.0176C290.789 101.143 288.152 103.975 284.929 106.514C281.804 108.955 278.435 110.957 274.822 112.52C271.209 113.984 267.888 114.717 264.861 114.717C259.685 114.717 255.047 113.447 250.945 110.908C246.941 108.271 243.572 104.951 240.838 100.947C238.103 96.9434 236.004 92.5488 234.539 87.7637C233.172 82.8809 232.488 78.1445 232.488 73.5547C232.488 68.6719 233.172 63.4473 234.539 57.8809C235.906 52.3145 237.957 47.1875 240.691 42.5C243.523 37.8125 247.039 33.9062 251.238 30.7812C255.535 27.6562 260.613 26.0938 266.472 26.0938C269.793 26.0938 272.966 26.6797 275.994 27.8516C279.021 28.9258 281.658 30.4883 283.904 32.5391C286.15 34.5898 287.957 37.0312 289.324 39.8633C290.691 42.6953 291.375 45.8691 291.375 49.3848C291.375 53.9746 290.398 58.2715 288.445 62.2754C286.492 66.2793 283.904 69.7461 280.681 72.6758C277.459 75.6055 273.748 77.998 269.549 79.8535C265.349 81.6113 261.052 82.5879 256.658 82.7832C257.049 85.6152 258.172 87.666 260.027 88.9355C261.98 90.2051 264.275 90.8398 266.912 90.8398C268.865 90.8398 270.769 90.3516 272.625 89.375C274.48 88.3984 276.287 87.3242 278.045 86.1523C279.802 84.8828 281.511 83.7598 283.172 82.7832C284.929 81.8066 286.687 81.3184 288.445 81.3184C290.398 81.3184 292.156 81.9531 293.719 83.2227C295.281 84.4922 296.062 86.1523 296.062 88.2031ZM272.332 52.3145C272.332 51.0449 271.99 49.7266 271.306 48.3594C270.623 46.9922 269.549 46.3086 268.084 46.3086C265.935 46.3086 264.129 46.8945 262.664 48.0664C261.199 49.1406 259.978 50.5566 259.002 52.3145C258.025 53.9746 257.244 55.7812 256.658 57.7344C256.17 59.6875 255.877 61.4941 255.779 63.1543C257.146 62.8613 258.758 62.4707 260.613 61.9824C262.566 61.4941 264.373 60.8594 266.033 60.0781C267.791 59.1992 269.256 58.125 270.427 56.8555C271.697 55.5859 272.332 54.0723 272.332 52.3145Z" stroke="#004480" stroke-width="10" mask="url(#path-13-outside-1_1040_7217)"/>
<path d="M329.021 24.1895C329.021 29.4629 328.777 34.7852 328.289 40.1562C327.898 45.4297 327.703 50.752 327.703 56.123C327.703 63.0566 327.898 69.9902 328.289 76.9238C328.777 83.8574 329.021 90.8398 329.021 97.8711C329.021 99.6289 328.924 101.631 328.728 103.877C328.533 106.025 328.045 108.027 327.263 109.883C326.58 111.738 325.506 113.301 324.041 114.57C322.576 115.84 320.623 116.475 318.181 116.475C315.838 116.475 313.787 115.303 312.029 112.959C310.369 110.713 308.953 107.832 307.781 104.316C306.707 100.703 305.779 96.6992 304.998 92.3047C304.314 87.9102 303.777 83.6621 303.386 79.5605C303.094 75.3613 302.849 71.5527 302.654 68.1348C302.556 64.6191 302.508 62.0312 302.508 60.3711C302.508 58.5156 302.556 55.8301 302.654 52.3145C302.849 48.7988 303.191 44.9902 303.679 40.8887C304.168 36.7871 304.802 32.6367 305.584 28.4375C306.463 24.1406 307.586 20.2832 308.953 16.8652C310.32 13.3496 311.931 10.5176 313.787 8.36914C315.74 6.12305 318.035 5 320.672 5C322.82 5 324.431 5.73242 325.506 7.19727C326.677 8.56445 327.508 10.2734 327.996 12.3242C328.484 14.2773 328.777 16.377 328.875 18.623C328.972 20.7715 329.021 22.627 329.021 24.1895Z" stroke="#004480" stroke-width="10" mask="url(#path-13-outside-1_1040_7217)"/>
<path d="M372.527 156.611C370.183 156.611 367.498 156.221 364.47 155.439C361.541 154.756 358.758 153.73 356.121 152.363C353.484 150.996 351.238 149.336 349.383 147.383C347.625 145.43 346.746 143.184 346.746 140.645C346.746 139.668 346.99 138.691 347.478 137.715C347.967 136.738 348.601 135.859 349.383 135.078C350.261 134.395 351.189 133.809 352.166 133.32C353.142 132.93 354.168 132.734 355.242 132.734C356.414 132.734 357.537 132.881 358.611 133.174C359.783 133.564 360.955 134.004 362.127 134.492C363.396 134.98 364.617 135.42 365.789 135.811C367.058 136.201 368.377 136.396 369.744 136.396C372.185 136.396 374.285 135.566 376.043 133.906C377.898 132.246 379.461 130.049 380.73 127.314C382 124.678 383.025 121.699 383.806 118.379C384.588 115.156 385.174 111.934 385.564 108.711C386.052 105.488 386.394 102.461 386.59 99.6289C386.785 96.7969 386.931 94.502 387.029 92.7441C383.611 97.9199 380.193 101.924 376.775 104.756C373.455 107.49 369.353 108.857 364.47 108.857C360.76 108.857 357.488 108.076 354.656 106.514C351.922 104.951 349.578 102.9 347.625 100.361C345.672 97.8223 344.06 94.9414 342.791 91.7188C341.521 88.3984 340.545 84.9805 339.861 81.4648C339.275 77.9492 338.885 74.5312 338.689 71.2109C338.494 67.793 338.494 64.668 338.689 61.8359C338.787 59.6875 339.031 56.9043 339.422 53.4863C339.91 49.9707 340.642 46.5527 341.619 43.2324C342.595 39.9121 343.963 37.1289 345.72 34.8828C347.478 32.5391 349.773 31.4648 352.605 31.6602C354.461 31.7578 355.974 32.5879 357.146 34.1504C358.318 35.6152 359.246 37.4707 359.929 39.7168C360.711 41.9629 361.248 44.4531 361.541 47.1875C361.931 49.8242 362.176 52.4609 362.273 55.0977C362.371 57.7344 362.371 60.1758 362.273 62.4219C362.273 64.5703 362.273 66.2305 362.273 67.4023C362.273 69.0625 362.322 70.7227 362.42 72.3828C362.517 74.043 362.859 75.5566 363.445 76.9238C364.031 78.1934 364.91 79.2188 366.082 80C367.351 80.7812 369.109 81.1719 371.355 81.1719C373.894 81.1719 375.896 80.5371 377.361 79.2676C378.924 77.998 380.047 76.4355 380.73 74.5801C381.511 72.627 382 70.5762 382.195 68.4277C382.39 66.1816 382.488 64.082 382.488 62.1289C382.488 60.7617 382.488 59.1016 382.488 57.1484C382.488 55.1953 382.488 53.1445 382.488 50.9961C382.586 48.8477 382.781 46.748 383.074 44.6973C383.465 42.5488 384.002 40.6445 384.685 38.9844C385.467 37.2266 386.443 35.8105 387.615 34.7363C388.885 33.6621 390.496 33.125 392.449 33.125C394.89 33.125 396.99 34.1016 398.748 36.0547C400.506 37.9102 401.97 40.4004 403.142 43.5254C404.412 46.5527 405.388 49.9219 406.072 53.6328C406.853 57.3438 407.439 61.0547 407.83 64.7656C408.22 68.3789 408.465 71.748 408.562 74.873C408.758 77.9004 408.855 80.293 408.855 82.0508C408.855 86.1523 408.709 90.8398 408.416 96.1133C408.123 101.289 407.537 106.66 406.658 112.227C405.877 117.695 404.656 123.066 402.996 128.34C401.336 133.711 399.138 138.496 396.404 142.695C393.767 146.895 390.496 150.264 386.59 152.803C382.683 155.342 377.996 156.611 372.527 156.611Z" stroke="#004480" stroke-width="10" mask="url(#path-13-outside-1_1040_7217)"/>
</svg>
