<svg width="55" height="54" viewBox="0 0 55 54" fill="none" xmlns="http://www.w3.org/2000/svg">
<g clip-path="url(#clip0_711_18374)">
<path opacity="0.985" fill-rule="evenodd" clip-rule="evenodd" d="M42.5293 9.54517C39.5058 9.54517 36.4825 9.54517 33.459 9.54517C33.459 10.1428 33.459 10.7404 33.459 11.3381C36.5176 11.3381 39.5762 11.3381 42.6348 11.3381C42.6348 22.9748 42.6348 34.6116 42.6348 46.2483C38.3457 46.2483 34.0567 46.2483 29.7676 46.2483C29.7676 45.0178 29.7676 43.7874 29.7676 42.5569C32.5451 42.5745 35.3225 42.5569 38.0996 42.5042C38.384 42.4314 38.6125 42.2732 38.7852 42.0295C38.8028 37.3186 38.8203 32.6077 38.8379 27.8967C38.855 23.1068 38.8022 18.3255 38.6797 13.553C38.5844 13.4263 38.4615 13.3383 38.3105 13.2893C35.4631 13.2366 32.6154 13.219 29.7676 13.2366C29.7676 12.6038 29.7676 11.9709 29.7676 11.3381C28.2559 11.3381 26.7441 11.3381 25.2324 11.3381C19.9941 11.3381 14.7559 11.3381 9.51758 11.3381C9.51758 7.68188 9.51758 4.02564 9.51758 0.369384C17.4981 0.351807 25.4786 0.369384 33.459 0.422119C36.5037 3.44921 39.5271 6.49023 42.5293 9.54517Z" fill="#D9D9D9"/>
<path fill-rule="evenodd" clip-rule="evenodd" d="M13.209 3.11157C19.0449 3.11157 24.8809 3.11157 30.7168 3.11157C30.7168 3.74438 30.7168 4.3772 30.7168 5.01001C24.8809 5.01001 19.0449 5.01001 13.209 5.01001C13.209 4.3772 13.209 3.74438 13.209 3.11157Z" fill="#BEBEBE"/>
<path fill-rule="evenodd" clip-rule="evenodd" d="M13.3145 6.80298C14.8261 6.80298 16.3379 6.80298 17.8496 6.80298C17.8496 7.40064 17.8496 7.99829 17.8496 8.59595C16.3379 8.59595 14.8261 8.59595 13.3145 8.59595C13.3145 7.99829 13.3145 7.40064 13.3145 6.80298Z" fill="#BDBDBD"/>
<path fill-rule="evenodd" clip-rule="evenodd" d="M19.6426 6.80298C23.2989 6.80298 26.955 6.80298 30.6113 6.80298C30.6113 7.40064 30.6113 7.99829 30.6113 8.59595C26.955 8.59595 23.2989 8.59595 19.6426 8.59595C19.6426 7.99829 19.6426 7.40064 19.6426 6.80298Z" fill="#BDBDBD"/>
<path opacity="0.992" fill-rule="evenodd" clip-rule="evenodd" d="M42.5293 9.54517C42.6336 10.1226 42.6687 10.7203 42.6348 11.3381C39.5762 11.3381 36.5176 11.3381 33.459 11.3381C33.459 10.7404 33.459 10.1428 33.459 9.54517C36.4825 9.54517 39.5058 9.54517 42.5293 9.54517Z" fill="#D1D1D1"/>
<path fill-rule="evenodd" clip-rule="evenodd" d="M29.7676 13.2363C32.6154 13.2187 35.4631 13.2363 38.3105 13.2891C38.4615 13.3381 38.5844 13.4261 38.6797 13.5527C38.8022 18.3253 38.855 23.1065 38.8379 27.8965C38.8203 32.6075 38.8028 37.3183 38.7852 42.0293C38.6125 42.2729 38.384 42.4311 38.0996 42.5039C35.3225 42.5567 32.5451 42.5743 29.7676 42.5567C29.7676 41.9238 29.7676 41.291 29.7676 40.6582C32.1934 40.6582 34.6191 40.6582 37.0449 40.6582C37.0449 39.4277 37.0449 38.1973 37.0449 36.9668C34.6191 36.9668 32.1934 36.9668 29.7676 36.9668C29.7676 36.3691 29.7676 35.7715 29.7676 35.1738C32.1934 35.1738 34.6191 35.1738 37.0449 35.1738C37.0449 33.9433 37.0449 32.7129 37.0449 31.4824C34.6191 31.4824 32.1934 31.4824 29.7676 31.4824C29.7676 30.8847 29.7676 30.2872 29.7676 29.6895C32.1934 29.6895 34.6191 29.6895 37.0449 29.6895C37.0449 28.459 37.0449 27.2286 37.0449 25.9981C34.6191 25.9981 32.1934 25.9981 29.7676 25.9981C29.7676 25.4004 29.7676 24.8028 29.7676 24.2051C32.1934 24.2051 34.6191 24.2051 37.0449 24.2051C37.0449 22.9746 37.0449 21.7442 37.0449 20.5137C34.6191 20.5137 32.1934 20.5137 29.7676 20.5137C29.7676 19.916 29.7676 19.3184 29.7676 18.7207C32.1934 18.7207 34.6191 18.7207 37.0449 18.7207C37.0449 17.4902 37.0449 16.2598 37.0449 15.0293C34.6191 15.0293 32.1934 15.0293 29.7676 15.0293C29.7676 14.4316 29.7676 13.834 29.7676 13.2363Z" fill="#BDBDBD"/>
<path fill-rule="evenodd" clip-rule="evenodd" d="M29.7676 15.0295C32.1934 15.0295 34.6191 15.0295 37.0449 15.0295C37.0449 16.26 37.0449 17.4904 37.0449 18.7209C34.6191 18.7209 32.1934 18.7209 29.7676 18.7209C29.7676 17.4904 29.7676 16.26 29.7676 15.0295Z" fill="#D8D8D8"/>
<path fill-rule="evenodd" clip-rule="evenodd" d="M29.7676 20.5139C32.1934 20.5139 34.6191 20.5139 37.0449 20.5139C37.0449 21.7444 37.0449 22.9748 37.0449 24.2053C34.6191 24.2053 32.1934 24.2053 29.7676 24.2053C29.7676 22.9748 29.7676 21.7444 29.7676 20.5139Z" fill="#D8D8D8"/>
<path fill-rule="evenodd" clip-rule="evenodd" d="M29.7676 25.9983C32.1934 25.9983 34.6191 25.9983 37.0449 25.9983C37.0449 27.2288 37.0449 28.4592 37.0449 29.6897C34.6191 29.6897 32.1934 29.6897 29.7676 29.6897C29.7676 28.4592 29.7676 27.2288 29.7676 25.9983Z" fill="#D8D8D8"/>
<path fill-rule="evenodd" clip-rule="evenodd" d="M29.7676 31.4827C32.1934 31.4827 34.6191 31.4827 37.0449 31.4827C37.0449 32.7132 37.0449 33.9436 37.0449 35.1741C34.6191 35.1741 32.1934 35.1741 29.7676 35.1741C29.7676 33.9436 29.7676 32.7132 29.7676 31.4827Z" fill="#D8D8D8"/>
<path fill-rule="evenodd" clip-rule="evenodd" d="M29.7676 36.967C32.1934 36.967 34.6191 36.967 37.0449 36.967C37.0449 38.1975 37.0449 39.4279 37.0449 40.6584C34.6191 40.6584 32.1934 40.6584 29.7676 40.6584C29.7676 39.4279 29.7676 38.1975 29.7676 36.967Z" fill="#D8D8D8"/>
<path opacity="0.946" fill-rule="evenodd" clip-rule="evenodd" d="M48.0156 6.80273C48.0156 7.7168 48.0156 8.63086 48.0156 9.54492C47.4179 9.54492 46.8203 9.54492 46.2227 9.54492C46.1875 9.54492 46.1523 9.54492 46.1172 9.54492C46.1172 8.63086 46.1172 7.7168 46.1172 6.80273C46.75 6.80273 47.3828 6.80273 48.0156 6.80273Z" fill="#4398D1"/>
<path fill-rule="evenodd" clip-rule="evenodd" d="M48.0156 6.80273C48.6484 6.80273 49.2812 6.80273 49.9141 6.80273C49.9141 7.7168 49.9141 8.63086 49.9141 9.54492C49.2812 9.54492 48.6484 9.54492 48.0156 9.54492C48.0156 8.63086 48.0156 7.7168 48.0156 6.80273Z" fill="#3E8CC7"/>
<path opacity="0.967" fill-rule="evenodd" clip-rule="evenodd" d="M46.2227 9.54516C46.8203 9.54516 47.4179 9.54516 48.0156 9.54516C48.6484 9.54516 49.2812 9.54516 49.9141 9.54516C51.2505 9.52759 52.5864 9.54517 53.9219 9.5979C54.1525 9.706 54.3284 9.8642 54.4492 10.0725C54.4492 14.5022 54.4492 18.9319 54.4492 23.3616C53.8164 23.3616 53.1836 23.3616 52.5508 23.3616C52.5508 19.3889 52.5508 15.4163 52.5508 11.4436C51.6719 11.4436 50.7929 11.4436 49.9141 11.4436C48.7024 11.3387 47.4719 11.3035 46.2227 11.3381C46.2227 10.7404 46.2227 10.1428 46.2227 9.54516Z" fill="#126099"/>
<path opacity="0.95" fill-rule="evenodd" clip-rule="evenodd" d="M46.1172 11.4434C46.75 11.4434 47.3828 11.4434 48.0156 11.4434C48.0156 14.4668 48.0156 17.4902 48.0156 20.5137C47.3828 20.5137 46.75 20.5137 46.1172 20.5137C46.1172 17.4902 46.1172 14.4668 46.1172 11.4434Z" fill="#4398D1"/>
<path fill-rule="evenodd" clip-rule="evenodd" d="M46.1172 9.54492C46.1523 9.54492 46.1875 9.54492 46.2227 9.54492C46.2227 10.1426 46.2227 10.7402 46.2227 11.3379C47.4719 11.3033 48.7024 11.3384 49.9141 11.4434C49.9141 14.4668 49.9141 17.4902 49.9141 20.5137C49.2812 20.5137 48.6484 20.5137 48.0156 20.5137C48.0156 17.4902 48.0156 14.4668 48.0156 11.4434C47.3828 11.4434 46.75 11.4434 46.1172 11.4434C46.1172 10.8105 46.1172 10.1777 46.1172 9.54492Z" fill="#3D8BC6"/>
<path fill-rule="evenodd" clip-rule="evenodd" d="M46.1172 20.5137C46.75 20.5137 47.3828 20.5137 48.0156 20.5137C48.6484 20.5137 49.2812 20.5137 49.9141 20.5137C49.9141 21.1465 49.9141 21.7793 49.9141 22.4121C49.2812 22.4121 48.6484 22.4121 48.0156 22.4121C47.3828 22.4121 46.75 22.4121 46.1172 22.4121C46.1172 21.7793 46.1172 21.1465 46.1172 20.5137Z" fill="#14629B"/>
<path opacity="0.949" fill-rule="evenodd" clip-rule="evenodd" d="M46.116 22.4121C46.7488 22.4121 47.3816 22.4121 48.0144 22.4121C48.0144 28.4942 48.0144 34.5761 48.0144 40.6582C47.3853 40.0819 46.7701 39.4843 46.1687 38.8652C46.116 33.381 46.0984 27.8966 46.116 22.4121Z" fill="#4398D1"/>
<path fill-rule="evenodd" clip-rule="evenodd" d="M48.0156 22.4121C48.6484 22.4121 49.2812 22.4121 49.9141 22.4121C49.9317 27.9317 49.9141 33.4513 49.8613 38.9707C49.2605 39.6278 48.6452 40.1903 48.0156 40.6582C48.0156 34.5761 48.0156 28.4942 48.0156 22.4121Z" fill="#3E8CC7"/>
<path opacity="0.999" fill-rule="evenodd" clip-rule="evenodd" d="M0.447266 11.3379C3.47071 11.3379 6.49414 11.3379 9.51758 11.3379C14.7559 11.3379 19.9941 11.3379 25.2324 11.3379C24.5394 12.8471 23.8011 14.3412 23.0176 15.8203C24.0556 15.8382 25.0752 15.891 26.0762 15.9785C24.3535 15.9785 22.6308 15.9785 20.9082 15.9785C15.3184 15.9785 9.72852 15.9785 4.13867 15.9785C4.13867 18.4043 4.13867 20.8301 4.13867 23.2559C5.96679 23.2559 7.79493 23.2559 9.62305 23.2559C15.1074 23.2559 20.5918 23.2559 26.0762 23.2559C23.8441 23.3436 21.5942 23.3963 19.3262 23.4141C18.461 25.1971 17.5821 26.9725 16.6895 28.7402C16.4434 28.7402 16.1972 28.7402 15.9512 28.7402C15.9512 29.2676 15.9512 29.7949 15.9512 30.3223C15.2381 31.5819 14.6053 32.8827 14.0527 34.2246C12.8575 34.2246 11.6621 34.2246 10.4668 34.2246C10.4322 35.4739 10.4673 36.7044 10.5723 37.916C11.7675 37.916 12.9629 37.916 14.1582 37.916C13.5093 38.0033 12.8412 38.0561 12.1543 38.0742C11.8177 38.5714 11.5366 39.0987 11.3105 39.6562C12.2783 39.6742 13.2275 39.7269 14.1582 39.8145C12.9629 39.8145 11.7675 39.8145 10.5723 39.8145C10.4681 40.3566 10.4329 40.9191 10.4668 41.502C9.7845 42.6908 9.18684 43.9213 8.67383 45.1934C7.44336 45.1934 6.21289 45.1934 4.98242 45.1934C4.9478 46.4426 4.98296 47.6731 5.08789 48.8848C6.2832 48.8848 7.47852 48.8848 8.67383 48.8848C8.02212 48.9551 7.35415 49.0254 6.66992 49.0957C5.90403 50.5567 5.2009 52.0332 4.56055 53.5254C3.18945 53.5254 1.81836 53.5254 0.447266 53.5254C0.447266 39.4629 0.447266 25.4004 0.447266 11.3379Z" fill="#4498D0"/>
<path fill-rule="evenodd" clip-rule="evenodd" d="M25.2324 11.3379C26.7441 11.3379 28.2559 11.3379 29.7676 11.3379C29.7676 11.9707 29.7676 12.6035 29.7676 13.2363C29.7676 13.834 29.7676 14.4316 29.7676 15.0293C29.7676 16.2598 29.7676 17.4902 29.7676 18.7207C29.7676 19.3184 29.7676 19.916 29.7676 20.5137C29.7676 21.7442 29.7676 22.9746 29.7676 24.2051C29.7676 24.8028 29.7676 25.4004 29.7676 25.998C29.7676 27.2286 29.7676 28.459 29.7676 29.6895C29.7676 30.2871 29.7676 30.8847 29.7676 31.4824C29.7676 32.7129 29.7676 33.9433 29.7676 35.1738C29.7676 35.7715 29.7676 36.3691 29.7676 36.9668C29.7676 38.1973 29.7676 39.4277 29.7676 40.6582C29.7676 41.291 29.7676 41.9238 29.7676 42.5566C29.7676 43.7871 29.7676 45.0175 29.7676 46.248C29.7676 48.6738 29.7676 51.0996 29.7676 53.5254C21.3652 53.5254 12.9629 53.5254 4.56055 53.5254C5.2009 52.0332 5.90403 50.5567 6.66992 49.0957C7.35415 49.0254 8.02212 48.9551 8.67383 48.8848C8.67383 47.6895 8.67383 46.4941 8.67383 45.2988C8.67383 45.2637 8.67383 45.2285 8.67383 45.1934C9.18684 43.9213 9.7845 42.6908 10.4668 41.502C10.4668 42.1699 10.4668 42.8379 10.4668 43.5059C11.7161 43.5405 12.9466 43.5053 14.1582 43.4004C14.1582 42.2051 14.1582 41.0097 14.1582 39.8145C13.2275 39.7269 12.2783 39.6742 11.3105 39.6562C11.5366 39.0987 11.8177 38.5714 12.1543 38.0742C12.8412 38.0561 13.5093 38.0033 14.1582 37.916C14.1582 36.7207 14.1582 35.5254 14.1582 34.3301C14.1582 34.2597 14.1231 34.2246 14.0527 34.2246C14.6053 32.8827 15.2381 31.5819 15.9512 30.3223C15.917 31.0451 15.9521 31.7483 16.0566 32.4316C17.2519 32.4316 18.4473 32.4316 19.6426 32.4316C19.6426 31.2364 19.6426 30.041 19.6426 28.8457C18.6773 28.7409 17.693 28.7057 16.6895 28.7402C17.5821 26.9725 18.461 25.1971 19.3262 23.4141C21.5942 23.3963 23.8441 23.3436 26.0762 23.2559C26.0762 20.8301 26.0762 18.4043 26.0762 15.9785C25.0752 15.891 24.0556 15.8382 23.0176 15.8203C23.8011 14.3412 24.5394 12.8471 25.2324 11.3379Z" fill="#408CC6"/>
<path fill-rule="evenodd" clip-rule="evenodd" d="M20.9082 15.9785C19.3271 17.0477 17.7276 18.1023 16.1094 19.1426C16.0872 18.9783 16.0345 18.8377 15.9512 18.7207C15.3535 18.7207 14.7559 18.7207 14.1582 18.7207C14.1582 19.2832 14.1582 19.8457 14.1582 20.4082C12.6178 21.3165 11.1061 22.2657 9.62305 23.2559C7.79493 23.2559 5.96679 23.2559 4.13867 23.2559C4.13867 20.8301 4.13867 18.4043 4.13867 15.9785C9.72852 15.9785 15.3184 15.9785 20.9082 15.9785Z" fill="#86CDD8"/>
<path fill-rule="evenodd" clip-rule="evenodd" d="M20.9082 15.9785C22.6308 15.9785 24.3536 15.9785 26.0762 15.9785C26.0762 18.4043 26.0762 20.8301 26.0762 23.2559C20.5918 23.2559 15.1074 23.2559 9.62305 23.2559C11.1061 22.2657 12.6178 21.3165 14.1582 20.4082C14.7356 20.5125 15.3333 20.5476 15.9512 20.5137C15.9512 19.916 15.9512 19.3184 15.9512 18.7207C16.0345 18.8377 16.0872 18.9783 16.1094 19.1426C17.7276 18.1023 19.3271 17.0477 20.9082 15.9785Z" fill="#6BBAC7"/>
<path fill-rule="evenodd" clip-rule="evenodd" d="M10.5723 18.7207C11.17 18.7207 11.7675 18.7207 12.3652 18.7207C12.3652 19.3184 12.3652 19.916 12.3652 20.5137C11.7675 20.5137 11.17 20.5137 10.5723 20.5137C10.5723 19.916 10.5723 19.3184 10.5723 18.7207Z" fill="#3E8CC7"/>
<path fill-rule="evenodd" clip-rule="evenodd" d="M15.9512 18.7207C15.9512 19.3184 15.9512 19.916 15.9512 20.5137C15.3333 20.5476 14.7356 20.5125 14.1582 20.4082C14.1582 19.8457 14.1582 19.2832 14.1582 18.7207C14.7559 18.7207 15.3535 18.7207 15.9512 18.7207Z" fill="#3E8CC7"/>
<path fill-rule="evenodd" clip-rule="evenodd" d="M17.8496 18.7207C18.4473 18.7207 19.0449 18.7207 19.6426 18.7207C19.6426 19.3184 19.6426 19.916 19.6426 20.5137C19.0449 20.5137 18.4473 20.5137 17.8496 20.5137C17.8496 19.916 17.8496 19.3184 17.8496 18.7207Z" fill="#3E8CC7"/>
<path fill-rule="evenodd" clip-rule="evenodd" d="M21.541 18.7207C22.1387 18.7207 22.7363 18.7207 23.334 18.7207C23.334 19.3184 23.334 19.916 23.334 20.5137C22.7363 20.5137 22.1387 20.5137 21.541 20.5137C21.541 19.916 21.541 19.3184 21.541 18.7207Z" fill="#3E8CC7"/>
<path fill-rule="evenodd" clip-rule="evenodd" d="M8.67304 28.8459C7.47773 28.8459 6.28241 28.8459 5.0871 28.8459C5.0871 30.0412 5.0871 31.2365 5.0871 32.4318C4.98217 31.2202 4.94701 29.9897 4.98163 28.7404C6.23094 28.7058 7.46142 28.7409 8.67304 28.8459Z" fill="#BAA272"/>
<path fill-rule="evenodd" clip-rule="evenodd" d="M8.67383 28.8457C8.67383 30.041 8.67383 31.2364 8.67383 32.4316C7.47852 32.4316 6.2832 32.4316 5.08789 32.4316C5.08789 31.2364 5.08789 30.041 5.08789 28.8457C6.2832 28.8457 7.47852 28.8457 8.67383 28.8457Z" fill="#FEA83C"/>
<path fill-rule="evenodd" clip-rule="evenodd" d="M14.1574 28.8459C12.9621 28.8459 11.7668 28.8459 10.5715 28.8459C10.5715 30.0412 10.5715 31.2365 10.5715 32.4318C10.4665 31.2202 10.4314 29.9897 10.466 28.7404C11.7153 28.7058 12.9458 28.7409 14.1574 28.8459Z" fill="#AEA17C"/>
<path fill-rule="evenodd" clip-rule="evenodd" d="M14.1582 28.8457C14.1582 30.041 14.1582 31.2364 14.1582 32.4316C12.9629 32.4316 11.7675 32.4316 10.5723 32.4316C10.5723 31.2364 10.5723 30.041 10.5723 28.8457C11.7675 28.8457 12.9629 28.8457 14.1582 28.8457Z" fill="#FEA83C"/>
<path fill-rule="evenodd" clip-rule="evenodd" d="M19.6426 28.8457C19.6426 30.041 19.6426 31.2364 19.6426 32.4316C18.4473 32.4316 17.2519 32.4316 16.0566 32.4316C16.0566 31.2364 16.0566 30.041 16.0566 28.8457C17.2519 28.8457 18.4473 28.8457 19.6426 28.8457Z" fill="#FEA83C"/>
<path fill-rule="evenodd" clip-rule="evenodd" d="M25.1262 32.4316C25.1262 31.2364 25.1262 30.041 25.1262 28.8457C23.9309 28.8457 22.7355 28.8457 21.5402 28.8457C21.5402 30.041 21.5402 31.2364 21.5402 32.4316C21.4353 31.22 21.4002 29.9895 21.4347 28.7402C22.7004 28.7402 23.966 28.7402 25.2316 28.7402C25.2662 29.9895 25.2311 31.22 25.1262 32.4316Z" fill="#95988A"/>
<path fill-rule="evenodd" clip-rule="evenodd" d="M25.127 32.4316C23.9317 32.4316 22.7363 32.4316 21.541 32.4316C21.541 31.2364 21.541 30.041 21.541 28.8457C22.7363 28.8457 23.9317 28.8457 25.127 28.8457C25.127 30.041 25.127 31.2364 25.127 32.4316Z" fill="#FEA83C"/>
<path fill-rule="evenodd" clip-rule="evenodd" d="M16.6884 28.7404C17.692 28.7059 18.6763 28.741 19.6415 28.8458C18.4463 28.8458 17.2509 28.8458 16.0556 28.8458C16.0556 30.0411 16.0556 31.2365 16.0556 32.4318C15.9511 31.7484 15.916 31.0453 15.9501 30.3224C15.9501 29.795 15.9501 29.2677 15.9501 28.7404C16.1962 28.7404 16.4424 28.7404 16.6884 28.7404Z" fill="#A59C7F"/>
<path fill-rule="evenodd" clip-rule="evenodd" d="M8.67304 34.3303C7.47773 34.3303 6.28241 34.3303 5.0871 34.3303C5.0871 35.5255 5.0871 36.7209 5.0871 37.9162C4.98217 36.7046 4.94701 35.4741 4.98163 34.2248C6.23094 34.1902 7.46142 34.2253 8.67304 34.3303Z" fill="#B4A177"/>
<path fill-rule="evenodd" clip-rule="evenodd" d="M8.67383 34.3301C8.67383 35.5254 8.67383 36.7207 8.67383 37.916C7.47852 37.916 6.2832 37.916 5.08789 37.916C5.08789 36.7207 5.08789 35.5254 5.08789 34.3301C6.2832 34.3301 7.47852 34.3301 8.67383 34.3301Z" fill="#FEA83C"/>
<path fill-rule="evenodd" clip-rule="evenodd" d="M14.0519 34.2246C14.1223 34.2246 14.1574 34.2597 14.1574 34.3301C12.9621 34.3301 11.7668 34.3301 10.5715 34.3301C10.5715 35.5254 10.5715 36.7207 10.5715 37.916C10.4665 36.7044 10.4314 35.4739 10.466 34.2246C11.6613 34.2246 12.8567 34.2246 14.0519 34.2246Z" fill="#A8A081"/>
<path fill-rule="evenodd" clip-rule="evenodd" d="M14.1582 34.3301C14.1582 35.5254 14.1582 36.7207 14.1582 37.916C12.9629 37.916 11.7675 37.916 10.5723 37.916C10.5723 36.7207 10.5723 35.5254 10.5723 34.3301C11.7675 34.3301 12.9629 34.3301 14.1582 34.3301Z" fill="#FEA83C"/>
<path fill-rule="evenodd" clip-rule="evenodd" d="M19.6418 34.3303C18.4465 34.3303 17.2511 34.3303 16.0558 34.3303C16.0558 35.5255 16.0558 36.7209 16.0558 37.9162C15.9509 36.7046 15.9158 35.4741 15.9504 34.2248C17.1997 34.1902 18.4302 34.2253 19.6418 34.3303Z" fill="#9E9982"/>
<path fill-rule="evenodd" clip-rule="evenodd" d="M19.6426 34.3301C19.6426 35.5254 19.6426 36.7207 19.6426 37.916C18.4473 37.916 17.2519 37.916 16.0566 37.916C16.0566 36.7207 16.0566 35.5254 16.0566 34.3301C17.2519 34.3301 18.4473 34.3301 19.6426 34.3301Z" fill="#FEA83C"/>
<path fill-rule="evenodd" clip-rule="evenodd" d="M25.1262 37.916C25.1262 36.7207 25.1262 35.5254 25.1262 34.3301C23.9309 34.3301 22.7355 34.3301 21.5402 34.3301C21.5402 35.5254 21.5402 36.7207 21.5402 37.916C21.4353 36.7044 21.4002 35.4739 21.4347 34.2246C22.7004 34.2246 23.966 34.2246 25.2316 34.2246C25.2662 35.4739 25.2311 36.7044 25.1262 37.916Z" fill="#90988D"/>
<path fill-rule="evenodd" clip-rule="evenodd" d="M25.127 37.916C23.9317 37.916 22.7363 37.916 21.541 37.916C21.541 36.7207 21.541 35.5254 21.541 34.3301C22.7363 34.3301 23.9317 34.3301 25.127 34.3301C25.127 35.5254 25.127 36.7207 25.127 37.916Z" fill="#FEA83C"/>
<path fill-rule="evenodd" clip-rule="evenodd" d="M8.67304 39.8146C7.47773 39.8146 6.28241 39.8146 5.0871 39.8146C5.0871 41.0099 5.0871 42.2053 5.0871 43.4006C4.98217 42.1889 4.94701 40.9584 4.98163 39.7092C6.23094 39.6746 7.46142 39.7097 8.67304 39.8146Z" fill="#B1A17A"/>
<path fill-rule="evenodd" clip-rule="evenodd" d="M8.67383 39.8145C8.67383 41.0097 8.67383 42.2051 8.67383 43.4004C7.47852 43.4004 6.2832 43.4004 5.08789 43.4004C5.08789 42.2051 5.08789 41.0097 5.08789 39.8145C6.2832 39.8145 7.47852 39.8145 8.67383 39.8145Z" fill="#FEA83C"/>
<path fill-rule="evenodd" clip-rule="evenodd" d="M10.5723 39.8145C11.7675 39.8145 12.9629 39.8145 14.1582 39.8145C14.1582 41.0097 14.1582 42.2051 14.1582 43.4004C12.9629 43.4004 11.7675 43.4004 10.5723 43.4004C10.5723 42.2051 10.5723 41.0097 10.5723 39.8145Z" fill="#FEA83C"/>
<path fill-rule="evenodd" clip-rule="evenodd" d="M16.0566 39.8145C17.2519 39.8145 18.4473 39.8145 19.6426 39.8145C19.6426 41.0097 19.6426 42.2051 19.6426 43.4004C18.4473 43.4004 17.2519 43.4004 16.0566 43.4004C16.0566 42.2051 16.0566 41.0097 16.0566 39.8145Z" fill="#FEA83C"/>
<path fill-rule="evenodd" clip-rule="evenodd" d="M21.541 39.8145C22.7363 39.8145 23.9317 39.8145 25.127 39.8145C25.127 42.8379 25.127 45.8613 25.127 48.8848C23.9317 48.8848 22.7363 48.8848 21.541 48.8848C21.541 45.8613 21.541 42.8379 21.541 39.8145Z" fill="#DD4C3B"/>
<path fill-rule="evenodd" clip-rule="evenodd" d="M10.5711 39.8145C10.5711 41.0097 10.5711 42.2051 10.5711 43.4004C11.7664 43.4004 12.9617 43.4004 14.157 43.4004C12.9454 43.5053 11.7149 43.5405 10.4656 43.5059C10.4656 42.8379 10.4656 42.1699 10.4656 41.502C10.4317 40.9191 10.4669 40.3566 10.5711 39.8145Z" fill="#80959B"/>
<path fill-rule="evenodd" clip-rule="evenodd" d="M8.67304 45.1934C8.67304 45.2285 8.67304 45.2637 8.67304 45.2988C7.47773 45.2988 6.28241 45.2988 5.0871 45.2988C5.0871 46.4941 5.0871 47.6895 5.0871 48.8848C4.98217 47.6731 4.94701 46.4426 4.98163 45.1934C6.21211 45.1934 7.44257 45.1934 8.67304 45.1934Z" fill="#ADA07D"/>
<path fill-rule="evenodd" clip-rule="evenodd" d="M8.67383 45.2988C8.67383 46.4941 8.67383 47.6895 8.67383 48.8848C7.47852 48.8848 6.2832 48.8848 5.08789 48.8848C5.08789 47.6895 5.08789 46.4941 5.08789 45.2988C6.2832 45.2988 7.47852 45.2988 8.67383 45.2988Z" fill="#FEA83C"/>
<path fill-rule="evenodd" clip-rule="evenodd" d="M16.0566 45.2988C17.2519 45.2988 18.4473 45.2988 19.6426 45.2988C19.6426 46.4941 19.6426 47.6895 19.6426 48.8848C18.4473 48.8848 17.2519 48.8848 16.0566 48.8848C16.0566 47.6895 16.0566 46.4941 16.0566 45.2988Z" fill="#FEA83C"/>
<path fill-rule="evenodd" clip-rule="evenodd" d="M10.5715 45.2988C10.5715 46.4941 10.5715 47.6895 10.5715 48.8848C11.7668 48.8848 12.9621 48.8848 14.1574 48.8848C12.9458 48.9897 11.7153 49.0248 10.466 48.9902C10.4314 47.741 10.4665 46.5105 10.5715 45.2988Z" fill="#869694"/>
</g>
<defs>
<clipPath id="clip0_711_18374">
<rect width="54" height="54" fill="white" transform="translate(0.5)"/>
</clipPath>
</defs>
</svg>
