<svg width="70" height="56" viewBox="0 0 70 56" fill="none" xmlns="http://www.w3.org/2000/svg">
<path d="M61.3978 46.157C61.3978 46.4801 61.2864 46.7196 61.0636 46.8756C60.8519 47.0315 60.6124 47.1819 60.345 47.3268C60.0776 47.4605 59.8325 47.622 59.6097 47.8114C59.398 48.0008 59.2922 48.2849 59.2922 48.6637C59.2922 48.8642 59.3367 49.0369 59.4258 49.1817C59.5261 49.3266 59.6431 49.4603 59.7768 49.5828C59.9216 49.6942 60.0776 49.8112 60.2447 49.9338C60.4118 50.0563 60.5622 50.1956 60.6959 50.3515C60.8407 50.5075 60.9577 50.6969 61.0469 50.9197C61.1471 51.1425 61.1973 51.4155 61.1973 51.7386C61.1973 52.2065 61.0747 52.6689 60.8296 53.1256C60.5956 53.5713 60.2893 53.9724 59.9105 54.3289C59.5428 54.6742 59.125 54.9528 58.6571 55.1644C58.1892 55.3761 57.7269 55.4819 57.2701 55.4819C57.0807 55.4819 56.8913 55.4652 56.7019 55.4318C56.5125 55.4095 56.3398 55.3594 56.1838 55.2814C56.039 55.2034 55.9164 55.0976 55.8162 54.9639C55.7159 54.8191 55.6658 54.6352 55.6658 54.4124C55.6658 54.1005 55.7271 53.8609 55.8496 53.6938C55.9722 53.5156 56.1281 53.3763 56.3175 53.276C56.5069 53.1758 56.7075 53.0978 56.9191 53.0421C57.142 52.9864 57.3481 52.9195 57.5375 52.8415C57.7269 52.7524 57.8828 52.641 58.0054 52.5073C58.1279 52.3736 58.1892 52.1842 58.1892 51.9391C58.1892 51.7052 58.0945 51.4656 57.9051 51.2205C57.7269 50.9643 57.5263 50.6969 57.3035 50.4184C57.0807 50.1287 56.8746 49.8223 56.6852 49.4993C56.5069 49.1762 56.4178 48.8197 56.4178 48.4297C56.4178 47.9507 56.5125 47.5106 56.7019 47.1095C56.9024 46.6973 57.1642 46.3408 57.4873 46.04C57.8215 45.7392 58.2003 45.5052 58.6237 45.3381C59.0471 45.1599 59.4927 45.0707 59.9606 45.0707C60.1389 45.0707 60.3116 45.0874 60.4787 45.1209C60.6569 45.1543 60.8129 45.2156 60.9466 45.3047C61.0803 45.3827 61.1861 45.4941 61.2641 45.6389C61.3532 45.7726 61.3978 45.9453 61.3978 46.157Z" fill="#004480"/>
<path d="M55.8329 52.3736C55.8329 52.7524 55.7103 53.1256 55.4652 53.4933C55.2313 53.8498 54.9305 54.1729 54.5628 54.4626C54.2063 54.7411 53.8219 54.9695 53.4097 55.1477C52.9975 55.3148 52.6187 55.3984 52.2734 55.3984C51.6829 55.3984 51.1537 55.2536 50.6858 54.9639C50.229 54.6631 49.8446 54.2843 49.5327 53.8275C49.2207 53.3707 48.9812 52.8694 48.8141 52.3235C48.6581 51.7664 48.5801 51.2261 48.5801 50.7025C48.5801 50.1454 48.6581 49.5494 48.8141 48.9144C48.9701 48.2793 49.204 47.6944 49.516 47.1597C49.8391 46.6249 50.2401 46.1793 50.7192 45.8227C51.2094 45.4662 51.7887 45.288 52.4572 45.288C52.836 45.288 53.1981 45.3548 53.5434 45.4885C53.8888 45.6111 54.1896 45.7893 54.4458 46.0233C54.7021 46.2572 54.9082 46.5358 55.0642 46.8589C55.2201 47.1819 55.2981 47.544 55.2981 47.9451C55.2981 48.4687 55.1867 48.9589 54.9639 49.4157C54.7411 49.8725 54.4458 50.268 54.0782 50.6022C53.7105 50.9364 53.2872 51.2094 52.8081 51.4211C52.3291 51.6216 51.8389 51.733 51.3375 51.7553C51.3821 52.0784 51.5102 52.3123 51.7219 52.4572C51.9447 52.602 52.2065 52.6744 52.5073 52.6744C52.7301 52.6744 52.9474 52.6187 53.1591 52.5073C53.3707 52.3959 53.5768 52.2734 53.7774 52.1397C53.9779 51.9948 54.1729 51.8667 54.3623 51.7553C54.5628 51.6439 54.7634 51.5882 54.9639 51.5882C55.1867 51.5882 55.3873 51.6606 55.5655 51.8054C55.7438 51.9503 55.8329 52.1397 55.8329 52.3736ZM53.1256 48.2793C53.1256 48.1345 53.0866 47.9841 53.0087 47.8281C52.9307 47.6721 52.8081 47.5942 52.641 47.5942C52.3959 47.5942 52.1898 47.661 52.0227 47.7947C51.8556 47.9172 51.7163 48.0788 51.6049 48.2793C51.4935 48.4687 51.4044 48.6748 51.3375 48.8976C51.2818 49.1205 51.2484 49.3266 51.2372 49.516C51.3932 49.4825 51.577 49.438 51.7887 49.3823C52.0115 49.3266 52.2177 49.2542 52.407 49.165C52.6076 49.0648 52.7747 48.9422 52.9084 48.7974C53.0532 48.6525 53.1256 48.4799 53.1256 48.2793Z" fill="#004480"/>
<path d="M47.895 48.9311C47.895 48.9868 47.8894 49.048 47.8782 49.1149C47.8671 49.1706 47.8504 49.2263 47.8281 49.282C47.7278 49.5383 47.5719 49.7555 47.3602 49.9338C47.1485 50.1009 46.8978 50.1844 46.6082 50.1844C46.1737 50.1844 45.8784 49.9672 45.7225 49.5327C45.7002 49.477 45.6891 49.4157 45.6891 49.3489C45.6891 49.2709 45.6835 49.1929 45.6723 49.1149V48.6303C45.6501 48.4743 45.6111 48.3517 45.5554 48.2626C45.4997 48.1735 45.405 48.1289 45.2713 48.1289C45.0819 48.1289 44.898 48.2515 44.7198 48.4966C44.5527 48.7305 44.4023 49.0146 44.2686 49.3489C44.146 49.6719 44.0458 50.0062 43.9678 50.3515C43.8898 50.6969 43.8508 50.9754 43.8508 51.1871C43.8508 51.3542 43.8619 51.5603 43.8842 51.8054C43.9065 52.0394 43.9511 52.2678 44.0179 52.4906C44.0848 52.7134 44.1739 52.9084 44.2853 53.0755C44.4078 53.2315 44.5638 53.3095 44.7532 53.3095C44.9426 53.3095 45.1153 53.2538 45.2713 53.1423C45.4384 53.0198 45.5999 52.8805 45.7559 52.7246C45.9007 52.5909 46.0567 52.4516 46.2238 52.3068C46.4021 52.1619 46.6026 52.0895 46.8254 52.0895C47.104 52.0895 47.3212 52.1898 47.4772 52.3903C47.6443 52.5909 47.7278 52.8193 47.7278 53.0755C47.7278 53.4543 47.6276 53.8108 47.427 54.145C47.2265 54.4681 46.9758 54.7522 46.675 54.9973C46.3742 55.2313 46.04 55.4151 45.6723 55.5488C45.3047 55.6936 44.9537 55.766 44.6195 55.766C44.0179 55.766 43.5054 55.6156 43.0821 55.3148C42.6699 55.014 42.3356 54.6352 42.0794 54.1785C41.8231 53.7105 41.6393 53.2036 41.5279 52.6577C41.4165 52.1118 41.3608 51.5938 41.3608 51.1036C41.3608 50.5354 41.4388 49.9226 41.5948 49.2653C41.7507 48.5968 41.9903 47.9785 42.3133 47.4103C42.6364 46.8421 43.0486 46.3686 43.55 45.9899C44.0625 45.6111 44.6697 45.4217 45.3715 45.4217C45.806 45.4217 46.1793 45.5164 46.4912 45.7058C46.8143 45.8952 47.0761 46.1458 47.2766 46.4578C47.4883 46.7586 47.6443 47.0984 47.7446 47.4772C47.856 47.856 47.9117 48.2292 47.9117 48.5968C47.9117 48.6525 47.9117 48.7082 47.9117 48.764C47.9117 48.8197 47.9061 48.8754 47.895 48.9311Z" fill="#004480"/>
<path d="M40.3748 43.6837C40.3748 43.8397 40.3303 43.9789 40.2411 44.1015C40.1631 44.224 40.0573 44.3354 39.9236 44.4357C39.7899 44.5248 39.6451 44.5972 39.4891 44.6529C39.3331 44.6975 39.1883 44.7198 39.0546 44.7198C38.8318 44.7198 38.6368 44.6641 38.4697 44.5527C38.3026 44.4413 38.219 44.2686 38.219 44.0346C38.219 43.8675 38.258 43.7227 38.336 43.6001C38.4251 43.4664 38.531 43.3606 38.6535 43.2826C38.7761 43.1935 38.9154 43.1266 39.0713 43.0821C39.2273 43.0375 39.3777 43.0152 39.5225 43.0152C39.7342 43.0152 39.9292 43.0654 40.1074 43.1656C40.2857 43.2659 40.3748 43.4386 40.3748 43.6837ZM40.5085 49.3656C40.5085 49.5215 40.5085 49.6887 40.5085 49.8669C40.5085 50.034 40.5029 50.1956 40.4918 50.3515C40.4807 50.5409 40.4751 50.7972 40.4751 51.1203C40.4751 51.4322 40.4639 51.772 40.4417 52.1397C40.4194 52.5073 40.3804 52.8805 40.3247 53.2593C40.2801 53.6381 40.2021 53.9835 40.0907 54.2954C39.9793 54.6074 39.8289 54.8636 39.6395 55.0642C39.4613 55.2536 39.2329 55.3538 38.9543 55.365C38.7427 55.3761 38.5644 55.2926 38.4196 55.1143C38.2747 54.936 38.1522 54.7077 38.0519 54.4291C37.9628 54.1395 37.896 53.8219 37.8514 53.4766C37.8068 53.1201 37.7734 52.7803 37.7511 52.4572C37.7288 52.123 37.7177 51.8166 37.7177 51.5381C37.7177 51.2595 37.7177 51.0534 37.7177 50.9197C37.7177 50.7415 37.7177 50.4908 37.7177 50.1677C37.7177 49.8335 37.7288 49.477 37.7511 49.0982C37.7734 48.7194 37.8124 48.335 37.8681 47.9451C37.9349 47.5552 38.0241 47.1987 38.1355 46.8756C38.258 46.5525 38.414 46.2907 38.6034 46.0901C38.7928 45.8896 39.0323 45.7893 39.322 45.7893C39.6228 45.7893 39.8512 45.9397 40.0072 46.2405C40.1631 46.5413 40.2801 46.8923 40.3581 47.2933C40.4361 47.6944 40.4807 48.0955 40.4918 48.4966C40.5029 48.8865 40.5085 49.1762 40.5085 49.3656Z" fill="#004480"/>
<path d="M36.4978 49.3656C36.2081 50.1343 35.8906 50.9364 35.5452 51.772C35.1998 52.6076 34.8266 53.3875 34.4255 54.1116C34.1804 54.5573 33.9075 54.9305 33.6067 55.2313C33.3059 55.5209 32.9605 55.6658 32.5706 55.6658C32.2586 55.6658 31.9523 55.5098 31.6514 55.1979C31.3618 54.8748 31.0888 54.496 30.8326 54.0615C30.5875 53.6158 30.3702 53.1702 30.1808 52.7246C30.0026 52.2678 29.8689 51.9057 29.7798 51.6383C29.6906 51.3375 29.5904 51.0144 29.479 50.6691C29.3676 50.3237 29.2673 49.9727 29.1782 49.6162C29.089 49.2597 29.0166 48.9088 28.9609 48.5634C28.9052 48.2069 28.8774 47.8727 28.8774 47.5607C28.8774 47.1262 28.9553 46.7697 29.1113 46.4912C29.2673 46.2127 29.5737 46.0734 30.0304 46.0734C30.2087 46.0734 30.3702 46.1291 30.5151 46.2405C30.6599 46.3408 30.7936 46.4856 30.9161 46.675C31.0387 46.8644 31.1557 47.0872 31.2671 47.3435C31.3785 47.5886 31.4843 47.8615 31.5846 48.1623C31.6849 48.452 31.7796 48.7528 31.8687 49.0648C31.9578 49.3767 32.047 49.6775 32.1361 49.9672C32.2252 50.2568 32.3143 50.5409 32.4035 50.8195C32.5037 51.0868 32.6319 51.3542 32.7878 51.6216C32.8658 51.4211 32.9549 51.1927 33.0552 50.9364C33.1555 50.6802 33.2613 50.4072 33.3727 50.1176C33.4953 49.8279 33.6234 49.5327 33.7571 49.2319C33.8908 48.9199 34.0356 48.6191 34.1916 48.3295C34.4924 47.7278 34.8099 47.2154 35.1441 46.792C35.4895 46.3686 35.8293 46.157 36.1635 46.157C36.4755 46.157 36.6983 46.2517 36.832 46.4411C36.9657 46.6305 37.0325 46.8756 37.0325 47.1764C37.0325 47.4772 36.9824 47.817 36.8821 48.1958C36.7819 48.5746 36.6537 48.9645 36.4978 49.3656Z" fill="#004480"/>
<path d="M27.8747 49.0982C27.7187 49.1093 27.585 49.0982 27.4736 49.0648C27.3622 49.0202 27.2508 48.9756 27.1394 48.9311C27.0391 48.8865 26.9388 48.8475 26.8386 48.8141C26.7383 48.7695 26.6269 48.7528 26.5043 48.764C26.2815 48.7751 26.081 48.8364 25.9027 48.9478C25.7356 49.0592 25.5796 49.1985 25.4348 49.3656C25.3011 49.5327 25.1841 49.7221 25.0839 49.9338C24.9836 50.1343 24.9056 50.3348 24.8499 50.5354C24.8165 50.6691 24.7886 50.8752 24.7663 51.1537C24.7552 51.4211 24.7496 51.7107 24.7496 52.0227C24.7385 52.3458 24.7329 52.6521 24.7329 52.9418C24.7329 53.2315 24.7218 53.4599 24.6995 53.627C24.6884 53.8052 24.6605 54.0169 24.6159 54.262C24.5714 54.496 24.499 54.7188 24.3987 54.9305C24.3096 55.1422 24.187 55.3204 24.031 55.4652C23.8751 55.6101 23.6745 55.6825 23.4294 55.6825C23.24 55.6825 23.0729 55.6268 22.9281 55.5154C22.7944 55.404 22.6774 55.2591 22.5771 55.0809C22.488 54.8915 22.41 54.6742 22.3432 54.4291C22.2875 54.184 22.2429 53.9334 22.2095 53.6771C22.1761 53.4097 22.1482 53.1423 22.1259 52.875C22.1148 52.6076 22.1037 52.3569 22.0925 52.123C22.0925 51.8779 22.0925 51.655 22.0925 51.4545C22.1037 51.254 22.1092 51.0924 22.1092 50.9699C22.0981 50.5799 22.0758 50.19 22.0424 49.8001C22.0201 49.399 22.009 49.0035 22.009 48.6136C22.009 48.3685 22.0201 48.0955 22.0424 47.7947C22.0647 47.4939 22.1259 47.2154 22.2262 46.9591C22.3265 46.6917 22.4713 46.4689 22.6607 46.2907C22.8612 46.1124 23.1342 46.0233 23.4796 46.0233C23.669 46.0233 23.8305 46.0846 23.9642 46.2071C24.0979 46.3297 24.2037 46.4801 24.2817 46.6583C24.3708 46.8366 24.4377 47.026 24.4822 47.2265C24.5268 47.427 24.5547 47.6109 24.5658 47.778C24.8332 47.3435 25.134 46.9925 25.4682 46.7252C25.8024 46.4466 26.2369 46.2962 26.7717 46.274C27.0391 46.2628 27.3009 46.2907 27.5571 46.3575C27.8245 46.4132 28.0641 46.5135 28.2757 46.6583C28.4986 46.792 28.6768 46.9703 28.8105 47.1931C28.9553 47.4159 29.0333 47.6777 29.0445 47.9785C29.0667 48.335 28.9609 48.608 28.7269 48.7974C28.493 48.9868 28.2089 49.087 27.8747 49.0982Z" fill="#004480"/>
<path d="M21.4073 52.3736C21.4073 52.7524 21.2848 53.1256 21.0397 53.4933C20.8057 53.8498 20.5049 54.1729 20.1373 54.4626C19.7808 54.7411 19.3964 54.9695 18.9842 55.1477C18.572 55.3148 18.1932 55.3984 17.8478 55.3984C17.2573 55.3984 16.7281 55.2536 16.2602 54.9639C15.8034 54.6631 15.4191 54.2843 15.1071 53.8275C14.7952 53.3707 14.5557 52.8694 14.3885 52.3235C14.2326 51.7664 14.1546 51.2261 14.1546 50.7025C14.1546 50.1454 14.2326 49.5494 14.3885 48.9144C14.5445 48.2793 14.7785 47.6944 15.0904 47.1597C15.4135 46.6249 15.8146 46.1793 16.2936 45.8227C16.7838 45.4662 17.3632 45.288 18.0316 45.288C18.4104 45.288 18.7725 45.3548 19.1179 45.4885C19.4632 45.6111 19.7641 45.7893 20.0203 46.0233C20.2765 46.2572 20.4826 46.5358 20.6386 46.8589C20.7946 47.1819 20.8726 47.544 20.8726 47.9451C20.8726 48.4687 20.7612 48.9589 20.5383 49.4157C20.3155 49.8725 20.0203 50.268 19.6526 50.6022C19.285 50.9364 18.8616 51.2094 18.3826 51.4211C17.9035 51.6216 17.4133 51.733 16.912 51.7553C16.9565 52.0784 17.0847 52.3123 17.2963 52.4572C17.5191 52.602 17.781 52.6744 18.0818 52.6744C18.3046 52.6744 18.5218 52.6187 18.7335 52.5073C18.9452 52.3959 19.1513 52.2734 19.3518 52.1397C19.5524 51.9948 19.7473 51.8667 19.9367 51.7553C20.1373 51.6439 20.3378 51.5882 20.5383 51.5882C20.7612 51.5882 20.9617 51.6606 21.14 51.8054C21.3182 51.9503 21.4073 52.1397 21.4073 52.3736ZM18.7001 48.2793C18.7001 48.1345 18.6611 47.9841 18.5831 47.8281C18.5051 47.6721 18.3826 47.5942 18.2155 47.5942C17.9704 47.5942 17.7643 47.661 17.5971 47.7947C17.43 47.9172 17.2908 48.0788 17.1794 48.2793C17.0679 48.4687 16.9788 48.6748 16.912 48.8976C16.8563 49.1205 16.8228 49.3266 16.8117 49.516C16.9677 49.4825 17.1515 49.438 17.3632 49.3823C17.586 49.3266 17.7921 49.2542 17.9815 49.165C18.182 49.0648 18.3492 48.9422 18.4828 48.7974C18.6277 48.6525 18.7001 48.4799 18.7001 48.2793Z" fill="#004480"/>
<path d="M13.8204 43.6168C13.8204 43.8731 13.7368 44.0959 13.5697 44.2853C13.4137 44.4747 13.2243 44.6307 13.0015 44.7532C12.801 44.8758 12.5948 45.0095 12.3832 45.1543C12.1715 45.288 11.9765 45.444 11.7983 45.6222C11.62 45.7893 11.4752 45.9787 11.3638 46.1904C11.2524 46.4021 11.1967 46.6416 11.1967 46.909C11.1967 47.1429 11.2524 47.3546 11.3638 47.544C11.4752 47.7334 11.6089 47.9228 11.7648 48.1122C11.932 48.2905 12.1102 48.4799 12.2996 48.6804C12.5002 48.8698 12.6784 49.087 12.8344 49.3321C13.0015 49.5661 13.1408 49.8335 13.2522 50.1343C13.3636 50.4351 13.4193 50.786 13.4193 51.1871C13.4193 51.4656 13.358 51.7832 13.2355 52.1397C13.124 52.485 12.9681 52.836 12.7675 53.1925C12.567 53.549 12.3275 53.8944 12.0489 54.2286C11.7816 54.5628 11.4919 54.8636 11.1799 55.131C10.8791 55.3873 10.5616 55.5934 10.2274 55.7493C9.89317 55.9164 9.57008 56 9.25813 56C8.91276 56 8.60639 55.9053 8.339 55.7159C8.07162 55.5265 7.93793 55.2424 7.93793 54.8636C7.93793 54.6074 7.9992 54.3734 8.12176 54.1617C8.24431 53.9389 8.39471 53.7272 8.57296 53.5267C8.75122 53.3262 8.94619 53.1312 9.15786 52.9418C9.38068 52.7524 9.58122 52.563 9.75948 52.3736C9.93773 52.1842 10.0881 51.9893 10.2107 51.7887C10.3332 51.577 10.3945 51.3542 10.3945 51.1203C10.3945 50.7972 10.2775 50.4685 10.0436 50.1343C9.82075 49.7889 9.57008 49.438 9.29156 49.0815C9.01303 48.7138 8.75679 48.3406 8.52283 47.9618C8.30001 47.583 8.1886 47.1987 8.1886 46.8087C8.1886 46.3297 8.31672 45.8283 8.57296 45.3047C8.82921 44.7699 9.15786 44.2853 9.55894 43.8508C9.96001 43.4052 10.4112 43.0375 10.9126 42.7478C11.4139 42.4582 11.9097 42.3133 12.3999 42.3133C12.7898 42.3133 13.124 42.4303 13.4026 42.6643C13.6811 42.8982 13.8204 43.2158 13.8204 43.6168Z" fill="#004480"/>
<path d="M69.6867 36.8654C69.6867 37.2442 69.5641 37.6174 69.319 37.9851C69.0851 38.3416 68.7842 38.6647 68.4166 38.9543C68.0601 39.2329 67.6757 39.4613 67.2635 39.6395C66.8513 39.8066 66.4725 39.8902 66.1271 39.8902C65.5367 39.8902 65.0075 39.7454 64.5395 39.4557C64.0828 39.1549 63.6984 38.7761 63.3865 38.3193C63.0745 37.8625 62.835 37.3612 62.6679 36.8153C62.5119 36.2582 62.4339 35.7179 62.4339 35.1943C62.4339 34.6372 62.5119 34.0412 62.6679 33.4061C62.8238 32.7711 63.0578 32.1862 63.3697 31.6514C63.6928 31.1167 64.0939 30.671 64.573 30.3145C65.0632 29.958 65.6425 29.7798 66.311 29.7798C66.6897 29.7798 67.0518 29.8466 67.3972 29.9803C67.7426 30.1029 68.0434 30.2811 68.2996 30.5151C68.5559 30.749 68.762 31.0276 68.9179 31.3506C69.0739 31.6737 69.1519 32.0358 69.1519 32.4369C69.1519 32.9605 69.0405 33.4507 68.8177 33.9075C68.5949 34.3643 68.2996 34.7598 67.932 35.094C67.5643 35.4282 67.141 35.7012 66.6619 35.9129C66.1828 36.1134 65.6926 36.2248 65.1913 36.2471C65.2359 36.5702 65.364 36.8041 65.5757 36.949C65.7985 37.0938 66.0603 37.1662 66.3611 37.1662C66.5839 37.1662 66.8012 37.1105 67.0128 36.9991C67.2245 36.8877 67.4306 36.7651 67.6312 36.6315C67.8317 36.4866 68.0267 36.3585 68.2161 36.2471C68.4166 36.1357 68.6171 36.08 68.8177 36.08C69.0405 36.08 69.241 36.1524 69.4193 36.2972C69.5975 36.4421 69.6867 36.6315 69.6867 36.8654ZM66.9794 32.7711C66.9794 32.6263 66.9404 32.4759 66.8624 32.3199C66.7844 32.1639 66.6619 32.0859 66.4948 32.0859C66.2497 32.0859 66.0436 32.1528 65.8765 32.2865C65.7093 32.409 65.5701 32.5706 65.4587 32.7711C65.3473 32.9605 65.2581 33.1666 65.1913 33.3894C65.1356 33.6123 65.1022 33.8184 65.091 34.0078C65.247 33.9743 65.4308 33.9298 65.6425 33.8741C65.8653 33.8184 66.0714 33.7459 66.2608 33.6568C66.4614 33.5566 66.6285 33.434 66.7622 33.2892C66.907 33.1443 66.9794 32.9717 66.9794 32.7711Z" fill="#004480"/>
<path d="M61.5816 34.3253C61.5816 34.537 61.5816 34.8266 61.5816 35.1943C61.5816 35.5508 61.5705 35.9407 61.5482 36.3641C61.5371 36.7874 61.5036 37.2164 61.4479 37.6509C61.3922 38.0742 61.3031 38.4586 61.1805 38.8039C61.0691 39.1493 60.9243 39.4334 60.7461 39.6562C60.5678 39.879 60.3394 39.9905 60.0609 39.9905C59.8158 39.9905 59.6264 39.8902 59.4927 39.6896C59.3701 39.478 59.281 39.2329 59.2253 38.9543C59.1696 38.6758 59.1362 38.3917 59.125 38.1021C59.125 37.8124 59.125 37.584 59.125 37.4169C59.125 36.9156 59.1418 36.4253 59.1752 35.9463C59.2086 35.4672 59.2253 34.977 59.2253 34.4757C59.2253 34.42 59.2253 34.3197 59.2253 34.1749C59.2253 34.03 59.2142 33.8852 59.1919 33.7404C59.1696 33.5955 59.1306 33.4674 59.0749 33.356C59.0303 33.2446 58.9579 33.1889 58.8577 33.1889C58.6571 33.1889 58.4956 33.2947 58.373 33.5064C58.2505 33.707 58.1502 33.9465 58.0722 34.225C57.9942 34.5035 57.9385 34.7821 57.9051 35.0606C57.8717 35.328 57.8494 35.5285 57.8383 35.6622C57.816 35.807 57.7937 36.0243 57.7714 36.3139C57.7603 36.6036 57.738 36.9211 57.7046 37.2665C57.6823 37.6119 57.6377 37.9684 57.5709 38.336C57.5152 38.6925 57.4372 39.0212 57.3369 39.322C57.2478 39.6117 57.1308 39.8512 56.986 40.0406C56.8411 40.23 56.6629 40.3247 56.4512 40.3247C56.1838 40.3247 55.9777 40.2077 55.8329 39.9737C55.6881 39.7398 55.5822 39.4668 55.5154 39.1549C55.4485 38.8429 55.404 38.5254 55.3817 38.2023C55.3705 37.8792 55.365 37.6286 55.365 37.4503C55.365 37.2609 55.365 37.0771 55.365 36.8988C55.3761 36.7206 55.3817 36.5368 55.3817 36.3474C55.3817 36.2694 55.3817 36.1413 55.3817 35.963C55.3817 35.7847 55.3761 35.5898 55.365 35.3781C55.365 35.1553 55.3538 34.9269 55.3315 34.6929C55.3204 34.459 55.2981 34.2473 55.2647 34.0579C55.2313 33.8574 55.1811 33.6958 55.1143 33.5733C55.0475 33.4507 54.9695 33.3894 54.8803 33.3894C54.7355 33.3894 54.6018 33.4841 54.4793 33.6735C54.3567 33.8518 54.2509 34.069 54.1617 34.3253C54.0726 34.5704 54.0002 34.8155 53.9445 35.0606C53.8999 35.3057 53.8777 35.4839 53.8777 35.5953V35.6956C53.8777 36.2304 53.9111 36.754 53.9779 37.2665C54.0448 37.779 54.0782 38.3026 54.0782 38.8374C54.0782 39.1493 53.9779 39.439 53.7774 39.7064C53.5768 39.9626 53.2983 40.0907 52.9418 40.0907C52.6856 40.0907 52.4739 39.996 52.3068 39.8066C52.1397 39.6061 52.0004 39.3498 51.889 39.0379C51.7776 38.726 51.6885 38.3862 51.6216 38.0185C51.5659 37.6397 51.5269 37.2721 51.5046 36.9156C51.4823 36.5479 51.4656 36.2192 51.4545 35.9296C51.4545 35.6288 51.4545 35.406 51.4545 35.2611C51.4545 35.094 51.4489 34.8489 51.4378 34.5258C51.4378 34.2027 51.4434 33.8518 51.4545 33.473C51.4768 33.0942 51.5102 32.7098 51.5548 32.3199C51.5993 31.9188 51.6717 31.5568 51.772 31.2337C51.8723 30.9106 52.0004 30.6488 52.1564 30.4482C52.3235 30.2365 52.5352 30.1307 52.7914 30.1307C53.0811 30.1307 53.315 30.2087 53.4933 30.3647C53.6827 30.5206 53.7774 30.7546 53.7774 31.0665C53.7774 31.1334 53.7718 31.2002 53.7607 31.2671C53.7607 31.3339 53.7551 31.3952 53.744 31.4509C53.8665 31.2727 54.0169 31.0944 54.1952 30.9161C54.3734 30.7268 54.5628 30.5596 54.7634 30.4148C54.975 30.2588 55.1979 30.1363 55.4318 30.0472C55.6658 29.9469 55.8997 29.8967 56.1337 29.8967C56.3565 29.8967 56.5571 29.958 56.7353 30.0806C56.9136 30.2031 57.0695 30.3591 57.2032 30.5485C57.3369 30.7268 57.4483 30.9217 57.5375 31.1334C57.6266 31.3451 57.6879 31.5456 57.7213 31.735C57.8327 31.5345 57.9664 31.3339 58.1224 31.1334C58.2895 30.9217 58.4677 30.7379 58.6571 30.5819C58.8465 30.4259 59.0526 30.2978 59.2754 30.1976C59.5094 30.0973 59.7489 30.0472 59.994 30.0472C60.228 30.0472 60.4285 30.1307 60.5956 30.2978C60.7628 30.4649 60.9076 30.6822 61.0301 30.9496C61.1527 31.2058 61.2474 31.501 61.3142 31.8353C61.3811 32.1584 61.4368 32.4815 61.4814 32.8045C61.5259 33.1165 61.5538 33.4117 61.5649 33.6902C61.5761 33.9576 61.5816 34.1693 61.5816 34.3253Z" fill="#004480"/>
<path d="M46.9591 40.3247C46.3909 40.3247 45.8952 40.1743 45.4718 39.8735C45.0484 39.5727 44.6919 39.1883 44.4023 38.7204C44.1126 38.2525 43.8954 37.7344 43.7505 37.1662C43.6057 36.5869 43.5333 36.0187 43.5333 35.4617C43.5333 34.8712 43.6057 34.264 43.7505 33.6401C43.8954 33.0051 44.1182 32.4313 44.419 31.9188C44.7198 31.3952 45.1042 30.9719 45.5721 30.6488C46.04 30.3145 46.597 30.1474 47.2432 30.1474C47.8671 30.1474 48.3963 30.3201 48.8308 30.6655C49.2764 30.9997 49.6329 31.4231 49.9003 31.9355C50.1677 32.4369 50.3571 32.9884 50.4685 33.59C50.5799 34.1916 50.6189 34.7598 50.5855 35.2945C50.5521 35.885 50.4574 36.4811 50.3014 37.0827C50.1566 37.6843 49.9393 38.2246 49.6497 38.7037C49.36 39.1827 48.9923 39.5727 48.5467 39.8735C48.1011 40.1743 47.5719 40.3247 46.9591 40.3247ZM47.1262 32.7711C46.9591 32.7711 46.8087 32.8602 46.675 33.0385C46.5525 33.2168 46.4466 33.434 46.3575 33.6902C46.2795 33.9465 46.2182 34.2194 46.1737 34.5091C46.1291 34.7876 46.1068 35.0327 46.1068 35.2444C46.1068 35.5118 46.1291 35.8015 46.1737 36.1134C46.2294 36.4253 46.3018 36.715 46.3909 36.9824C46.4801 37.2386 46.5859 37.4559 46.7084 37.6341C46.8421 37.8013 46.9925 37.8848 47.1597 37.8848C47.3379 37.8848 47.4883 37.8013 47.6109 37.6341C47.7446 37.467 47.8504 37.2553 47.9284 36.9991C48.0064 36.7429 48.0621 36.4643 48.0955 36.1635C48.1289 35.8516 48.1456 35.5619 48.1456 35.2945C48.1456 35.0494 48.1233 34.7821 48.0788 34.4924C48.0342 34.1916 47.9674 33.9131 47.8782 33.6568C47.8003 33.4006 47.6944 33.1889 47.5607 33.0218C47.4382 32.8547 47.2933 32.7711 47.1262 32.7711Z" fill="#004480"/>
<path d="M42.681 30.2811C42.681 31.2058 42.6587 32.1361 42.6141 33.0719C42.5696 33.9966 42.5139 34.9213 42.447 35.846C42.4359 36.0131 42.4248 36.2415 42.4136 36.5312C42.4025 36.8097 42.3802 37.1161 42.3468 37.4503C42.3133 37.7734 42.2688 38.1021 42.2131 38.4363C42.1574 38.7705 42.0682 39.0769 41.9457 39.3554C41.8343 39.6228 41.6839 39.8401 41.4945 40.0072C41.3162 40.1854 41.0934 40.2745 40.826 40.2745C40.5921 40.2745 40.3804 40.2244 40.191 40.1241C40.0127 40.0239 39.8623 39.8958 39.7398 39.7398C39.6172 39.5727 39.5225 39.3888 39.4557 39.1883C39.3888 38.9766 39.3554 38.7594 39.3554 38.5366C39.3554 38.1689 39.3666 37.8013 39.3888 37.4336C39.4111 37.0548 39.4445 36.6816 39.4891 36.3139L37.8347 36.4811C37.8013 36.7707 37.7623 37.1217 37.7177 37.5339C37.6843 37.9349 37.6063 38.3249 37.4837 38.7037C37.3723 39.0713 37.1996 39.3888 36.9657 39.6562C36.7317 39.9236 36.4086 40.0573 35.9964 40.0573C35.7402 40.0573 35.5285 39.996 35.3614 39.8735C35.1943 39.7621 35.0606 39.6172 34.9603 39.439C34.86 39.2496 34.7876 39.0435 34.7431 38.8207C34.6985 38.5978 34.6762 38.3862 34.6762 38.1856C34.6762 37.5172 34.7041 36.8543 34.7598 36.197C34.8155 35.5285 34.8545 34.86 34.8768 34.1916C34.899 33.4897 34.9046 32.7878 34.8935 32.0859C34.8935 31.3729 34.9046 30.6599 34.9269 29.9469C34.938 29.7129 34.9436 29.44 34.9436 29.128C34.9547 28.8161 34.9937 28.5264 35.0606 28.259C35.1386 27.9805 35.2611 27.7465 35.4282 27.5571C35.6065 27.3678 35.8683 27.2731 36.2137 27.2731C36.6927 27.2731 37.0548 27.4012 37.2999 27.6574C37.545 27.9025 37.7177 28.2145 37.818 28.5933C37.9182 28.9609 37.9684 29.3564 37.9684 29.7798C37.9684 30.192 37.9684 30.5652 37.9684 30.8994C37.9684 31.3451 37.9572 31.7851 37.9349 32.2196C37.9127 32.643 37.8904 33.0719 37.8681 33.5064L39.6562 33.239C39.6674 32.6931 39.6785 32.1528 39.6896 31.618C39.7008 31.0833 39.7231 30.5485 39.7565 30.0137C39.7676 29.7575 39.7788 29.4845 39.7899 29.1949C39.8011 28.9052 39.8456 28.6378 39.9236 28.3927C40.0016 28.1476 40.1297 27.9471 40.308 27.7911C40.4974 27.624 40.7759 27.5404 41.1435 27.5404C41.4555 27.5404 41.7062 27.6296 41.8956 27.8078C42.0961 27.9861 42.2521 28.2033 42.3635 28.4596C42.486 28.7158 42.5696 28.9888 42.6141 29.2784C42.6587 29.5681 42.681 29.8299 42.681 30.0639V30.2811Z" fill="#004480"/>
<path d="M25.4014 44.7031C25.134 44.7031 24.8276 44.6585 24.4822 44.5694C24.148 44.4914 23.8305 44.3744 23.5297 44.2184C23.2289 44.0625 22.9726 43.8731 22.761 43.6502C22.5604 43.4274 22.4602 43.1712 22.4602 42.8815C22.4602 42.7701 22.488 42.6587 22.5437 42.5473C22.5994 42.4359 22.6718 42.3356 22.761 42.2465C22.8612 42.1685 22.9671 42.1017 23.0785 42.046C23.1899 42.0014 23.3069 41.9791 23.4294 41.9791C23.5631 41.9791 23.6912 41.9958 23.8138 42.0292C23.9475 42.0738 24.0812 42.1239 24.2149 42.1796C24.3597 42.2353 24.499 42.2855 24.6326 42.33C24.7775 42.3746 24.9279 42.3969 25.0839 42.3969C25.3624 42.3969 25.6019 42.3022 25.8024 42.1128C26.0141 41.9234 26.1924 41.6727 26.3372 41.3608C26.482 41.06 26.599 40.7202 26.6882 40.3414C26.7773 39.9737 26.8441 39.6061 26.8887 39.2384C26.9444 38.8708 26.9834 38.5254 27.0057 38.2023C27.028 37.8792 27.0447 37.6174 27.0558 37.4169C26.6659 38.0074 26.2759 38.4641 25.886 38.7872C25.5072 39.0992 25.0393 39.2551 24.4822 39.2551C24.0589 39.2551 23.6857 39.166 23.3626 38.9878C23.0506 38.8095 22.7833 38.5755 22.5604 38.2859C22.3376 37.9962 22.1538 37.6676 22.009 37.2999C21.8641 36.9211 21.7527 36.5312 21.6747 36.1301C21.6079 35.729 21.5633 35.3391 21.541 34.9603C21.5188 34.5704 21.5188 34.2139 21.541 33.8908C21.5522 33.6457 21.58 33.3282 21.6246 32.9382C21.6803 32.5371 21.7639 32.1472 21.8753 31.7684C21.9867 31.3896 22.1426 31.0721 22.3432 30.8159C22.5437 30.5485 22.8055 30.4259 23.1286 30.4482C23.3403 30.4594 23.513 30.5541 23.6467 30.7323C23.7804 30.8994 23.8862 31.1111 23.9642 31.3673C24.0533 31.6236 24.1146 31.9077 24.148 32.2196C24.1926 32.5204 24.2204 32.8212 24.2316 33.122C24.2427 33.4229 24.2427 33.7014 24.2316 33.9576C24.2316 34.2027 24.2316 34.3921 24.2316 34.5258C24.2316 34.7152 24.2371 34.9046 24.2483 35.094C24.2594 35.2834 24.2984 35.4561 24.3653 35.6121C24.4321 35.7569 24.5324 35.8739 24.6661 35.963C24.8109 36.0521 25.0114 36.0967 25.2677 36.0967C25.5573 36.0967 25.7857 36.0243 25.9529 35.8794C26.1311 35.7346 26.2592 35.5563 26.3372 35.3447C26.4263 35.1218 26.482 34.8879 26.5043 34.6428C26.5266 34.3865 26.5378 34.147 26.5378 33.9242C26.5378 33.7682 26.5378 33.5788 26.5378 33.356C26.5378 33.1332 26.5378 32.8992 26.5378 32.6541C26.5489 32.409 26.5712 32.1695 26.6046 31.9355C26.6492 31.6904 26.7104 31.4732 26.7884 31.2838C26.8776 31.0833 26.989 30.9217 27.1227 30.7992C27.2675 30.6766 27.4513 30.6153 27.6741 30.6153C27.9527 30.6153 28.1922 30.7267 28.3927 30.9496C28.5933 31.1612 28.7604 31.4453 28.8941 31.8018C29.0389 32.1472 29.1503 32.5316 29.2283 32.9549C29.3174 33.3783 29.3843 33.8016 29.4288 34.225C29.4734 34.6372 29.5012 35.0216 29.5124 35.3781C29.5347 35.7235 29.5458 35.9964 29.5458 36.197C29.5458 36.6649 29.5291 37.1996 29.4957 37.8012C29.4623 38.3917 29.3954 39.0045 29.2951 39.6395C29.206 40.2634 29.0667 40.8762 28.8774 41.4778C28.688 42.0905 28.4373 42.6364 28.1253 43.1155C27.8245 43.5945 27.4513 43.9789 27.0057 44.2686C26.56 44.5582 26.0253 44.7031 25.4014 44.7031Z" fill="#004480"/>
<path d="M21.1065 30.6488C21.1065 30.9719 20.9951 31.2114 20.7723 31.3674C20.5606 31.5233 20.3211 31.6737 20.0537 31.8186C19.7863 31.9523 19.5412 32.1138 19.3184 32.3032C19.1067 32.4926 19.0009 32.7767 19.0009 33.1555C19.0009 33.356 19.0455 33.5287 19.1346 33.6735C19.2349 33.8184 19.3518 33.9521 19.4855 34.0746C19.6304 34.186 19.7863 34.303 19.9534 34.4255C20.1206 34.5481 20.271 34.6874 20.4047 34.8433C20.5495 34.9993 20.6665 35.1887 20.7556 35.4115C20.8559 35.6343 20.906 35.9073 20.906 36.2304C20.906 36.6983 20.7834 37.1607 20.5383 37.6174C20.3044 38.0631 19.998 38.4641 19.6192 38.8207C19.2516 39.166 18.8338 39.4445 18.3659 39.6562C17.8979 39.8679 17.4356 39.9737 16.9788 39.9737C16.7894 39.9737 16.6 39.957 16.4106 39.9236C16.2212 39.9013 16.0485 39.8512 15.8926 39.7732C15.7477 39.6952 15.6252 39.5894 15.5249 39.4557C15.4247 39.3109 15.3745 39.127 15.3745 38.9042C15.3745 38.5923 15.4358 38.3527 15.5583 38.1856C15.6809 38.0074 15.8369 37.8681 16.0263 37.7678C16.2157 37.6676 16.4162 37.5896 16.6279 37.5339C16.8507 37.4782 17.0568 37.4113 17.2462 37.3333C17.4356 37.2442 17.5916 37.1328 17.7141 36.9991C17.8367 36.8654 17.8979 36.676 17.8979 36.4309C17.8979 36.197 17.8032 35.9574 17.6138 35.7123C17.4356 35.4561 17.2351 35.1887 17.0122 34.9102C16.7894 34.6205 16.5833 34.3141 16.3939 33.991C16.2157 33.668 16.1265 33.3115 16.1265 32.9215C16.1265 32.4425 16.2212 32.0024 16.4106 31.6013C16.6112 31.1891 16.873 30.8326 17.1961 30.5318C17.5303 30.231 17.9091 29.997 18.3324 29.8299C18.7558 29.6516 19.2014 29.5625 19.6694 29.5625C19.8476 29.5625 20.0203 29.5792 20.1874 29.6127C20.3657 29.6461 20.5216 29.7074 20.6553 29.7965C20.789 29.8745 20.8949 29.9859 20.9728 30.1307C21.062 30.2644 21.1065 30.4371 21.1065 30.6488Z" fill="#004480"/>
<path d="M15.2074 37.4837C15.2074 37.6843 15.1963 37.9461 15.174 38.2692C15.1628 38.5923 15.1183 38.9098 15.0403 39.2217C14.9623 39.5225 14.8398 39.7843 14.6726 40.0072C14.5055 40.23 14.2716 40.3414 13.9708 40.3414C13.5585 40.3414 13.241 40.2077 13.0182 39.9403C12.7954 39.6729 12.6895 39.3387 12.7007 38.9376C12.3442 39.2496 11.9375 39.4947 11.4808 39.6729C11.0351 39.8512 10.5783 39.9403 10.1104 39.9403C9.78733 39.9403 9.48095 39.8623 9.19129 39.7064C8.90162 39.5504 8.64538 39.3498 8.42256 39.1047C8.19974 38.8596 8.02149 38.5867 7.8878 38.2859C7.7541 37.9739 7.68726 37.6676 7.68726 37.3668C7.68726 36.832 7.8488 36.3641 8.17189 35.963C8.50612 35.5619 8.91276 35.2221 9.39182 34.9436C9.87089 34.6539 10.3778 34.4255 10.9126 34.2584C11.4585 34.0913 11.9431 33.9799 12.3665 33.9242C12.3665 33.8685 12.3665 33.8184 12.3665 33.7738C12.3776 33.7292 12.3832 33.6791 12.3832 33.6234C12.3832 33.278 12.2885 32.9995 12.0991 32.7878C11.9097 32.5761 11.6423 32.4703 11.2969 32.4703C11.0184 32.4703 10.7789 32.5204 10.5783 32.6207C10.3778 32.7098 10.1884 32.8157 10.0101 32.9382C9.83189 33.0496 9.65364 33.1555 9.47538 33.2557C9.29713 33.3449 9.09659 33.3894 8.87377 33.3894C8.62867 33.3894 8.41699 33.3115 8.23874 33.1555C8.07162 32.9995 7.98806 32.799 7.98806 32.5539C7.98806 32.1862 8.0939 31.852 8.30558 31.5512C8.5284 31.2504 8.80135 30.9997 9.12444 30.7992C9.45867 30.5875 9.81518 30.4259 10.194 30.3145C10.5839 30.192 10.9404 30.1307 11.2635 30.1307C11.5643 30.1307 11.8651 30.1697 12.1659 30.2477C12.4667 30.3145 12.7508 30.4259 13.0182 30.5819C13.2856 30.7268 13.5251 30.9106 13.7368 31.1334C13.9596 31.3451 14.1379 31.5957 14.2716 31.8854C14.4721 32.2976 14.6336 32.7377 14.7562 33.2056C14.8787 33.6624 14.9734 34.1359 15.0403 34.6261C15.1071 35.1051 15.1517 35.5898 15.174 36.08C15.1963 36.559 15.2074 37.027 15.2074 37.4837ZM12.5336 36.949L12.4834 35.8126C12.4612 35.8126 12.4389 35.8126 12.4166 35.8126C12.3943 35.8015 12.372 35.7959 12.3497 35.7959C12.2049 35.7959 12.0211 35.8349 11.7983 35.9129C11.5866 35.9797 11.3805 36.08 11.1799 36.2137C10.9794 36.3362 10.8067 36.4755 10.6619 36.6315C10.5282 36.7874 10.4614 36.949 10.4614 37.1161C10.4614 37.2721 10.5171 37.3779 10.6285 37.4336C10.7399 37.4893 10.868 37.5172 11.0128 37.5172C11.2579 37.5172 11.5197 37.4559 11.7983 37.3333C12.0768 37.1996 12.3219 37.0715 12.5336 36.949Z" fill="#004480"/>
<path d="M7.35303 37.2164C7.35303 37.428 7.29732 37.6341 7.18592 37.8347C7.07451 38.0241 6.81269 38.2469 6.40048 38.5031C5.98826 38.7594 5.53148 39.0045 5.03014 39.2384C4.5288 39.4613 4.04417 39.6562 3.57625 39.8233C3.10833 39.9793 2.76296 40.0573 2.54014 40.0573C2.38416 40.0573 2.20034 40.0183 1.98866 39.9403C1.77698 39.8735 1.5653 39.7843 1.35363 39.6729C1.14195 39.5615 0.946981 39.4334 0.768726 39.2886C0.601612 39.1437 0.479061 39.0045 0.401074 38.8708C0.356511 38.7928 0.311947 38.6368 0.267383 38.4029C0.23396 38.1689 0.200537 37.896 0.167114 37.584C0.144832 37.2721 0.12255 36.9434 0.100269 36.598C0.0779867 36.2415 0.0557048 35.9073 0.0334229 35.5953C0.0222819 35.2723 0.011141 34.9882 0 34.7431C0 34.498 0 34.3197 0 34.2083C0 33.7961 0.011141 33.3226 0.0334229 32.7878C0.0668457 32.2531 0.12255 31.7183 0.200537 31.1835C0.278524 30.6376 0.389933 30.1196 0.534766 29.6294C0.690739 29.128 0.896847 28.7047 1.15309 28.3593C1.23108 28.259 1.38705 28.1532 1.62101 28.0418C1.85497 27.9304 2.12792 27.8245 2.43987 27.7243C2.76296 27.624 3.10833 27.5293 3.47598 27.4402C3.84363 27.351 4.19457 27.2786 4.5288 27.2229C4.87417 27.1561 5.18611 27.1059 5.46464 27.0725C5.74316 27.028 5.95484 27.0057 6.09967 27.0057C6.26679 27.0057 6.42276 27.0447 6.56759 27.1227C6.72357 27.1895 6.85169 27.2842 6.95196 27.4067C7.06336 27.5293 7.14692 27.6686 7.20263 27.8245C7.26947 27.9694 7.3029 28.1253 7.3029 28.2925C7.3029 28.4373 7.28061 28.5598 7.23605 28.6601C7.20263 28.7604 7.14692 28.8718 7.06894 28.9943C6.95753 29.1392 6.72357 29.3118 6.36706 29.5124C6.01054 29.7129 5.62061 29.9135 5.19725 30.114C4.78504 30.3034 4.38397 30.4761 3.99403 30.6321C3.61524 30.788 3.34786 30.8994 3.19188 30.9663C3.14732 31.2225 3.09719 31.4843 3.04148 31.7517C2.99692 32.008 2.96349 32.2698 2.94121 32.5372C3.28658 32.3589 3.67651 32.1918 4.11101 32.0358C4.54551 31.8798 4.95772 31.8019 5.34766 31.8019C6.13867 31.8019 6.53417 32.1918 6.53417 32.9717C6.53417 33.161 6.49518 33.3282 6.41719 33.473C6.35034 33.6178 6.25565 33.7459 6.1331 33.8574C6.02169 33.9688 5.88799 34.069 5.73202 34.1582C5.58719 34.2362 5.44236 34.3141 5.29752 34.3921C4.94101 34.5815 4.56779 34.7486 4.17786 34.8935C3.78792 35.0272 3.39799 35.1609 3.00806 35.2945C2.98578 35.3837 2.96349 35.4839 2.94121 35.5953C2.91893 35.6956 2.90779 35.7959 2.90779 35.8962C2.90779 36.0521 2.91893 36.2081 2.94121 36.3641C2.96349 36.52 2.98578 36.676 3.00806 36.832C3.14175 36.7874 3.35343 36.715 3.64309 36.6147C3.9439 36.5145 4.25584 36.4142 4.57893 36.3139C4.90202 36.2137 5.21397 36.1301 5.51477 36.0633C5.81558 35.9853 6.0384 35.9463 6.18323 35.9463C6.35034 35.9463 6.50632 35.9853 6.65115 36.0633C6.79598 36.1301 6.91853 36.2248 7.0188 36.3474C7.11907 36.4588 7.19706 36.5925 7.25276 36.7484C7.31961 36.9044 7.35303 37.0604 7.35303 37.2164Z" fill="#004480"/>
<path fill-rule="evenodd" clip-rule="evenodd" d="M47.0647 4.06877C47.9661 6.31002 45.1271 10.3379 44.5394 12.5529C44.5394 12.5529 42.4945 12.8286 41.753 12.8559C45.9493 15.0595 47.5084 20.4903 49.5899 24.4132C49.1705 24.7806 48.7061 25.0837 48.1967 25.3222C48.7932 25.4255 53.1816 25.7624 53.2909 26.9237C53.316 27.1898 53.0731 27.5731 53.0731 27.5731L43.3203 27.4865C43.3203 27.4865 40.405 21.8633 38.9228 19.0457C38.3995 22.5188 36.9478 26.1092 33.6546 27.7462C26.764 27.9022 19.8636 27.7143 12.9717 27.7024C11.3456 27.6899 8.38297 27.7024 8.38297 27.7024C8.38297 27.7024 8.3231 25.8554 8.48871 24.8027C8.61614 23.9926 8.65498 23.5079 9.0111 22.7684C9.41361 21.9326 9.91047 21.4689 10.4916 20.907C10.9153 20.5824 11.3797 20.3659 11.8848 20.2576C11.1525 19.2278 11.6334 17.8152 12.9298 17.7038C11.2878 14.6101 14.3634 13.3649 16.9353 13.7216C17.5156 13.8021 18.0747 13.9176 18.5027 14.0678C18.9747 14.2335 19.4394 14.4211 19.8961 14.6305C19.9031 14.9917 19.7869 15.3091 19.5477 15.5828C20.2067 15.926 20.8453 16.3011 21.4635 16.7082C22.15 17.2812 22.15 17.844 21.4635 18.3965C20.9225 18.7394 20.3419 18.9991 19.722 19.1755C19.9386 19.4526 20.599 20.102 20.8705 20.1937C20.6841 20.1937 20.5909 20.1937 20.4977 20.1937C20.3113 20.1937 19.722 19.6032 19.4606 19.3488C19.128 19.3921 18.9012 19.3921 18.5464 19.3921C18.3792 19.3541 18.2194 19.2963 18.0674 19.2188C19.267 19.0243 20.5636 18.7249 21.507 17.9202C21.8502 17.579 21.3299 17.1052 20.7723 16.7114C20.7409 16.6892 20.3888 17.0713 20.1039 17.2462C19.9048 17.3683 19.5691 17.5136 19.5691 17.5136C19.5691 17.5136 19.7984 17.2879 19.9386 17.1368C20.1683 16.8892 20.5295 16.4959 20.4977 16.4769C19.9566 16.1538 19.3872 15.9038 19.1994 15.8425C18.9982 15.9689 18.7951 15.9979 18.5899 15.9292C18.8101 15.7749 19.7394 15.241 19.5041 14.8903C18.7193 14.4436 16.7278 14.1111 16.2823 14.1111C15.8085 15.0819 15.3585 16.0632 14.9325 17.0546C15.533 17.375 16.6306 18.1801 16.6306 18.1801C16.6306 18.1801 15.1837 17.7181 15.0195 18.4397C14.9566 18.7161 15.0988 18.9221 15.2374 19.1322C15.6863 19.5883 16.3198 20.2051 16.8483 19.7816C17.0504 19.6196 17.1428 19.4526 17.1965 19.2188C17.5878 19.9627 17.6053 20.4889 17.249 20.7974C17.2108 20.8304 17.6105 21.1704 17.5637 21.1984C17.499 21.2373 16.984 20.9619 16.9029 20.9911C16.6835 21.0702 16.4041 21.1143 16.0645 21.1234C15.5488 21.0984 15.0844 20.9253 14.6713 20.6041C14.0877 22.268 10.6054 26.1152 12.9298 27.2699H15.5583C15.4247 26.4709 15.1573 25.9361 14.6713 25.2677C16.6092 22.2835 17.1739 20.4716 20.7667 20.4716C22.6411 20.4716 27.4647 21.2522 29.1644 21.7728C28.8224 18.6075 28.2474 13.3987 28.2121 10.2155C28.6246 9.55035 29.1616 9.01634 29.823 8.61379C34.0095 7.57405 42.6236 6.23308 42.6236 6.23308C42.6236 6.23308 43.2526 7.77811 43.4074 8.39739C44.5131 6.77103 46.3474 2.2853 47.0647 4.06877ZM46.7164 4.41518C45.8455 4.06877 43.4944 9.21987 43.4944 9.21987L44.1041 12.2065L42.5366 6.49293C42.5366 6.49293 34.0398 8.04532 29.823 8.9602C29.4287 9.21622 28.6985 10.2155 28.6985 10.2155C28.7917 15.84 29.7236 22.4168 31.6082 27.3565L33.5675 27.2699C37.273 25.4586 38.1876 21.3426 38.7487 17.6605C40.0381 20.9363 41.8501 24.0405 43.6686 27.0535C44.5804 27.0059 52.8316 27.2337 52.8316 27.2337C52.8316 27.2337 52.928 26.8631 52.928 26.7705C51.8097 25.4737 45.2864 25.5663 42.9984 25.9368L42.8882 25.7516C43.678 25.6819 48.5555 24.7816 49.1546 24.2833C48.0588 22.7789 47.1506 21.3258 46.2667 19.9114C44.6801 17.3728 43.1714 14.9587 40.7951 12.5962C41.7769 12.444 44.1041 12.2065 44.1041 12.2065C44.1041 12.2065 47.5871 4.81684 46.7164 4.41518ZM12.3201 20.6906C12.0264 20.7057 11.7751 20.7109 11.4495 20.8204C8.99637 21.6459 8.61773 25.1993 8.82364 27.2699H12.0322C11.0262 26.1015 11.9532 24.6056 12.5815 23.4608C13.0442 22.6237 14.0344 20.8469 12.3201 20.6906Z" fill="#004480"/>
<path d="M17.1772 15.3394C17.4895 15.6777 17.7364 15.9878 17.3615 16.3245C17.1954 16.4738 16.7113 16.4509 16.3385 16.2657C16.6181 16.2657 16.9283 16.3143 17.1874 16.0649C17.3636 15.8952 17.2704 15.7099 17.1772 15.3394Z" fill="#004480"/>
<path d="M47.5871 2.77022C47.6074 2.64632 47.6655 2.60302 47.7612 2.64038C48.4519 3.59381 48.1096 6.23308 48.1096 6.23308C48.1096 6.23308 48.1511 3.886 47.5871 2.77022Z" fill="#004480"/>
<path fill-rule="evenodd" clip-rule="evenodd" d="M33.5675 27.2699L31.6082 27.3565C29.7236 22.4168 28.7917 15.84 28.6985 10.2155C28.6985 10.2155 29.4287 9.21622 29.823 8.9602C34.0398 8.04532 42.5366 6.49293 42.5366 6.49293L44.1041 12.2065C44.1041 12.2065 41.7769 12.444 40.7951 12.5962C43.1714 14.9587 44.6801 17.3728 46.2667 19.9114C47.1506 21.3258 48.0588 22.7789 49.1546 24.2833C48.5555 24.7816 43.678 25.6819 42.8882 25.7516C41.3412 23.1468 39.8532 20.4666 38.7487 17.6605C38.1876 21.3426 37.273 25.4586 33.5675 27.2699ZM33.5675 18.3965L33.3065 18.3099L35.0606 16.3104L34.0899 12.5094L34.3511 12.293L39.1358 12.4126L33.5675 18.3965Z" fill="#004480"/>
<path d="M17.7019 4.35368C17.4692 4.44271 17.2605 4.58122 17.0631 4.73018C16.3406 5.2954 15.7391 6.00236 15.2271 6.74618C14.9768 7.11932 14.7449 7.51159 14.6126 7.91004C14.5481 8.10206 14.5225 8.31701 14.5686 8.40993C14.5897 8.45382 14.6114 8.47325 14.6676 8.49659C14.6982 8.50826 14.7289 8.51589 14.7734 8.5221C14.8117 8.52716 14.855 8.52963 14.9062 8.52897C15.0388 8.52732 15.1712 8.51673 15.3023 8.49767C15.6289 7.87864 16.0214 7.17192 16.9564 7.06207C17.0717 7.06434 17.2049 7.0604 17.3694 7.17532C17.4527 7.23555 17.5198 7.34448 17.5363 7.44526C17.5544 7.54447 17.5397 7.62845 17.5208 7.69583C17.4346 7.95928 17.2912 8.10085 17.1475 8.24366C16.8552 8.51653 16.5183 8.70667 16.161 8.84486C15.9227 8.93602 15.674 9.0004 15.4211 9.03664C15.0715 9.64963 14.7803 10.3072 14.5149 10.9732C14.4244 11.2018 14.3348 11.4384 14.2539 11.6716C14.2988 11.4288 14.3547 11.1813 14.4137 10.9412C14.572 10.3076 14.7647 9.6789 15.0253 9.06975C14.9856 9.07073 14.9459 9.07145 14.9062 9.07101C14.6559 9.07618 14.2189 8.98289 14.0808 8.60026C13.9651 8.25157 14.065 7.98517 14.1472 7.74721C14.3344 7.27217 14.6086 6.88253 14.9022 6.50953C15.4988 5.77449 16.1918 5.11898 17.0045 4.64225C17.2251 4.51779 17.4579 4.40717 17.7019 4.35368ZM16.9564 7.57371C16.5537 7.57037 16.174 7.93295 15.8551 8.36397C15.8903 8.35193 15.9255 8.33947 15.9603 8.32616C16.2598 8.2112 16.5467 8.04915 16.7733 7.84545C16.8699 7.75979 16.9594 7.65114 16.9959 7.57624C16.9838 7.57457 16.9704 7.57351 16.9564 7.57371Z" fill="#004480"/>
<path d="M19.3119 0.242434C19.6696 0.966205 20.0132 1.67074 20.345 2.37712C20.6801 3.08249 20.9962 3.78935 21.3874 4.49118C21.4312 4.56896 21.4766 4.64714 21.5228 4.72421C21.4492 4.67227 21.3765 4.61656 21.3061 4.55903C20.6702 4.03608 20.186 3.34672 19.8389 2.61304C19.4926 1.87658 19.2778 1.08154 19.2095 0.270477C19.202 0.18028 19.1963 0.0893962 19.1931 0C19.2325 0.0803833 19.2723 0.161811 19.3119 0.242434Z" fill="#004480"/>
<path d="M17.6 2.73543C18.4094 2.7899 19.1956 2.83875 19.979 2.87599C20.7626 2.91666 21.5405 2.93932 22.3422 3.03291C22.4312 3.04365 22.5212 3.0558 22.6105 3.06908C22.5342 3.02108 22.4548 2.97532 22.3745 2.93235C21.6465 2.54587 20.8212 2.36197 20.0066 2.32096C19.1897 2.2818 18.3682 2.38584 17.5873 2.63055C17.5005 2.65787 17.4137 2.68717 17.3293 2.71807C17.419 2.72383 17.5099 2.72957 17.6 2.73543Z" fill="#004480"/>
<path d="M19.3303 4.91384C19.7467 4.0992 20.1715 3.31535 20.6012 2.53813C21.0343 1.76218 21.4684 0.992962 21.9947 0.246835C22.0532 0.164252 22.1138 0.0815292 22.1752 9.27991e-08C22.0885 0.0543055 22.0027 0.112356 21.9192 0.172563C21.1646 0.719479 20.5609 1.46167 20.1115 2.26962C19.6631 3.07982 19.3597 3.96846 19.2289 4.88233C19.2145 4.98418 19.2023 5.08647 19.1931 5.18736C19.2382 5.09653 19.2842 5.00486 19.3303 4.91384Z" fill="#004480"/>
<path d="M16.8483 21.1984C16.5598 21.3345 16.3951 21.3724 16.0931 21.3321L14.4888 25.0003C15.287 23.7541 16.2981 22.2034 17.1626 21.3321L16.8483 21.1984Z" fill="#004480"/>
</svg>
