<svg width="318" height="214" viewBox="0 0 318 214" fill="none" xmlns="http://www.w3.org/2000/svg">
<g clip-path="url(#clip0_1173_8272)">
<path d="M108.29 41.6501C110.64 40.2301 115.02 41.2101 115.61 43.9301C117.71 53.7401 116.84 80.5701 116.84 80.5701L115.78 80.5601C115.78 80.5601 116.48 54.7201 114.82 44.6901C114.45 42.4701 110.64 40.7201 107.5 43.1601C102.66 46.9401 99.0802 53.8701 99.0802 53.8701L98.2002 53.5801C98.2002 53.5801 99.1202 51.8501 101.49 48.7501C103.93 45.5501 105.21 43.5101 108.29 41.6501Z" fill="#004480"/>
<path d="M109.56 49.0701C109.72 49.0701 110.25 49.3001 110.25 49.3001C109.52 52.0701 108.41 57.1601 107.88 59.5101C107.8 59.3501 107.42 59.0201 107.34 58.8501C108.08 55.6034 108.82 52.3434 109.56 49.0701Z" fill="#004480"/>
<path d="M257.63 177.63C257.624 178.837 257.207 179.73 256.38 180.31C255.587 180.897 254.69 181.46 253.69 182C252.69 182.5 251.774 183.103 250.94 183.81C250.147 184.523 249.75 185.587 249.75 187C249.75 187.753 249.917 188.4 250.25 188.94C250.624 189.48 251.06 189.98 251.56 190.44C252.107 190.853 252.69 191.29 253.31 191.75C253.937 192.21 254.5 192.73 255 193.31C255.54 193.897 255.977 194.607 256.31 195.44C256.69 196.273 256.88 197.293 256.88 198.5C256.88 200.247 256.42 201.977 255.5 203.69C254.627 205.357 253.48 206.857 252.06 208.19C250.687 209.483 249.127 210.523 247.38 211.31C245.627 212.103 243.897 212.5 242.19 212.5C241.484 212.5 240.774 212.437 240.06 212.31C239.354 212.23 238.71 212.043 238.13 211.75C237.584 211.457 237.124 211.06 236.75 210.56C236.377 210.02 236.19 209.333 236.19 208.5C236.19 207.333 236.42 206.437 236.88 205.81C237.334 205.143 237.917 204.623 238.63 204.25C239.337 203.877 240.087 203.587 240.88 203.38C241.707 203.167 242.477 202.917 243.19 202.63C243.897 202.297 244.48 201.88 244.94 201.38C245.4 200.88 245.63 200.17 245.63 199.25C245.63 198.377 245.274 197.48 244.56 196.56C243.894 195.607 243.144 194.607 242.31 193.56C241.477 192.48 240.707 191.337 240 190.13C239.334 188.917 239 187.583 239 186.13C239 184.337 239.354 182.69 240.06 181.19C240.814 179.643 241.794 178.31 243 177.19C244.254 176.063 245.67 175.187 247.25 174.56C248.83 173.893 250.497 173.56 252.25 173.56C252.917 173.56 253.564 173.623 254.19 173.75C254.857 173.877 255.44 174.107 255.94 174.44C256.44 174.727 256.837 175.143 257.13 175.69C257.457 176.19 257.624 176.837 257.63 177.63Z" fill="#004480"/>
<path d="M236.81 200.88C236.81 202.293 236.354 203.687 235.44 205.06C234.56 206.393 233.434 207.603 232.06 208.69C230.727 209.73 229.29 210.583 227.75 211.25C226.21 211.877 224.794 212.19 223.5 212.19C221.294 212.19 219.314 211.647 217.56 210.56C215.854 209.44 214.417 208.023 213.25 206.31C212.084 204.603 211.187 202.73 210.56 200.69C209.98 198.603 209.69 196.583 209.69 194.63C209.69 192.543 209.98 190.313 210.56 187.94C211.147 185.56 212.024 183.373 213.19 181.38C214.397 179.373 215.897 177.707 217.69 176.38C219.524 175.047 221.69 174.38 224.19 174.38C225.604 174.38 226.957 174.63 228.25 175.13C229.544 175.583 230.667 176.25 231.62 177.13C232.58 178.003 233.354 179.043 233.94 180.25C234.52 181.457 234.81 182.81 234.81 184.31C234.81 186.27 234.394 188.103 233.56 189.81C232.727 191.523 231.624 193.003 230.25 194.25C228.877 195.503 227.294 196.523 225.5 197.31C223.707 198.063 221.874 198.48 220 198.56C220.167 199.773 220.647 200.65 221.44 201.19C222.274 201.73 223.25 202 224.37 202C225.204 202 226.017 201.793 226.81 201.38C227.604 200.96 228.374 200.5 229.12 200C229.874 199.46 230.604 198.98 231.31 198.56C232.064 198.147 232.814 197.94 233.56 197.94C234.394 197.94 235.144 198.21 235.81 198.75C236.477 199.29 236.81 200 236.81 200.88ZM226.69 185.56C226.69 185.02 226.544 184.46 226.25 183.88C225.957 183.293 225.497 183 224.87 183C223.957 183 223.187 183.25 222.56 183.75C221.94 184.21 221.42 184.813 221 185.56C220.58 186.273 220.247 187.047 220 187.88C219.794 188.707 219.667 189.477 219.62 190.19C220.207 190.063 220.897 189.897 221.69 189.69C222.524 189.477 223.294 189.207 224 188.88C224.747 188.5 225.37 188.04 225.87 187.5C226.417 186.96 226.69 186.313 226.69 185.56Z" fill="#004480"/>
<path d="M207.13 188C207.13 188.207 207.107 188.437 207.06 188.69C207.02 188.897 206.96 189.103 206.88 189.31C206.5 190.27 205.917 191.083 205.13 191.75C204.337 192.377 203.397 192.69 202.31 192.69C200.69 192.69 199.587 191.877 199 190.25C198.92 190.043 198.88 189.813 198.88 189.56C198.88 189.273 198.857 188.983 198.81 188.69V186.88C198.73 186.293 198.587 185.833 198.38 185.5C198.167 185.167 197.81 185 197.31 185C196.604 185 195.917 185.46 195.25 186.38C194.624 187.253 194.06 188.313 193.56 189.56C193.1 190.773 192.727 192.023 192.44 193.31C192.147 194.603 192 195.647 192 196.44C192 197.06 192.044 197.83 192.13 198.75C192.21 199.623 192.377 200.477 192.63 201.31C192.877 202.143 193.21 202.873 193.63 203.5C194.084 204.08 194.667 204.373 195.38 204.38C196.087 204.38 196.73 204.17 197.31 203.75C197.937 203.29 198.544 202.77 199.13 202.19C199.67 201.69 200.254 201.17 200.88 200.63C201.547 200.083 202.297 199.81 203.13 199.81C204.17 199.81 204.98 200.187 205.56 200.94C206.187 201.687 206.5 202.54 206.5 203.5C206.5 204.92 206.127 206.253 205.38 207.5C204.627 208.707 203.687 209.77 202.56 210.69C201.44 211.563 200.19 212.25 198.81 212.75C197.437 213.29 196.127 213.56 194.88 213.56C192.627 213.56 190.71 212.997 189.13 211.87C187.584 210.75 186.334 209.333 185.38 207.62C184.42 205.873 183.73 203.98 183.31 201.94C182.897 199.893 182.69 197.953 182.69 196.12C182.69 194 182.98 191.71 183.56 189.25C184.147 186.75 185.044 184.437 186.25 182.31C187.457 180.19 189 178.42 190.88 177C192.794 175.58 195.064 174.87 197.69 174.87C199.31 174.87 200.707 175.227 201.88 175.94C203.087 176.647 204.064 177.583 204.81 178.75C205.604 179.877 206.187 181.147 206.56 182.56C206.98 183.98 207.19 185.377 207.19 186.75C207.19 186.957 207.19 187.163 207.19 187.37C207.19 187.583 207.17 187.793 207.13 188Z" fill="#004480"/>
<path d="M179 168.38C179 168.96 178.833 169.48 178.5 169.94C178.206 170.393 177.81 170.81 177.31 171.19C176.81 171.523 176.27 171.793 175.69 172C175.103 172.167 174.56 172.25 174.06 172.25C173.226 172.25 172.496 172.043 171.87 171.63C171.25 171.21 170.94 170.563 170.94 169.69C170.94 169.063 171.083 168.52 171.37 168.06C171.703 167.56 172.1 167.167 172.56 166.88C173.02 166.547 173.54 166.297 174.12 166.13C174.706 165.957 175.27 165.873 175.81 165.88C176.603 165.873 177.333 166.06 178 166.44C178.666 166.813 179 167.46 179 168.38ZM179.5 189.63C179.5 190.21 179.5 190.833 179.5 191.5C179.5 192.127 179.48 192.73 179.44 193.31C179.4 194.023 179.38 194.983 179.38 196.19C179.373 197.357 179.33 198.627 179.25 200C179.17 201.373 179.023 202.77 178.81 204.19C178.643 205.603 178.353 206.893 177.94 208.06C177.52 209.227 176.956 210.187 176.25 210.94C175.583 211.647 174.73 212.02 173.69 212.06C172.896 212.107 172.23 211.797 171.69 211.13C171.15 210.457 170.69 209.6 170.31 208.56C169.976 207.48 169.726 206.293 169.56 205C169.393 203.667 169.27 202.397 169.19 201.19C169.103 199.937 169.06 198.79 169.06 197.75C169.06 196.71 169.06 195.94 169.06 195.44C169.06 194.773 169.06 193.837 169.06 192.63C169.06 191.377 169.103 190.043 169.19 188.63C169.27 187.21 169.413 185.77 169.62 184.31C169.873 182.857 170.206 181.523 170.62 180.31C171.08 179.103 171.663 178.127 172.37 177.38C173.083 176.627 173.98 176.25 175.06 176.25C176.186 176.25 177.04 176.813 177.62 177.94C178.206 179.06 178.646 180.373 178.94 181.88C179.226 183.38 179.393 184.88 179.44 186.38C179.48 187.833 179.5 188.917 179.5 189.63Z" fill="#004480"/>
<path d="M164.5 189.63C163.413 192.503 162.227 195.503 160.94 198.63C159.647 201.75 158.25 204.667 156.75 207.38C155.83 209.047 154.81 210.44 153.69 211.56C152.563 212.647 151.27 213.19 149.81 213.19C148.643 213.19 147.5 212.607 146.38 211.44C145.293 210.227 144.27 208.81 143.31 207.19C142.397 205.523 141.587 203.857 140.88 202.19C140.207 200.477 139.707 199.123 139.38 198.13C139.047 197.003 138.67 195.793 138.25 194.5C137.83 193.207 137.457 191.893 137.13 190.56C136.797 189.227 136.523 187.917 136.31 186.63C136.103 185.297 136 184.047 136 182.88C136 181.253 136.293 179.92 136.88 178.88C137.46 177.833 138.603 177.31 140.31 177.31C140.977 177.31 141.583 177.52 142.13 177.94C142.67 178.313 143.17 178.853 143.63 179.56C144.083 180.273 144.52 181.107 144.94 182.06C145.353 182.98 145.75 184.003 146.13 185.13C146.503 186.21 146.857 187.333 147.19 188.5C147.523 189.667 147.857 190.793 148.19 191.88C148.523 192.96 148.857 194.02 149.19 195.06C149.563 196.06 150.043 197.06 150.63 198.06C150.917 197.313 151.25 196.46 151.63 195.5C152.003 194.54 152.397 193.52 152.81 192.44C153.27 191.353 153.75 190.25 154.25 189.13C154.75 187.957 155.293 186.83 155.88 185.75C157 183.497 158.187 181.58 159.44 180C160.727 178.42 161.997 177.63 163.25 177.63C164.417 177.623 165.25 177.977 165.75 178.69C166.25 179.397 166.5 180.313 166.5 181.44C166.5 182.56 166.313 183.83 165.94 185.25C165.56 186.67 165.08 188.13 164.5 189.63Z" fill="#004480"/>
<path d="M132.25 188.63C131.67 188.67 131.17 188.627 130.75 188.5C130.33 188.333 129.913 188.167 129.5 188C129.126 187.833 128.75 187.687 128.37 187.56C127.996 187.393 127.58 187.333 127.12 187.38C126.293 187.42 125.543 187.647 124.87 188.06C124.25 188.48 123.666 189.003 123.12 189.63C122.62 190.25 122.183 190.957 121.81 191.75C121.436 192.503 121.146 193.253 120.94 194C120.813 194.5 120.706 195.27 120.62 196.31C120.58 197.31 120.56 198.393 120.56 199.56C120.52 200.773 120.5 201.92 120.5 203C120.5 204.087 120.456 204.94 120.37 205.56C120.33 206.227 120.226 207.02 120.06 207.94C119.893 208.813 119.623 209.647 119.25 210.44C118.916 211.227 118.456 211.893 117.87 212.44C117.29 212.98 116.54 213.25 115.62 213.25C114.913 213.25 114.29 213.043 113.75 212.63C113.25 212.21 112.813 211.667 112.44 211C112.106 210.293 111.813 209.48 111.56 208.56C111.353 207.647 111.186 206.71 111.06 205.75C110.933 204.75 110.83 203.75 110.75 202.75C110.71 201.75 110.67 200.813 110.63 199.94C110.63 199.02 110.63 198.187 110.63 197.44C110.67 196.687 110.69 196.083 110.69 195.63C110.643 194.17 110.56 192.71 110.44 191.25C110.353 189.75 110.31 188.27 110.31 186.81C110.31 185.897 110.353 184.877 110.44 183.75C110.52 182.623 110.75 181.583 111.13 180.63C111.503 179.63 112.043 178.797 112.75 178.13C113.496 177.457 114.516 177.123 115.81 177.13C116.516 177.13 117.12 177.357 117.62 177.81C118.12 178.27 118.516 178.833 118.81 179.5C119.143 180.167 119.393 180.877 119.56 181.63C119.726 182.377 119.83 183.063 119.87 183.69C120.87 182.063 121.996 180.75 123.25 179.75C124.503 178.71 126.13 178.147 128.13 178.06C129.13 178.02 130.106 178.127 131.06 178.38C132.06 178.587 132.956 178.96 133.75 179.5C134.583 180 135.25 180.667 135.75 181.5C136.29 182.333 136.583 183.313 136.63 184.44C136.71 185.773 136.313 186.793 135.44 187.5C134.56 188.207 133.496 188.583 132.25 188.63Z" fill="#004480"/>
<path d="M108.06 200.88C108.06 202.293 107.604 203.687 106.69 205.06C105.81 206.393 104.684 207.603 103.31 208.69C101.977 209.73 100.54 210.583 99.0004 211.25C97.4604 211.877 96.0438 212.19 94.7504 212.19C92.5438 212.19 90.5638 211.647 88.8104 210.56C87.1038 209.44 85.6671 208.023 84.5004 206.31C83.3338 204.603 82.4371 202.73 81.8104 200.69C81.2304 198.603 80.9404 196.583 80.9404 194.63C80.9404 192.543 81.2304 190.313 81.8104 187.94C82.3971 185.56 83.2738 183.373 84.4404 181.38C85.6471 179.373 87.1471 177.707 88.9404 176.38C90.7738 175.047 92.9404 174.38 95.4404 174.38C96.8538 174.38 98.2071 174.63 99.5004 175.13C100.794 175.583 101.917 176.25 102.87 177.13C103.83 178.003 104.604 179.043 105.19 180.25C105.77 181.457 106.06 182.81 106.06 184.31C106.06 186.27 105.644 188.103 104.81 189.81C103.977 191.523 102.874 193.003 101.5 194.25C100.127 195.503 98.5438 196.523 96.7504 197.31C94.9571 198.063 93.1238 198.48 91.2504 198.56C91.4171 199.773 91.8971 200.65 92.6904 201.19C93.5238 201.73 94.5004 202 95.6204 202C96.4538 202 97.2671 201.793 98.0604 201.38C98.8538 200.96 99.6238 200.5 100.37 200C101.124 199.46 101.854 198.98 102.56 198.56C103.314 198.147 104.064 197.94 104.81 197.94C105.644 197.94 106.394 198.21 107.06 198.75C107.727 199.29 108.06 200 108.06 200.88ZM97.9404 185.56C97.9404 185.02 97.7938 184.46 97.5004 183.88C97.2071 183.293 96.7471 183 96.1204 183C95.2071 183 94.4371 183.25 93.8104 183.75C93.1904 184.21 92.6704 184.813 92.2504 185.56C91.8304 186.273 91.4971 187.047 91.2504 187.88C91.0438 188.707 90.9171 189.477 90.8704 190.19C91.4571 190.063 92.1471 189.897 92.9404 189.69C93.7738 189.477 94.5438 189.207 95.2504 188.88C95.9971 188.5 96.6204 188.04 97.1204 187.5C97.6671 186.96 97.9404 186.313 97.9404 185.56Z" fill="#004480"/>
<path d="M79.6904 168.13C79.6904 169.083 79.3771 169.917 78.7504 170.63C78.1704 171.337 77.4638 171.92 76.6304 172.38C75.8771 172.833 75.1038 173.333 74.3104 173.88C73.5238 174.373 72.7971 174.957 72.1304 175.63C71.4638 176.25 70.9204 176.957 70.5004 177.75C70.0804 178.543 69.8738 179.44 69.8804 180.44C69.8738 181.313 70.0804 182.103 70.5004 182.81C70.9204 183.523 71.4204 184.233 72.0004 184.94C72.6271 185.607 73.2938 186.313 74.0004 187.06C74.7538 187.773 75.4204 188.587 76.0004 189.5C76.6271 190.373 77.1471 191.373 77.5604 192.5C77.9804 193.627 78.1904 194.94 78.1904 196.44C78.1904 197.48 77.9604 198.667 77.5004 200C77.0804 201.293 76.4971 202.607 75.7504 203.94C75.0038 205.273 74.1071 206.563 73.0604 207.81C72.0604 209.063 70.9771 210.19 69.8104 211.19C68.6904 212.15 67.5038 212.92 66.2504 213.5C65.0038 214.127 63.7971 214.44 62.6304 214.44C61.3371 214.44 60.1904 214.087 59.1904 213.38C58.1904 212.667 57.6904 211.603 57.6904 210.19C57.6904 209.23 57.9204 208.353 58.3804 207.56C58.8338 206.727 59.3938 205.937 60.0604 205.19C60.7271 204.437 61.4571 203.707 62.2504 203C63.0838 202.293 63.8338 201.587 64.5004 200.88C65.1671 200.167 65.7304 199.437 66.1904 198.69C66.6438 197.897 66.8738 197.063 66.8804 196.19C66.8804 194.977 66.4404 193.747 65.5604 192.5C64.7271 191.207 63.7904 189.893 62.7504 188.56C61.7104 187.187 60.7538 185.793 59.8804 184.38C59.0471 182.96 58.6304 181.52 58.6304 180.06C58.6304 178.273 59.1071 176.4 60.0604 174.44C61.0204 172.44 62.2504 170.627 63.7504 169C65.2504 167.333 66.9371 165.96 68.8104 164.88C70.6904 163.793 72.5471 163.25 74.3804 163.25C75.8338 163.25 77.0838 163.687 78.1304 164.56C79.1704 165.44 79.6904 166.63 79.6904 168.13Z" fill="#004480"/>
<path d="M317.63 142.88C317.63 144.293 317.17 145.687 316.25 147.06C315.377 148.393 314.253 149.603 312.88 150.69C311.547 151.73 310.107 152.583 308.56 153.25C307.02 153.877 305.603 154.19 304.31 154.19C302.103 154.19 300.127 153.647 298.38 152.56C296.667 151.44 295.227 150.023 294.06 148.31C292.893 146.603 292 144.73 291.38 142.69C290.793 140.603 290.5 138.583 290.5 136.63C290.5 134.543 290.793 132.313 291.38 129.94C291.96 127.56 292.833 125.373 294 123.38C295.207 121.373 296.707 119.707 298.5 118.38C300.333 117.047 302.5 116.38 305 116.38C306.42 116.38 307.773 116.63 309.06 117.13C310.353 117.583 311.48 118.25 312.44 119.13C313.4 120.003 314.17 121.043 314.75 122.25C315.33 123.457 315.623 124.81 315.63 126.31C315.623 128.27 315.207 130.103 314.38 131.81C313.547 133.523 312.44 135.003 311.06 136.25C309.687 137.503 308.103 138.523 306.31 139.31C304.523 140.063 302.69 140.48 300.81 140.56C300.977 141.773 301.457 142.65 302.25 143.19C303.083 143.73 304.063 144 305.19 144C306.023 144 306.837 143.793 307.63 143.38C308.417 142.96 309.187 142.5 309.94 142C310.687 141.46 311.417 140.98 312.13 140.56C312.877 140.147 313.627 139.94 314.38 139.94C315.207 139.94 315.957 140.21 316.63 140.75C317.297 141.29 317.63 142 317.63 142.88ZM307.5 127.56C307.5 127.02 307.353 126.46 307.06 125.88C306.767 125.293 306.31 125 305.69 125C304.77 125 304 125.25 303.38 125.75C302.753 126.21 302.23 126.813 301.81 127.56C301.397 128.273 301.063 129.047 300.81 129.88C300.603 130.707 300.48 131.477 300.44 132.19C301.02 132.063 301.707 131.897 302.5 131.69C303.333 131.477 304.103 131.207 304.81 130.88C305.563 130.5 306.19 130.04 306.69 129.5C307.23 128.96 307.5 128.313 307.5 127.56Z" fill="#004480"/>
<path d="M287.31 133.38C287.31 134.167 287.31 135.25 287.31 136.63C287.31 137.963 287.27 139.42 287.19 141C287.15 142.587 287.023 144.19 286.81 145.81C286.603 147.397 286.27 148.837 285.81 150.13C285.397 151.417 284.857 152.477 284.19 153.31C283.523 154.143 282.667 154.56 281.62 154.56C280.707 154.56 280 154.187 279.5 153.44C279.04 152.647 278.707 151.73 278.5 150.69C278.293 149.643 278.167 148.58 278.12 147.5C278.12 146.413 278.12 145.56 278.12 144.94C278.127 143.06 278.19 141.227 278.31 139.44C278.437 137.647 278.5 135.813 278.5 133.94C278.5 133.727 278.5 133.35 278.5 132.81C278.5 132.27 278.457 131.73 278.37 131.19C278.29 130.65 278.147 130.17 277.94 129.75C277.773 129.33 277.5 129.123 277.12 129.13C276.373 129.13 275.77 129.523 275.31 130.31C274.85 131.063 274.477 131.96 274.19 133C273.897 134.04 273.687 135.083 273.56 136.13C273.44 137.13 273.357 137.88 273.31 138.38C273.23 138.92 273.147 139.73 273.06 140.81C273.02 141.897 272.937 143.087 272.81 144.38C272.73 145.667 272.563 147 272.31 148.38C272.103 149.713 271.813 150.94 271.44 152.06C271.107 153.147 270.667 154.043 270.12 154.75C269.58 155.457 268.913 155.81 268.12 155.81C267.12 155.81 266.35 155.373 265.81 154.5C265.27 153.627 264.873 152.607 264.62 151.44C264.373 150.273 264.207 149.087 264.12 147.88C264.08 146.667 264.06 145.727 264.06 145.06C264.06 144.353 264.06 143.667 264.06 143C264.1 142.333 264.12 141.647 264.12 140.94C264.12 140.647 264.12 140.167 264.12 139.5C264.12 138.833 264.1 138.103 264.06 137.31C264.06 136.477 264.02 135.623 263.94 134.75C263.893 133.877 263.81 133.087 263.69 132.38C263.563 131.627 263.373 131.02 263.12 130.56C262.873 130.107 262.583 129.88 262.25 129.88C261.71 129.873 261.21 130.227 260.75 130.94C260.29 131.607 259.893 132.42 259.56 133.38C259.227 134.293 258.957 135.21 258.75 136.13C258.583 137.043 258.5 137.71 258.5 138.13V138.5C258.5 140.5 258.623 142.46 258.87 144.38C259.123 146.293 259.25 148.25 259.25 150.25C259.25 151.417 258.873 152.5 258.12 153.5C257.373 154.46 256.333 154.94 255 154.94C254.04 154.94 253.247 154.587 252.62 153.88C252 153.127 251.48 152.167 251.06 151C250.647 149.833 250.313 148.563 250.06 147.19C249.853 145.77 249.707 144.393 249.62 143.06C249.54 141.687 249.48 140.46 249.44 139.38C249.44 138.253 249.44 137.42 249.44 136.88C249.44 136.253 249.417 135.337 249.37 134.13C249.37 132.917 249.393 131.603 249.44 130.19C249.52 128.77 249.643 127.333 249.81 125.88C249.977 124.38 250.247 123.023 250.62 121.81C251 120.603 251.48 119.627 252.06 118.88C252.687 118.087 253.48 117.69 254.44 117.69C255.52 117.69 256.393 117.98 257.06 118.56C257.773 119.147 258.127 120.023 258.12 121.19C258.12 121.437 258.1 121.687 258.06 121.94C258.06 122.187 258.04 122.417 258 122.63C258.46 121.963 259.023 121.297 259.69 120.63C260.357 119.917 261.063 119.29 261.81 118.75C262.603 118.17 263.437 117.713 264.31 117.38C265.183 117 266.06 116.81 266.94 116.81C267.773 116.81 268.523 117.04 269.19 117.5C269.857 117.96 270.44 118.543 270.94 119.25C271.44 119.917 271.857 120.647 272.19 121.44C272.523 122.227 272.75 122.977 272.87 123.69C273.29 122.937 273.79 122.187 274.37 121.44C274.997 120.647 275.663 119.96 276.37 119.38C277.083 118.793 277.857 118.313 278.69 117.94C279.563 117.56 280.457 117.373 281.37 117.38C282.25 117.38 283 117.69 283.62 118.31C284.247 118.937 284.79 119.75 285.25 120.75C285.71 121.71 286.063 122.813 286.31 124.06C286.563 125.273 286.773 126.483 286.94 127.69C287.107 128.857 287.21 129.96 287.25 131C287.29 132 287.31 132.793 287.31 133.38Z" fill="#004480"/>
<path d="M232.63 155.81C230.503 155.81 228.646 155.247 227.06 154.12C225.48 153 224.146 151.563 223.06 149.81C221.98 148.063 221.17 146.127 220.63 144C220.083 141.833 219.81 139.707 219.81 137.62C219.81 135.413 220.083 133.143 220.63 130.81C221.17 128.437 222.003 126.29 223.13 124.37C224.25 122.417 225.686 120.833 227.44 119.62C229.186 118.373 231.27 117.75 233.69 117.75C236.023 117.75 238.003 118.397 239.63 119.69C241.296 120.937 242.63 122.52 243.63 124.44C244.623 126.313 245.33 128.373 245.75 130.62C246.163 132.873 246.31 135 246.19 137C246.063 139.207 245.71 141.437 245.13 143.69C244.583 145.937 243.77 147.957 242.69 149.75C241.603 151.543 240.226 153 238.56 154.12C236.893 155.247 234.916 155.81 232.63 155.81ZM233.25 127.56C232.623 127.56 232.06 127.893 231.56 128.56C231.1 129.227 230.706 130.04 230.38 131C230.086 131.96 229.856 132.98 229.69 134.06C229.523 135.107 229.44 136.023 229.44 136.81C229.44 137.81 229.523 138.893 229.69 140.06C229.896 141.227 230.166 142.31 230.5 143.31C230.833 144.27 231.23 145.083 231.69 145.75C232.19 146.377 232.753 146.69 233.38 146.69C234.046 146.69 234.606 146.377 235.06 145.75C235.56 145.123 235.956 144.33 236.25 143.37C236.543 142.417 236.753 141.377 236.88 140.25C237 139.083 237.06 138 237.06 137C237.06 136.08 236.976 135.08 236.81 134C236.643 132.873 236.393 131.83 236.06 130.87C235.773 129.917 235.38 129.127 234.88 128.5C234.42 127.873 233.876 127.56 233.25 127.56Z" fill="#004480"/>
<path d="M216.63 118.25C216.63 121.71 216.547 125.19 216.38 128.69C216.207 132.15 215.997 135.607 215.75 139.06C215.71 139.687 215.67 140.543 215.63 141.63C215.584 142.67 215.5 143.813 215.38 145.06C215.254 146.273 215.087 147.503 214.88 148.75C214.667 150.003 214.334 151.15 213.88 152.19C213.46 153.19 212.897 154.003 212.19 154.63C211.524 155.297 210.69 155.63 209.69 155.63C208.81 155.63 208.017 155.44 207.31 155.06C206.644 154.687 206.084 154.21 205.63 153.63C205.17 153.003 204.814 152.313 204.56 151.56C204.314 150.773 204.19 149.963 204.19 149.13C204.19 147.75 204.23 146.373 204.31 145C204.397 143.587 204.524 142.19 204.69 140.81L198.5 141.44C198.374 142.52 198.227 143.833 198.06 145.38C197.94 146.873 197.65 148.33 197.19 149.75C196.77 151.123 196.124 152.31 195.25 153.31C194.377 154.31 193.17 154.81 191.63 154.81C190.67 154.81 189.877 154.583 189.25 154.13C188.624 153.71 188.124 153.167 187.75 152.5C187.377 151.793 187.107 151.023 186.94 150.19C186.774 149.357 186.69 148.563 186.69 147.81C186.69 145.31 186.794 142.833 187 140.38C187.207 137.88 187.354 135.38 187.44 132.88C187.52 130.253 187.54 127.627 187.5 125C187.5 122.333 187.544 119.667 187.63 117C187.67 116.127 187.69 115.107 187.69 113.94C187.73 112.773 187.877 111.69 188.13 110.69C188.417 109.65 188.874 108.773 189.5 108.06C190.167 107.353 191.147 107 192.44 107C194.227 107 195.58 107.48 196.5 108.44C197.414 109.353 198.06 110.52 198.44 111.94C198.814 113.313 199 114.793 199 116.38C199 117.92 199 119.313 199 120.56C199 122.227 198.96 123.873 198.88 125.5C198.794 127.087 198.71 128.69 198.63 130.31L205.31 129.31C205.357 127.27 205.4 125.25 205.44 123.25C205.48 121.25 205.564 119.25 205.69 117.25C205.73 116.29 205.77 115.27 205.81 114.19C205.857 113.103 206.024 112.103 206.31 111.19C206.604 110.27 207.084 109.52 207.75 108.94C208.457 108.313 209.5 108 210.88 108C212.047 108 212.984 108.333 213.69 109C214.437 109.667 215.02 110.48 215.44 111.44C215.894 112.4 216.207 113.42 216.38 114.5C216.547 115.58 216.63 116.56 216.63 117.44V118.25Z" fill="#004480"/>
<path fill-rule="evenodd" clip-rule="evenodd" d="M204.02 15.22C207.39 23.6 196.77 38.66 194.57 46.95C194.57 46.95 186.93 47.98 184.15 48.08C199.85 56.32 205.68 76.6299 213.46 91.2999C211.894 92.6799 210.157 93.8133 208.25 94.6999C210.48 95.0899 226.9 96.3499 227.31 100.69C227.4 101.69 226.49 103.12 226.49 103.12L190.02 102.8C190.02 102.8 179.11 81.77 173.57 71.23C171.61 84.22 166.18 97.6499 153.87 103.77C128.1 104.35 102.29 103.65 76.5104 103.61C70.4304 103.56 59.3504 103.61 59.3504 103.61C59.3504 103.61 59.1304 96.6999 59.7504 92.7599C60.2204 89.7299 60.3704 87.9199 61.7004 85.1499C63.2104 82.0299 65.0604 80.2899 67.2404 78.1899C68.8271 76.9766 70.5637 76.1666 72.4504 75.76C69.7104 71.91 71.5104 66.6299 76.3604 66.2099C70.2204 54.6399 81.7204 49.98 91.3404 51.32C93.5104 51.62 95.6004 52.05 97.2004 52.61C98.9671 53.23 100.704 53.9333 102.41 54.72C102.437 56.0666 102.004 57.2533 101.11 58.2799C103.57 59.5599 105.957 60.9633 108.27 62.49C110.837 64.63 110.837 66.7333 108.27 68.8C106.25 70.0866 104.08 71.06 101.76 71.72C102.57 72.75 104.49 75.1799 105.5 75.5199C104.81 75.5199 104.35 75.5 104 75.5C103.3 75.5 101.76 73.32 100.78 72.36C99.5404 72.53 98.6904 72.5299 97.3604 72.5299C96.7337 72.3833 96.1371 72.1666 95.5704 71.8799C100.06 71.1499 104.91 70.0299 108.44 67.0199C109.72 65.7399 107.77 63.97 105.69 62.5C105.57 62.42 104.25 63.85 103.19 64.5C102.44 64.96 101.19 65.5 101.19 65.5C101.19 65.5 102.04 64.6599 102.57 64.0899C103.43 63.1699 104.78 61.6899 104.66 61.6199C102.64 60.4099 100.51 59.48 99.8004 59.25C99.0537 59.7233 98.2971 59.83 97.5304 59.57C98.3504 59 101.82 56.9999 100.94 55.6899C98.0104 54.0199 90.5604 52.7799 88.9004 52.7799C87.1271 56.4066 85.4437 60.0733 83.8504 63.7799C86.0904 64.9799 90.2004 67.9899 90.2004 67.9899C90.2004 67.9899 84.7904 66.2599 84.1704 68.9599C83.9404 69.9999 84.4704 70.77 84.9904 71.55C86.6704 73.26 89.0404 75.57 91.0104 73.98C91.7704 73.38 92.1104 72.7499 92.3104 71.8799C93.7771 74.6599 93.8437 76.6266 92.5104 77.7799C92.3704 77.8999 93.8604 79.1799 93.6904 79.2799C93.4504 79.4299 91.5204 78.3999 91.2204 78.5099C90.4004 78.8033 89.3537 78.9666 88.0804 78.9999C86.1537 78.9066 84.4171 78.2599 82.8704 77.0599C80.6904 83.2799 67.6604 97.6699 76.3604 101.99H86.1904C85.6904 98.9999 84.6904 96.9999 82.8704 94.4999C90.1204 83.3399 92.2304 76.5599 105.67 76.5599C112.68 76.5599 130.72 79.4799 137.07 81.4299C135.79 69.5899 133.64 50.1099 133.51 38.2099C135.057 35.7166 137.067 33.72 139.54 32.22C155.19 28.33 187.41 23.3099 187.41 23.3099C187.41 23.3099 189.76 29.09 190.34 31.41C194.48 25.32 201.34 8.54995 204.02 15.22ZM202.72 16.51C199.46 15.22 190.67 34.4799 190.67 34.4799L192.95 45.65L187.09 24.28C187.09 24.28 155.31 30.0899 139.54 33.5099C138.06 34.4699 135.33 38.2099 135.33 38.2099C135.68 59.24 139.16 83.8399 146.21 102.31L153.54 101.99C167.4 95.2099 170.82 79.82 172.92 66.05C177.74 78.3 184.52 89.9099 191.32 101.18C194.73 101 225.59 101.85 225.59 101.85C225.59 101.85 225.95 100.47 225.95 100.12C221.77 95.2699 197.37 95.6199 188.81 96.9999L188.4 96.3099C191.35 96.0499 209.59 92.6799 211.84 90.8199C207.74 85.1899 204.34 79.76 201.03 74.47C195.1 64.97 189.46 55.94 180.57 47.11C184.24 46.54 192.95 45.65 192.95 45.65C192.95 45.65 205.97 18.01 202.72 16.51ZM74.0804 77.3799C72.9804 77.4399 72.0404 77.4599 70.8204 77.8699C61.6504 80.9499 60.2304 94.2399 61.0004 101.99H73.0004C69.2404 97.6199 72.7004 92.0199 75.0504 87.7399C76.7804 84.6099 80.4904 77.9699 74.0804 77.3799Z" fill="#004480"/>
<path d="M92.2403 57.3701C93.4103 58.6301 94.3304 59.7901 92.9304 61.0501C92.3104 61.6101 90.5004 61.5301 89.1104 60.8301C90.1504 60.8301 91.3103 61.0101 92.2803 60.0801C92.9403 59.4501 92.5903 58.7501 92.2403 57.3701Z" fill="#004480"/>
<path d="M205.97 10.3599C206.05 9.89989 206.27 9.73656 206.63 9.8699C209.21 13.4399 207.93 23.3099 207.93 23.3099C207.93 23.3099 208.08 14.5299 205.97 10.3599Z" fill="#004480"/>
<path fill-rule="evenodd" clip-rule="evenodd" d="M153.54 101.99L146.21 102.31C139.17 83.84 135.68 59.24 135.33 38.21C135.33 38.21 138.06 34.47 139.54 33.51C155.31 30.09 187.09 24.28 187.09 24.28L192.95 45.65C192.95 45.65 184.24 46.54 180.57 47.11C189.46 55.94 195.1 64.97 201.03 74.47C204.34 79.76 207.74 85.19 211.84 90.82C209.59 92.68 191.35 96.05 188.4 96.31C182.61 86.57 177.05 76.54 172.92 66.05C170.82 79.82 167.4 95.21 153.54 101.99ZM153.54 68.8L152.56 68.48L159.12 61L155.5 46.78L156.47 45.98L174.37 46.42L153.54 68.8Z" fill="#004480"/>
<path d="M94.2001 16.28C93.3301 16.62 92.5501 17.13 91.8201 17.69C89.1101 19.8 86.8601 22.45 84.9501 25.23C84.0101 26.63 83.1501 28.09 82.6501 29.58C82.4101 30.3 82.3101 31.11 82.4901 31.45C82.5601 31.62 82.6501 31.69 82.8601 31.78C82.9668 31.82 83.0968 31.85 83.2501 31.87C83.3901 31.89 83.5568 31.9 83.7501 31.9C84.2435 31.8934 84.7368 31.8534 85.2301 31.78C86.4501 29.47 87.9201 26.82 91.4201 26.41C91.8501 26.42 92.3501 26.41 92.9601 26.84C93.2701 27.06 93.5201 27.47 93.5801 27.84C93.6501 28.22 93.6001 28.53 93.5301 28.78C93.2001 29.77 92.6701 30.3 92.1301 30.83C91.0401 31.85 89.7801 32.56 88.4401 33.08C87.5468 33.42 86.6234 33.66 85.6701 33.8C84.3701 36.09 83.2801 38.55 82.2901 41.04C81.9435 41.9 81.6168 42.77 81.3101 43.65C81.4835 42.7367 81.6835 41.8267 81.9101 40.92C82.5001 38.55 83.2201 36.2 84.1901 33.92C84.0434 33.9267 83.8968 33.93 83.7501 33.93C82.8101 33.94 81.1801 33.6 80.6601 32.16C80.2301 30.86 80.6001 29.86 80.9101 28.97C81.6101 27.2 82.6401 25.74 83.7301 24.35C85.9601 21.6 88.5601 19.14 91.6001 17.36C92.4201 16.9 93.2901 16.48 94.2001 16.28ZM91.4201 28.33C89.9101 28.31 88.4901 29.67 87.3001 31.28C87.4334 31.2334 87.5634 31.1867 87.6901 31.14C88.8101 30.71 89.8801 30.1 90.7301 29.34C91.0901 29.02 91.4301 28.61 91.5601 28.33C91.5201 28.3234 91.4734 28.3234 91.4201 28.33Z" fill="#004480"/>
<path d="M100.23 0.91C101.56 3.61 102.85 6.25 104.09 8.89C105.34 11.53 106.53 14.17 107.99 16.8C108.15 17.0867 108.317 17.3767 108.49 17.67C108.217 17.4767 107.947 17.27 107.68 17.05C105.31 15.09 103.49 12.52 102.2 9.77C100.9 7.02 100.1 4.04 99.8403 1.01C99.8136 0.67 99.7936 0.333333 99.7803 0C99.9269 0.3 100.077 0.603333 100.23 0.91Z" fill="#004480"/>
<path d="M93.8196 10.23C96.8496 10.43 99.7896 10.62 102.72 10.76C105.65 10.91 108.56 10.99 111.56 11.34C111.893 11.38 112.226 11.4266 112.56 11.48C112.273 11.3 111.98 11.13 111.68 10.97C108.96 9.51996 105.87 8.82996 102.82 8.67996C99.7696 8.52996 96.6996 8.91996 93.7796 9.83996C93.4529 9.93996 93.1296 10.05 92.8096 10.17C93.1496 10.19 93.4862 10.21 93.8196 10.23Z" fill="#004480"/>
<path d="M100.29 18.38C101.85 15.33 103.44 12.4 105.05 9.49C106.67 6.59 108.29 3.71 110.26 0.92C110.48 0.613333 110.704 0.306667 110.93 0C110.61 0.206667 110.294 0.423333 109.98 0.65C107.15 2.69 104.9 5.47 103.22 8.49C101.54 11.52 100.4 14.84 99.9203 18.26C99.8603 18.64 99.8136 19.02 99.7803 19.4C99.9536 19.06 100.124 18.72 100.29 18.38Z" fill="#004480"/>
<path d="M91.0104 79.28C89.9304 79.79 89.3204 79.93 88.1904 79.78L82.1904 93.5C85.1704 88.84 88.9504 83.04 92.1904 79.78L91.0104 79.28Z" fill="#004480"/>
<path d="M116.131 68.6864C116.161 68.1743 113.5 67.3584 109.887 68.8599L108.631 69.5L106.509 70.5698L103.131 72.2796C107.993 76.6628 109.743 81.2889 115.998 77.739L116.131 68.6864Z" fill="#004480"/>
<path d="M32.125 125.688C32.125 129.354 31.375 132.896 29.875 136.312C28.375 139.688 26.3542 142.688 23.8125 145.312C21.3125 147.938 18.375 150.042 15 151.625C11.6667 153.167 8.14583 153.938 4.4375 153.938H4.3125C3.5625 153.938 2.9375 153.604 2.4375 152.938C1.97917 152.229 1.58333 151.354 1.25 150.312C0.916667 149.271 0.666667 148.104 0.5 146.812C0.333333 145.521 0.208333 144.271 0.125 143.062C0.0416667 141.812 0 140.708 0 139.75C0 138.75 0 138 0 137.5C0 136.083 0.0208333 134.688 0.0625 133.312C0.104167 131.896 0.166667 130.479 0.25 129.062C0.25 128.604 0.270833 127.938 0.3125 127.062C0.395833 126.146 0.479167 125.125 0.5625 124C0.645833 122.875 0.75 121.708 0.875 120.5C1 119.25 1.125 118.104 1.25 117.062C1.41667 115.979 1.5625 115.042 1.6875 114.25C1.85417 113.417 2.04167 112.854 2.25 112.562C2.79167 111.646 3.625 110.833 4.75 110.125C5.875 109.417 7.08333 108.833 8.375 108.375C9.70833 107.917 11.0417 107.583 12.375 107.375C13.75 107.125 14.9375 107 15.9375 107C18.6875 107 21.0625 107.521 23.0625 108.562C25.1042 109.562 26.7917 110.938 28.125 112.688C29.5 114.396 30.5 116.375 31.125 118.625C31.7917 120.875 32.125 123.229 32.125 125.688ZM21.625 127.5C21.625 126.583 21.4583 125.646 21.125 124.688C20.7917 123.729 20.3125 122.854 19.6875 122.062C19.1042 121.271 18.375 120.646 17.5 120.188C16.6667 119.688 15.7292 119.438 14.6875 119.438C13.8125 119.438 12.9167 119.646 12 120.062C11.7917 120.188 11.6042 120.583 11.4375 121.25C11.2708 121.875 11.125 122.646 11 123.562C10.9167 124.479 10.8333 125.479 10.75 126.562C10.6667 127.646 10.6042 128.688 10.5625 129.688C10.5625 130.646 10.5417 131.5 10.5 132.25C10.5 133 10.5 133.5 10.5 133.75C10.5 134.167 10.5 134.792 10.5 135.625C10.5 136.417 10.5208 137.208 10.5625 138C10.6458 138.792 10.7292 139.479 10.8125 140.062C10.8958 140.646 11.0417 140.938 11.25 140.938C12.5 140.938 13.7292 140.458 14.9375 139.5C16.1875 138.5 17.3125 137.292 18.3125 135.875C19.3125 134.458 20.1042 132.979 20.6875 131.438C21.3125 129.896 21.625 128.583 21.625 127.5Z" fill="#004480"/>
<path d="M46.8125 155.625C44.6875 155.625 42.8333 155.062 41.25 153.938C39.6667 152.812 38.3333 151.375 37.25 149.625C36.1667 147.875 35.3542 145.938 34.8125 143.812C34.2708 141.646 34 139.521 34 137.438C34 135.229 34.2708 132.958 34.8125 130.625C35.3542 128.25 36.1875 126.104 37.3125 124.188C38.4375 122.229 39.875 120.646 41.625 119.438C43.375 118.188 45.4583 117.562 47.875 117.562C50.2083 117.562 52.1875 118.208 53.8125 119.5C55.4792 120.75 56.8125 122.333 57.8125 124.25C58.8125 126.125 59.5208 128.188 59.9375 130.438C60.3542 132.688 60.5 134.812 60.375 136.812C60.25 139.021 59.8958 141.25 59.3125 143.5C58.7708 145.75 57.9583 147.771 56.875 149.562C55.7917 151.354 54.4167 152.812 52.75 153.938C51.0833 155.062 49.1042 155.625 46.8125 155.625ZM47.4375 127.375C46.8125 127.375 46.25 127.708 45.75 128.375C45.2917 129.042 44.8958 129.854 44.5625 130.812C44.2708 131.771 44.0417 132.792 43.875 133.875C43.7083 134.917 43.625 135.833 43.625 136.625C43.625 137.625 43.7083 138.708 43.875 139.875C44.0833 141.042 44.3542 142.125 44.6875 143.125C45.0208 144.083 45.4167 144.896 45.875 145.562C46.375 146.188 46.9375 146.5 47.5625 146.5C48.2292 146.5 48.7917 146.188 49.25 145.562C49.75 144.938 50.1458 144.146 50.4375 143.188C50.7292 142.229 50.9375 141.188 51.0625 140.062C51.1875 138.896 51.25 137.812 51.25 136.812C51.25 135.896 51.1667 134.896 51 133.812C50.8333 132.688 50.5833 131.646 50.25 130.688C49.9583 129.729 49.5625 128.938 49.0625 128.312C48.6042 127.688 48.0625 127.375 47.4375 127.375Z" fill="#004480"/>
<path d="M81.3125 155.562C80.6042 155.562 80.0417 155.229 79.625 154.562C79.2083 153.938 78.8958 153.208 78.6875 152.375C78.4792 151.542 78.3333 150.708 78.25 149.875C78.2083 149 78.1875 148.333 78.1875 147.875C78.1875 146.625 78.25 145.375 78.375 144.125C78.5417 142.875 78.7083 141.625 78.875 140.375C79.0833 139.125 79.25 137.875 79.375 136.625C79.5417 135.375 79.625 134.125 79.625 132.875C79.625 132.375 79.6042 131.833 79.5625 131.25C79.5208 130.667 79.4167 130.125 79.25 129.625C79.125 129.083 78.8958 128.646 78.5625 128.312C78.2292 127.979 77.7917 127.812 77.25 127.812C76.875 127.812 76.4583 128.125 76 128.75C75.5417 129.333 75.1042 130.021 74.6875 130.812C74.3125 131.562 73.9792 132.333 73.6875 133.125C73.4375 133.875 73.3125 134.438 73.3125 134.812C73.3125 135.729 73.3125 136.667 73.3125 137.625C73.3542 138.542 73.375 139.479 73.375 140.438V144.062C73.3333 144.812 73.2708 145.583 73.1875 146.375C73.1042 147.167 72.9792 147.938 72.8125 148.688C72.6875 149.438 72.5 150.167 72.25 150.875C72 151.542 71.6667 152.146 71.25 152.688C70.875 153.188 70.4167 153.604 69.875 153.938C69.3333 154.271 68.6875 154.438 67.9375 154.438C67.1042 154.438 66.4167 154.167 65.875 153.625C65.3333 153.083 64.8958 152.396 64.5625 151.562C64.2292 150.688 63.9792 149.729 63.8125 148.688C63.6875 147.604 63.5833 146.562 63.5 145.562C63.4583 144.521 63.4375 143.583 63.4375 142.75C63.4792 141.875 63.5 141.188 63.5 140.688V137.75C63.5 136.167 63.4583 134.604 63.375 133.062C63.3333 131.521 63.3125 129.979 63.3125 128.438C63.3125 127.604 63.3125 126.542 63.3125 125.25C63.3542 123.958 63.5208 122.708 63.8125 121.5C64.1042 120.25 64.5833 119.188 65.25 118.312C65.9167 117.438 66.8958 117 68.1875 117C68.7708 117 69.2917 117.188 69.75 117.562C70.2083 117.938 70.6042 118.396 70.9375 118.938C71.3125 119.479 71.6042 120.062 71.8125 120.688C72.0625 121.312 72.25 121.854 72.375 122.312C72.7917 121.729 73.2708 121.167 73.8125 120.625C74.3958 120.083 75.0417 119.604 75.75 119.188C76.4583 118.771 77.25 118.438 78.125 118.188C79 117.938 80 117.812 81.125 117.812C83.25 117.812 84.8958 118.333 86.0625 119.375C87.2708 120.375 88.1458 121.646 88.6875 123.188C89.2708 124.688 89.625 126.312 89.75 128.062C89.875 129.812 89.9375 131.396 89.9375 132.812C89.9375 133.521 89.875 134.583 89.75 136C89.625 137.375 89.4167 138.917 89.125 140.625C88.875 142.292 88.5208 144.021 88.0625 145.812C87.6042 147.562 87.0625 149.167 86.4375 150.625C85.8125 152.083 85.0625 153.271 84.1875 154.188C83.3542 155.104 82.3958 155.562 81.3125 155.562Z" fill="#004480"/>
<path d="M119.625 142.688C119.625 144.104 119.167 145.5 118.25 146.875C117.375 148.208 116.25 149.417 114.875 150.5C113.542 151.542 112.104 152.396 110.562 153.062C109.021 153.688 107.604 154 106.312 154C104.104 154 102.125 153.458 100.375 152.375C98.6667 151.25 97.2292 149.833 96.0625 148.125C94.8958 146.417 94 144.542 93.375 142.5C92.7917 140.417 92.5 138.396 92.5 136.438C92.5 134.354 92.7917 132.125 93.375 129.75C93.9583 127.375 94.8333 125.188 96 123.188C97.2083 121.188 98.7083 119.521 100.5 118.188C102.333 116.854 104.5 116.188 107 116.188C108.417 116.188 109.771 116.438 111.062 116.938C112.354 117.396 113.479 118.062 114.438 118.938C115.396 119.812 116.167 120.854 116.75 122.062C117.333 123.271 117.625 124.625 117.625 126.125C117.625 128.083 117.208 129.917 116.375 131.625C115.542 133.333 114.438 134.812 113.062 136.062C111.688 137.312 110.104 138.333 108.312 139.125C106.521 139.875 104.688 140.292 102.812 140.375C102.979 141.583 103.458 142.458 104.25 143C105.083 143.542 106.062 143.812 107.188 143.812C108.021 143.812 108.833 143.604 109.625 143.188C110.417 142.771 111.188 142.312 111.938 141.812C112.688 141.271 113.417 140.792 114.125 140.375C114.875 139.958 115.625 139.75 116.375 139.75C117.208 139.75 117.958 140.021 118.625 140.562C119.292 141.104 119.625 141.812 119.625 142.688ZM109.5 127.375C109.5 126.833 109.354 126.271 109.062 125.688C108.771 125.104 108.312 124.812 107.688 124.812C106.771 124.812 106 125.062 105.375 125.562C104.75 126.021 104.229 126.625 103.812 127.375C103.396 128.083 103.062 128.854 102.812 129.688C102.604 130.521 102.479 131.292 102.438 132C103.021 131.875 103.708 131.708 104.5 131.5C105.333 131.292 106.104 131.021 106.812 130.688C107.562 130.312 108.188 129.854 108.688 129.312C109.229 128.771 109.5 128.125 109.5 127.375Z" fill="#004480"/>
<path d="M133.812 115.938C133.812 118.188 133.708 120.458 133.5 122.75C133.333 125 133.25 127.271 133.25 129.562C133.25 132.521 133.333 135.479 133.5 138.438C133.708 141.396 133.812 144.375 133.812 147.375C133.812 148.125 133.771 148.979 133.688 149.938C133.604 150.854 133.396 151.708 133.062 152.5C132.771 153.292 132.312 153.958 131.688 154.5C131.062 155.042 130.229 155.312 129.188 155.312C128.188 155.312 127.312 154.812 126.562 153.812C125.854 152.854 125.25 151.625 124.75 150.125C124.292 148.583 123.896 146.875 123.562 145C123.271 143.125 123.042 141.312 122.875 139.562C122.75 137.771 122.646 136.146 122.562 134.688C122.521 133.188 122.5 132.083 122.5 131.375C122.5 130.583 122.521 129.438 122.562 127.938C122.646 126.438 122.792 124.812 123 123.062C123.208 121.312 123.479 119.542 123.812 117.75C124.188 115.917 124.667 114.271 125.25 112.812C125.833 111.312 126.521 110.104 127.312 109.188C128.146 108.229 129.125 107.75 130.25 107.75C131.167 107.75 131.854 108.062 132.312 108.688C132.812 109.271 133.167 110 133.375 110.875C133.583 111.708 133.708 112.604 133.75 113.562C133.792 114.479 133.812 115.271 133.812 115.938Z" fill="#004480"/>
<path d="M152.125 172C151.125 172 149.979 171.833 148.688 171.5C147.438 171.208 146.25 170.771 145.125 170.188C144 169.604 143.042 168.896 142.25 168.062C141.5 167.229 141.125 166.271 141.125 165.188C141.125 164.771 141.229 164.354 141.438 163.938C141.646 163.521 141.917 163.146 142.25 162.812C142.625 162.521 143.021 162.271 143.438 162.062C143.854 161.896 144.292 161.812 144.75 161.812C145.25 161.812 145.729 161.875 146.188 162C146.688 162.167 147.188 162.354 147.688 162.562C148.229 162.771 148.75 162.958 149.25 163.125C149.792 163.292 150.354 163.375 150.938 163.375C151.979 163.375 152.875 163.021 153.625 162.312C154.417 161.604 155.083 160.667 155.625 159.5C156.167 158.375 156.604 157.104 156.938 155.688C157.271 154.312 157.521 152.938 157.688 151.562C157.896 150.188 158.042 148.896 158.125 147.688C158.208 146.479 158.271 145.5 158.312 144.75C156.854 146.958 155.396 148.667 153.938 149.875C152.521 151.042 150.771 151.625 148.688 151.625C147.104 151.625 145.708 151.292 144.5 150.625C143.333 149.958 142.333 149.083 141.5 148C140.667 146.917 139.979 145.688 139.438 144.312C138.896 142.896 138.479 141.438 138.188 139.938C137.938 138.438 137.771 136.979 137.688 135.562C137.604 134.104 137.604 132.771 137.688 131.562C137.729 130.646 137.833 129.458 138 128C138.208 126.5 138.521 125.042 138.938 123.625C139.354 122.208 139.938 121.021 140.688 120.062C141.438 119.062 142.417 118.604 143.625 118.688C144.417 118.729 145.062 119.083 145.562 119.75C146.062 120.375 146.458 121.167 146.75 122.125C147.083 123.083 147.312 124.146 147.438 125.312C147.604 126.438 147.708 127.562 147.75 128.688C147.792 129.812 147.792 130.854 147.75 131.812C147.75 132.729 147.75 133.438 147.75 133.938C147.75 134.646 147.771 135.354 147.812 136.062C147.854 136.771 148 137.417 148.25 138C148.5 138.542 148.875 138.979 149.375 139.312C149.917 139.646 150.667 139.812 151.625 139.812C152.708 139.812 153.562 139.542 154.188 139C154.854 138.458 155.333 137.792 155.625 137C155.958 136.167 156.167 135.292 156.25 134.375C156.333 133.417 156.375 132.521 156.375 131.688C156.375 131.104 156.375 130.396 156.375 129.562C156.375 128.729 156.375 127.854 156.375 126.938C156.417 126.021 156.5 125.125 156.625 124.25C156.792 123.333 157.021 122.521 157.312 121.812C157.646 121.062 158.062 120.458 158.562 120C159.104 119.542 159.792 119.312 160.625 119.312C161.667 119.312 162.562 119.729 163.312 120.562C164.062 121.354 164.688 122.417 165.188 123.75C165.729 125.042 166.146 126.479 166.438 128.062C166.771 129.646 167.021 131.229 167.188 132.812C167.354 134.354 167.458 135.792 167.5 137.125C167.583 138.417 167.625 139.438 167.625 140.188C167.625 141.938 167.562 143.938 167.438 146.188C167.312 148.396 167.062 150.688 166.688 153.062C166.354 155.396 165.833 157.688 165.125 159.938C164.417 162.229 163.479 164.271 162.312 166.062C161.188 167.854 159.792 169.292 158.125 170.375C156.458 171.458 154.458 172 152.125 172Z" fill="#004480"/>
</g>
<defs>
<clipPath id="clip0_1173_8272">
<rect width="318" height="214" fill="white"/>
</clipPath>
</defs>
</svg>
