<svg version="1.2" xmlns="http://www.w3.org/2000/svg" viewBox="0 0 261 210" width="261" height="210">
	<style>
		.s0 { fill: #004480 } 
	</style>
	<path class="s0" d="m80.29 41.65c2.35-1.42 6.73-0.44 7.32 2.28 2.1 9.81 1.23 36.64 1.23 36.64l-1.06-0.01c0 0 0.7-25.84-0.96-35.87-0.37-2.22-4.18-3.97-7.32-1.53-4.84 3.78-8.42 10.71-8.42 10.71l-0.88-0.29c0 0 0.92-1.73 3.29-4.83 2.44-3.2 3.72-5.24 6.8-7.1z"/>
	<path class="s0" d="m81.56 49.07c0.16 0 0.69 0.23 0.69 0.23-0.73 2.77-1.84 7.86-2.37 10.21-0.08-0.16-0.46-0.49-0.54-0.66q1.11-4.87 2.22-9.78z"/>
	<g id="Layer 1">
		<path class="s0" d="m229.63 172.63q-0.01 1.81-1.25 2.68-1.19 0.88-2.69 1.69-1.5 0.75-2.75 1.81-1.19 1.07-1.19 3.19 0 1.13 0.5 1.94 0.56 0.81 1.31 1.5 0.82 0.62 1.75 1.31 0.94 0.69 1.69 1.56 0.81 0.88 1.31 2.13 0.57 1.25 0.57 3.06 0 2.62-1.38 5.19-1.31 2.5-3.44 4.5-2.06 1.94-4.68 3.12-2.63 1.19-5.19 1.19-1.06 0-2.13-0.19-1.06-0.12-1.93-0.56-0.82-0.44-1.38-1.19-0.56-0.81-0.56-2.06 0-1.75 0.69-2.69 0.68-1 1.75-1.56 1.06-0.56 2.25-0.87 1.24-0.32 2.31-0.75 1.06-0.5 1.75-1.25 0.69-0.75 0.69-2.13 0-1.31-1.07-2.69-1-1.43-2.25-3-1.25-1.62-2.31-3.43-1-1.82-1-4 0-2.69 1.06-4.94 1.13-2.32 2.94-4 1.88-1.69 4.25-2.63 2.37-1 5-1 1 0 1.94 0.19 1 0.19 1.75 0.69 0.75 0.43 1.19 1.25 0.49 0.75 0.5 1.94z"/>
		<path class="s0" d="m208.81 195.88q0 2.12-1.37 4.18-1.32 2-3.38 3.63-2 1.56-4.31 2.56-2.31 0.94-4.25 0.94-3.31 0-5.94-1.63-2.56-1.68-4.31-4.25-1.75-2.56-2.69-5.62-0.87-3.13-0.87-6.06 0-3.13 0.87-6.69 0.88-3.57 2.63-6.56 1.81-3.01 4.5-5 2.75-2 6.5-2 2.12 0 4.06 0.75 1.94 0.68 3.37 2 1.44 1.31 2.32 3.12 0.87 1.81 0.87 4.06 0 2.94-1.25 5.5-1.25 2.57-3.31 4.44-2.06 1.88-4.75 3.06-2.69 1.13-5.5 1.25 0.25 1.82 1.44 2.63 1.25 0.81 2.93 0.81 1.25 0 2.44-0.62 1.19-0.63 2.31-1.38 1.13-0.81 2.19-1.44 1.13-0.62 2.25-0.62 1.25 0 2.25 0.81 1 0.81 1 2.13zm-10.12-15.32q0-0.81-0.44-1.68-0.44-0.88-1.38-0.88-1.37 0-2.31 0.75-0.93 0.69-1.56 1.81-0.63 1.07-1 2.32-0.31 1.24-0.38 2.31 0.88-0.19 2.07-0.5 1.25-0.32 2.31-0.81 1.12-0.57 1.87-1.38 0.82-0.81 0.82-1.94z"/>
		<path class="s0" d="m179.13 183q0 0.31-0.07 0.69-0.06 0.31-0.18 0.62-0.57 1.44-1.75 2.44-1.19 0.94-2.82 0.94-2.43 0-3.31-2.44-0.12-0.31-0.12-0.69 0-0.43-0.07-0.87v-1.81q-0.12-0.88-0.43-1.38-0.32-0.5-1.07-0.5-1.06 0-2.06 1.38-0.94 1.31-1.69 3.18-0.69 1.82-1.12 3.75-0.44 1.94-0.44 3.13 0 0.93 0.13 2.31 0.12 1.31 0.5 2.56 0.37 1.25 1 2.19 0.68 0.87 1.75 0.88 1.06 0 1.93-0.63 0.94-0.69 1.82-1.56 0.81-0.75 1.75-1.56 1-0.82 2.25-0.82 1.56 0 2.43 1.13 0.94 1.12 0.94 2.56 0 2.13-1.12 4-1.13 1.81-2.82 3.19-1.68 1.31-3.75 2.06-2.06 0.81-3.93 0.81-3.38 0-5.75-1.69-2.32-1.68-3.75-4.25-1.44-2.62-2.07-5.68-0.62-3.07-0.62-5.82 0-3.18 0.87-6.87 0.88-3.75 2.69-6.94 1.81-3.18 4.63-5.31 2.87-2.13 6.81-2.13 2.43 0 4.19 1.07 1.81 1.06 2.93 2.81 1.19 1.69 1.75 3.81 0.63 2.13 0.63 4.19 0 0.31 0 0.62 0 0.32-0.06 0.63z"/>
		<path class="s0" d="m151 163.38q0 0.87-0.5 1.56-0.44 0.68-1.19 1.25-0.75 0.5-1.62 0.81-0.88 0.25-1.63 0.25-1.25 0-2.19-0.62-0.93-0.63-0.93-1.94 0-0.94 0.43-1.63 0.5-0.75 1.19-1.18 0.69-0.5 1.56-0.75 0.88-0.26 1.69-0.25 1.19-0.01 2.19 0.56 1 0.56 1 1.94zm0.5 21.25q0 0.87 0 1.87 0 0.94-0.06 1.81-0.06 1.07-0.06 2.88-0.01 1.75-0.13 3.81-0.12 2.06-0.44 4.19-0.25 2.12-0.87 3.87-0.63 1.75-1.69 2.88-1 1.06-2.56 1.12-1.19 0.07-2-0.93-0.81-1.01-1.38-2.57-0.5-1.62-0.75-3.56-0.25-2-0.37-3.81-0.13-1.88-0.13-3.44 0-1.56 0-2.31 0-1 0-2.81 0-1.88 0.13-4 0.12-2.13 0.43-4.32 0.38-2.18 1-4 0.69-1.81 1.75-2.93 1.07-1.13 2.69-1.13 1.69 0 2.56 1.69 0.88 1.68 1.32 3.94 0.43 2.25 0.5 4.5 0.06 2.18 0.06 3.25z"/>
		<path class="s0" d="m136.5 184.63q-1.63 4.31-3.56 9-1.94 4.68-4.19 8.75-1.38 2.5-3.06 4.18-1.69 1.63-3.88 1.63-1.75 0-3.43-1.75-1.63-1.82-3.07-4.25-1.37-2.5-2.43-5-1.01-2.57-1.5-4.06-0.5-1.69-1.13-3.63-0.63-1.94-1.12-3.94-0.5-2-0.82-3.93-0.31-2-0.31-3.75 0-2.44 0.88-4 0.87-1.57 3.43-1.57 1 0 1.82 0.63 0.81 0.56 1.5 1.62 0.68 1.07 1.31 2.5 0.62 1.38 1.19 3.07 0.56 1.62 1.06 3.37 0.5 1.75 1 3.38 0.5 1.62 1 3.18 0.56 1.5 1.44 3 0.43-1.12 1-2.56 0.56-1.44 1.18-3.06 0.69-1.63 1.44-3.31 0.75-1.76 1.63-3.38 1.68-3.38 3.56-5.75 1.93-2.37 3.81-2.37 1.75-0.01 2.5 1.06 0.75 1.06 0.75 2.75 0 1.68-0.56 3.81-0.57 2.13-1.44 4.38z"/>
		<path class="s0" d="m104.25 183.63q-0.87 0.06-1.5-0.13-0.63-0.25-1.25-0.5-0.56-0.25-1.13-0.44-0.56-0.25-1.25-0.18-1.24 0.06-2.25 0.68-0.93 0.63-1.75 1.57-0.75 0.93-1.31 2.12-0.56 1.13-0.87 2.25-0.19 0.75-0.32 2.31-0.06 1.5-0.06 3.25-0.06 1.82-0.06 3.44 0 1.63-0.13 2.56-0.06 1-0.31 2.38-0.25 1.31-0.81 2.5-0.5 1.18-1.38 2-0.87 0.81-2.25 0.81-1.06 0-1.87-0.62-0.75-0.63-1.31-1.63-0.5-1.06-0.88-2.44-0.31-1.37-0.5-2.81-0.19-1.5-0.31-3-0.06-1.5-0.12-2.81 0-1.38 0-2.5 0.06-1.13 0.06-1.81-0.07-2.19-0.25-4.38-0.13-2.25-0.13-4.44 0-1.37 0.13-3.06 0.12-1.69 0.69-3.12 0.56-1.5 1.62-2.5 1.12-1.01 3.06-1 1.06 0 1.81 0.68 0.75 0.69 1.19 1.69 0.5 1 0.75 2.13 0.25 1.12 0.31 2.06 1.5-2.44 3.38-3.94 1.88-1.56 4.88-1.69 1.5-0.06 2.93 0.32 1.5 0.31 2.69 1.12 1.25 0.75 2 2 0.81 1.25 0.88 2.94 0.12 2-1.19 3.06-1.32 1.06-3.19 1.13z"/>
		<path class="s0" d="m80.06 195.88q0 2.12-1.37 4.18-1.32 2-3.38 3.63-2 1.56-4.31 2.56-2.31 0.94-4.25 0.94-3.31 0-5.94-1.63-2.56-1.68-4.31-4.25-1.75-2.56-2.69-5.62-0.87-3.13-0.87-6.06 0-3.13 0.87-6.69 0.88-3.57 2.63-6.56 1.81-3.01 4.5-5 2.75-2 6.5-2 2.12 0 4.06 0.75 1.94 0.68 3.37 2 1.44 1.31 2.32 3.12 0.87 1.81 0.87 4.06 0 2.94-1.25 5.5-1.25 2.57-3.31 4.44-2.06 1.88-4.75 3.06-2.69 1.13-5.5 1.25 0.25 1.82 1.44 2.63 1.25 0.81 2.93 0.81 1.25 0 2.44-0.62 1.19-0.63 2.31-1.38 1.13-0.81 2.19-1.44 1.13-0.62 2.25-0.62 1.25 0 2.25 0.81 1 0.81 1 2.13zm-10.12-15.32q0-0.81-0.44-1.68-0.44-0.88-1.38-0.88-1.37 0-2.31 0.75-0.93 0.69-1.56 1.81-0.63 1.07-1 2.32-0.31 1.24-0.38 2.31 0.88-0.19 2.07-0.5 1.25-0.32 2.31-0.81 1.12-0.57 1.87-1.38 0.82-0.81 0.82-1.94z"/>
		<path class="s0" d="m51.69 163.13q0 1.43-0.94 2.5-0.87 1.06-2.12 1.75-1.13 0.68-2.32 1.5-1.18 0.74-2.18 1.75-1 0.93-1.63 2.12-0.63 1.19-0.62 2.69-0.01 1.31 0.62 2.37 0.63 1.07 1.5 2.13 0.94 1 2 2.12 1.13 1.07 2 2.44 0.94 1.31 1.56 3 0.63 1.69 0.63 3.94 0 1.56-0.69 3.56-0.63 1.94-1.75 3.94-1.12 2-2.69 3.87-1.5 1.88-3.25 3.38-1.68 1.44-3.56 2.31-1.87 0.94-3.62 0.94-1.94 0-3.44-1.06-1.5-1.07-1.5-3.19 0-1.44 0.69-2.63 0.68-1.25 1.68-2.37 1-1.13 2.19-2.19 1.25-1.06 2.25-2.12 1-1.07 1.69-2.19 0.68-1.19 0.69-2.5 0-1.82-1.32-3.69-1.25-1.94-2.81-3.94-1.56-2.06-2.87-4.18-1.25-2.13-1.25-4.32 0-2.68 1.43-5.62 1.44-3 3.69-5.44 2.25-2.5 5.06-4.12 2.82-1.63 5.57-1.63 2.18 0 3.75 1.31 1.56 1.32 1.56 3.57z"/>
		<path class="s0" d="m260.63 137.88q0 2.12-1.38 4.18-1.31 2-3.37 3.63-2 1.56-4.32 2.56-2.31 0.94-4.25 0.94-3.31 0-5.93-1.63-2.57-1.68-4.32-4.25-1.75-2.56-2.68-5.62-0.88-3.13-0.88-6.06 0-3.13 0.88-6.69 0.87-3.57 2.62-6.56 1.81-3.01 4.5-5 2.75-2 6.5-2 2.13 0 4.06 0.75 1.94 0.68 3.38 2 1.44 1.31 2.31 3.12 0.87 1.81 0.88 4.06-0.01 2.94-1.25 5.5-1.25 2.57-3.32 4.44-2.06 1.88-4.75 3.06-2.68 1.13-5.5 1.25 0.25 1.82 1.44 2.63 1.25 0.81 2.94 0.81 1.25 0 2.44-0.62 1.18-0.63 2.31-1.38 1.12-0.81 2.19-1.44 1.12-0.62 2.25-0.62 1.24 0 2.25 0.81 1 0.81 1 2.13zm-10.13-15.32q0-0.81-0.44-1.68-0.44-0.88-1.37-0.88-1.38 0-2.31 0.75-0.94 0.69-1.57 1.81-0.62 1.07-1 2.32-0.31 1.24-0.37 2.31 0.87-0.19 2.06-0.5 1.25-0.32 2.31-0.81 1.13-0.57 1.88-1.38 0.81-0.81 0.81-1.94z"/>
		<path class="s0" d="m230.31 128.38q0 1.18 0 3.25 0 2-0.12 4.37-0.06 2.38-0.38 4.81-0.31 2.38-1 4.32-0.62 1.93-1.62 3.18-1 1.25-2.57 1.25-1.37 0-2.12-1.12-0.69-1.19-1-2.75-0.31-1.57-0.38-3.19 0-1.63 0-2.56 0.01-2.82 0.19-5.5 0.19-2.69 0.19-5.5 0-0.32 0-1.13 0-0.81-0.13-1.62-0.12-0.81-0.43-1.44-0.25-0.63-0.82-0.62-1.12 0-1.81 1.18-0.69 1.13-1.12 2.69-0.44 1.56-0.63 3.13-0.18 1.5-0.25 2.25-0.12 0.81-0.25 2.43-0.06 1.63-0.25 3.57-0.12 1.93-0.5 4-0.31 2-0.87 3.68-0.5 1.63-1.32 2.69-0.81 1.06-2 1.06-1.5 0-2.31-1.31-0.81-1.31-1.19-3.06-0.37-1.75-0.5-3.56-0.06-1.82-0.06-2.82 0-1.06 0-2.06 0.06-1 0.06-2.06 0-0.44 0-1.44 0-1-0.06-2.19 0-1.25-0.12-2.56-0.07-1.31-0.25-2.37-0.19-1.13-0.57-1.82-0.37-0.68-0.87-0.68-0.81-0.01-1.5 1.06-0.69 1-1.19 2.44-0.5 1.37-0.81 2.75-0.25 1.37-0.25 2v0.37q0 3 0.37 5.88 0.38 2.87 0.38 5.87 0 1.75-1.13 3.25-1.12 1.44-3.12 1.44-1.44 0-2.38-1.06-0.93-1.13-1.56-2.88-0.62-1.75-1-3.81-0.31-2.13-0.44-4.13-0.12-2.06-0.18-3.68 0-1.69 0-2.5 0-0.94-0.07-2.75 0-1.82 0.07-3.94 0.12-2.13 0.37-4.31 0.25-2.25 0.81-4.07 0.57-1.81 1.44-2.93 0.94-1.19 2.38-1.19 1.62 0 2.62 0.87 1.07 0.88 1.06 2.63 0 0.37-0.06 0.75 0 0.37-0.06 0.69 0.69-1 1.69-2 1-1.07 2.12-1.88 1.19-0.87 2.5-1.37 1.31-0.57 2.63-0.57 1.25 0 2.25 0.69 1 0.69 1.75 1.75 0.75 1 1.25 2.19 0.5 1.18 0.68 2.25 0.63-1.13 1.5-2.25 0.94-1.19 2-2.06 1.07-0.88 2.32-1.44 1.31-0.57 2.68-0.56 1.32 0 2.25 0.93 0.94 0.94 1.63 2.44 0.69 1.44 1.06 3.31 0.38 1.82 0.63 3.63 0.25 1.75 0.31 3.31 0.06 1.5 0.06 2.38z"/>
		<path class="s0" d="m175.63 150.81q-3.19 0-5.57-1.69-2.37-1.68-4-4.31-1.62-2.62-2.43-5.81-0.82-3.25-0.82-6.38 0-3.31 0.82-6.81 0.81-3.56 2.5-6.44 1.68-2.93 4.31-4.75 2.62-1.87 6.25-1.87 3.5 0 5.94 1.94 2.5 1.87 4 4.75 1.49 2.81 2.12 6.18 0.62 3.38 0.44 6.38-0.19 3.31-1.06 6.69-0.82 3.37-2.44 6.06-1.63 2.69-4.13 4.37-2.5 1.69-5.93 1.69zm0.62-28.25q-0.94 0-1.69 1-0.69 1-1.18 2.44-0.44 1.44-0.69 3.06-0.25 1.57-0.25 2.75 0 1.5 0.25 3.25 0.31 1.75 0.81 3.25 0.5 1.44 1.19 2.44 0.75 0.94 1.69 0.94 1 0 1.68-0.94 0.75-0.94 1.19-2.38 0.44-1.43 0.63-3.12 0.18-1.75 0.18-3.25 0-1.38-0.25-3-0.25-1.69-0.75-3.13-0.43-1.43-1.18-2.37-0.69-0.94-1.63-0.94z"/>
		<path class="s0" d="m159.63 113.25q0 5.19-0.25 10.44-0.26 5.19-0.63 10.37-0.06 0.94-0.12 2.57-0.07 1.56-0.25 3.43-0.19 1.82-0.5 3.69-0.32 1.88-1 3.44-0.63 1.5-1.69 2.44-1 1-2.5 1-1.32 0-2.38-0.57-1-0.56-1.68-1.43-0.69-0.94-1.07-2.07-0.37-1.18-0.37-2.43 0-2.07 0.12-4.13 0.13-2.12 0.38-4.19l-6.19 0.63q-0.19 1.62-0.44 3.94-0.18 2.24-0.87 4.37-0.63 2.06-1.94 3.56-1.31 1.5-3.62 1.5-1.44 0-2.38-0.68-0.94-0.63-1.5-1.63-0.56-1.06-0.81-2.31-0.25-1.25-0.25-2.38 0-3.75 0.31-7.43 0.31-3.75 0.44-7.5 0.12-3.94 0.06-7.88 0-4 0.13-8 0.06-1.31 0.06-3.06 0.06-1.75 0.44-3.25 0.43-1.56 1.37-2.63 1-1.06 2.94-1.06 2.68 0 4.06 1.44 1.37 1.37 1.94 3.5 0.56 2.06 0.56 4.44 0 2.31 0 4.18 0 2.5-0.12 4.94-0.13 2.38-0.25 4.81l6.68-1q0.07-3.06 0.13-6.06 0.06-3 0.25-6 0.06-1.44 0.12-3.06 0.07-1.63 0.5-3 0.44-1.38 1.44-2.25 1.06-0.94 3.13-0.94 1.75 0 2.81 1 1.12 1 1.75 2.44 0.68 1.44 0.94 3.06 0.25 1.62 0.25 2.94z"/>
		<path class="s0" d="m95 167.19q-1.5 0-3.44-0.5-1.87-0.44-3.56-1.31-1.69-0.88-2.88-2.13-1.12-1.25-1.12-2.87 0-0.63 0.31-1.25 0.32-0.63 0.81-1.13 0.57-0.44 1.19-0.75 0.63-0.25 1.31-0.25 0.76 0 1.44 0.19 0.75 0.25 1.5 0.56 0.82 0.31 1.56 0.56 0.82 0.25 1.69 0.25 1.57 0 2.69-1.06 1.19-1.06 2-2.81 0.81-1.69 1.31-3.81 0.5-2.07 0.75-4.13 0.32-2.06 0.44-3.87 0.12-1.82 0.19-2.94-2.19 3.31-4.38 5.12-2.12 1.75-5.25 1.75-2.37 0-4.19-1-1.75-1-2.99-2.62-1.25-1.63-2.07-3.69-0.81-2.13-1.25-4.37-0.37-2.25-0.5-4.38-0.12-2.19 0-4 0.07-1.37 0.32-3.56 0.31-2.25 0.93-4.38 0.63-2.12 1.75-3.56 1.13-1.5 2.94-1.37 1.19 0.06 1.94 1.06 0.75 0.93 1.19 2.37 0.49 1.44 0.68 3.19 0.25 1.69 0.32 3.38 0.06 1.68 0 3.12 0 1.38 0 2.13-0.01 1.06 0.06 2.12 0.06 1.06 0.44 1.94 0.37 0.81 1.12 1.31 0.81 0.5 2.25 0.5 1.62 0 2.56-0.81 1-0.81 1.44-2 0.5-1.25 0.63-2.63 0.12-1.44 0.12-2.68 0-0.88 0-2.13 0-1.25 0-2.62 0.06-1.38 0.25-2.69 0.25-1.38 0.69-2.44 0.5-1.12 1.25-1.81 0.81-0.69 2.06-0.69 1.56 0 2.69 1.25 1.12 1.19 1.87 3.19 0.82 1.94 1.25 4.31 0.5 2.38 0.75 4.75 0.25 2.31 0.32 4.31 0.12 1.94 0.12 3.07 0 2.62-0.19 6-0.18 3.31-0.75 6.87-0.5 3.5-1.56 6.88-1.06 3.43-2.81 6.12-1.69 2.69-4.19 4.31-2.5 1.63-6 1.63z"/>
		<path class="s0" d="m78.94 114.63q0 1.81-1.25 2.68-1.19 0.88-2.69 1.69-1.5 0.75-2.75 1.81-1.19 1.07-1.19 3.19 0 1.13 0.5 1.94 0.57 0.81 1.32 1.5 0.81 0.62 1.75 1.31 0.93 0.69 1.68 1.56 0.82 0.88 1.32 2.13 0.56 1.25 0.56 3.06 0 2.62-1.38 5.19-1.31 2.5-3.43 4.5-2.07 1.94-4.69 3.12-2.63 1.19-5.19 1.19-1.06 0-2.12-0.19-1.07-0.12-1.94-0.56-0.82-0.44-1.38-1.19-0.56-0.81-0.56-2.06 0-1.75 0.69-2.69 0.69-1 1.75-1.56 1.06-0.56 2.25-0.87 1.25-0.32 2.31-0.75 1.06-0.5 1.75-1.25 0.69-0.75 0.69-2.13 0-1.31-1.06-2.69-1.01-1.43-2.25-3-1.25-1.62-2.32-3.43-1-1.82-1-4 0-2.69 1.07-4.94 1.12-2.32 2.93-4 1.88-1.69 4.25-2.63 2.38-1 5-1 1 0 1.94 0.19 1 0.19 1.75 0.69 0.75 0.43 1.19 1.25 0.5 0.75 0.5 1.94z"/>
		<path class="s0" d="m56.88 140.19q-0.01 1.12-0.13 2.94-0.06 1.81-0.5 3.56-0.44 1.68-1.38 2.94-0.93 1.24-2.62 1.25-2.31 0-3.56-1.5-1.25-1.5-1.19-3.75-2 1.75-4.56 2.75-2.5 1-5.13 1-1.81-0.01-3.44-0.88-1.62-0.87-2.87-2.25-1.25-1.38-2-3.06-0.75-1.75-0.75-3.44 0-3 1.81-5.25 1.88-2.25 4.56-3.81 2.69-1.63 5.69-2.56 3.07-0.94 5.44-1.25 0-0.32 0-0.57 0.06-0.25 0.06-0.56 0-1.94-1.06-3.12-1.06-1.19-3-1.19-1.56 0-2.69 0.56-1.12 0.5-2.12 1.19-1 0.62-2 1.19-1 0.49-2.25 0.5-1.38-0.01-2.38-0.88-0.94-0.87-0.94-2.25 0-2.06 1.19-3.75 1.25-1.69 3.06-2.81 1.88-1.19 4-1.81 2.19-0.69 4-0.69 1.69 0 3.38 0.44 1.69 0.37 3.19 1.25 1.5 0.81 2.68 2.06 1.25 1.19 2 2.81 1.13 2.31 1.82 4.94 0.68 2.56 1.06 5.31 0.38 2.69 0.5 5.44 0.12 2.68 0.12 5.25zm-10-2l-0.18-4.25q-0.13 0-0.25 0-0.13-0.06-0.25-0.06-0.82 0-2.07 0.43-1.18 0.38-2.31 1.13-1.12 0.69-1.94 1.56-0.75 0.88-0.75 1.81 0 0.88 0.63 1.19 0.62 0.31 1.44 0.31 1.37 0 2.93-0.68 1.57-0.75 2.75-1.44z"/>
		<path class="s0" d="m27.5 139.19q0 1.18-0.63 2.31-0.62 1.06-2.93 2.5-2.32 1.44-5.13 2.75-2.81 1.25-5.43 2.19-2.63 0.87-3.88 0.87-0.87 0-2.06-0.43-1.19-0.38-2.38-1-1.19-0.63-2.19-1.44-0.93-0.81-1.37-1.56-0.25-0.44-0.5-1.75-0.19-1.32-0.38-3.07-0.12-1.75-0.25-3.68-0.12-2-0.25-3.75-0.06-1.82-0.12-3.19 0-1.38 0-2 0-2.31 0.12-5.31 0.19-3 0.63-6 0.44-3.07 1.25-5.82 0.87-2.81 2.31-4.75 0.44-0.56 1.75-1.18 1.31-0.63 3.06-1.19 1.82-0.57 3.88-1.06 2.06-0.5 3.94-0.82 1.93-0.37 3.5-0.56 1.56-0.25 2.37-0.25 0.94 0 1.75 0.44 0.88 0.37 1.44 1.06 0.63 0.69 0.94 1.56 0.37 0.82 0.37 1.75 0 0.81-0.25 1.38-0.18 0.56-0.62 1.25-0.63 0.81-2.63 1.94-2 1.12-4.37 2.25-2.32 1.06-4.5 1.93-2.13 0.88-3 1.25-0.25 1.44-0.57 2.94-0.25 1.44-0.37 2.94 1.94-1 4.38-1.88 2.43-0.87 4.62-0.87 4.44 0 4.44 4.37 0 1.07-0.44 1.88-0.38 0.81-1.06 1.44-0.63 0.62-1.5 1.12-0.82 0.44-1.63 0.88-2 1.06-4.19 1.87-2.18 0.75-4.37 1.5-0.13 0.5-0.25 1.13-0.12 0.56-0.13 1.12 0.01 0.88 0.13 1.75 0.12 0.88 0.25 1.75 0.75-0.25 2.37-0.81 1.69-0.56 3.5-1.13 1.82-0.56 3.5-0.93 1.69-0.44 2.5-0.44 0.94 0 1.75 0.44 0.82 0.37 1.38 1.06 0.56 0.62 0.87 1.5 0.38 0.87 0.38 1.75z"/>
		<path fill-rule="evenodd" class="s0" d="m176.02 15.22c3.37 8.38-7.25 23.44-9.45 31.73 0 0-7.64 1.03-10.42 1.13 15.7 8.24 21.53 28.55 29.31 43.22q-2.35 2.07-5.21 3.4c2.23 0.39 18.65 1.65 19.06 5.99 0.09 1-0.82 2.43-0.82 2.43l-36.47-0.32c0 0-10.91-21.03-16.45-31.57-1.96 12.99-7.39 26.42-19.7 32.54-25.77 0.58-51.58-0.12-77.36-0.16-6.08-0.05-17.16 0-17.16 0 0 0-0.22-6.91 0.4-10.85 0.47-3.03 0.62-4.84 1.95-7.61 1.51-3.12 3.36-4.86 5.54-6.96q2.38-1.82 5.21-2.43c-2.74-3.85-0.94-9.13 3.91-9.55-6.14-11.57 5.36-16.23 14.98-14.89 2.17 0.3 4.26 0.73 5.86 1.29q2.65 0.93 5.21 2.11 0.04 2.02-1.3 3.56 3.69 1.92 7.16 4.21 3.85 3.21 0 6.31-3.03 1.93-6.51 2.92c0.81 1.03 3.28 3.46 4.29 3.8-0.69 0-1.04 0-1.39 0-0.7 0-2.9-2.2-3.88-3.16-1.24 0.17-2.09 0.17-3.42 0.17q-0.94-0.22-1.79-0.65c4.49-0.73 9.34-1.85 12.87-4.86 1.28-1.28-0.67-3.05-2.75-4.52-0.12-0.08-1.44 1.35-2.5 2-0.75 0.46-2 1-2 1 0 0 0.85-0.84 1.38-1.41 0.86-0.92 2.21-2.4 2.09-2.47-2.02-1.21-4.15-2.14-4.86-2.37q-1.12 0.71-2.27 0.32c0.82-0.57 4.29-2.57 3.41-3.88-2.93-1.67-10.38-2.91-12.04-2.91q-2.66 5.44-5.05 11c2.24 1.2 6.35 4.21 6.35 4.21 0 0-5.41-1.73-6.03 0.97-0.23 1.04 0.3 1.81 0.82 2.59 1.68 1.71 4.05 4.02 6.02 2.43 0.76-0.6 1.1-1.23 1.3-2.1q2.2 4.17 0.2 5.9c-0.14 0.12 1.35 1.4 1.18 1.5-0.24 0.15-2.17-0.88-2.47-0.77q-1.23 0.44-3.14 0.49-2.89-0.14-5.21-1.94c-2.18 6.22-15.21 20.61-6.51 24.93h9.83c-0.5-2.99-1.5-4.99-3.32-7.49 7.25-11.16 9.36-17.94 22.8-17.94 7.01 0 25.05 2.92 31.4 4.87-1.28-11.84-3.43-31.32-3.56-43.22q2.32-3.74 6.03-5.99c15.65-3.89 47.87-8.91 47.87-8.91 0 0 2.35 5.78 2.93 8.1 4.14-6.09 11-22.86 13.68-16.19zm-1.3 1.29c-3.26-1.29-12.05 17.97-12.05 17.97l2.28 11.17-5.86-21.37c0 0-31.78 5.81-47.55 9.23-1.48 0.96-4.21 4.7-4.21 4.7 0.35 21.03 3.83 45.63 10.88 64.1l7.33-0.32c13.86-6.78 17.28-22.17 19.38-35.94 4.82 12.25 11.6 23.86 18.4 35.13 3.41-0.18 34.27 0.67 34.27 0.67 0 0 0.36-1.38 0.36-1.73-4.18-4.85-28.58-4.5-37.14-3.12l-0.41-0.69c2.95-0.26 21.19-3.63 23.44-5.49-4.1-5.63-7.5-11.06-10.81-16.35-5.93-9.5-11.57-18.53-20.46-27.36 3.67-0.57 12.38-1.46 12.38-1.46 0 0 13.02-27.64 9.77-29.14zm-128.64 60.87c-1.1 0.06-2.04 0.08-3.26 0.49-9.17 3.08-10.59 16.37-9.82 24.12h12c-3.76-4.37-0.3-9.97 2.05-14.25 1.73-3.13 5.44-9.77-0.97-10.36z"/>
		<path class="s0" d="m64.24 57.37c1.17 1.26 2.09 2.42 0.69 3.68-0.62 0.56-2.43 0.48-3.82-0.22 1.04 0 2.2 0.18 3.17-0.75 0.66-0.63 0.31-1.33-0.04-2.71z"/>
		<path class="s0" d="m177.97 10.36q0.12-0.69 0.66-0.49c2.58 3.57 1.3 13.44 1.3 13.44 0 0 0.15-8.78-1.96-12.95z"/>
		<path fill-rule="evenodd" class="s0" d="m125.54 101.99l-7.33 0.32c-7.04-18.47-10.53-43.07-10.88-64.1 0 0 2.73-3.74 4.21-4.7 15.77-3.42 47.55-9.23 47.55-9.23l5.86 21.37c0 0-8.71 0.89-12.38 1.46 8.89 8.83 14.53 17.86 20.46 27.36 3.31 5.29 6.71 10.72 10.81 16.35-2.25 1.86-20.49 5.23-23.44 5.49-5.79-9.74-11.35-19.77-15.48-30.26-2.1 13.77-5.52 29.16-19.38 35.94zm0-33.19l-0.98-0.32 6.56-7.48-3.62-14.22 0.97-0.8 17.9 0.44z"/>
		<path class="s0" d="m66.2 16.28c-0.87 0.34-1.65 0.85-2.38 1.41-2.71 2.11-4.96 4.76-6.87 7.54-0.94 1.4-1.8 2.86-2.3 4.35-0.24 0.72-0.34 1.53-0.16 1.87 0.07 0.17 0.16 0.24 0.37 0.33q0.16 0.06 0.39 0.09 0.21 0.03 0.5 0.03 0.74-0.01 1.48-0.12c1.22-2.31 2.69-4.96 6.19-5.37 0.43 0.01 0.93 0 1.54 0.43 0.31 0.22 0.56 0.63 0.62 1 0.07 0.38 0.02 0.69-0.05 0.94-0.33 0.99-0.86 1.52-1.4 2.05-1.09 1.02-2.35 1.73-3.69 2.25q-1.34 0.51-2.77 0.72c-1.3 2.29-2.39 4.75-3.38 7.24q-0.52 1.29-0.98 2.61 0.26-1.37 0.6-2.73c0.59-2.37 1.31-4.72 2.28-7q-0.22 0.01-0.44 0.01c-0.94 0.01-2.57-0.33-3.09-1.77-0.43-1.3-0.06-2.3 0.25-3.19 0.7-1.77 1.73-3.23 2.82-4.62 2.23-2.75 4.83-5.21 7.87-6.99 0.82-0.46 1.69-0.88 2.6-1.08zm-2.78 12.05c-1.51-0.02-2.93 1.34-4.12 2.95q0.2-0.07 0.39-0.14c1.12-0.43 2.19-1.04 3.04-1.8 0.36-0.32 0.7-0.73 0.83-1.01q-0.06-0.01-0.14 0z"/>
		<path class="s0" d="m72.23 0.91c1.33 2.7 2.62 5.34 3.86 7.98 1.25 2.64 2.44 5.28 3.9 7.91q0.24 0.43 0.5 0.87-0.41-0.29-0.81-0.62c-2.37-1.96-4.19-4.53-5.48-7.28-1.3-2.75-2.1-5.73-2.36-8.76q-0.04-0.51-0.06-1.01 0.22 0.45 0.45 0.91z"/>
		<path class="s0" d="m65.82 10.23c3.03 0.2 5.97 0.39 8.9 0.53 2.93 0.15 5.84 0.23 8.84 0.58q0.5 0.06 1 0.14-0.43-0.27-0.88-0.51c-2.72-1.45-5.81-2.14-8.86-2.29-3.05-0.15-6.12 0.24-9.04 1.16q-0.49 0.15-0.97 0.33 0.51 0.03 1.01 0.06z"/>
		<path class="s0" d="m72.29 18.38c1.56-3.05 3.15-5.98 4.76-8.89 1.62-2.9 3.24-5.78 5.21-8.57q0.33-0.46 0.67-0.92-0.48 0.31-0.95 0.65c-2.83 2.04-5.08 4.82-6.76 7.84-1.68 3.03-2.82 6.35-3.3 9.77q-0.09 0.57-0.14 1.14 0.26-0.51 0.51-1.02z"/>
		<path class="s0" d="m63.01 79.28c-1.08 0.51-1.69 0.65-2.82 0.5l-6 13.72c2.98-4.66 6.76-10.46 10-13.72z"/>
		<path id="Layer copy" class="s0" d="m88 67.84c0.03-0.59-2.57-1.53-6.1 0.2l-6.6 3.94c4.75 5.05 6.46 10.38 12.57 6.29z"/>
	</g>
</svg>