<svg width="48" height="48" viewBox="0 0 48 48" fill="none" xmlns="http://www.w3.org/2000/svg">
<path fill-rule="evenodd" clip-rule="evenodd" d="M0 23.2794C0 9.90573 10.482 0 24 0C37.518 0 48 9.91173 48 23.2854C48 36.659 37.518 46.5647 24 46.5647C21.57 46.5647 19.242 46.2407 17.052 45.6407C16.626 45.5268 16.17 45.5568 15.768 45.7367L11.004 47.8367C10.7163 47.9636 10.4018 48.0179 10.0882 47.9948C9.77453 47.9717 9.47137 47.872 9.20533 47.7043C8.93929 47.5366 8.71852 47.3062 8.5624 47.0332C8.40628 46.7602 8.31961 46.4531 8.31 46.1387L8.178 41.8668C8.166 41.3389 7.926 40.8469 7.536 40.4989C2.868 36.323 0 30.2752 0 23.2794ZM16.638 18.9055L9.58802 30.0892C8.91002 31.1631 10.23 32.3691 11.238 31.6011L18.81 25.8533C19.0592 25.6641 19.3632 25.5611 19.676 25.56C19.9889 25.559 20.2936 25.6598 20.544 25.8473L26.154 30.0532C26.5519 30.352 27.0075 30.5651 27.4919 30.679C27.9763 30.7929 28.4791 30.8051 28.9685 30.7149C29.4579 30.6247 29.9232 30.434 30.3352 30.1549C30.7472 29.8758 31.0968 29.5143 31.362 29.0932L38.418 17.9155C39.09 16.8415 37.77 15.6296 36.762 16.3976L29.19 22.1454C28.9409 22.3346 28.6369 22.4376 28.324 22.4386C28.0112 22.4397 27.7065 22.3389 27.456 22.1514L21.846 17.9455C21.4481 17.6467 20.9926 17.4336 20.5081 17.3197C20.0237 17.2058 19.5209 17.1936 19.0316 17.2838C18.5422 17.374 18.0768 17.5647 17.6648 17.8438C17.2529 18.1229 16.9032 18.4844 16.638 18.9055Z" fill="#005DAF"/>
</svg>
