<svg width="32" height="32" viewBox="0 0 32 32" fill="none" xmlns="http://www.w3.org/2000/svg">
<g clip-path="url(#clip0_807_10056)">
<path d="M16 0C7.17725 0 0 7.17725 0 16C0 24.8228 7.17725 32 16 32C24.8228 32 32 24.8228 32 16C32 7.17725 24.8228 0 16 0Z" fill="#FFC107"/>
<path d="M17.3335 23.9999C17.3335 24.7363 16.7366 25.3332 16.0002 25.3332C15.2639 25.3332 14.667 24.7363 14.667 23.9999C14.667 23.2636 15.2639 22.6667 16.0002 22.6667C16.7366 22.6667 17.3335 23.2636 17.3335 23.9999Z" fill="#ECEFF1"/>
<path d="M18.1106 16.8559C17.6387 17.0732 17.3333 17.5493 17.3333 18.0681V18.6667C17.3333 19.4025 16.7373 19.9999 16 19.9999C15.2627 19.9999 14.6667 19.4025 14.6667 18.6667V18.0681C14.6667 16.5119 15.5813 15.0854 16.9934 14.4333C18.3521 13.808 19.3333 12.1479 19.3333 11.3332C19.3333 9.49603 17.8386 7.99994 16 7.99994C14.1614 7.99994 12.6667 9.49603 12.6667 11.3332C12.6667 12.0693 12.0706 12.6667 11.3333 12.6667C10.5959 12.6667 10 12.0693 10 11.3332C10 8.02533 12.6919 5.33319 16 5.33319C19.3081 5.33319 22 8.02533 22 11.3332C22 13.1347 20.4373 15.7827 18.1106 16.8559Z" fill="#FAFAFA"/>
</g>
<defs>
<clipPath id="clip0_807_10056">
<rect width="32" height="32" fill="white"/>
</clipPath>
</defs>
</svg>
