<svg width="48" height="48" viewBox="0 0 48 48" fill="none" xmlns="http://www.w3.org/2000/svg">
<path d="M0 48L3.37399 35.674C1.292 32.066 0.198 27.976 0.2 23.782C0.206 10.67 10.876 0 23.9859 0C30.3479 0.002 36.3199 2.48 40.8119 6.976C45.3019 11.472 47.7739 17.448 47.7719 23.804C47.7659 36.918 37.0959 47.588 23.9859 47.588C20.006 47.586 16.084 46.588 12.61 44.692L0 48ZM13.194 40.386C16.546 42.376 19.746 43.568 23.9779 43.57C34.8739 43.57 43.7499 34.702 43.7559 23.8C43.7599 12.876 34.9259 4.02 23.9939 4.016C13.09 4.016 4.21999 12.884 4.21599 23.784C4.21399 28.234 5.51799 31.566 7.70798 35.052L5.70999 42.348L13.194 40.386ZM35.9679 29.458C35.8199 29.21 35.4239 29.062 34.8279 28.764C34.2339 28.466 31.3119 27.028 30.7659 26.83C30.2219 26.632 29.8259 26.532 29.4279 27.128C29.0319 27.722 27.8919 29.062 27.5459 29.458C27.1999 29.854 26.8519 29.904 26.2579 29.606C25.6639 29.308 23.7479 28.682 21.4779 26.656C19.712 25.08 18.518 23.134 18.172 22.538C17.826 21.944 18.136 21.622 18.432 21.326C18.7 21.06 19.026 20.632 19.324 20.284C19.626 19.94 19.724 19.692 19.924 19.294C20.122 18.898 20.024 18.55 19.874 18.252C19.724 17.956 18.536 15.03 18.042 13.84C17.558 12.682 17.068 12.838 16.704 12.82L15.564 12.8C15.168 12.8 14.524 12.948 13.98 13.544C13.436 14.14 11.9 15.576 11.9 18.502C11.9 21.428 14.03 24.254 14.326 24.65C14.624 25.046 18.516 31.05 24.4779 33.624C25.8959 34.236 27.0039 34.602 27.8659 34.876C29.2899 35.328 30.5859 35.264 31.6099 35.112C32.7519 34.942 35.1259 33.674 35.6219 32.286C36.1179 30.896 36.1179 29.706 35.9679 29.458Z" fill="#005DAF"/>
</svg>
