<svg width="56" height="56" viewBox="0 0 56 56" fill="none" xmlns="http://www.w3.org/2000/svg">
<path d="M30.0267 31H54.36L34.0267 51.3333H9.69336L30.0267 31Z" fill="#579EC5"/>
<path d="M30.0267 30.9997L30.0007 0L9.66602 19.167L9.69336 51.3331L30.0267 30.9997Z" fill="#CCCCCC"/>
<path d="M5.02604 51.3332H9.69309L9.66667 20.3333H5L5.02604 51.3332Z" fill="#BFBFBF"/>
<path d="M34.9993 28C35.9198 28 36.666 28.7462 36.666 29.6666V31L16.666 51.3333C15.0092 51.3333 11.666 49.6666 11.666 49.6666L9.66602 38L29.666 17.6666H30.3327C31.6213 17.6666 32.666 18.7113 32.666 20V26.6666C32.666 27.403 33.263 28 33.9993 28H34.9993Z" fill="#EBC08F"/>
<path d="M14.9993 48.3333C15.9198 48.3333 16.666 49.0795 16.666 50V51.3333H12.666C11.0092 51.3333 9.66602 49.9902 9.66602 48.3333V38H10.3327C11.6213 38 12.666 39.0447 12.666 40.3333V47C12.666 47.7364 13.263 48.3333 13.9993 48.3333H14.9993Z" fill="#BD9471"/>
<path d="M25.3333 0H29.974L9.64062 20.3333H5L25.3333 0Z" fill="#D9D9D9"/>
</svg>
