<svg width="56" height="56" viewBox="0 0 56 56" fill="none" xmlns="http://www.w3.org/2000/svg">
<path d="M38.9043 43.2672L55.9673 33.7415V35.9224L38.9043 46.25V43.2672Z" fill="#E5E1D8"/>
<path d="M38.9049 43.2672L0 21.3611V23.5421L38.9049 46.25V43.2672Z" fill="#B29471"/>
<path d="M38.9049 43.2674L0 21.3613L17.063 11.0334L55.9679 33.7414L38.9049 43.2674Z" fill="#E7CAAB"/>
<path d="M3.17578 16.935L23.7348 9.36572L52.8894 36.2111L32.2983 43.6521L3.17578 16.935Z" fill="#EEDBC6"/>
<path d="M3.17596 16.9351L3.17578 19.4368L32.2985 46.2501V43.6521L3.17596 16.9351Z" fill="#CDB192"/>
<path d="M13.6641 29.0908L20.8806 35.73L17.2563 33.6132L13.6641 29.0908Z" fill="#A6784F"/>
<path d="M52.8944 36.2109L52.8942 38.7127L32.2992 46.2499L32.2988 43.6519L52.8944 36.2109Z" fill="#F5F0E7"/>
</svg>
