<svg width="56" height="56" viewBox="0 0 56 56" fill="none" xmlns="http://www.w3.org/2000/svg">
<path d="M11.209 15.8003L27.7938 6.42627L44.3786 15.8003V42.9952H11.209V15.8003Z" fill="#3B97D2"/>
<path d="M47.3055 16.0363C47.9148 16.3442 48.1591 17.0876 47.8512 17.6969C47.5432 18.3062 46.7998 18.5505 46.1905 18.2426L28.2698 9.18488C27.9747 9.03574 27.626 9.0373 27.3323 9.18906L9.8193 18.2375C9.21277 18.5509 8.46719 18.3133 8.15381 17.7068C7.84044 17.1003 8.07804 16.3547 8.68456 16.0413L27.32 6.41279C27.6138 6.26103 27.9625 6.25947 28.2575 6.40861L47.3055 16.0363Z" fill="#034876"/>
<path d="M28.1026 15.8003C29.8094 15.8003 31.193 17.1839 31.193 18.8906V39.654C32.6855 40.6744 33.6652 42.3899 33.6652 44.3344C33.6652 47.4634 31.1286 50 27.9996 50C24.8706 50 22.334 47.4634 22.334 44.3344C22.334 42.3018 23.4045 40.5196 25.0123 39.5198V18.8906C25.0123 17.1839 26.3959 15.8003 28.1026 15.8003Z" fill="#FFC852"/>
<path d="M23.4668 37.4326C23.7511 37.4326 23.9822 37.663 23.9824 37.9473C23.9824 38.2317 23.7513 38.4629 23.4668 38.4629H22.4365C22.1523 38.4627 21.9219 38.2316 21.9219 37.9473C21.9221 37.6631 22.1524 37.4328 22.4365 37.4326H23.4668ZM23.4668 33.7246C23.7512 33.7246 23.9823 33.9549 23.9824 34.2393C23.9824 34.5237 23.7513 34.7549 23.4668 34.7549H22.4365C22.1523 34.7547 21.9219 34.5236 21.9219 34.2393C21.922 33.955 22.1523 33.7248 22.4365 33.7246H23.4668ZM23.4668 30.0156C23.7511 30.0156 23.9822 30.246 23.9824 30.5303C23.9824 30.8147 23.7513 31.0459 23.4668 31.0459H22.4365C22.1523 31.0457 21.9219 30.8146 21.9219 30.5303C21.9221 30.2461 22.1524 30.0158 22.4365 30.0156H23.4668ZM23.4668 26.3076C23.7512 26.3076 23.9823 26.5379 23.9824 26.8223C23.9824 27.1067 23.7513 27.3379 23.4668 27.3379H22.4365C22.1523 27.3377 21.9219 27.1066 21.9219 26.8223C21.922 26.538 22.1523 26.3078 22.4365 26.3076H23.4668ZM23.4668 22.5986C23.7513 22.5986 23.9824 22.8298 23.9824 23.1143C23.9822 23.3986 23.7511 23.6289 23.4668 23.6289H22.4365C22.1524 23.6287 21.9221 23.3984 21.9219 23.1143C21.9219 22.8299 22.1523 22.5989 22.4365 22.5986H23.4668ZM23.4668 18.8906C23.7511 18.8906 23.9822 19.121 23.9824 19.4053C23.9824 19.6897 23.7513 19.9209 23.4668 19.9209H22.4365C22.1523 19.9207 21.9219 19.6896 21.9219 19.4053C21.9221 19.1211 22.1524 18.8908 22.4365 18.8906H23.4668Z" fill="#FFC852"/>
<path d="M27.9994 45.6733C27.715 45.6733 27.4844 45.4427 27.4844 45.1583L27.4844 19.4055C27.4844 19.121 27.715 18.8904 27.9994 18.8904V18.8904C28.2839 18.8904 28.5145 19.121 28.5145 19.4055L28.5145 45.1583C28.5145 45.4427 28.2839 45.6733 27.9994 45.6733V45.6733Z" fill="#8B5F00"/>
</svg>
