<svg width="56" height="56" viewBox="0 0 56 56" fill="none" xmlns="http://www.w3.org/2000/svg">
<mask id="mask0_986_7154" style="mask-type:alpha" maskUnits="userSpaceOnUse" x="0" y="0" width="56" height="56">
<path d="M0 2.11892C0 0.948674 0.948672 0 2.11892 0H53.8811C55.0513 0 56 0.948672 56 2.11892V53.8811C56 55.0513 55.0513 56 53.8811 56H2.11892C0.948674 56 0 55.0513 0 53.8811V2.11892Z" fill="#D9D9D9"/>
</mask>
<g mask="url(#mask0_986_7154)">
<path d="M22.0349 -9.76951C22.8624 -10.597 24.204 -10.597 25.0315 -9.76951L32.309 -2.49204C33.1365 -1.66455 33.1365 -0.322926 32.309 0.504564L1.05871 31.7549C0.231218 32.5824 -1.11041 32.5824 -1.9379 31.7549L-9.21536 24.4774C-10.0429 23.6499 -10.0429 22.3083 -9.21536 21.4808L22.0349 -9.76951Z" fill="#9E5B23"/>
<path d="M18.824 -27.1069C19.6515 -27.9344 20.9932 -27.9344 21.8206 -27.1069L29.0981 -19.8295C29.9256 -19.002 29.9256 -17.6603 29.0981 -16.8329L-2.15219 14.4174C-2.97968 15.2449 -4.3213 15.2449 -5.14879 14.4174L-12.4263 7.13998C-13.2537 6.31249 -13.2537 4.97086 -12.4263 4.14337L18.824 -27.1069Z" fill="#844514"/>
<path d="M22.463 10.3505C23.2905 9.52298 24.6321 9.52298 25.4596 10.3505L32.737 17.6279C33.5645 18.4554 33.5645 19.797 32.737 20.6245L1.48675 51.8748C0.659259 52.7023 -0.682366 52.7023 -1.50986 51.8748L-8.78732 44.5974C-9.61481 43.7699 -9.61481 42.4283 -8.78732 41.6008L22.463 10.3505Z" fill="#CD8D5A"/>
<path d="M22.0349 31.3268C22.8624 30.4993 24.204 30.4993 25.0315 31.3268L32.309 38.6043C33.1365 39.4318 33.1365 40.7734 32.309 41.6009L1.05871 72.8512C0.231218 73.6787 -1.11041 73.6787 -1.9379 72.8512L-9.21536 65.5737C-10.0429 64.7462 -10.0429 63.4046 -9.21536 62.5771L22.0349 31.3268Z" fill="#844514"/>
<path d="M21.8209 52.0889C22.6484 51.2614 23.99 51.2614 24.8175 52.0889L32.095 59.3663C32.9225 60.1938 32.9225 61.5354 32.095 62.3629L0.844687 93.6132C0.0171976 94.4407 -1.32443 94.4407 -2.15192 93.6132L-9.42938 86.3358C-10.2569 85.5083 -10.2569 84.1666 -9.42938 83.3391L21.8209 52.0889Z" fill="#9E5B23"/>
<path d="M32.7371 -20.4717C33.5646 -21.2992 34.9062 -21.2992 35.7337 -20.4717L90.1007 33.8952C90.9282 34.7227 90.9282 36.0644 90.1007 36.8919L82.3951 44.5974C81.5676 45.4249 80.226 45.4249 79.3985 44.5974L25.0315 -9.76951C24.204 -10.597 24.2041 -11.9387 25.0316 -12.7662L32.7371 -20.4717Z" fill="#CD8D5A"/>
<path d="M32.309 0.504564C33.1365 -0.322926 34.4782 -0.32284 35.3057 0.504648L89.6726 54.8716C90.5001 55.6991 90.5001 57.0407 89.6726 57.8682L82.8233 64.7176C81.9958 65.5451 80.6542 65.5451 79.8267 64.7176L25.4596 10.3505C24.6321 9.52298 24.6322 8.18152 25.4597 7.35403L32.309 0.504564Z" fill="#844514"/>
<path d="M32.737 20.6245C33.5645 19.797 34.9062 19.7971 35.7337 20.6246L90.1007 74.9916C90.9282 75.8191 90.9282 77.1607 90.1007 77.9882L82.3951 85.6937C81.5676 86.5212 80.226 86.5212 79.3985 85.6937L25.0315 31.3268C24.204 30.4993 24.2041 29.1577 25.0316 28.3302L32.737 20.6245Z" fill="#9E5B23"/>
<path d="M32.309 41.6009C33.1365 40.7734 34.4782 40.7735 35.3057 41.601L89.6726 95.9679C90.5001 96.7954 90.5001 98.137 89.6726 98.9645L82.1811 106.456C81.3537 107.284 80.012 107.284 79.1845 106.456L24.8175 52.0889C23.99 51.2614 23.9901 49.92 24.8176 49.0925L32.309 41.6009Z" fill="#CD8D5A"/>
</g>
</svg>
