<svg width="57" height="56" viewBox="0 0 57 56" fill="none" xmlns="http://www.w3.org/2000/svg">
<rect width="56.6455" height="56" rx="1.12968" fill="#F0F9FF"/>
<rect x="37.7617" y="38.0869" width="15.4928" height="16.2997" rx="1.12968" fill="#EFC31C"/>
<rect x="40.666" y="47.6084" width="8.87608" height="1.9366" rx="0.9683" transform="rotate(-90 40.666 47.6084)" fill="#3B97D2"/>
<rect x="44.541" y="44.7031" width="5.97118" height="1.9366" rx="0.9683" transform="rotate(-90 44.541 44.7031)" fill="#3B97D2"/>
<path d="M45.5101 29.2109C49.7437 29.2109 53.1758 32.643 53.1758 36.8766C53.1758 37.2325 53.1758 37.6029 53.1758 37.9256H51.2392C51.2392 37.6029 51.2392 37.235 51.2392 36.8766C51.2392 33.7125 48.6742 31.1475 45.5101 31.1475C42.346 31.1475 39.781 33.7125 39.781 36.8766C39.781 37.235 39.7803 37.6029 39.781 37.9192L37.8438 37.9256C37.8436 37.6029 37.8444 37.2325 37.8444 36.8766C37.8444 32.643 41.2764 29.2109 45.5101 29.2109Z" fill="#7F8B8C"/>
<rect x="35.8262" y="37.9248" width="19.2046" height="1.9366" rx="0.9683" fill="#95A4A4"/>
<path d="M38.9873 27.4082C38.9872 29.4722 37.314 31.1455 35.25 31.1455C33.1862 31.1453 31.5128 29.472 31.5127 27.4082V22.6318C31.5127 20.5683 29.8399 18.8955 27.7764 18.8955C25.7131 18.8958 24.04 20.5685 24.04 22.6318V28.8613C24.04 30.9256 22.3671 32.5996 20.3027 32.5996C18.2384 32.5996 16.5645 30.9257 16.5645 28.8613V0H38.9873V27.4082ZM16.5625 9.13574C16.5625 11.135 14.9929 12.768 13.0186 12.8682L12.6338 12.8779C10.6595 12.9781 9.08901 14.6102 9.08887 16.6094V19.1016C9.08887 21.1659 7.41588 22.8398 5.35156 22.8398C3.28724 22.8398 1.61328 21.1659 1.61328 19.1016V0H16.5625V9.13574Z" fill="#3B97D2"/>
<path d="M17.375 10.166C17.0199 10.166 16.7832 10.4565 16.7832 10.8922C16.7832 11.328 17.0199 11.6185 17.375 11.6185H18.5584V10.166H17.375Z" fill="#A3AAAF"/>
<path d="M31.4908 25.3032C31.1635 25.3032 30.9453 25.0871 30.9453 24.7629V20.9808C30.9453 19.7921 31.9271 18.8196 33.127 18.8196C37.654 18.4414 44.5809 17.847 45.0173 17.739C45.999 17.5229 46.7626 16.6044 46.7626 15.5778V13.4166C46.7626 12.228 45.7808 11.2555 44.5809 11.2555C44.4218 11.2555 44.059 11.2555 44.059 11.2555V10.1748C44.059 10.1748 44.2536 10.1748 44.5809 10.1748C46.3808 10.1748 47.8535 11.6336 47.8535 13.4166V15.5778C47.8535 17.1447 46.7627 18.4954 45.2355 18.8197C44.7446 18.9277 35.0906 19.7382 33.1816 19.9002C32.527 19.9002 32.0362 20.3865 32.0362 20.9808V24.7629C32.0362 25.0871 31.818 25.3032 31.4908 25.3032Z" fill="#A3AAAF"/>
<path d="M34.5021 24.4136H27.3828L27.8914 27.0833H28.9084V35.6264C28.9084 36.8011 29.8237 37.7622 30.9424 37.7622C32.0611 37.7622 32.9765 36.801 32.9765 35.6264V27.0833H33.9935L34.5021 24.4136Z" fill="#EFC31C"/>
<path d="M18.4844 10.6829V12.717C18.4844 13.2763 18.9786 13.734 19.5825 13.734H43.1935C43.7974 13.734 44.2916 13.2763 44.2916 12.717V7.63177C44.2916 7.07242 43.7974 6.61475 43.1935 6.61475H19.5826C18.9786 6.61475 18.4844 7.07242 18.4844 7.63177V9.66583V10.6829Z" fill="#2980BA"/>
</svg>
