<svg width="57" height="56" viewBox="0 0 57 56" fill="none" xmlns="http://www.w3.org/2000/svg">
<path d="M40.986 42.6034V40.3229L13.9995 26.9865V29.2671L40.986 42.6034Z" fill="#7BD8F8"/>
<path fill-rule="evenodd" clip-rule="evenodd" d="M42.4562 52.6992C41.586 52.9478 40.986 53.7432 40.986 54.6483C40.986 53.7432 41.586 52.9478 42.4562 52.6992Z" fill="#6EC6E4"/>
<path d="M40.986 40.3229L43.6466 39.5627L16.7869 26.353L13.9995 26.9865L40.986 40.3229Z" fill="#AFEBFF"/>
<path d="M38.8321 45.1091C38.8321 44.7504 38.9842 44.4085 39.2506 44.1682L40.986 42.6034L13.9995 29.2671L12.2642 30.8319C11.9978 31.0721 11.8457 31.414 11.8457 31.7728V40.735C11.8457 40.9278 11.9551 41.1039 12.128 41.1893L38.8321 54.3862V45.1091Z" fill="#3F99B8"/>
<path d="M40.986 42.6034L39.2506 44.1682C38.9842 44.4085 38.8321 44.7504 38.8321 45.1091V54.3862L40.6247 55.2298C40.7928 55.3089 40.986 55.1862 40.986 55.0005V54.6483C40.986 53.7432 41.586 52.9478 42.4562 52.6992L43.6466 52.3591V39.5627L40.986 40.3229V42.6034Z" fill="#155165"/>
<path d="M40.8414 54.2916C40.6733 54.2125 40.4801 54.3352 40.4801 54.521H40.7335L40.8414 54.2916ZM14.5073 28.4724L40.4801 41.3079V40.1579L14.5073 27.3225V28.4724ZM15.5043 26.6848L41.0357 39.302L42.243 38.957L16.725 26.4071L15.5043 26.6848ZM39.3398 53.5848L40.4809 54.1218C40.5012 53.0099 41.2452 52.0386 42.318 51.7321L43.1408 51.4971V39.7548L41.4937 40.2252V42.1237C41.4937 42.2672 41.4327 42.404 41.3262 42.5001L39.591 44.065C39.4312 44.2091 39.3399 44.4142 39.3398 44.6294V53.5848ZM44.1543 52.2617L42.5964 52.7069C41.9437 52.8933 41.4937 53.4898 41.4937 54.1686V54.521C41.4936 55.0781 40.914 55.4459 40.4098 55.2086L38.6173 54.3651L38.6128 54.3631L38.6086 54.3608L11.9043 41.1641C11.5586 40.9932 11.3399 40.641 11.3398 40.2554V31.2931C11.3398 30.7909 11.5528 30.3123 11.9258 29.9759L13.4937 28.562V26.1023L16.8504 25.3394L44.1543 38.7675V52.2617ZM12.3534 40.2554L38.3263 53.0907V44.6294C38.3263 44.1272 38.5393 43.6486 38.9122 43.3122L40.0931 42.2472L14.0841 29.3939L12.6046 30.7287C12.4447 30.8728 12.3534 31.0779 12.3534 31.2931V40.2554Z" fill="#003243"/>
<path d="M40.8414 54.2916C40.6733 54.2125 40.4801 54.3352 40.4801 54.521H40.7335L40.8414 54.2916Z" fill="#003243"/>
<path d="M14.5073 28.4724L40.4801 41.3079V40.1579L14.5073 27.3225V28.4724Z" fill="#003243"/>
<path d="M40.986 29.4269V27.1464L13.9995 13.81V16.0905L40.986 29.4269Z" fill="#7BD8F8"/>
<path fill-rule="evenodd" clip-rule="evenodd" d="M42.4562 39.5227C41.586 39.7713 40.986 40.5667 40.986 41.4718C40.986 40.5667 41.586 39.7713 42.4562 39.5227Z" fill="#6EC6E4"/>
<path d="M40.986 27.1464L43.6466 26.3862L16.7869 13.1765L13.9995 13.81L40.986 27.1464Z" fill="#AFEBFF"/>
<path d="M38.8321 31.9326C38.8321 31.5739 38.9842 31.2319 39.2506 30.9917L40.986 29.4269L13.9995 16.0905L12.2642 17.6553C11.9978 17.8956 11.8457 18.2375 11.8457 18.5963V27.5585C11.8457 27.7513 11.9551 27.9274 12.128 28.0128L38.8321 41.2097V31.9326Z" fill="#3F99B8"/>
<path d="M40.986 29.4269L39.2506 30.9917C38.9842 31.2319 38.8321 31.5739 38.8321 31.9326V41.2097L40.6247 42.0533C40.7928 42.1323 40.986 42.0097 40.986 41.824V41.4718C40.986 40.5667 41.586 39.7713 42.4562 39.5227L43.6466 39.1826V26.3862L40.986 27.1464V29.4269Z" fill="#155165"/>
<path d="M40.8414 41.5948C40.6733 41.5157 40.4801 41.6384 40.4801 41.8242H40.7335L40.8414 41.5948ZM14.5073 15.7756L40.4801 28.6111V27.4612L14.5073 14.6257V15.7756ZM15.5043 13.988L41.0357 26.6052L42.243 26.2603L16.725 13.7103L15.5043 13.988ZM39.3398 40.8881L40.4809 41.425C40.5012 40.3132 41.2452 39.3419 42.318 39.0354L43.1408 38.8003V27.0581L41.4937 27.5285V29.4269C41.4937 29.5704 41.4327 29.7072 41.3262 29.8033L39.591 31.3682C39.4312 31.5124 39.3399 31.7174 39.3398 31.9327V40.8881ZM44.1543 39.5649L42.5964 40.0101C41.9437 40.1966 41.4937 40.793 41.4937 41.4718V41.8242C41.4936 42.3813 40.914 42.7491 40.4098 42.5118L38.6173 41.6683L38.6128 41.6663L38.6086 41.6641L11.9043 28.4673C11.5586 28.2965 11.3399 27.9442 11.3398 27.5587V18.5963C11.3398 18.0941 11.5528 17.6155 11.9258 17.2791L13.4937 15.8652V13.4055L16.8504 12.6426L44.1543 26.0707V39.5649ZM12.3534 27.5587L38.3263 40.3939V31.9327C38.3263 31.4304 38.5393 30.9518 38.9122 30.6155L40.0931 29.5504L14.0841 16.6971L12.6046 18.0319C12.4447 18.176 12.3534 18.3811 12.3534 18.5963V27.5587Z" fill="#003243"/>
<path d="M40.8414 41.5948C40.6733 41.5157 40.4801 41.6384 40.4801 41.8242H40.7335L40.8414 41.5948Z" fill="#003243"/>
<path d="M40.986 16.5038V14.2233L13.9995 0.886902V3.16745L40.986 16.5038Z" fill="#7BD8F8"/>
<path fill-rule="evenodd" clip-rule="evenodd" d="M42.4562 26.5996C41.586 26.8482 40.986 27.6436 40.986 28.5487C40.986 27.6436 41.586 26.8482 42.4562 26.5996Z" fill="#6EC6E4"/>
<path d="M40.986 14.2233L43.6466 13.4631L16.7869 0.253418L13.9995 0.886902L40.986 14.2233Z" fill="#AFEBFF"/>
<path d="M38.8321 19.0095C38.8321 18.6508 38.9842 18.3088 39.2506 18.0686L40.986 16.5038L13.9995 3.16745L12.2642 4.73224C11.9978 4.97249 11.8457 5.31442 11.8457 5.67316V14.6354C11.8457 14.8282 11.9551 15.0043 12.128 15.0897L38.8321 28.2866V19.0095Z" fill="#3F99B8"/>
<path d="M40.986 16.5038L39.2506 18.0686C38.9842 18.3088 38.8321 18.6508 38.8321 19.0095V28.2866L40.6247 29.1302C40.7928 29.2093 40.986 29.0866 40.986 28.9009V28.5487C40.986 27.6436 41.586 26.8482 42.4562 26.5996L43.6466 26.2595V13.4631L40.986 14.2233V16.5038Z" fill="#155165"/>
<path d="M40.8414 28.9522C40.6733 28.8731 40.4801 28.9959 40.4801 29.1816H40.7335L40.8414 28.9522ZM14.5073 3.13302L40.4801 15.9685V14.8186L14.5073 1.9831V3.13302ZM15.5043 1.34541L41.0357 13.9626L42.243 13.6177L16.725 1.06777L15.5043 1.34541ZM39.3398 28.2455L40.4809 28.7825C40.5012 27.6706 41.2452 26.6993 42.318 26.3928L43.1408 26.1577V14.4155L41.4937 14.8859V16.7844C41.4937 16.9279 41.4327 17.0646 41.3262 17.1607L39.591 18.7256C39.4312 18.8698 39.3399 19.0749 39.3398 19.2901V28.2455ZM44.1543 26.9223L42.5964 27.3675C41.9437 27.554 41.4937 28.1505 41.4937 28.8292V29.1816C41.4936 29.7388 40.914 30.1065 40.4098 29.8693L38.6173 29.0257L38.6128 29.0237L38.6086 29.0215L11.9043 15.8247C11.5586 15.6539 11.3399 15.3016 11.3398 14.9161V5.95376C11.3398 5.45152 11.5528 4.9729 11.9258 4.63656L13.4937 3.2226V0.762903L16.8504 0L44.1543 13.4281V26.9223ZM12.3534 14.9161L38.3263 27.7513V19.2901C38.3263 18.7878 38.5393 18.3092 38.9122 17.9729L40.0931 16.9078L14.0841 4.05455L12.6046 5.38932C12.4447 5.53346 12.3534 5.73852 12.3534 5.95376V14.9161Z" fill="#003243"/>
<path d="M40.8414 28.9522C40.6733 28.8731 40.4801 28.9959 40.4801 29.1816H40.7335L40.8414 28.9522Z" fill="#003243"/>
</svg>
