<svg width="537" height="536" viewBox="0 0 537 536" fill="none" xmlns="http://www.w3.org/2000/svg">
<path d="M56.4258 154L59.3125 159L56.9258 159L56.9258 430L59.3125 430L56.4258 435L53.5391 430L55.9258 430L55.9258 159L53.5391 159L56.4258 154Z" fill="black"/>
<path d="M56.426 95L59.3128 100L56.926 100L56.9258 143L59.3125 143L56.4258 148L53.5391 143L55.9258 143L55.926 100L53.5393 100L56.426 95Z" fill="black"/>
<path d="M15.5195 95L18.5195 100L16.0392 100L16.1723 430L18.6527 430L15.6527 435L12.6527 430L15.1331 430L14.9999 100L12.5195 100L15.5195 95Z" fill="black"/>
<path d="M523.426 55L526.313 60L523.926 60L523.926 430L526.313 430L523.426 435L520.539 430L522.926 430L522.926 60L520.539 60L523.426 55Z" fill="black"/>
<rect width="49.7225" height="22.04" transform="translate(31.5391 283)" fill="white"/>
<path d="M73.5315 298.5V296.428H68.5195V295.14L73.3495 288.56H75.0435V295.056H76.2615V296.428H75.0435V298.5H73.5315ZM70.2415 295.056H73.5315V290.66L70.2415 295.056Z" fill="black"/>
<path d="M61.7285 300.04L65.8725 288H67.3005L63.1705 300.04H61.7285Z" fill="black"/>
<path d="M57.2517 298.724C56.1037 298.724 55.217 298.458 54.5917 297.926C53.9757 297.394 53.6443 296.694 53.5977 295.826L55.1517 295.742C55.2077 296.311 55.4223 296.722 55.7957 296.974C56.1783 297.217 56.6637 297.338 57.2517 297.338C57.6437 297.338 58.003 297.287 58.3297 297.184C58.6657 297.072 58.9317 296.895 59.1277 296.652C59.333 296.4 59.4357 296.073 59.4357 295.672C59.4357 295.075 59.235 294.636 58.8337 294.356C58.4323 294.067 57.9003 293.922 57.2377 293.922H56.4117V292.606H57.2377C57.7697 292.606 58.213 292.499 58.5677 292.284C58.9223 292.069 59.0997 291.696 59.0997 291.164C59.0997 290.697 58.9503 290.343 58.6517 290.1C58.353 289.848 57.8957 289.722 57.2797 289.722C56.6823 289.722 56.2297 289.839 55.9217 290.072C55.6137 290.305 55.4317 290.623 55.3757 291.024L53.8217 290.94C53.915 290.156 54.2557 289.526 54.8437 289.05C55.441 288.574 56.253 288.336 57.2797 288.336C57.989 288.336 58.5957 288.448 59.0997 288.672C59.6037 288.887 59.991 289.199 60.2617 289.61C60.5323 290.021 60.6677 290.501 60.6677 291.052C60.6677 291.659 60.4717 292.153 60.0797 292.536C59.697 292.919 59.1323 293.18 58.3857 293.32V293.068C59.1977 293.171 59.837 293.46 60.3037 293.936C60.7703 294.403 61.0037 295 61.0037 295.728C61.0037 296.353 60.845 296.895 60.5277 297.352C60.2103 297.8 59.7717 298.141 59.2117 298.374C58.6517 298.607 57.9983 298.724 57.2517 298.724Z" fill="black"/>
<path d="M46.4789 298.5V291.416H44.3789V290.198H45.2329C45.6062 290.198 45.9096 290.151 46.1429 290.058C46.3762 289.955 46.5442 289.787 46.6469 289.554C46.7496 289.311 46.8009 288.98 46.8009 288.56H47.9909V298.5H46.4789Z" fill="black"/>
<path d="M38.6811 298.5C38.6811 297.473 38.8164 296.46 39.0871 295.462C39.3671 294.454 39.7591 293.488 40.2631 292.564C40.7764 291.63 41.3877 290.758 42.0971 289.946H36.5391V288.56H43.6931V289.848C42.9091 290.744 42.2557 291.64 41.7331 292.536C41.2197 293.422 40.8371 294.356 40.5851 295.336C40.3424 296.306 40.2211 297.361 40.2211 298.5H38.6811Z" fill="black"/>
<rect width="23.0018" height="19.94" transform="translate(44.5391 112)" fill="white"/>
<path d="M59.8108 126.94V124.868H54.7988V123.58L59.6288 117H61.3228V123.496H62.5408V124.868H61.3228V126.94H59.8108ZM56.5208 123.496H59.8108V119.1L56.5208 123.496Z" fill="black"/>
<path d="M51.6391 126.94V119.856H49.5391V118.638H50.3931C50.7664 118.638 51.0697 118.591 51.3031 118.498C51.5364 118.395 51.7044 118.227 51.8071 117.994C51.9097 117.751 51.9611 117.42 51.9611 117H53.1511V126.94H51.6391Z" fill="black"/>
<rect width="26.2813" height="20.388" transform="translate(1.53906 293)" fill="white"/>
<path d="M19.2084 308.388C18.4244 308.388 17.7617 308.215 17.2204 307.87C16.679 307.515 16.2684 307.007 15.9884 306.344C15.7084 305.672 15.5684 304.86 15.5684 303.908C15.5684 303.077 15.6384 302.307 15.7784 301.598C15.9277 300.879 16.161 300.254 16.4784 299.722C16.7957 299.181 17.2064 298.761 17.7104 298.462C18.2237 298.154 18.8444 298 19.5724 298C20.487 298 21.201 298.224 21.7144 298.672C22.2277 299.111 22.5824 299.699 22.7784 300.436L21.2804 300.562C21.1684 300.198 20.9817 299.909 20.7204 299.694C20.4684 299.479 20.0857 299.372 19.5724 299.372C18.807 299.372 18.205 299.699 17.7664 300.352C17.3277 301.005 17.0944 302.004 17.0664 303.348L16.8004 303.292C16.903 302.975 17.0757 302.685 17.3184 302.424C17.561 302.153 17.8644 301.939 18.2284 301.78C18.6017 301.612 19.0264 301.528 19.5024 301.528C20.165 301.528 20.7437 301.668 21.2384 301.948C21.7424 302.219 22.1297 302.606 22.4004 303.11C22.6804 303.614 22.8204 304.202 22.8204 304.874C22.8204 305.602 22.6664 306.232 22.3584 306.764C22.0504 307.287 21.6257 307.688 21.0844 307.968C20.543 308.248 19.9177 308.388 19.2084 308.388ZM19.2224 307.044C19.829 307.044 20.319 306.853 20.6924 306.47C21.075 306.078 21.2664 305.546 21.2664 304.874C21.2664 304.454 21.1824 304.09 21.0144 303.782C20.8557 303.465 20.627 303.222 20.3284 303.054C20.039 302.886 19.703 302.802 19.3204 302.802C18.9004 302.802 18.527 302.886 18.2004 303.054C17.8737 303.222 17.617 303.465 17.4304 303.782C17.2437 304.09 17.1504 304.454 17.1504 304.874C17.1504 305.294 17.2344 305.667 17.4024 305.994C17.5704 306.321 17.8084 306.577 18.1164 306.764C18.4337 306.951 18.8024 307.044 19.2224 307.044Z" fill="black"/>
<path d="M10.3751 308.388C9.61906 308.388 8.95173 308.276 8.37306 308.052C7.7944 307.828 7.34173 307.497 7.01506 307.058C6.69773 306.619 6.53906 306.083 6.53906 305.448C6.53906 304.72 6.7584 304.118 7.19706 303.642C7.63573 303.166 8.22373 302.849 8.96106 302.69L8.98906 302.97C8.39173 302.83 7.91106 302.573 7.54706 302.2C7.1924 301.827 7.01506 301.337 7.01506 300.73C7.01506 300.198 7.1504 299.727 7.42106 299.316C7.69173 298.905 8.0744 298.583 8.56906 298.35C9.07306 298.117 9.67506 298 10.3751 298C11.0657 298 11.6631 298.117 12.1671 298.35C12.6711 298.583 13.0537 298.905 13.3151 299.316C13.5857 299.727 13.7211 300.198 13.7211 300.73C13.7211 301.337 13.5437 301.827 13.1891 302.2C12.8344 302.564 12.3537 302.821 11.7471 302.97L11.7751 302.69C12.5217 302.849 13.1144 303.166 13.5531 303.642C13.9917 304.118 14.2111 304.72 14.2111 305.448C14.2111 306.083 14.0477 306.619 13.7211 307.058C13.4037 307.497 12.9557 307.828 12.3771 308.052C11.7984 308.276 11.1311 308.388 10.3751 308.388ZM10.3751 307.002C11.0657 307.002 11.6117 306.862 12.0131 306.582C12.4237 306.293 12.6291 305.863 12.6291 305.294C12.6291 304.753 12.4424 304.319 12.0691 303.992C11.7051 303.665 11.1404 303.502 10.3751 303.502C9.60973 303.502 9.0404 303.665 8.66706 303.992C8.29373 304.319 8.10706 304.753 8.10706 305.294C8.10706 305.863 8.3124 306.293 8.72306 306.582C9.13373 306.862 9.6844 307.002 10.3751 307.002ZM10.3751 302.256C10.9444 302.256 11.3831 302.139 11.6911 301.906C12.0084 301.663 12.1671 301.295 12.1671 300.8C12.1671 300.371 12.0131 300.025 11.7051 299.764C11.4064 299.503 10.9631 299.372 10.3751 299.372C9.78706 299.372 9.33906 299.503 9.03106 299.764C8.72306 300.025 8.56906 300.371 8.56906 300.8C8.56906 301.295 8.72773 301.663 9.04506 301.906C9.3624 302.139 9.80573 302.256 10.3751 302.256Z" fill="black"/>
<rect width="26.1797" height="20.388" transform="translate(510.539 283)" fill="white"/>
<path d="M528.107 298.388C527.323 298.388 526.66 298.215 526.119 297.87C525.577 297.515 525.167 297.007 524.887 296.344C524.607 295.672 524.467 294.86 524.467 293.908C524.467 293.077 524.537 292.307 524.677 291.598C524.826 290.879 525.059 290.254 525.377 289.722C525.694 289.181 526.105 288.761 526.609 288.462C527.122 288.154 527.743 288 528.471 288C529.385 288 530.099 288.224 530.613 288.672C531.126 289.111 531.481 289.699 531.677 290.436L530.179 290.562C530.067 290.198 529.88 289.909 529.619 289.694C529.367 289.479 528.984 289.372 528.471 289.372C527.705 289.372 527.103 289.699 526.665 290.352C526.226 291.005 525.993 292.004 525.965 293.348L525.699 293.292C525.801 292.975 525.974 292.685 526.217 292.424C526.459 292.153 526.763 291.939 527.127 291.78C527.5 291.612 527.925 291.528 528.401 291.528C529.063 291.528 529.642 291.668 530.137 291.948C530.641 292.219 531.028 292.606 531.299 293.11C531.579 293.614 531.719 294.202 531.719 294.874C531.719 295.602 531.565 296.232 531.257 296.764C530.949 297.287 530.524 297.688 529.983 297.968C529.441 298.248 528.816 298.388 528.107 298.388ZM528.121 297.044C528.727 297.044 529.217 296.853 529.591 296.47C529.973 296.078 530.165 295.546 530.165 294.874C530.165 294.454 530.081 294.09 529.913 293.782C529.754 293.465 529.525 293.222 529.227 293.054C528.937 292.886 528.601 292.802 528.219 292.802C527.799 292.802 527.425 292.886 527.099 293.054C526.772 293.222 526.515 293.465 526.329 293.782C526.142 294.09 526.049 294.454 526.049 294.874C526.049 295.294 526.133 295.667 526.301 295.994C526.469 296.321 526.707 296.577 527.015 296.764C527.332 296.951 527.701 297.044 528.121 297.044Z" fill="black"/>
<path d="M518.871 298.388C518.012 298.388 517.317 298.183 516.785 297.772C516.253 297.361 515.884 296.815 515.679 296.134L517.205 296.036C517.317 296.344 517.508 296.587 517.779 296.764C518.059 296.932 518.423 297.016 518.871 297.016C519.655 297.016 520.248 296.708 520.649 296.092C521.06 295.476 521.27 294.477 521.279 293.096L521.559 293.166C521.326 293.754 520.971 294.202 520.495 294.51C520.028 294.818 519.478 294.972 518.843 294.972C518.19 294.972 517.616 294.832 517.121 294.552C516.626 294.263 516.239 293.861 515.959 293.348C515.679 292.835 515.539 292.237 515.539 291.556C515.539 290.819 515.688 290.189 515.987 289.666C516.286 289.134 516.701 288.723 517.233 288.434C517.765 288.145 518.381 288 519.081 288C519.94 288 520.64 288.191 521.181 288.574C521.732 288.957 522.138 289.498 522.399 290.198C522.67 290.889 522.805 291.719 522.805 292.69C522.805 293.53 522.735 294.3 522.595 295C522.455 295.7 522.226 296.302 521.909 296.806C521.601 297.31 521.195 297.702 520.691 297.982C520.196 298.253 519.59 298.388 518.871 298.388ZM519.053 293.67C519.473 293.67 519.842 293.586 520.159 293.418C520.476 293.25 520.724 293.012 520.901 292.704C521.078 292.387 521.167 292.004 521.167 291.556C521.167 291.127 521.083 290.749 520.915 290.422C520.756 290.086 520.523 289.825 520.215 289.638C519.907 289.442 519.538 289.344 519.109 289.344C518.689 289.344 518.325 289.437 518.017 289.624C517.718 289.811 517.485 290.072 517.317 290.408C517.158 290.735 517.079 291.113 517.079 291.542C517.079 291.981 517.163 292.359 517.331 292.676C517.499 292.993 517.728 293.241 518.017 293.418C518.316 293.586 518.661 293.67 519.053 293.67Z" fill="black"/>
<path d="M210.539 447L205.539 450L205.539 447.52L88.5391 447.52L88.5391 450L83.5391 447L88.5391 444L88.5391 446.48L205.539 446.48L205.539 444L210.539 447Z" fill="black"/>
<path d="M338.539 447L333.539 450L333.539 447.52L217.539 447.52L217.539 450L212.539 447L217.539 444L217.539 446.48L333.539 446.48L333.539 444L338.539 447Z" fill="black"/>
<path d="M467.539 447L462.539 450L462.539 447.52L345.539 447.52L345.539 450L340.539 447L345.539 444L345.539 446.48L462.539 446.48L462.539 444L467.539 447Z" fill="black"/>
<path d="M467.539 472L462.539 475L462.539 472.52L88.5391 472.521L88.5391 475.001L83.5391 472.001L88.5391 469.001L88.5391 471.481L462.539 471.48L462.539 469L467.539 472Z" fill="black"/>
<rect width="26.0703" height="20.388" transform="translate(133.539 437)" fill="white"/>
<path d="M147.441 452.164C147.441 451.417 147.553 450.75 147.777 450.162C148.001 449.574 148.384 449.028 148.925 448.524C149.467 448.02 150.213 447.516 151.165 447.012C151.623 446.779 151.987 446.564 152.257 446.368C152.537 446.163 152.738 445.953 152.859 445.738C152.981 445.523 153.041 445.262 153.041 444.954C153.041 444.637 152.971 444.366 152.831 444.142C152.701 443.909 152.505 443.727 152.243 443.596C151.982 443.456 151.651 443.386 151.249 443.386C150.615 443.386 150.111 443.559 149.737 443.904C149.373 444.24 149.145 444.725 149.051 445.36L147.483 445.262C147.595 444.263 147.973 443.47 148.617 442.882C149.271 442.294 150.148 442 151.249 442C151.959 442 152.561 442.126 153.055 442.378C153.559 442.621 153.942 442.961 154.203 443.4C154.474 443.839 154.609 444.347 154.609 444.926C154.609 445.43 154.525 445.864 154.357 446.228C154.189 446.592 153.909 446.933 153.517 447.25C153.125 447.558 152.593 447.889 151.921 448.244C151.063 448.701 150.414 449.154 149.975 449.602C149.537 450.041 149.303 450.433 149.275 450.778H154.609V452.164H147.441Z" fill="black"/>
<path d="M142.193 452.388C141.045 452.388 140.158 452.122 139.533 451.59C138.917 451.058 138.586 450.358 138.539 449.49L140.093 449.406C140.149 449.975 140.364 450.386 140.737 450.638C141.12 450.881 141.605 451.002 142.193 451.002C142.585 451.002 142.944 450.951 143.271 450.848C143.607 450.736 143.873 450.559 144.069 450.316C144.274 450.064 144.377 449.737 144.377 449.336C144.377 448.739 144.176 448.3 143.775 448.02C143.374 447.731 142.842 447.586 142.179 447.586H141.353V446.27H142.179C142.711 446.27 143.154 446.163 143.509 445.948C143.864 445.733 144.041 445.36 144.041 444.828C144.041 444.361 143.892 444.007 143.593 443.764C143.294 443.512 142.837 443.386 142.221 443.386C141.624 443.386 141.171 443.503 140.863 443.736C140.555 443.969 140.373 444.287 140.317 444.688L138.763 444.604C138.856 443.82 139.197 443.19 139.785 442.714C140.382 442.238 141.194 442 142.221 442C142.93 442 143.537 442.112 144.041 442.336C144.545 442.551 144.932 442.863 145.203 443.274C145.474 443.685 145.609 444.165 145.609 444.716C145.609 445.323 145.413 445.817 145.021 446.2C144.638 446.583 144.074 446.844 143.327 446.984V446.732C144.139 446.835 144.778 447.124 145.245 447.6C145.712 448.067 145.945 448.664 145.945 449.392C145.945 450.017 145.786 450.559 145.469 451.016C145.152 451.464 144.713 451.805 144.153 452.038C143.593 452.271 142.94 452.388 142.193 452.388Z" fill="black"/>
<rect width="26.0703" height="20.388" transform="translate(262.539 437)" fill="white"/>
<path d="M276.441 452.164C276.441 451.417 276.553 450.75 276.777 450.162C277.001 449.574 277.384 449.028 277.925 448.524C278.467 448.02 279.213 447.516 280.165 447.012C280.623 446.779 280.987 446.564 281.257 446.368C281.537 446.163 281.738 445.953 281.859 445.738C281.981 445.523 282.041 445.262 282.041 444.954C282.041 444.637 281.971 444.366 281.831 444.142C281.701 443.909 281.505 443.727 281.243 443.596C280.982 443.456 280.651 443.386 280.249 443.386C279.615 443.386 279.111 443.559 278.737 443.904C278.373 444.24 278.145 444.725 278.051 445.36L276.483 445.262C276.595 444.263 276.973 443.47 277.617 442.882C278.271 442.294 279.148 442 280.249 442C280.959 442 281.561 442.126 282.055 442.378C282.559 442.621 282.942 442.961 283.203 443.4C283.474 443.839 283.609 444.347 283.609 444.926C283.609 445.43 283.525 445.864 283.357 446.228C283.189 446.592 282.909 446.933 282.517 447.25C282.125 447.558 281.593 447.889 280.921 448.244C280.063 448.701 279.414 449.154 278.975 449.602C278.537 450.041 278.303 450.433 278.275 450.778H283.609V452.164H276.441Z" fill="black"/>
<path d="M271.193 452.388C270.045 452.388 269.158 452.122 268.533 451.59C267.917 451.058 267.586 450.358 267.539 449.49L269.093 449.406C269.149 449.975 269.364 450.386 269.737 450.638C270.12 450.881 270.605 451.002 271.193 451.002C271.585 451.002 271.944 450.951 272.271 450.848C272.607 450.736 272.873 450.559 273.069 450.316C273.274 450.064 273.377 449.737 273.377 449.336C273.377 448.739 273.176 448.3 272.775 448.02C272.374 447.731 271.842 447.586 271.179 447.586H270.353V446.27H271.179C271.711 446.27 272.154 446.163 272.509 445.948C272.864 445.733 273.041 445.36 273.041 444.828C273.041 444.361 272.892 444.007 272.593 443.764C272.294 443.512 271.837 443.386 271.221 443.386C270.624 443.386 270.171 443.503 269.863 443.736C269.555 443.969 269.373 444.287 269.317 444.688L267.763 444.604C267.856 443.82 268.197 443.19 268.785 442.714C269.382 442.238 270.194 442 271.221 442C271.93 442 272.537 442.112 273.041 442.336C273.545 442.551 273.932 442.863 274.203 443.274C274.474 443.685 274.609 444.165 274.609 444.716C274.609 445.323 274.413 445.817 274.021 446.2C273.638 446.583 273.074 446.844 272.327 446.984V446.732C273.139 446.835 273.778 447.124 274.245 447.6C274.712 448.067 274.945 448.664 274.945 449.392C274.945 450.017 274.786 450.559 274.469 451.016C274.152 451.464 273.713 451.805 273.153 452.038C272.593 452.271 271.94 452.388 271.193 452.388Z" fill="black"/>
<rect width="26.0703" height="20.388" transform="translate(390.539 437)" fill="white"/>
<path d="M404.441 452.164C404.441 451.417 404.553 450.75 404.777 450.162C405.001 449.574 405.384 449.028 405.925 448.524C406.467 448.02 407.213 447.516 408.165 447.012C408.623 446.779 408.987 446.564 409.257 446.368C409.537 446.163 409.738 445.953 409.859 445.738C409.981 445.523 410.041 445.262 410.041 444.954C410.041 444.637 409.971 444.366 409.831 444.142C409.701 443.909 409.505 443.727 409.243 443.596C408.982 443.456 408.651 443.386 408.249 443.386C407.615 443.386 407.111 443.559 406.737 443.904C406.373 444.24 406.145 444.725 406.051 445.36L404.483 445.262C404.595 444.263 404.973 443.47 405.617 442.882C406.271 442.294 407.148 442 408.249 442C408.959 442 409.561 442.126 410.055 442.378C410.559 442.621 410.942 442.961 411.203 443.4C411.474 443.839 411.609 444.347 411.609 444.926C411.609 445.43 411.525 445.864 411.357 446.228C411.189 446.592 410.909 446.933 410.517 447.25C410.125 447.558 409.593 447.889 408.921 448.244C408.063 448.701 407.414 449.154 406.975 449.602C406.537 450.041 406.303 450.433 406.275 450.778H411.609V452.164H404.441Z" fill="black"/>
<path d="M399.193 452.388C398.045 452.388 397.158 452.122 396.533 451.59C395.917 451.058 395.586 450.358 395.539 449.49L397.093 449.406C397.149 449.975 397.364 450.386 397.737 450.638C398.12 450.881 398.605 451.002 399.193 451.002C399.585 451.002 399.944 450.951 400.271 450.848C400.607 450.736 400.873 450.559 401.069 450.316C401.274 450.064 401.377 449.737 401.377 449.336C401.377 448.739 401.176 448.3 400.775 448.02C400.374 447.731 399.842 447.586 399.179 447.586H398.353V446.27H399.179C399.711 446.27 400.154 446.163 400.509 445.948C400.864 445.733 401.041 445.36 401.041 444.828C401.041 444.361 400.892 444.007 400.593 443.764C400.294 443.512 399.837 443.386 399.221 443.386C398.624 443.386 398.171 443.503 397.863 443.736C397.555 443.969 397.373 444.287 397.317 444.688L395.763 444.604C395.856 443.82 396.197 443.19 396.785 442.714C397.382 442.238 398.194 442 399.221 442C399.93 442 400.537 442.112 401.041 442.336C401.545 442.551 401.932 442.863 402.203 443.274C402.474 443.685 402.609 444.165 402.609 444.716C402.609 445.323 402.413 445.817 402.021 446.2C401.638 446.583 401.074 446.844 400.327 446.984V446.732C401.139 446.835 401.778 447.124 402.245 447.6C402.712 448.067 402.945 448.664 402.945 449.392C402.945 450.017 402.786 450.559 402.469 451.016C402.152 451.464 401.713 451.805 401.153 452.038C400.593 452.271 399.94 452.388 399.193 452.388Z" fill="black"/>
<rect width="26.1797" height="20.388" transform="translate(261.539 462)" fill="white"/>
<path d="M279.107 477.388C278.323 477.388 277.66 477.215 277.119 476.87C276.577 476.515 276.167 476.007 275.887 475.344C275.607 474.672 275.467 473.86 275.467 472.908C275.467 472.077 275.537 471.307 275.677 470.598C275.826 469.879 276.059 469.254 276.377 468.722C276.694 468.181 277.105 467.761 277.609 467.462C278.122 467.154 278.743 467 279.471 467C280.385 467 281.099 467.224 281.613 467.672C282.126 468.111 282.481 468.699 282.677 469.436L281.179 469.562C281.067 469.198 280.88 468.909 280.619 468.694C280.367 468.479 279.984 468.372 279.471 468.372C278.705 468.372 278.103 468.699 277.665 469.352C277.226 470.005 276.993 471.004 276.965 472.348L276.699 472.292C276.801 471.975 276.974 471.685 277.217 471.424C277.459 471.153 277.763 470.939 278.127 470.78C278.5 470.612 278.925 470.528 279.401 470.528C280.063 470.528 280.642 470.668 281.137 470.948C281.641 471.219 282.028 471.606 282.299 472.11C282.579 472.614 282.719 473.202 282.719 473.874C282.719 474.602 282.565 475.232 282.257 475.764C281.949 476.287 281.524 476.688 280.983 476.968C280.441 477.248 279.816 477.388 279.107 477.388ZM279.121 476.044C279.727 476.044 280.217 475.853 280.591 475.47C280.973 475.078 281.165 474.546 281.165 473.874C281.165 473.454 281.081 473.09 280.913 472.782C280.754 472.465 280.525 472.222 280.227 472.054C279.937 471.886 279.601 471.802 279.219 471.802C278.799 471.802 278.425 471.886 278.099 472.054C277.772 472.222 277.515 472.465 277.329 472.782C277.142 473.09 277.049 473.454 277.049 473.874C277.049 474.294 277.133 474.667 277.301 474.994C277.469 475.321 277.707 475.577 278.015 475.764C278.332 475.951 278.701 476.044 279.121 476.044Z" fill="black"/>
<path d="M269.871 477.388C269.012 477.388 268.317 477.183 267.785 476.772C267.253 476.361 266.884 475.815 266.679 475.134L268.205 475.036C268.317 475.344 268.508 475.587 268.779 475.764C269.059 475.932 269.423 476.016 269.871 476.016C270.655 476.016 271.248 475.708 271.649 475.092C272.06 474.476 272.27 473.477 272.279 472.096L272.559 472.166C272.326 472.754 271.971 473.202 271.495 473.51C271.028 473.818 270.478 473.972 269.843 473.972C269.19 473.972 268.616 473.832 268.121 473.552C267.626 473.263 267.239 472.861 266.959 472.348C266.679 471.835 266.539 471.237 266.539 470.556C266.539 469.819 266.688 469.189 266.987 468.666C267.286 468.134 267.701 467.723 268.233 467.434C268.765 467.145 269.381 467 270.081 467C270.94 467 271.64 467.191 272.181 467.574C272.732 467.957 273.138 468.498 273.399 469.198C273.67 469.889 273.805 470.719 273.805 471.69C273.805 472.53 273.735 473.3 273.595 474C273.455 474.7 273.226 475.302 272.909 475.806C272.601 476.31 272.195 476.702 271.691 476.982C271.196 477.253 270.59 477.388 269.871 477.388ZM270.053 472.67C270.473 472.67 270.842 472.586 271.159 472.418C271.476 472.25 271.724 472.012 271.901 471.704C272.078 471.387 272.167 471.004 272.167 470.556C272.167 470.127 272.083 469.749 271.915 469.422C271.756 469.086 271.523 468.825 271.215 468.638C270.907 468.442 270.538 468.344 270.109 468.344C269.689 468.344 269.325 468.437 269.017 468.624C268.718 468.811 268.485 469.072 268.317 469.408C268.158 469.735 268.079 470.113 268.079 470.542C268.079 470.981 268.163 471.359 268.331 471.676C268.499 471.993 268.728 472.241 269.017 472.418C269.316 472.586 269.661 472.67 270.053 472.67Z" fill="black"/>
<path d="M83.5391 151H467.539V435H83.5391V151Z" fill="white"/>
<path d="M467.539 151V435H83.5391V151H467.539ZM86.5391 432H464.539V154H86.5391V432Z" fill="black"/>
<path d="M90.5391 158H206.539V428H90.5391V158Z" fill="url(#paint0_linear_1144_8860)"/>
<path d="M206.539 158V428H90.5391V158H206.539ZM91.5391 427H205.539V159H91.5391V427Z" fill="black"/>
<path d="M216.539 158H334.539V428H216.539V158Z" fill="url(#paint1_linear_1144_8860)"/>
<path d="M334.539 158V428H216.539V158H334.539ZM217.539 427H333.539V159H217.539V427Z" fill="black"/>
<path d="M344.539 158H460.539V428H344.539V158Z" fill="url(#paint2_linear_1144_8860)"/>
<path d="M460.539 158V428H344.539V158H460.539ZM345.539 427H459.539V159H345.539V427Z" fill="black"/>
<path d="M212.539 151.027L212.539 435.027L210.539 435.027L210.539 151.027L212.539 151.027Z" fill="black"/>
<path d="M340.539 151.027L340.539 435.027L338.539 435.027L338.539 151.027L340.539 151.027Z" fill="black"/>
<path d="M275.539 55C343.805 55 408.743 69.2512 467.539 94.9404V150.976H83.5391V94.9404C142.335 69.2512 207.273 55 275.539 55Z" fill="url(#paint3_linear_1144_8860)"/>
<path d="M275.539 55C343.805 55 408.743 69.2512 467.539 94.9404V150.976H83.5391V94.9404C142.335 69.2512 207.273 55 275.539 55ZM275.539 58C208.389 58 144.489 71.8748 86.5391 96.9092V147.976H464.539V96.9092C406.59 71.8748 342.689 58 275.539 58Z" fill="black"/>
<path d="M497.539 55L500.539 60L498.059 60L498.059 143L500.539 143L497.539 148L494.539 143L497.019 143L497.02 60L494.539 60L497.539 55Z" fill="black"/>
<rect width="25.785" height="20.164" transform="translate(484.539 91)" fill="white"/>
<path d="M502.594 106.164V104.092H497.582V102.804L502.412 96.2236H504.106V102.72H505.324V104.092H504.106V106.164H502.594ZM499.304 102.72H502.594V98.3236L499.304 102.72Z" fill="black"/>
<path d="M489.539 106.164C489.539 105.417 489.651 104.75 489.875 104.162C490.099 103.574 490.482 103.028 491.023 102.524C491.564 102.02 492.311 101.516 493.263 101.012C493.72 100.779 494.084 100.564 494.355 100.368C494.635 100.163 494.836 99.9527 494.957 99.738C495.078 99.5233 495.139 99.262 495.139 98.954C495.139 98.6367 495.069 98.366 494.929 98.142C494.798 97.9087 494.602 97.7267 494.341 97.596C494.08 97.456 493.748 97.386 493.347 97.386C492.712 97.386 492.208 97.5587 491.835 97.904C491.471 98.24 491.242 98.7253 491.149 99.36L489.581 99.262C489.693 98.2633 490.071 97.47 490.715 96.882C491.368 96.294 492.246 96 493.347 96C494.056 96 494.658 96.126 495.153 96.378C495.657 96.6207 496.04 96.9613 496.301 97.4C496.572 97.8387 496.707 98.3473 496.707 98.926C496.707 99.43 496.623 99.864 496.455 100.228C496.287 100.592 496.007 100.933 495.615 101.25C495.223 101.558 494.691 101.889 494.019 102.244C493.16 102.701 492.512 103.154 492.073 103.602C491.634 104.041 491.401 104.433 491.373 104.778H496.707V106.164H489.539Z" fill="black"/>
<defs>
<linearGradient id="paint0_linear_1144_8860" x1="101.085" y1="158" x2="270.028" y2="217.386" gradientUnits="userSpaceOnUse">
<stop stop-color="#B7DFE4"/>
<stop offset="0.5" stop-color="white"/>
<stop offset="1" stop-color="#B7DFE4"/>
</linearGradient>
<linearGradient id="paint1_linear_1144_8860" x1="227.266" y1="158" x2="398.467" y2="219.217" gradientUnits="userSpaceOnUse">
<stop stop-color="#B7DFE4"/>
<stop offset="0.5" stop-color="white"/>
<stop offset="1" stop-color="#B7DFE4"/>
</linearGradient>
<linearGradient id="paint2_linear_1144_8860" x1="355.085" y1="158" x2="524.028" y2="217.386" gradientUnits="userSpaceOnUse">
<stop stop-color="#B7DFE4"/>
<stop offset="0.5" stop-color="white"/>
<stop offset="1" stop-color="#B7DFE4"/>
</linearGradient>
<linearGradient id="paint3_linear_1144_8860" x1="83.5391" y1="142.67" x2="221.425" y2="294.224" gradientUnits="userSpaceOnUse">
<stop stop-color="#B7DFE4"/>
<stop offset="0.5" stop-color="white"/>
<stop offset="1" stop-color="#B7DFE4"/>
</linearGradient>
</defs>
</svg>
