<svg width="536" height="320" viewBox="0 0 536 320" fill="none" xmlns="http://www.w3.org/2000/svg">
<path d="M208 38H328V262H208V38Z" fill="white"/>
<path d="M328 38L328.001 262H208.001L208 38H328ZM211.052 259H324.95L324.949 41H211.051L211.052 259Z" fill="black"/>
<path d="M215 153H321V255H215V153Z" fill="url(#paint0_linear_1144_8766)"/>
<path d="M215 45H321V147H215V45Z" fill="url(#paint1_linear_1144_8766)"/>
<path d="M321 153V255H215.001L215 153H321ZM216 254L320 254V154H216V254Z" fill="black"/>
<path d="M321 45V147H215.001L215 45H321ZM216 146L320 146V46H216V146Z" fill="black"/>
<path d="M208 152H328V153H208V152Z" fill="black"/>
<path d="M328.5 274L323.5 276.887L323.5 274.5L217.5 274.5L217.5 276.887L212.5 274L217.5 271.113L217.5 273.5L323.5 273.5L323.5 271.113L328.5 274Z" fill="black"/>
<path d="M194 152L196.887 157L194.5 157L194.5 257L196.887 257L194 262L191.113 257L193.5 257L193.5 157L191.113 157L194 152Z" fill="black"/>
<path d="M158 41L160.887 46L158.5 46L158.5 257L160.887 257L158 262L155.113 257L157.5 257L157.5 46L155.113 46L158 41Z" fill="black"/>
<path d="M194 38L196.887 43L194.5 43L194.5 143L196.887 143L194 148L191.113 143L193.5 143L193.5 43L191.113 43L194 38Z" fill="black"/>
<rect width="26.8417" height="20.388" transform="translate(255 262)" fill="white"/>
<path d="M272.796 277.388C271.974 277.388 271.26 277.178 270.654 276.758C270.047 276.338 269.58 275.741 269.254 274.966C268.927 274.191 268.764 273.272 268.764 272.208C268.764 271.144 268.927 270.225 269.254 269.45C269.59 268.666 270.056 268.064 270.654 267.644C271.26 267.215 271.974 267 272.796 267C273.626 267 274.34 267.215 274.938 267.644C275.544 268.064 276.011 268.661 276.338 269.436C276.674 270.211 276.842 271.135 276.842 272.208C276.842 273.272 276.678 274.191 276.352 274.966C276.025 275.741 275.558 276.338 274.952 276.758C274.345 277.178 273.626 277.388 272.796 277.388ZM272.796 276.002C273.589 276.002 274.2 275.675 274.63 275.022C275.059 274.369 275.274 273.431 275.274 272.208C275.274 271.387 275.176 270.691 274.98 270.122C274.793 269.553 274.513 269.123 274.14 268.834C273.776 268.535 273.328 268.386 272.796 268.386C272.273 268.386 271.825 268.535 271.452 268.834C271.088 269.123 270.808 269.553 270.612 270.122C270.425 270.691 270.332 271.387 270.332 272.208C270.332 273.431 270.546 274.369 270.976 275.022C271.405 275.675 272.012 276.002 272.796 276.002Z" fill="black"/>
<path d="M263.654 277.388C262.506 277.388 261.619 277.122 260.994 276.59C260.378 276.058 260.047 275.358 260 274.49L261.554 274.406C261.61 274.975 261.825 275.386 262.198 275.638C262.581 275.881 263.066 276.002 263.654 276.002C264.046 276.002 264.405 275.951 264.732 275.848C265.068 275.736 265.334 275.559 265.53 275.316C265.735 275.064 265.838 274.737 265.838 274.336C265.838 273.739 265.637 273.3 265.236 273.02C264.835 272.731 264.303 272.586 263.64 272.586H262.814V271.27H263.64C264.172 271.27 264.615 271.163 264.97 270.948C265.325 270.733 265.502 270.36 265.502 269.828C265.502 269.361 265.353 269.007 265.054 268.764C264.755 268.512 264.298 268.386 263.682 268.386C263.085 268.386 262.632 268.503 262.324 268.736C262.016 268.969 261.834 269.287 261.778 269.688L260.224 269.604C260.317 268.82 260.658 268.19 261.246 267.714C261.843 267.238 262.655 267 263.682 267C264.391 267 264.998 267.112 265.502 267.336C266.006 267.551 266.393 267.863 266.664 268.274C266.935 268.685 267.07 269.165 267.07 269.716C267.07 270.323 266.874 270.817 266.482 271.2C266.099 271.583 265.535 271.844 264.788 271.984V271.732C265.6 271.835 266.239 272.124 266.706 272.6C267.173 273.067 267.406 273.664 267.406 274.392C267.406 275.017 267.247 275.559 266.93 276.016C266.613 276.464 266.174 276.805 265.614 277.038C265.054 277.271 264.401 277.388 263.654 277.388Z" fill="black"/>
<rect width="26.2111" height="20.388" transform="translate(180 194)" fill="white"/>
<path d="M197.375 209.388C196.619 209.388 195.952 209.276 195.373 209.052C194.794 208.828 194.342 208.497 194.015 208.058C193.698 207.619 193.539 207.083 193.539 206.448C193.539 205.72 193.758 205.118 194.197 204.642C194.636 204.166 195.224 203.849 195.961 203.69L195.989 203.97C195.392 203.83 194.911 203.573 194.547 203.2C194.192 202.827 194.015 202.337 194.015 201.73C194.015 201.198 194.15 200.727 194.421 200.316C194.692 199.905 195.074 199.583 195.569 199.35C196.073 199.117 196.675 199 197.375 199C198.066 199 198.663 199.117 199.167 199.35C199.671 199.583 200.054 199.905 200.315 200.316C200.586 200.727 200.721 201.198 200.721 201.73C200.721 202.337 200.544 202.827 200.189 203.2C199.834 203.564 199.354 203.821 198.747 203.97L198.775 203.69C199.522 203.849 200.114 204.166 200.553 204.642C200.992 205.118 201.211 205.72 201.211 206.448C201.211 207.083 201.048 207.619 200.721 208.058C200.404 208.497 199.956 208.828 199.377 209.052C198.798 209.276 198.131 209.388 197.375 209.388ZM197.375 208.002C198.066 208.002 198.612 207.862 199.013 207.582C199.424 207.293 199.629 206.863 199.629 206.294C199.629 205.753 199.442 205.319 199.069 204.992C198.705 204.665 198.14 204.502 197.375 204.502C196.61 204.502 196.04 204.665 195.667 204.992C195.294 205.319 195.107 205.753 195.107 206.294C195.107 206.863 195.312 207.293 195.723 207.582C196.134 207.862 196.684 208.002 197.375 208.002ZM197.375 203.256C197.944 203.256 198.383 203.139 198.691 202.906C199.008 202.663 199.167 202.295 199.167 201.8C199.167 201.371 199.013 201.025 198.705 200.764C198.406 200.503 197.963 200.372 197.375 200.372C196.787 200.372 196.339 200.503 196.031 200.764C195.723 201.025 195.569 201.371 195.569 201.8C195.569 202.295 195.728 202.663 196.045 202.906C196.362 203.139 196.806 203.256 197.375 203.256Z" fill="black"/>
<path d="M185 209.164C185 208.417 185.112 207.75 185.336 207.162C185.56 206.574 185.943 206.028 186.484 205.524C187.025 205.02 187.772 204.516 188.724 204.012C189.181 203.779 189.545 203.564 189.816 203.368C190.096 203.163 190.297 202.953 190.418 202.738C190.539 202.523 190.6 202.262 190.6 201.954C190.6 201.637 190.53 201.366 190.39 201.142C190.259 200.909 190.063 200.727 189.802 200.596C189.541 200.456 189.209 200.386 188.808 200.386C188.173 200.386 187.669 200.559 187.296 200.904C186.932 201.24 186.703 201.725 186.61 202.36L185.042 202.262C185.154 201.263 185.532 200.47 186.176 199.882C186.829 199.294 187.707 199 188.808 199C189.517 199 190.119 199.126 190.614 199.378C191.118 199.621 191.501 199.961 191.762 200.4C192.033 200.839 192.168 201.347 192.168 201.926C192.168 202.43 192.084 202.864 191.916 203.228C191.748 203.592 191.468 203.933 191.076 204.25C190.684 204.558 190.152 204.889 189.48 205.244C188.621 205.701 187.973 206.154 187.534 206.602C187.095 207.041 186.862 207.433 186.834 207.778H192.168V209.164H185Z" fill="black"/>
<rect width="26.2208" height="20.388" transform="translate(144 140)" fill="white"/>
<path d="M161.609 155.388C160.825 155.388 160.162 155.215 159.621 154.87C159.079 154.515 158.669 154.007 158.389 153.344C158.109 152.672 157.969 151.86 157.969 150.908C157.969 150.077 158.039 149.307 158.179 148.598C158.328 147.879 158.561 147.254 158.879 146.722C159.196 146.181 159.607 145.761 160.111 145.462C160.624 145.154 161.245 145 161.973 145C162.887 145 163.601 145.224 164.115 145.672C164.628 146.111 164.983 146.699 165.179 147.436L163.681 147.562C163.569 147.198 163.382 146.909 163.121 146.694C162.869 146.479 162.486 146.372 161.973 146.372C161.207 146.372 160.605 146.699 160.167 147.352C159.728 148.005 159.495 149.004 159.467 150.348L159.201 150.292C159.303 149.975 159.476 149.685 159.719 149.424C159.961 149.153 160.265 148.939 160.629 148.78C161.002 148.612 161.427 148.528 161.903 148.528C162.565 148.528 163.144 148.668 163.639 148.948C164.143 149.219 164.53 149.606 164.801 150.11C165.081 150.614 165.221 151.202 165.221 151.874C165.221 152.602 165.067 153.232 164.759 153.764C164.451 154.287 164.026 154.688 163.485 154.968C162.943 155.248 162.318 155.388 161.609 155.388ZM161.623 154.044C162.229 154.044 162.719 153.853 163.093 153.47C163.475 153.078 163.667 152.546 163.667 151.874C163.667 151.454 163.583 151.09 163.415 150.782C163.256 150.465 163.027 150.222 162.729 150.054C162.439 149.886 162.103 149.802 161.721 149.802C161.301 149.802 160.927 149.886 160.601 150.054C160.274 150.222 160.017 150.465 159.831 150.782C159.644 151.09 159.551 151.454 159.551 151.874C159.551 152.294 159.635 152.667 159.803 152.994C159.971 153.321 160.209 153.577 160.517 153.764C160.834 153.951 161.203 154.044 161.623 154.044Z" fill="black"/>
<path d="M152.64 155.388C151.903 155.388 151.273 155.271 150.75 155.038C150.227 154.795 149.817 154.459 149.518 154.03C149.219 153.6 149.047 153.106 149 152.546L150.554 152.448C150.629 152.97 150.848 153.362 151.212 153.624C151.585 153.876 152.061 154.002 152.64 154.002C153.293 154.002 153.807 153.82 154.18 153.456C154.563 153.092 154.754 152.583 154.754 151.93C154.754 151.5 154.665 151.132 154.488 150.824C154.32 150.506 154.077 150.264 153.76 150.096C153.443 149.918 153.065 149.83 152.626 149.83C152.187 149.83 151.795 149.923 151.45 150.11C151.105 150.296 150.857 150.553 150.708 150.88H149.14L149.812 145.224H155.636V146.61H151.156L150.736 150.012L150.498 149.802C150.657 149.522 150.857 149.293 151.1 149.116C151.343 148.929 151.623 148.789 151.94 148.696C152.267 148.593 152.612 148.542 152.976 148.542C153.648 148.542 154.231 148.686 154.726 148.976C155.23 149.265 155.622 149.666 155.902 150.18C156.182 150.693 156.322 151.276 156.322 151.93C156.322 152.611 156.168 153.213 155.86 153.736C155.552 154.258 155.123 154.664 154.572 154.954C154.021 155.243 153.377 155.388 152.64 155.388Z" fill="black"/>
<rect width="26.2111" height="20.388" transform="translate(180 83)" fill="white"/>
<path d="M197.375 98.388C196.619 98.388 195.952 98.276 195.373 98.052C194.794 97.828 194.342 97.4967 194.015 97.058C193.698 96.6193 193.539 96.0827 193.539 95.448C193.539 94.72 193.758 94.118 194.197 93.642C194.636 93.166 195.224 92.8487 195.961 92.69L195.989 92.97C195.392 92.83 194.911 92.5733 194.547 92.2C194.192 91.8267 194.015 91.3367 194.015 90.73C194.015 90.198 194.15 89.7267 194.421 89.316C194.692 88.9053 195.074 88.5833 195.569 88.35C196.073 88.1167 196.675 88 197.375 88C198.066 88 198.663 88.1167 199.167 88.35C199.671 88.5833 200.054 88.9053 200.315 89.316C200.586 89.7267 200.721 90.198 200.721 90.73C200.721 91.3367 200.544 91.8267 200.189 92.2C199.834 92.564 199.354 92.8207 198.747 92.97L198.775 92.69C199.522 92.8487 200.114 93.166 200.553 93.642C200.992 94.118 201.211 94.72 201.211 95.448C201.211 96.0827 201.048 96.6193 200.721 97.058C200.404 97.4967 199.956 97.828 199.377 98.052C198.798 98.276 198.131 98.388 197.375 98.388ZM197.375 97.002C198.066 97.002 198.612 96.862 199.013 96.582C199.424 96.2927 199.629 95.8633 199.629 95.294C199.629 94.7527 199.442 94.3187 199.069 93.992C198.705 93.6653 198.14 93.502 197.375 93.502C196.61 93.502 196.04 93.6653 195.667 93.992C195.294 94.3187 195.107 94.7527 195.107 95.294C195.107 95.8633 195.312 96.2927 195.723 96.582C196.134 96.862 196.684 97.002 197.375 97.002ZM197.375 92.256C197.944 92.256 198.383 92.1393 198.691 91.906C199.008 91.6633 199.167 91.2947 199.167 90.8C199.167 90.3707 199.013 90.0253 198.705 89.764C198.406 89.5027 197.963 89.372 197.375 89.372C196.787 89.372 196.339 89.5027 196.031 89.764C195.723 90.0253 195.569 90.3707 195.569 90.8C195.569 91.2947 195.728 91.6633 196.045 91.906C196.362 92.1393 196.806 92.256 197.375 92.256Z" fill="black"/>
<path d="M185 98.164C185 97.4173 185.112 96.75 185.336 96.162C185.56 95.574 185.943 95.028 186.484 94.524C187.025 94.02 187.772 93.516 188.724 93.012C189.181 92.7787 189.545 92.564 189.816 92.368C190.096 92.1627 190.297 91.9527 190.418 91.738C190.539 91.5233 190.6 91.262 190.6 90.954C190.6 90.6367 190.53 90.366 190.39 90.142C190.259 89.9087 190.063 89.7267 189.802 89.596C189.541 89.456 189.209 89.386 188.808 89.386C188.173 89.386 187.669 89.5587 187.296 89.904C186.932 90.24 186.703 90.7253 186.61 91.36L185.042 91.262C185.154 90.2633 185.532 89.47 186.176 88.882C186.829 88.294 187.707 88 188.808 88C189.517 88 190.119 88.126 190.614 88.378C191.118 88.6207 191.501 88.9613 191.762 89.4C192.033 89.8387 192.168 90.3473 192.168 90.926C192.168 91.43 192.084 91.864 191.916 92.228C191.748 92.592 191.468 92.9327 191.076 93.25C190.684 93.558 190.152 93.8893 189.48 94.244C188.621 94.7013 187.973 95.154 187.534 95.602C187.095 96.0407 186.862 96.4327 186.834 96.778H192.168V98.164H185Z" fill="black"/>
<defs>
<linearGradient id="paint0_linear_1144_8766" x1="224.636" y1="153" x2="325.309" y2="238.599" gradientUnits="userSpaceOnUse">
<stop stop-color="#B7DFE4"/>
<stop offset="0.5" stop-color="white"/>
<stop offset="1" stop-color="#B7DFE4"/>
</linearGradient>
<linearGradient id="paint1_linear_1144_8766" x1="224.636" y1="45" x2="325.309" y2="130.599" gradientUnits="userSpaceOnUse">
<stop stop-color="#B7DFE4"/>
<stop offset="0.5" stop-color="white"/>
<stop offset="1" stop-color="#B7DFE4"/>
</linearGradient>
</defs>
</svg>
