<svg width="536" height="536" viewBox="0 0 536 536" fill="none" xmlns="http://www.w3.org/2000/svg">
<path d="M208 211H328V435H208V211Z" fill="white"/>
<path d="M328 211L328.001 435H208.001L208 211H328ZM211.052 432H324.95L324.949 214H211.051L211.052 432Z" fill="black"/>
<path d="M215 326H321V428H215V326Z" fill="url(#paint0_linear_1144_8371)"/>
<path d="M215 218H321V320H215V218Z" fill="url(#paint1_linear_1144_8371)"/>
<path d="M321 326V428H215.001L215 326H321ZM216 427L320 427V327H216V427Z" fill="black"/>
<path d="M321 218V320H215.001L215 218H321ZM216 319L320 319V219H216V319Z" fill="black"/>
<path d="M208 325H328V326H208V325Z" fill="black"/>
<path d="M328.5 447L323.5 449.887L323.5 447.5L217.5 447.5L217.5 449.887L212.5 447L217.5 444.113L217.5 446.5L323.5 446.5L323.5 444.113L328.5 447Z" fill="black"/>
<path d="M194 325L196.887 330L194.5 330L194.5 430L196.887 430L194 435L191.113 430L193.5 430L193.5 330L191.113 330L194 325Z" fill="black"/>
<path d="M158 214L160.887 219L158.5 219L158.5 430L160.887 430L158 435L155.113 430L157.5 430L157.5 219L155.113 219L158 214Z" fill="black"/>
<path d="M194 211L196.887 216L194.5 216L194.5 316L196.887 316L194 321L191.113 316L193.5 316L193.5 216L191.113 216L194 211Z" fill="black"/>
<rect width="26.8417" height="20.388" transform="translate(255 435)" fill="white"/>
<path d="M272.796 450.388C271.974 450.388 271.26 450.178 270.654 449.758C270.047 449.338 269.58 448.741 269.254 447.966C268.927 447.191 268.764 446.272 268.764 445.208C268.764 444.144 268.927 443.225 269.254 442.45C269.59 441.666 270.056 441.064 270.654 440.644C271.26 440.215 271.974 440 272.796 440C273.626 440 274.34 440.215 274.938 440.644C275.544 441.064 276.011 441.661 276.338 442.436C276.674 443.211 276.842 444.135 276.842 445.208C276.842 446.272 276.678 447.191 276.352 447.966C276.025 448.741 275.558 449.338 274.952 449.758C274.345 450.178 273.626 450.388 272.796 450.388ZM272.796 449.002C273.589 449.002 274.2 448.675 274.63 448.022C275.059 447.369 275.274 446.431 275.274 445.208C275.274 444.387 275.176 443.691 274.98 443.122C274.793 442.553 274.513 442.123 274.14 441.834C273.776 441.535 273.328 441.386 272.796 441.386C272.273 441.386 271.825 441.535 271.452 441.834C271.088 442.123 270.808 442.553 270.612 443.122C270.425 443.691 270.332 444.387 270.332 445.208C270.332 446.431 270.546 447.369 270.976 448.022C271.405 448.675 272.012 449.002 272.796 449.002Z" fill="black"/>
<path d="M263.654 450.388C262.506 450.388 261.619 450.122 260.994 449.59C260.378 449.058 260.047 448.358 260 447.49L261.554 447.406C261.61 447.975 261.825 448.386 262.198 448.638C262.581 448.881 263.066 449.002 263.654 449.002C264.046 449.002 264.405 448.951 264.732 448.848C265.068 448.736 265.334 448.559 265.53 448.316C265.735 448.064 265.838 447.737 265.838 447.336C265.838 446.739 265.637 446.3 265.236 446.02C264.835 445.731 264.303 445.586 263.64 445.586H262.814V444.27H263.64C264.172 444.27 264.615 444.163 264.97 443.948C265.325 443.733 265.502 443.36 265.502 442.828C265.502 442.361 265.353 442.007 265.054 441.764C264.755 441.512 264.298 441.386 263.682 441.386C263.085 441.386 262.632 441.503 262.324 441.736C262.016 441.969 261.834 442.287 261.778 442.688L260.224 442.604C260.317 441.82 260.658 441.19 261.246 440.714C261.843 440.238 262.655 440 263.682 440C264.391 440 264.998 440.112 265.502 440.336C266.006 440.551 266.393 440.863 266.664 441.274C266.935 441.685 267.07 442.165 267.07 442.716C267.07 443.323 266.874 443.817 266.482 444.2C266.099 444.583 265.535 444.844 264.788 444.984V444.732C265.6 444.835 266.239 445.124 266.706 445.6C267.173 446.067 267.406 446.664 267.406 447.392C267.406 448.017 267.247 448.559 266.93 449.016C266.613 449.464 266.174 449.805 265.614 450.038C265.054 450.271 264.401 450.388 263.654 450.388Z" fill="black"/>
<rect width="26.2111" height="20.388" transform="translate(180 367)" fill="white"/>
<path d="M197.375 382.388C196.619 382.388 195.952 382.276 195.373 382.052C194.794 381.828 194.342 381.497 194.015 381.058C193.698 380.619 193.539 380.083 193.539 379.448C193.539 378.72 193.758 378.118 194.197 377.642C194.636 377.166 195.224 376.849 195.961 376.69L195.989 376.97C195.392 376.83 194.911 376.573 194.547 376.2C194.192 375.827 194.015 375.337 194.015 374.73C194.015 374.198 194.15 373.727 194.421 373.316C194.692 372.905 195.074 372.583 195.569 372.35C196.073 372.117 196.675 372 197.375 372C198.066 372 198.663 372.117 199.167 372.35C199.671 372.583 200.054 372.905 200.315 373.316C200.586 373.727 200.721 374.198 200.721 374.73C200.721 375.337 200.544 375.827 200.189 376.2C199.834 376.564 199.354 376.821 198.747 376.97L198.775 376.69C199.522 376.849 200.114 377.166 200.553 377.642C200.992 378.118 201.211 378.72 201.211 379.448C201.211 380.083 201.048 380.619 200.721 381.058C200.404 381.497 199.956 381.828 199.377 382.052C198.798 382.276 198.131 382.388 197.375 382.388ZM197.375 381.002C198.066 381.002 198.612 380.862 199.013 380.582C199.424 380.293 199.629 379.863 199.629 379.294C199.629 378.753 199.442 378.319 199.069 377.992C198.705 377.665 198.14 377.502 197.375 377.502C196.61 377.502 196.04 377.665 195.667 377.992C195.294 378.319 195.107 378.753 195.107 379.294C195.107 379.863 195.312 380.293 195.723 380.582C196.134 380.862 196.684 381.002 197.375 381.002ZM197.375 376.256C197.944 376.256 198.383 376.139 198.691 375.906C199.008 375.663 199.167 375.295 199.167 374.8C199.167 374.371 199.013 374.025 198.705 373.764C198.406 373.503 197.963 373.372 197.375 373.372C196.787 373.372 196.339 373.503 196.031 373.764C195.723 374.025 195.569 374.371 195.569 374.8C195.569 375.295 195.728 375.663 196.045 375.906C196.362 376.139 196.806 376.256 197.375 376.256Z" fill="black"/>
<path d="M185 382.164C185 381.417 185.112 380.75 185.336 380.162C185.56 379.574 185.943 379.028 186.484 378.524C187.025 378.02 187.772 377.516 188.724 377.012C189.181 376.779 189.545 376.564 189.816 376.368C190.096 376.163 190.297 375.953 190.418 375.738C190.539 375.523 190.6 375.262 190.6 374.954C190.6 374.637 190.53 374.366 190.39 374.142C190.259 373.909 190.063 373.727 189.802 373.596C189.541 373.456 189.209 373.386 188.808 373.386C188.173 373.386 187.669 373.559 187.296 373.904C186.932 374.24 186.703 374.725 186.61 375.36L185.042 375.262C185.154 374.263 185.532 373.47 186.176 372.882C186.829 372.294 187.707 372 188.808 372C189.517 372 190.119 372.126 190.614 372.378C191.118 372.621 191.501 372.961 191.762 373.4C192.033 373.839 192.168 374.347 192.168 374.926C192.168 375.43 192.084 375.864 191.916 376.228C191.748 376.592 191.468 376.933 191.076 377.25C190.684 377.558 190.152 377.889 189.48 378.244C188.621 378.701 187.973 379.154 187.534 379.602C187.095 380.041 186.862 380.433 186.834 380.778H192.168V382.164H185Z" fill="black"/>
<rect width="26.2208" height="20.388" transform="translate(144 313)" fill="white"/>
<path d="M161.609 328.388C160.825 328.388 160.162 328.215 159.621 327.87C159.079 327.515 158.669 327.007 158.389 326.344C158.109 325.672 157.969 324.86 157.969 323.908C157.969 323.077 158.039 322.307 158.179 321.598C158.328 320.879 158.561 320.254 158.879 319.722C159.196 319.181 159.607 318.761 160.111 318.462C160.624 318.154 161.245 318 161.973 318C162.887 318 163.601 318.224 164.115 318.672C164.628 319.111 164.983 319.699 165.179 320.436L163.681 320.562C163.569 320.198 163.382 319.909 163.121 319.694C162.869 319.479 162.486 319.372 161.973 319.372C161.207 319.372 160.605 319.699 160.167 320.352C159.728 321.005 159.495 322.004 159.467 323.348L159.201 323.292C159.303 322.975 159.476 322.685 159.719 322.424C159.961 322.153 160.265 321.939 160.629 321.78C161.002 321.612 161.427 321.528 161.903 321.528C162.565 321.528 163.144 321.668 163.639 321.948C164.143 322.219 164.53 322.606 164.801 323.11C165.081 323.614 165.221 324.202 165.221 324.874C165.221 325.602 165.067 326.232 164.759 326.764C164.451 327.287 164.026 327.688 163.485 327.968C162.943 328.248 162.318 328.388 161.609 328.388ZM161.623 327.044C162.229 327.044 162.719 326.853 163.093 326.47C163.475 326.078 163.667 325.546 163.667 324.874C163.667 324.454 163.583 324.09 163.415 323.782C163.256 323.465 163.027 323.222 162.729 323.054C162.439 322.886 162.103 322.802 161.721 322.802C161.301 322.802 160.927 322.886 160.601 323.054C160.274 323.222 160.017 323.465 159.831 323.782C159.644 324.09 159.551 324.454 159.551 324.874C159.551 325.294 159.635 325.667 159.803 325.994C159.971 326.321 160.209 326.577 160.517 326.764C160.834 326.951 161.203 327.044 161.623 327.044Z" fill="black"/>
<path d="M152.64 328.388C151.903 328.388 151.273 328.271 150.75 328.038C150.227 327.795 149.817 327.459 149.518 327.03C149.219 326.6 149.047 326.106 149 325.546L150.554 325.448C150.629 325.97 150.848 326.362 151.212 326.624C151.585 326.876 152.061 327.002 152.64 327.002C153.293 327.002 153.807 326.82 154.18 326.456C154.563 326.092 154.754 325.583 154.754 324.93C154.754 324.5 154.665 324.132 154.488 323.824C154.32 323.506 154.077 323.264 153.76 323.096C153.443 322.918 153.065 322.83 152.626 322.83C152.187 322.83 151.795 322.923 151.45 323.11C151.105 323.296 150.857 323.553 150.708 323.88H149.14L149.812 318.224H155.636V319.61H151.156L150.736 323.012L150.498 322.802C150.657 322.522 150.857 322.293 151.1 322.116C151.343 321.929 151.623 321.789 151.94 321.696C152.267 321.593 152.612 321.542 152.976 321.542C153.648 321.542 154.231 321.686 154.726 321.976C155.23 322.265 155.622 322.666 155.902 323.18C156.182 323.693 156.322 324.276 156.322 324.93C156.322 325.611 156.168 326.213 155.86 326.736C155.552 327.258 155.123 327.664 154.572 327.954C154.021 328.243 153.377 328.388 152.64 328.388Z" fill="black"/>
<rect width="26.2111" height="20.388" transform="translate(180 256)" fill="white"/>
<path d="M197.375 271.388C196.619 271.388 195.952 271.276 195.373 271.052C194.794 270.828 194.342 270.497 194.015 270.058C193.698 269.619 193.539 269.083 193.539 268.448C193.539 267.72 193.758 267.118 194.197 266.642C194.636 266.166 195.224 265.849 195.961 265.69L195.989 265.97C195.392 265.83 194.911 265.573 194.547 265.2C194.192 264.827 194.015 264.337 194.015 263.73C194.015 263.198 194.15 262.727 194.421 262.316C194.692 261.905 195.074 261.583 195.569 261.35C196.073 261.117 196.675 261 197.375 261C198.066 261 198.663 261.117 199.167 261.35C199.671 261.583 200.054 261.905 200.315 262.316C200.586 262.727 200.721 263.198 200.721 263.73C200.721 264.337 200.544 264.827 200.189 265.2C199.834 265.564 199.354 265.821 198.747 265.97L198.775 265.69C199.522 265.849 200.114 266.166 200.553 266.642C200.992 267.118 201.211 267.72 201.211 268.448C201.211 269.083 201.048 269.619 200.721 270.058C200.404 270.497 199.956 270.828 199.377 271.052C198.798 271.276 198.131 271.388 197.375 271.388ZM197.375 270.002C198.066 270.002 198.612 269.862 199.013 269.582C199.424 269.293 199.629 268.863 199.629 268.294C199.629 267.753 199.442 267.319 199.069 266.992C198.705 266.665 198.14 266.502 197.375 266.502C196.61 266.502 196.04 266.665 195.667 266.992C195.294 267.319 195.107 267.753 195.107 268.294C195.107 268.863 195.312 269.293 195.723 269.582C196.134 269.862 196.684 270.002 197.375 270.002ZM197.375 265.256C197.944 265.256 198.383 265.139 198.691 264.906C199.008 264.663 199.167 264.295 199.167 263.8C199.167 263.371 199.013 263.025 198.705 262.764C198.406 262.503 197.963 262.372 197.375 262.372C196.787 262.372 196.339 262.503 196.031 262.764C195.723 263.025 195.569 263.371 195.569 263.8C195.569 264.295 195.728 264.663 196.045 264.906C196.362 265.139 196.806 265.256 197.375 265.256Z" fill="black"/>
<path d="M185 271.164C185 270.417 185.112 269.75 185.336 269.162C185.56 268.574 185.943 268.028 186.484 267.524C187.025 267.02 187.772 266.516 188.724 266.012C189.181 265.779 189.545 265.564 189.816 265.368C190.096 265.163 190.297 264.953 190.418 264.738C190.539 264.523 190.6 264.262 190.6 263.954C190.6 263.637 190.53 263.366 190.39 263.142C190.259 262.909 190.063 262.727 189.802 262.596C189.541 262.456 189.209 262.386 188.808 262.386C188.173 262.386 187.669 262.559 187.296 262.904C186.932 263.24 186.703 263.725 186.61 264.36L185.042 264.262C185.154 263.263 185.532 262.47 186.176 261.882C186.829 261.294 187.707 261 188.808 261C189.517 261 190.119 261.126 190.614 261.378C191.118 261.621 191.501 261.961 191.762 262.4C192.033 262.839 192.168 263.347 192.168 263.926C192.168 264.43 192.084 264.864 191.916 265.228C191.748 265.592 191.468 265.933 191.076 266.25C190.684 266.558 190.152 266.889 189.48 267.244C188.621 267.701 187.973 268.154 187.534 268.602C187.095 269.041 186.862 269.433 186.834 269.778H192.168V271.164H185Z" fill="black"/>
<defs>
<linearGradient id="paint0_linear_1144_8371" x1="224.636" y1="326" x2="325.309" y2="411.599" gradientUnits="userSpaceOnUse">
<stop stop-color="#B7DFE4"/>
<stop offset="0.5" stop-color="white"/>
<stop offset="1" stop-color="#B7DFE4"/>
</linearGradient>
<linearGradient id="paint1_linear_1144_8371" x1="224.636" y1="218" x2="325.309" y2="303.599" gradientUnits="userSpaceOnUse">
<stop stop-color="#B7DFE4"/>
<stop offset="0.5" stop-color="white"/>
<stop offset="1" stop-color="#B7DFE4"/>
</linearGradient>
</defs>
</svg>
