<svg width="536" height="536" viewBox="0 0 536 536" fill="none" xmlns="http://www.w3.org/2000/svg">
<path d="M126 107H410V435H126V107Z" fill="white"/>
<path d="M410 107V435H126V107H410ZM129 432H407V110H129V432Z" fill="black"/>
<path d="M274 114H403V428H274V114Z" fill="url(#paint0_linear_1144_8836)"/>
<path d="M403 114V428H274V114H403ZM275 427H402V115H275V427Z" fill="black"/>
<path d="M133 114H262V428H133V114Z" fill="url(#paint1_linear_1144_8836)"/>
<path d="M262 114V428H133V114H262ZM134 427H261V115H134V427Z" fill="black"/>
<path d="M263 107L263 435L262 435L262 107L263 107Z" fill="black"/>
<path d="M410 447L405 450L405 447.52L131 447.52L131 450L126 447L131 444L131 446.48L405 446.48L405 444L410 447Z" fill="black"/>
<path d="M96 107L99 112L96.5196 112L96.5203 430L99.0007 430L96.0007 435L93.0007 430L95.4811 430L95.4804 112L93 112L96 107Z" fill="black"/>
<rect width="49.8068" height="22.04" transform="translate(243 435)" fill="white"/>
<path d="M283.971 450.724C283.215 450.724 282.547 450.612 281.969 450.388C281.39 450.164 280.937 449.833 280.611 449.394C280.293 448.955 280.135 448.419 280.135 447.784C280.135 447.056 280.354 446.454 280.793 445.978C281.231 445.502 281.819 445.185 282.557 445.026L282.585 445.306C281.987 445.166 281.507 444.909 281.143 444.536C280.788 444.163 280.611 443.673 280.611 443.066C280.611 442.534 280.746 442.063 281.017 441.652C281.287 441.241 281.67 440.919 282.165 440.686C282.669 440.453 283.271 440.336 283.971 440.336C284.661 440.336 285.259 440.453 285.763 440.686C286.267 440.919 286.649 441.241 286.911 441.652C287.181 442.063 287.317 442.534 287.317 443.066C287.317 443.673 287.139 444.163 286.785 444.536C286.43 444.9 285.949 445.157 285.343 445.306L285.371 445.026C286.117 445.185 286.71 445.502 287.149 445.978C287.587 446.454 287.807 447.056 287.807 447.784C287.807 448.419 287.643 448.955 287.317 449.394C286.999 449.833 286.551 450.164 285.973 450.388C285.394 450.612 284.727 450.724 283.971 450.724ZM283.971 449.338C284.661 449.338 285.207 449.198 285.609 448.918C286.019 448.629 286.225 448.199 286.225 447.63C286.225 447.089 286.038 446.655 285.665 446.328C285.301 446.001 284.736 445.838 283.971 445.838C283.205 445.838 282.636 446.001 282.263 446.328C281.889 446.655 281.703 447.089 281.703 447.63C281.703 448.199 281.908 448.629 282.319 448.918C282.729 449.198 283.28 449.338 283.971 449.338ZM283.971 444.592C284.54 444.592 284.979 444.475 285.287 444.242C285.604 443.999 285.763 443.631 285.763 443.136C285.763 442.707 285.609 442.361 285.301 442.1C285.002 441.839 284.559 441.708 283.971 441.708C283.383 441.708 282.935 441.839 282.627 442.1C282.319 442.361 282.165 442.707 282.165 443.136C282.165 443.631 282.323 443.999 282.641 444.242C282.958 444.475 283.401 444.592 283.971 444.592Z" fill="black"/>
<path d="M273.189 452.04L277.333 440H278.761L274.631 452.04H273.189Z" fill="black"/>
<path d="M268.713 450.724C267.565 450.724 266.678 450.458 266.053 449.926C265.437 449.394 265.105 448.694 265.059 447.826L266.613 447.742C266.669 448.311 266.883 448.722 267.257 448.974C267.639 449.217 268.125 449.338 268.713 449.338C269.105 449.338 269.464 449.287 269.791 449.184C270.127 449.072 270.393 448.895 270.589 448.652C270.794 448.4 270.897 448.073 270.897 447.672C270.897 447.075 270.696 446.636 270.295 446.356C269.893 446.067 269.361 445.922 268.699 445.922H267.873V444.606H268.699C269.231 444.606 269.674 444.499 270.029 444.284C270.383 444.069 270.561 443.696 270.561 443.164C270.561 442.697 270.411 442.343 270.113 442.1C269.814 441.848 269.357 441.722 268.741 441.722C268.143 441.722 267.691 441.839 267.383 442.072C267.075 442.305 266.893 442.623 266.837 443.024L265.283 442.94C265.376 442.156 265.717 441.526 266.305 441.05C266.902 440.574 267.714 440.336 268.741 440.336C269.45 440.336 270.057 440.448 270.561 440.672C271.065 440.887 271.452 441.199 271.723 441.61C271.993 442.021 272.129 442.501 272.129 443.052C272.129 443.659 271.933 444.153 271.541 444.536C271.158 444.919 270.593 445.18 269.847 445.32V445.068C270.659 445.171 271.298 445.46 271.765 445.936C272.231 446.403 272.465 447 272.465 447.728C272.465 448.353 272.306 448.895 271.989 449.352C271.671 449.8 271.233 450.141 270.673 450.374C270.113 450.607 269.459 450.724 268.713 450.724Z" fill="black"/>
<path d="M257.94 450.5V443.416H255.84V442.198H256.694C257.067 442.198 257.371 442.151 257.604 442.058C257.837 441.955 258.005 441.787 258.108 441.554C258.211 441.311 258.262 440.98 258.262 440.56H259.452V450.5H257.94Z" fill="black"/>
<path d="M250.142 450.5C250.142 449.473 250.277 448.46 250.548 447.462C250.828 446.454 251.22 445.488 251.724 444.564C252.237 443.63 252.849 442.758 253.558 441.946H248V440.56H255.154V441.848C254.37 442.744 253.717 443.64 253.194 444.536C252.681 445.422 252.298 446.356 252.046 447.336C251.803 448.306 251.682 449.361 251.682 450.5H250.142Z" fill="black"/>
<rect width="59.2305" height="22.04" transform="translate(65 260)" fill="white"/>
<path d="M115.619 275.724C114.835 275.724 114.172 275.551 113.631 275.206C113.089 274.851 112.679 274.343 112.399 273.68C112.119 273.008 111.979 272.196 111.979 271.244C111.979 270.413 112.049 269.643 112.189 268.934C112.338 268.215 112.571 267.59 112.889 267.058C113.206 266.517 113.617 266.097 114.121 265.798C114.634 265.49 115.255 265.336 115.983 265.336C116.897 265.336 117.611 265.56 118.125 266.008C118.638 266.447 118.993 267.035 119.189 267.772L117.691 267.898C117.579 267.534 117.392 267.245 117.131 267.03C116.879 266.815 116.496 266.708 115.983 266.708C115.217 266.708 114.615 267.035 114.177 267.688C113.738 268.341 113.505 269.34 113.477 270.684L113.211 270.628C113.313 270.311 113.486 270.021 113.729 269.76C113.971 269.489 114.275 269.275 114.639 269.116C115.012 268.948 115.437 268.864 115.913 268.864C116.575 268.864 117.154 269.004 117.649 269.284C118.153 269.555 118.54 269.942 118.811 270.446C119.091 270.95 119.231 271.538 119.231 272.21C119.231 272.938 119.077 273.568 118.769 274.1C118.461 274.623 118.036 275.024 117.495 275.304C116.953 275.584 116.328 275.724 115.619 275.724ZM115.633 274.38C116.239 274.38 116.729 274.189 117.103 273.806C117.485 273.414 117.677 272.882 117.677 272.21C117.677 271.79 117.593 271.426 117.425 271.118C117.266 270.801 117.037 270.558 116.739 270.39C116.449 270.222 116.113 270.138 115.731 270.138C115.311 270.138 114.937 270.222 114.611 270.39C114.284 270.558 114.027 270.801 113.841 271.118C113.654 271.426 113.561 271.79 113.561 272.21C113.561 272.63 113.645 273.003 113.813 273.33C113.981 273.657 114.219 273.913 114.527 274.1C114.844 274.287 115.213 274.38 115.633 274.38Z" fill="black"/>
<path d="M108.276 275.5V268.416H106.176V267.198H107.03C107.403 267.198 107.706 267.151 107.94 267.058C108.173 266.955 108.341 266.787 108.444 266.554C108.546 266.311 108.598 265.98 108.598 265.56H109.788V275.5H108.276Z" fill="black"/>
<path d="M99.2305 277.04L103.374 265H104.802L100.672 277.04H99.2305Z" fill="black"/>
<path d="M94.7536 275.724C93.6056 275.724 92.7189 275.458 92.0936 274.926C91.4776 274.394 91.1463 273.694 91.0996 272.826L92.6536 272.742C92.7096 273.311 92.9243 273.722 93.2976 273.974C93.6803 274.217 94.1656 274.338 94.7536 274.338C95.1456 274.338 95.5049 274.287 95.8316 274.184C96.1676 274.072 96.4336 273.895 96.6296 273.652C96.8349 273.4 96.9376 273.073 96.9376 272.672C96.9376 272.075 96.7369 271.636 96.3356 271.356C95.9343 271.067 95.4023 270.922 94.7396 270.922H93.9136V269.606H94.7396C95.2716 269.606 95.7149 269.499 96.0696 269.284C96.4243 269.069 96.6016 268.696 96.6016 268.164C96.6016 267.697 96.4523 267.343 96.1536 267.1C95.8549 266.848 95.3976 266.722 94.7816 266.722C94.1843 266.722 93.7316 266.839 93.4236 267.072C93.1156 267.305 92.9336 267.623 92.8776 268.024L91.3236 267.94C91.4169 267.156 91.7576 266.526 92.3456 266.05C92.9429 265.574 93.7549 265.336 94.7816 265.336C95.4909 265.336 96.0976 265.448 96.6016 265.672C97.1056 265.887 97.4929 266.199 97.7636 266.61C98.0343 267.021 98.1696 267.501 98.1696 268.052C98.1696 268.659 97.9736 269.153 97.5816 269.536C97.1989 269.919 96.6343 270.18 95.8876 270.32V270.068C96.6996 270.171 97.3389 270.46 97.8056 270.936C98.2723 271.403 98.5056 272 98.5056 272.728C98.5056 273.353 98.3469 273.895 98.0296 274.352C97.7123 274.8 97.2736 275.141 96.7136 275.374C96.1536 275.607 95.5003 275.724 94.7536 275.724Z" fill="black"/>
<path d="M79.0293 275.5C79.0293 274.753 79.1413 274.086 79.3653 273.498C79.5893 272.91 79.972 272.364 80.5133 271.86C81.0546 271.356 81.8013 270.852 82.7533 270.348C83.2106 270.115 83.5746 269.9 83.8453 269.704C84.1253 269.499 84.326 269.289 84.4473 269.074C84.5686 268.859 84.6293 268.598 84.6293 268.29C84.6293 267.973 84.5593 267.702 84.4193 267.478C84.2886 267.245 84.0926 267.063 83.8313 266.932C83.57 266.792 83.2386 266.722 82.8373 266.722C82.2026 266.722 81.6986 266.895 81.3253 267.24C80.9613 267.576 80.7326 268.061 80.6393 268.696L79.0713 268.598C79.1833 267.599 79.5613 266.806 80.2053 266.218C80.8586 265.63 81.736 265.336 82.8373 265.336C83.5466 265.336 84.1486 265.462 84.6433 265.714C85.1473 265.957 85.53 266.297 85.7913 266.736C86.062 267.175 86.1973 267.683 86.1973 268.262C86.1973 268.766 86.1133 269.2 85.9453 269.564C85.7773 269.928 85.4973 270.269 85.1053 270.586C84.7133 270.894 84.1813 271.225 83.5093 271.58C82.6506 272.037 82.002 272.49 81.5633 272.938C81.1246 273.377 80.8913 273.769 80.8633 274.114H86.1973V275.5H79.0293Z" fill="black"/>
<path d="M73.836 275.724C73.08 275.724 72.4127 275.612 71.834 275.388C71.2553 275.164 70.8027 274.833 70.476 274.394C70.1587 273.955 70 273.419 70 272.784C70 272.056 70.2193 271.454 70.658 270.978C71.0967 270.502 71.6847 270.185 72.422 270.026L72.45 270.306C71.8527 270.166 71.372 269.909 71.008 269.536C70.6533 269.163 70.476 268.673 70.476 268.066C70.476 267.534 70.6113 267.063 70.882 266.652C71.1527 266.241 71.5353 265.919 72.03 265.686C72.534 265.453 73.136 265.336 73.836 265.336C74.5267 265.336 75.124 265.453 75.628 265.686C76.132 265.919 76.5147 266.241 76.776 266.652C77.0467 267.063 77.182 267.534 77.182 268.066C77.182 268.673 77.0047 269.163 76.65 269.536C76.2953 269.9 75.8147 270.157 75.208 270.306L75.236 270.026C75.9827 270.185 76.5753 270.502 77.014 270.978C77.4527 271.454 77.672 272.056 77.672 272.784C77.672 273.419 77.5087 273.955 77.182 274.394C76.8647 274.833 76.4167 275.164 75.838 275.388C75.2593 275.612 74.592 275.724 73.836 275.724ZM73.836 274.338C74.5267 274.338 75.0727 274.198 75.474 273.918C75.8847 273.629 76.09 273.199 76.09 272.63C76.09 272.089 75.9033 271.655 75.53 271.328C75.166 271.001 74.6013 270.838 73.836 270.838C73.0707 270.838 72.5013 271.001 72.128 271.328C71.7547 271.655 71.568 272.089 71.568 272.63C71.568 273.199 71.7733 273.629 72.184 273.918C72.5947 274.198 73.1453 274.338 73.836 274.338ZM73.836 269.592C74.4053 269.592 74.844 269.475 75.152 269.242C75.4693 268.999 75.628 268.631 75.628 268.136C75.628 267.707 75.474 267.361 75.166 267.1C74.8673 266.839 74.424 266.708 73.836 266.708C73.248 266.708 72.8 266.839 72.492 267.1C72.184 267.361 72.03 267.707 72.03 268.136C72.03 268.631 72.1887 268.999 72.506 269.242C72.8233 269.475 73.2667 269.592 73.836 269.592Z" fill="black"/>
<defs>
<linearGradient id="paint0_linear_1144_8836" x1="285.727" y1="114" x2="475.389" y2="177.751" gradientUnits="userSpaceOnUse">
<stop stop-color="#B7DFE4"/>
<stop offset="0.5" stop-color="white"/>
<stop offset="1" stop-color="#B7DFE4"/>
</linearGradient>
<linearGradient id="paint1_linear_1144_8836" x1="144.727" y1="114" x2="334.389" y2="177.751" gradientUnits="userSpaceOnUse">
<stop stop-color="#B7DFE4"/>
<stop offset="0.5" stop-color="white"/>
<stop offset="1" stop-color="#B7DFE4"/>
</linearGradient>
</defs>
</svg>
