<svg width="536" height="536" viewBox="0 0 536 536" fill="none" xmlns="http://www.w3.org/2000/svg">
<path d="M148 243H388V435H148V243Z" fill="white"/>
<path d="M388 243L388.001 435.001L148.001 435.001L148 243H388ZM151 432H385V246H151V432Z" fill="black"/>
<path d="M266 243H270V435H266V243Z" fill="black"/>
<path d="M155 341H262V428H155V341Z" fill="url(#paint0_linear_1144_8796)"/>
<path d="M262 341V428H155V341H262ZM156 427H261V342H156V427Z" fill="black"/>
<path d="M274 341H381V428H274V341Z" fill="url(#paint1_linear_1144_8796)"/>
<path d="M381 341V428H274V341H381ZM275 427H380V342H275V427Z" fill="black"/>
<path d="M155 250H262V337H155V250Z" fill="url(#paint2_linear_1144_8796)"/>
<path d="M262 250V337H155V250H262ZM156 336H261V251H156V336Z" fill="black"/>
<path d="M274 250H381V337H274V250Z" fill="url(#paint3_linear_1144_8796)"/>
<path d="M381 250V337H274V250H381ZM275 336H380V251H275V336Z" fill="black"/>
<path d="M388 341H148V340H388V341Z" fill="black"/>
<path d="M388 471L383 474L383 471.52L153 471.52L153 474L148 471L153 468L153 470.48L383 470.48L383 468L388 471Z" fill="black"/>
<path d="M388 447L383 450L383 447.52L275 447.52L275 450L270 447L275 444L275 446.48L383 446.48L383 444L388 447Z" fill="black"/>
<path d="M266 447L261 450L261 447.52L153 447.52L153 450L148 447L153 444L153 446.48L261 446.48L261 444L266 447Z" fill="black"/>
<path d="M105 243L108 248L105.52 248L105.52 430L108 430L105 435L102 430L104.481 430L104.48 248L102 248L105 243Z" fill="black"/>
<path d="M134 341L137 346L134.52 346L134.52 430L137 430L134 435L131 430L133.48 430L133.48 346L131 346L134 341Z" fill="black"/>
<path d="M134 243L137 248L134.52 248L134.52 332L137 332L134 337L131 332L133.48 332L133.48 248L131 248L134 243Z" fill="black"/>
<rect width="26.8378" height="20.388" transform="translate(255 459)" fill="white"/>
<path d="M272.792 474.388C271.97 474.388 271.256 474.178 270.65 473.758C270.043 473.338 269.576 472.741 269.25 471.966C268.923 471.191 268.76 470.272 268.76 469.208C268.76 468.144 268.923 467.225 269.25 466.45C269.586 465.666 270.052 465.064 270.65 464.644C271.256 464.215 271.97 464 272.792 464C273.622 464 274.336 464.215 274.934 464.644C275.54 465.064 276.007 465.661 276.334 466.436C276.67 467.211 276.838 468.135 276.838 469.208C276.838 470.272 276.674 471.191 276.348 471.966C276.021 472.741 275.554 473.338 274.948 473.758C274.341 474.178 273.622 474.388 272.792 474.388ZM272.792 473.002C273.585 473.002 274.196 472.675 274.626 472.022C275.055 471.369 275.27 470.431 275.27 469.208C275.27 468.387 275.172 467.691 274.976 467.122C274.789 466.553 274.509 466.123 274.136 465.834C273.772 465.535 273.324 465.386 272.792 465.386C272.269 465.386 271.821 465.535 271.448 465.834C271.084 466.123 270.804 466.553 270.608 467.122C270.421 467.691 270.328 468.387 270.328 469.208C270.328 470.431 270.542 471.369 270.972 472.022C271.401 472.675 272.008 473.002 272.792 473.002Z" fill="black"/>
<path d="M263.64 474.388C262.856 474.388 262.193 474.215 261.652 473.87C261.111 473.515 260.7 473.007 260.42 472.344C260.14 471.672 260 470.86 260 469.908C260 469.077 260.07 468.307 260.21 467.598C260.359 466.879 260.593 466.254 260.91 465.722C261.227 465.181 261.638 464.761 262.142 464.462C262.655 464.154 263.276 464 264.004 464C264.919 464 265.633 464.224 266.146 464.672C266.659 465.111 267.014 465.699 267.21 466.436L265.712 466.562C265.6 466.198 265.413 465.909 265.152 465.694C264.9 465.479 264.517 465.372 264.004 465.372C263.239 465.372 262.637 465.699 262.198 466.352C261.759 467.005 261.526 468.004 261.498 469.348L261.232 469.292C261.335 468.975 261.507 468.685 261.75 468.424C261.993 468.153 262.296 467.939 262.66 467.78C263.033 467.612 263.458 467.528 263.934 467.528C264.597 467.528 265.175 467.668 265.67 467.948C266.174 468.219 266.561 468.606 266.832 469.11C267.112 469.614 267.252 470.202 267.252 470.874C267.252 471.602 267.098 472.232 266.79 472.764C266.482 473.287 266.057 473.688 265.516 473.968C264.975 474.248 264.349 474.388 263.64 474.388ZM263.654 473.044C264.261 473.044 264.751 472.853 265.124 472.47C265.507 472.078 265.698 471.546 265.698 470.874C265.698 470.454 265.614 470.09 265.446 469.782C265.287 469.465 265.059 469.222 264.76 469.054C264.471 468.886 264.135 468.802 263.752 468.802C263.332 468.802 262.959 468.886 262.632 469.054C262.305 469.222 262.049 469.465 261.862 469.782C261.675 470.09 261.582 470.454 261.582 470.874C261.582 471.294 261.666 471.667 261.834 471.994C262.002 472.321 262.24 472.577 262.548 472.764C262.865 472.951 263.234 473.044 263.654 473.044Z" fill="black"/>
<rect width="26.8417" height="20.388" transform="translate(316 435)" fill="white"/>
<path d="M333.796 450.388C332.974 450.388 332.26 450.178 331.654 449.758C331.047 449.338 330.58 448.741 330.254 447.966C329.927 447.191 329.764 446.272 329.764 445.208C329.764 444.144 329.927 443.225 330.254 442.45C330.59 441.666 331.056 441.064 331.654 440.644C332.26 440.215 332.974 440 333.796 440C334.626 440 335.34 440.215 335.938 440.644C336.544 441.064 337.011 441.661 337.338 442.436C337.674 443.211 337.842 444.135 337.842 445.208C337.842 446.272 337.678 447.191 337.352 447.966C337.025 448.741 336.558 449.338 335.952 449.758C335.345 450.178 334.626 450.388 333.796 450.388ZM333.796 449.002C334.589 449.002 335.2 448.675 335.63 448.022C336.059 447.369 336.274 446.431 336.274 445.208C336.274 444.387 336.176 443.691 335.98 443.122C335.793 442.553 335.513 442.123 335.14 441.834C334.776 441.535 334.328 441.386 333.796 441.386C333.273 441.386 332.825 441.535 332.452 441.834C332.088 442.123 331.808 442.553 331.612 443.122C331.425 443.691 331.332 444.387 331.332 445.208C331.332 446.431 331.546 447.369 331.976 448.022C332.405 448.675 333.012 449.002 333.796 449.002Z" fill="black"/>
<path d="M324.654 450.388C323.506 450.388 322.619 450.122 321.994 449.59C321.378 449.058 321.047 448.358 321 447.49L322.554 447.406C322.61 447.975 322.825 448.386 323.198 448.638C323.581 448.881 324.066 449.002 324.654 449.002C325.046 449.002 325.405 448.951 325.732 448.848C326.068 448.736 326.334 448.559 326.53 448.316C326.735 448.064 326.838 447.737 326.838 447.336C326.838 446.739 326.637 446.3 326.236 446.02C325.835 445.731 325.303 445.586 324.64 445.586H323.814V444.27H324.64C325.172 444.27 325.615 444.163 325.97 443.948C326.325 443.733 326.502 443.36 326.502 442.828C326.502 442.361 326.353 442.007 326.054 441.764C325.755 441.512 325.298 441.386 324.682 441.386C324.085 441.386 323.632 441.503 323.324 441.736C323.016 441.969 322.834 442.287 322.778 442.688L321.224 442.604C321.317 441.82 321.658 441.19 322.246 440.714C322.843 440.238 323.655 440 324.682 440C325.391 440 325.998 440.112 326.502 440.336C327.006 440.551 327.393 440.863 327.664 441.274C327.935 441.685 328.07 442.165 328.07 442.716C328.07 443.323 327.874 443.817 327.482 444.2C327.099 444.583 326.535 444.844 325.788 444.984V444.732C326.6 444.835 327.239 445.124 327.706 445.6C328.173 446.067 328.406 446.664 328.406 447.392C328.406 448.017 328.247 448.559 327.93 449.016C327.613 449.464 327.174 449.805 326.614 450.038C326.054 450.271 325.401 450.388 324.654 450.388Z" fill="black"/>
<rect width="26.8417" height="20.388" transform="translate(194 435)" fill="white"/>
<path d="M211.796 450.388C210.974 450.388 210.26 450.178 209.654 449.758C209.047 449.338 208.58 448.741 208.254 447.966C207.927 447.191 207.764 446.272 207.764 445.208C207.764 444.144 207.927 443.225 208.254 442.45C208.59 441.666 209.056 441.064 209.654 440.644C210.26 440.215 210.974 440 211.796 440C212.626 440 213.34 440.215 213.938 440.644C214.544 441.064 215.011 441.661 215.338 442.436C215.674 443.211 215.842 444.135 215.842 445.208C215.842 446.272 215.678 447.191 215.352 447.966C215.025 448.741 214.558 449.338 213.952 449.758C213.345 450.178 212.626 450.388 211.796 450.388ZM211.796 449.002C212.589 449.002 213.2 448.675 213.63 448.022C214.059 447.369 214.274 446.431 214.274 445.208C214.274 444.387 214.176 443.691 213.98 443.122C213.793 442.553 213.513 442.123 213.14 441.834C212.776 441.535 212.328 441.386 211.796 441.386C211.273 441.386 210.825 441.535 210.452 441.834C210.088 442.123 209.808 442.553 209.612 443.122C209.425 443.691 209.332 444.387 209.332 445.208C209.332 446.431 209.546 447.369 209.976 448.022C210.405 448.675 211.012 449.002 211.796 449.002Z" fill="black"/>
<path d="M202.654 450.388C201.506 450.388 200.619 450.122 199.994 449.59C199.378 449.058 199.047 448.358 199 447.49L200.554 447.406C200.61 447.975 200.825 448.386 201.198 448.638C201.581 448.881 202.066 449.002 202.654 449.002C203.046 449.002 203.405 448.951 203.732 448.848C204.068 448.736 204.334 448.559 204.53 448.316C204.735 448.064 204.838 447.737 204.838 447.336C204.838 446.739 204.637 446.3 204.236 446.02C203.835 445.731 203.303 445.586 202.64 445.586H201.814V444.27H202.64C203.172 444.27 203.615 444.163 203.97 443.948C204.325 443.733 204.502 443.36 204.502 442.828C204.502 442.361 204.353 442.007 204.054 441.764C203.755 441.512 203.298 441.386 202.682 441.386C202.085 441.386 201.632 441.503 201.324 441.736C201.016 441.969 200.834 442.287 200.778 442.688L199.224 442.604C199.317 441.82 199.658 441.19 200.246 440.714C200.843 440.238 201.655 440 202.682 440C203.391 440 203.998 440.112 204.502 440.336C205.006 440.551 205.393 440.863 205.664 441.274C205.935 441.685 206.07 442.165 206.07 442.716C206.07 443.323 205.874 443.817 205.482 444.2C205.099 444.583 204.535 444.844 203.788 444.984V444.732C204.6 444.835 205.239 445.124 205.706 445.6C206.173 446.067 206.406 446.664 206.406 447.392C206.406 448.017 206.247 448.559 205.93 449.016C205.613 449.464 205.174 449.805 204.614 450.038C204.054 450.271 203.401 450.388 202.654 450.388Z" fill="black"/>
<rect width="26.631" height="20.388" transform="translate(91 329)" fill="white"/>
<path d="M108.795 344.388C108.039 344.388 107.372 344.276 106.793 344.052C106.214 343.828 105.762 343.497 105.435 343.058C105.118 342.619 104.959 342.083 104.959 341.448C104.959 340.72 105.178 340.118 105.617 339.642C106.056 339.166 106.644 338.849 107.381 338.69L107.409 338.97C106.812 338.83 106.331 338.573 105.967 338.2C105.612 337.827 105.435 337.337 105.435 336.73C105.435 336.198 105.57 335.727 105.841 335.316C106.112 334.905 106.494 334.583 106.989 334.35C107.493 334.117 108.095 334 108.795 334C109.486 334 110.083 334.117 110.587 334.35C111.091 334.583 111.474 334.905 111.735 335.316C112.006 335.727 112.141 336.198 112.141 336.73C112.141 337.337 111.964 337.827 111.609 338.2C111.254 338.564 110.774 338.821 110.167 338.97L110.195 338.69C110.942 338.849 111.534 339.166 111.973 339.642C112.412 340.118 112.631 340.72 112.631 341.448C112.631 342.083 112.468 342.619 112.141 343.058C111.824 343.497 111.376 343.828 110.797 344.052C110.218 344.276 109.551 344.388 108.795 344.388ZM108.795 343.002C109.486 343.002 110.032 342.862 110.433 342.582C110.844 342.293 111.049 341.863 111.049 341.294C111.049 340.753 110.862 340.319 110.489 339.992C110.125 339.665 109.56 339.502 108.795 339.502C108.03 339.502 107.46 339.665 107.087 339.992C106.714 340.319 106.527 340.753 106.527 341.294C106.527 341.863 106.732 342.293 107.143 342.582C107.554 342.862 108.104 343.002 108.795 343.002ZM108.795 338.256C109.364 338.256 109.803 338.139 110.111 337.906C110.428 337.663 110.587 337.295 110.587 336.8C110.587 336.371 110.433 336.025 110.125 335.764C109.826 335.503 109.383 335.372 108.795 335.372C108.207 335.372 107.759 335.503 107.451 335.764C107.143 336.025 106.989 336.371 106.989 336.8C106.989 337.295 107.148 337.663 107.465 337.906C107.782 338.139 108.226 338.256 108.795 338.256Z" fill="black"/>
<path d="M101.012 344.164V342.092H96V340.804L100.83 334.224H102.524V340.72H103.742V342.092H102.524V344.164H101.012ZM97.722 340.72H101.012V336.324L97.722 340.72Z" fill="black"/>
<rect width="25.785" height="20.164" transform="translate(120 378)" fill="white"/>
<path d="M138.055 393.164V391.092H133.043V389.804L137.873 383.224H139.567V389.72H140.785V391.092H139.567V393.164H138.055ZM134.765 389.72H138.055V385.324L134.765 389.72Z" fill="black"/>
<path d="M125 393.164C125 392.417 125.112 391.75 125.336 391.162C125.56 390.574 125.943 390.028 126.484 389.524C127.025 389.02 127.772 388.516 128.724 388.012C129.181 387.779 129.545 387.564 129.816 387.368C130.096 387.163 130.297 386.953 130.418 386.738C130.539 386.523 130.6 386.262 130.6 385.954C130.6 385.637 130.53 385.366 130.39 385.142C130.259 384.909 130.063 384.727 129.802 384.596C129.541 384.456 129.209 384.386 128.808 384.386C128.173 384.386 127.669 384.559 127.296 384.904C126.932 385.24 126.703 385.725 126.61 386.36L125.042 386.262C125.154 385.263 125.532 384.47 126.176 383.882C126.829 383.294 127.707 383 128.808 383C129.517 383 130.119 383.126 130.614 383.378C131.118 383.621 131.501 383.961 131.762 384.4C132.033 384.839 132.168 385.347 132.168 385.926C132.168 386.43 132.084 386.864 131.916 387.228C131.748 387.592 131.468 387.933 131.076 388.25C130.684 388.558 130.152 388.889 129.48 389.244C128.621 389.701 127.973 390.154 127.534 390.602C127.095 391.041 126.862 391.433 126.834 391.778H132.168V393.164H125Z" fill="black"/>
<rect width="25.785" height="20.164" transform="translate(120 280)" fill="white"/>
<path d="M138.055 295.164V293.092H133.043V291.804L137.873 285.224H139.567V291.72H140.785V293.092H139.567V295.164H138.055ZM134.765 291.72H138.055V287.324L134.765 291.72Z" fill="black"/>
<path d="M125 295.164C125 294.417 125.112 293.75 125.336 293.162C125.56 292.574 125.943 292.028 126.484 291.524C127.025 291.02 127.772 290.516 128.724 290.012C129.181 289.779 129.545 289.564 129.816 289.368C130.096 289.163 130.297 288.953 130.418 288.738C130.539 288.523 130.6 288.262 130.6 287.954C130.6 287.637 130.53 287.366 130.39 287.142C130.259 286.909 130.063 286.727 129.802 286.596C129.541 286.456 129.209 286.386 128.808 286.386C128.173 286.386 127.669 286.559 127.296 286.904C126.932 287.24 126.703 287.725 126.61 288.36L125.042 288.262C125.154 287.263 125.532 286.47 126.176 285.882C126.829 285.294 127.707 285 128.808 285C129.517 285 130.119 285.126 130.614 285.378C131.118 285.621 131.501 285.961 131.762 286.4C132.033 286.839 132.168 287.347 132.168 287.926C132.168 288.43 132.084 288.864 131.916 289.228C131.748 289.592 131.468 289.933 131.076 290.25C130.684 290.558 130.152 290.889 129.48 291.244C128.621 291.701 127.973 292.154 127.534 292.602C127.095 293.041 126.862 293.433 126.834 293.778H132.168V295.164H125Z" fill="black"/>
<defs>
<linearGradient id="paint0_linear_1144_8796" x1="164.727" y1="341" x2="251.726" y2="428.544" gradientUnits="userSpaceOnUse">
<stop stop-color="#B7DFE4"/>
<stop offset="0.5" stop-color="white"/>
<stop offset="1" stop-color="#B7DFE4"/>
</linearGradient>
<linearGradient id="paint1_linear_1144_8796" x1="283.727" y1="341" x2="370.726" y2="428.544" gradientUnits="userSpaceOnUse">
<stop stop-color="#B7DFE4"/>
<stop offset="0.5" stop-color="white"/>
<stop offset="1" stop-color="#B7DFE4"/>
</linearGradient>
<linearGradient id="paint2_linear_1144_8796" x1="164.727" y1="250" x2="251.726" y2="337.544" gradientUnits="userSpaceOnUse">
<stop stop-color="#B7DFE4"/>
<stop offset="0.5" stop-color="white"/>
<stop offset="1" stop-color="#B7DFE4"/>
</linearGradient>
<linearGradient id="paint3_linear_1144_8796" x1="283.727" y1="250" x2="370.726" y2="337.544" gradientUnits="userSpaceOnUse">
<stop stop-color="#B7DFE4"/>
<stop offset="0.5" stop-color="white"/>
<stop offset="1" stop-color="#B7DFE4"/>
</linearGradient>
</defs>
</svg>
