<svg width="536" height="320" viewBox="0 0 536 320" fill="none" xmlns="http://www.w3.org/2000/svg">
<path d="M148 70H388V262H148V70Z" fill="white"/>
<path d="M388 70L388.001 262.001L148.001 262.001L148 70H388ZM151 259H385V73H151V259Z" fill="black"/>
<path d="M266 70H270V262H266V70Z" fill="black"/>
<path d="M155 168H262V255H155V168Z" fill="url(#paint0_linear_1144_8796)"/>
<path d="M262 168V255H155V168H262ZM156 254H261V169H156V254Z" fill="black"/>
<path d="M274 168H381V255H274V168Z" fill="url(#paint1_linear_1144_8796)"/>
<path d="M381 168V255H274V168H381ZM275 254H380V169H275V254Z" fill="black"/>
<path d="M155 77H262V164H155V77Z" fill="url(#paint2_linear_1144_8796)"/>
<path d="M262 77V164H155V77H262ZM156 163H261V78H156V163Z" fill="black"/>
<path d="M274 77H381V164H274V77Z" fill="url(#paint3_linear_1144_8796)"/>
<path d="M381 77V164H274V77H381ZM275 163H380V78H275V163Z" fill="black"/>
<path d="M388 168H148V167H388V168Z" fill="black"/>
<path d="M388 298L383 301L383 298.52L153 298.52L153 301L148 298L153 295L153 297.48L383 297.48L383 295L388 298Z" fill="black"/>
<path d="M388 274L383 277L383 274.52L275 274.52L275 277L270 274L275 271L275 273.48L383 273.48L383 271L388 274Z" fill="black"/>
<path d="M266 274L261 277L261 274.52L153 274.52L153 277L148 274L153 271L153 273.48L261 273.48L261 271L266 274Z" fill="black"/>
<path d="M105 70L108 75L105.52 75L105.52 257L108 257L105 262L102 257L104.481 257L104.48 75L102 75L105 70Z" fill="black"/>
<path d="M134 168L137 173L134.52 173L134.52 257L137 257L134 262L131 257L133.48 257L133.48 173L131 173L134 168Z" fill="black"/>
<path d="M134 70L137 75L134.52 75L134.52 159L137 159L134 164L131 159L133.48 159L133.48 75L131 75L134 70Z" fill="black"/>
<rect width="26.8378" height="20.388" transform="translate(255 286)" fill="white"/>
<path d="M272.792 301.388C271.97 301.388 271.256 301.178 270.65 300.758C270.043 300.338 269.576 299.741 269.25 298.966C268.923 298.191 268.76 297.272 268.76 296.208C268.76 295.144 268.923 294.225 269.25 293.45C269.586 292.666 270.052 292.064 270.65 291.644C271.256 291.215 271.97 291 272.792 291C273.622 291 274.336 291.215 274.934 291.644C275.54 292.064 276.007 292.661 276.334 293.436C276.67 294.211 276.838 295.135 276.838 296.208C276.838 297.272 276.674 298.191 276.348 298.966C276.021 299.741 275.554 300.338 274.948 300.758C274.341 301.178 273.622 301.388 272.792 301.388ZM272.792 300.002C273.585 300.002 274.196 299.675 274.626 299.022C275.055 298.369 275.27 297.431 275.27 296.208C275.27 295.387 275.172 294.691 274.976 294.122C274.789 293.553 274.509 293.123 274.136 292.834C273.772 292.535 273.324 292.386 272.792 292.386C272.269 292.386 271.821 292.535 271.448 292.834C271.084 293.123 270.804 293.553 270.608 294.122C270.421 294.691 270.328 295.387 270.328 296.208C270.328 297.431 270.542 298.369 270.972 299.022C271.401 299.675 272.008 300.002 272.792 300.002Z" fill="black"/>
<path d="M263.64 301.388C262.856 301.388 262.193 301.215 261.652 300.87C261.111 300.515 260.7 300.007 260.42 299.344C260.14 298.672 260 297.86 260 296.908C260 296.077 260.07 295.307 260.21 294.598C260.359 293.879 260.593 293.254 260.91 292.722C261.227 292.181 261.638 291.761 262.142 291.462C262.655 291.154 263.276 291 264.004 291C264.919 291 265.633 291.224 266.146 291.672C266.659 292.111 267.014 292.699 267.21 293.436L265.712 293.562C265.6 293.198 265.413 292.909 265.152 292.694C264.9 292.479 264.517 292.372 264.004 292.372C263.239 292.372 262.637 292.699 262.198 293.352C261.759 294.005 261.526 295.004 261.498 296.348L261.232 296.292C261.335 295.975 261.507 295.685 261.75 295.424C261.993 295.153 262.296 294.939 262.66 294.78C263.033 294.612 263.458 294.528 263.934 294.528C264.597 294.528 265.175 294.668 265.67 294.948C266.174 295.219 266.561 295.606 266.832 296.11C267.112 296.614 267.252 297.202 267.252 297.874C267.252 298.602 267.098 299.232 266.79 299.764C266.482 300.287 266.057 300.688 265.516 300.968C264.975 301.248 264.349 301.388 263.64 301.388ZM263.654 300.044C264.261 300.044 264.751 299.853 265.124 299.47C265.507 299.078 265.698 298.546 265.698 297.874C265.698 297.454 265.614 297.09 265.446 296.782C265.287 296.465 265.059 296.222 264.76 296.054C264.471 295.886 264.135 295.802 263.752 295.802C263.332 295.802 262.959 295.886 262.632 296.054C262.305 296.222 262.049 296.465 261.862 296.782C261.675 297.09 261.582 297.454 261.582 297.874C261.582 298.294 261.666 298.667 261.834 298.994C262.002 299.321 262.24 299.577 262.548 299.764C262.865 299.951 263.234 300.044 263.654 300.044Z" fill="black"/>
<rect width="26.8417" height="20.388" transform="translate(316 262)" fill="white"/>
<path d="M333.796 277.388C332.974 277.388 332.26 277.178 331.654 276.758C331.047 276.338 330.58 275.741 330.254 274.966C329.927 274.191 329.764 273.272 329.764 272.208C329.764 271.144 329.927 270.225 330.254 269.45C330.59 268.666 331.056 268.064 331.654 267.644C332.26 267.215 332.974 267 333.796 267C334.626 267 335.34 267.215 335.938 267.644C336.544 268.064 337.011 268.661 337.338 269.436C337.674 270.211 337.842 271.135 337.842 272.208C337.842 273.272 337.678 274.191 337.352 274.966C337.025 275.741 336.558 276.338 335.952 276.758C335.345 277.178 334.626 277.388 333.796 277.388ZM333.796 276.002C334.589 276.002 335.2 275.675 335.63 275.022C336.059 274.369 336.274 273.431 336.274 272.208C336.274 271.387 336.176 270.691 335.98 270.122C335.793 269.553 335.513 269.123 335.14 268.834C334.776 268.535 334.328 268.386 333.796 268.386C333.273 268.386 332.825 268.535 332.452 268.834C332.088 269.123 331.808 269.553 331.612 270.122C331.425 270.691 331.332 271.387 331.332 272.208C331.332 273.431 331.546 274.369 331.976 275.022C332.405 275.675 333.012 276.002 333.796 276.002Z" fill="black"/>
<path d="M324.654 277.388C323.506 277.388 322.619 277.122 321.994 276.59C321.378 276.058 321.047 275.358 321 274.49L322.554 274.406C322.61 274.975 322.825 275.386 323.198 275.638C323.581 275.881 324.066 276.002 324.654 276.002C325.046 276.002 325.405 275.951 325.732 275.848C326.068 275.736 326.334 275.559 326.53 275.316C326.735 275.064 326.838 274.737 326.838 274.336C326.838 273.739 326.637 273.3 326.236 273.02C325.835 272.731 325.303 272.586 324.64 272.586H323.814V271.27H324.64C325.172 271.27 325.615 271.163 325.97 270.948C326.325 270.733 326.502 270.36 326.502 269.828C326.502 269.361 326.353 269.007 326.054 268.764C325.755 268.512 325.298 268.386 324.682 268.386C324.085 268.386 323.632 268.503 323.324 268.736C323.016 268.969 322.834 269.287 322.778 269.688L321.224 269.604C321.317 268.82 321.658 268.19 322.246 267.714C322.843 267.238 323.655 267 324.682 267C325.391 267 325.998 267.112 326.502 267.336C327.006 267.551 327.393 267.863 327.664 268.274C327.935 268.685 328.07 269.165 328.07 269.716C328.07 270.323 327.874 270.817 327.482 271.2C327.099 271.583 326.535 271.844 325.788 271.984V271.732C326.6 271.835 327.239 272.124 327.706 272.6C328.173 273.067 328.406 273.664 328.406 274.392C328.406 275.017 328.247 275.559 327.93 276.016C327.613 276.464 327.174 276.805 326.614 277.038C326.054 277.271 325.401 277.388 324.654 277.388Z" fill="black"/>
<rect width="26.8417" height="20.388" transform="translate(194 262)" fill="white"/>
<path d="M211.796 277.388C210.974 277.388 210.26 277.178 209.654 276.758C209.047 276.338 208.58 275.741 208.254 274.966C207.927 274.191 207.764 273.272 207.764 272.208C207.764 271.144 207.927 270.225 208.254 269.45C208.59 268.666 209.056 268.064 209.654 267.644C210.26 267.215 210.974 267 211.796 267C212.626 267 213.34 267.215 213.938 267.644C214.544 268.064 215.011 268.661 215.338 269.436C215.674 270.211 215.842 271.135 215.842 272.208C215.842 273.272 215.678 274.191 215.352 274.966C215.025 275.741 214.558 276.338 213.952 276.758C213.345 277.178 212.626 277.388 211.796 277.388ZM211.796 276.002C212.589 276.002 213.2 275.675 213.63 275.022C214.059 274.369 214.274 273.431 214.274 272.208C214.274 271.387 214.176 270.691 213.98 270.122C213.793 269.553 213.513 269.123 213.14 268.834C212.776 268.535 212.328 268.386 211.796 268.386C211.273 268.386 210.825 268.535 210.452 268.834C210.088 269.123 209.808 269.553 209.612 270.122C209.425 270.691 209.332 271.387 209.332 272.208C209.332 273.431 209.546 274.369 209.976 275.022C210.405 275.675 211.012 276.002 211.796 276.002Z" fill="black"/>
<path d="M202.654 277.388C201.506 277.388 200.619 277.122 199.994 276.59C199.378 276.058 199.047 275.358 199 274.49L200.554 274.406C200.61 274.975 200.825 275.386 201.198 275.638C201.581 275.881 202.066 276.002 202.654 276.002C203.046 276.002 203.405 275.951 203.732 275.848C204.068 275.736 204.334 275.559 204.53 275.316C204.735 275.064 204.838 274.737 204.838 274.336C204.838 273.739 204.637 273.3 204.236 273.02C203.835 272.731 203.303 272.586 202.64 272.586H201.814V271.27H202.64C203.172 271.27 203.615 271.163 203.97 270.948C204.325 270.733 204.502 270.36 204.502 269.828C204.502 269.361 204.353 269.007 204.054 268.764C203.755 268.512 203.298 268.386 202.682 268.386C202.085 268.386 201.632 268.503 201.324 268.736C201.016 268.969 200.834 269.287 200.778 269.688L199.224 269.604C199.317 268.82 199.658 268.19 200.246 267.714C200.843 267.238 201.655 267 202.682 267C203.391 267 203.998 267.112 204.502 267.336C205.006 267.551 205.393 267.863 205.664 268.274C205.935 268.685 206.07 269.165 206.07 269.716C206.07 270.323 205.874 270.817 205.482 271.2C205.099 271.583 204.535 271.844 203.788 271.984V271.732C204.6 271.835 205.239 272.124 205.706 272.6C206.173 273.067 206.406 273.664 206.406 274.392C206.406 275.017 206.247 275.559 205.93 276.016C205.613 276.464 205.174 276.805 204.614 277.038C204.054 277.271 203.401 277.388 202.654 277.388Z" fill="black"/>
<rect width="26.631" height="20.388" transform="translate(91 156)" fill="white"/>
<path d="M108.795 171.388C108.039 171.388 107.372 171.276 106.793 171.052C106.214 170.828 105.762 170.497 105.435 170.058C105.118 169.619 104.959 169.083 104.959 168.448C104.959 167.72 105.178 167.118 105.617 166.642C106.056 166.166 106.644 165.849 107.381 165.69L107.409 165.97C106.812 165.83 106.331 165.573 105.967 165.2C105.612 164.827 105.435 164.337 105.435 163.73C105.435 163.198 105.57 162.727 105.841 162.316C106.112 161.905 106.494 161.583 106.989 161.35C107.493 161.117 108.095 161 108.795 161C109.486 161 110.083 161.117 110.587 161.35C111.091 161.583 111.474 161.905 111.735 162.316C112.006 162.727 112.141 163.198 112.141 163.73C112.141 164.337 111.964 164.827 111.609 165.2C111.254 165.564 110.774 165.821 110.167 165.97L110.195 165.69C110.942 165.849 111.534 166.166 111.973 166.642C112.412 167.118 112.631 167.72 112.631 168.448C112.631 169.083 112.468 169.619 112.141 170.058C111.824 170.497 111.376 170.828 110.797 171.052C110.218 171.276 109.551 171.388 108.795 171.388ZM108.795 170.002C109.486 170.002 110.032 169.862 110.433 169.582C110.844 169.293 111.049 168.863 111.049 168.294C111.049 167.753 110.862 167.319 110.489 166.992C110.125 166.665 109.56 166.502 108.795 166.502C108.03 166.502 107.46 166.665 107.087 166.992C106.714 167.319 106.527 167.753 106.527 168.294C106.527 168.863 106.732 169.293 107.143 169.582C107.554 169.862 108.104 170.002 108.795 170.002ZM108.795 165.256C109.364 165.256 109.803 165.139 110.111 164.906C110.428 164.663 110.587 164.295 110.587 163.8C110.587 163.371 110.433 163.025 110.125 162.764C109.826 162.503 109.383 162.372 108.795 162.372C108.207 162.372 107.759 162.503 107.451 162.764C107.143 163.025 106.989 163.371 106.989 163.8C106.989 164.295 107.148 164.663 107.465 164.906C107.782 165.139 108.226 165.256 108.795 165.256Z" fill="black"/>
<path d="M101.012 171.164V169.092H96V167.804L100.83 161.224H102.524V167.72H103.742V169.092H102.524V171.164H101.012ZM97.722 167.72H101.012V163.324L97.722 167.72Z" fill="black"/>
<rect width="25.785" height="20.164" transform="translate(120 205)" fill="white"/>
<path d="M138.055 220.164V218.092H133.043V216.804L137.873 210.224H139.567V216.72H140.785V218.092H139.567V220.164H138.055ZM134.765 216.72H138.055V212.324L134.765 216.72Z" fill="black"/>
<path d="M125 220.164C125 219.417 125.112 218.75 125.336 218.162C125.56 217.574 125.943 217.028 126.484 216.524C127.025 216.02 127.772 215.516 128.724 215.012C129.181 214.779 129.545 214.564 129.816 214.368C130.096 214.163 130.297 213.953 130.418 213.738C130.539 213.523 130.6 213.262 130.6 212.954C130.6 212.637 130.53 212.366 130.39 212.142C130.259 211.909 130.063 211.727 129.802 211.596C129.541 211.456 129.209 211.386 128.808 211.386C128.173 211.386 127.669 211.559 127.296 211.904C126.932 212.24 126.703 212.725 126.61 213.36L125.042 213.262C125.154 212.263 125.532 211.47 126.176 210.882C126.829 210.294 127.707 210 128.808 210C129.517 210 130.119 210.126 130.614 210.378C131.118 210.621 131.501 210.961 131.762 211.4C132.033 211.839 132.168 212.347 132.168 212.926C132.168 213.43 132.084 213.864 131.916 214.228C131.748 214.592 131.468 214.933 131.076 215.25C130.684 215.558 130.152 215.889 129.48 216.244C128.621 216.701 127.973 217.154 127.534 217.602C127.095 218.041 126.862 218.433 126.834 218.778H132.168V220.164H125Z" fill="black"/>
<rect width="25.785" height="20.164" transform="translate(120 107)" fill="white"/>
<path d="M138.055 122.164V120.092H133.043V118.804L137.873 112.224H139.567V118.72H140.785V120.092H139.567V122.164H138.055ZM134.765 118.72H138.055V114.324L134.765 118.72Z" fill="black"/>
<path d="M125 122.164C125 121.417 125.112 120.75 125.336 120.162C125.56 119.574 125.943 119.028 126.484 118.524C127.025 118.02 127.772 117.516 128.724 117.012C129.181 116.779 129.545 116.564 129.816 116.368C130.096 116.163 130.297 115.953 130.418 115.738C130.539 115.523 130.6 115.262 130.6 114.954C130.6 114.637 130.53 114.366 130.39 114.142C130.259 113.909 130.063 113.727 129.802 113.596C129.541 113.456 129.209 113.386 128.808 113.386C128.173 113.386 127.669 113.559 127.296 113.904C126.932 114.24 126.703 114.725 126.61 115.36L125.042 115.262C125.154 114.263 125.532 113.47 126.176 112.882C126.829 112.294 127.707 112 128.808 112C129.517 112 130.119 112.126 130.614 112.378C131.118 112.621 131.501 112.961 131.762 113.4C132.033 113.839 132.168 114.347 132.168 114.926C132.168 115.43 132.084 115.864 131.916 116.228C131.748 116.592 131.468 116.933 131.076 117.25C130.684 117.558 130.152 117.889 129.48 118.244C128.621 118.701 127.973 119.154 127.534 119.602C127.095 120.041 126.862 120.433 126.834 120.778H132.168V122.164H125Z" fill="black"/>
<defs>
<linearGradient id="paint0_linear_1144_8796" x1="164.727" y1="168" x2="251.726" y2="255.544" gradientUnits="userSpaceOnUse">
<stop stop-color="#B7DFE4"/>
<stop offset="0.5" stop-color="white"/>
<stop offset="1" stop-color="#B7DFE4"/>
</linearGradient>
<linearGradient id="paint1_linear_1144_8796" x1="283.727" y1="168" x2="370.726" y2="255.544" gradientUnits="userSpaceOnUse">
<stop stop-color="#B7DFE4"/>
<stop offset="0.5" stop-color="white"/>
<stop offset="1" stop-color="#B7DFE4"/>
</linearGradient>
<linearGradient id="paint2_linear_1144_8796" x1="164.727" y1="77" x2="251.726" y2="164.544" gradientUnits="userSpaceOnUse">
<stop stop-color="#B7DFE4"/>
<stop offset="0.5" stop-color="white"/>
<stop offset="1" stop-color="#B7DFE4"/>
</linearGradient>
<linearGradient id="paint3_linear_1144_8796" x1="283.727" y1="77" x2="370.726" y2="164.544" gradientUnits="userSpaceOnUse">
<stop stop-color="#B7DFE4"/>
<stop offset="0.5" stop-color="white"/>
<stop offset="1" stop-color="#B7DFE4"/>
</linearGradient>
</defs>
</svg>
